<svg id="titles" xmlns="http://www.w3.org/2000/svg" viewBox="0 0 64 64"><defs><style>.cls-1{fill:#4ea2e3;}.cls-2{fill:#b8d9f4;}.cls-3{fill:#2a6dcf;}.cls-4{fill:none;stroke:#2a6dcf;stroke-miterlimit:10;stroke-width:4px;}</style></defs><title>i_debug</title><path class="cls-1" d="M45.69,26.58a7.49,7.49,0,0,1,6.74,4.6A7.22,7.22,0,0,1,53,34v4.49H50V34a4.26,4.26,0,0,0-.25-1.44,4.71,4.71,0,0,0-.68-1.26,4.31,4.31,0,0,0-1-1,4.72,4.72,0,0,0-1.34-.62q.14.68.22,1.39A12.38,12.38,0,0,1,47,32.55v6a1.86,1.86,0,0,1,0,.3l0,.3.14-.14a9.76,9.76,0,0,1,2.16,3.23,10,10,0,0,1,0,7.62,9.8,9.8,0,0,1-2.16,3.22L45,51a6.78,6.78,0,0,0,1.5-2.24A6.9,6.9,0,0,0,47,46.08,7,7,0,0,0,46.25,43a14.94,14.94,0,0,1-5.39,7.61,15.21,15.21,0,0,1-4.14,2.15,14.82,14.82,0,0,1-9.45,0,15.21,15.21,0,0,1-4.14-2.15A14.94,14.94,0,0,1,17.75,43,7,7,0,0,0,17,46.08a6.9,6.9,0,0,0,.52,2.66A6.78,6.78,0,0,0,19,51l-2.11,2.11a10,10,0,0,1-2.17-3.22,9.9,9.9,0,0,1,0-7.62A9.92,9.92,0,0,1,16.93,39l.14.14,0-.3a1.86,1.86,0,0,1,0-.3v-6a12.38,12.38,0,0,1,.08-1.42q.08-.71.22-1.39a4.72,4.72,0,0,0-1.34.62,4.31,4.31,0,0,0-1,1,4.71,4.71,0,0,0-.68,1.26A4.26,4.26,0,0,0,14,34v4.49H11V34a7.22,7.22,0,0,1,.57-2.87,7.58,7.58,0,0,1,1.56-2.35,7.55,7.55,0,0,1,5.18-2.25,16,16,0,0,1,1.88-3.16,7.32,7.32,0,0,1-2.47-.9,7.4,7.4,0,0,1-2-1.65,7.72,7.72,0,0,1-1.29-2.21A7.19,7.19,0,0,1,14,16.07V11.58h3v4.49a4.41,4.41,0,0,0,.35,1.76,4.48,4.48,0,0,0,2.39,2.39,4.41,4.41,0,0,0,1.76.35H23v.07a14.37,14.37,0,0,1,2.25-1.38,8.37,8.37,0,0,1-.55-1.56,6.76,6.76,0,0,1-.2-1.63,7.25,7.25,0,0,1,.73-3.16L21.95,9.64l2.11-2.11,3,3a8.12,8.12,0,0,1,2.31-1.42,7.27,7.27,0,0,1,5.32,0A8.12,8.12,0,0,1,37,10.5l3-3,2.11,2.11-3.28,3.28a7.25,7.25,0,0,1,.73,3.16,6.76,6.76,0,0,1-.2,1.63,8.37,8.37,0,0,1-.55,1.56q.61.3,1.16.64t1.09.74v-.07h1.5a4.41,4.41,0,0,0,1.76-.35,4.48,4.48,0,0,0,2.39-2.39A4.41,4.41,0,0,0,47,16.07V11.58h3v4.49a7.19,7.19,0,0,1-.47,2.59,7.72,7.72,0,0,1-1.29,2.21,7.4,7.4,0,0,1-2,1.65,7.32,7.32,0,0,1-2.47.9A16,16,0,0,1,45.69,26.58Z"/><path class="cls-2" d="M44,32.55a11.29,11.29,0,0,0-1-4.61,12.55,12.55,0,0,0-2.59-3.81,12.31,12.31,0,0,0-3.81-2.6,11.7,11.7,0,0,0-9.28,0,12.31,12.31,0,0,0-3.81,2.6A12.55,12.55,0,0,0,21,27.94a11.29,11.29,0,0,0-1,4.61v6a11.52,11.52,0,0,0,.95,4.66,12.14,12.14,0,0,0,6.39,6.38,12,12,0,0,0,9.33,0,12.14,12.14,0,0,0,6.39-6.38A11.52,11.52,0,0,0,44,38.54Z"/><path class="cls-2" d="M32,11.58a4.43,4.43,0,0,0-1.76.35,4.48,4.48,0,0,0-2.39,2.39,4.4,4.4,0,0,0-.35,1.75,4,4,0,0,0,.56,2.11,19.83,19.83,0,0,1,2-.41,12.95,12.95,0,0,1,4,0,19.83,19.83,0,0,1,2,.41,4,4,0,0,0,.56-2.11,4.4,4.4,0,0,0-.35-1.75,4.48,4.48,0,0,0-2.39-2.39A4.43,4.43,0,0,0,32,11.58Z"/><path class="cls-3" d="M32,4A28,28,0,1,1,4,32,28,28,0,0,1,32,4m0-4A32,32,0,1,0,64,32,32,32,0,0,0,32,0Z"/><line class="cls-4" x1="11" y1="11" x2="53" y2="53"/></svg>