<svg id="titles" xmlns="http://www.w3.org/2000/svg" viewBox="0 0 64 64"><defs><style>.cls-1{fill:#df5c2b;}.cls-2{fill:#0050c5;}.cls-3{fill:#80bceb;}.cls-4{fill:#2a6dcf;}</style></defs><title>i_get-started</title><path class="cls-1" d="M13.66,48.35S4.6,44.9,0,64c18.39-4.94,15.15-14.24,15.15-14.24Z"/><polygon class="cls-2" points="25.93 47.23 16.71 37.9 12.71 41.9 15.59 44.82 9.11 46.01 17.82 54.8 19.05 48.3 21.93 51.22 25.93 47.23"/><path class="cls-2" d="M22.59,24.52s-10-6-14.65-.68A90.29,90.29,0,0,0,.19,33.91l1.74,1.49S7.52,29.3,12,29.21c2.73-.06,7.51,2.65,7.51,2.65Z"/><path class="cls-2" d="M39.44,41.33s5.92,10.1.64,14.78A90,90,0,0,1,30,63.84l-1.47-1.76s6.1-5.58,6.22-10.11c.07-2.74-2.6-7.56-2.6-7.56Z"/><path class="cls-3" d="M17.22,37.39A51.26,51.26,0,0,1,29.78,16C37,8.73,52.84,4.46,61.4,2.59,58,17.73,53.28,28.94,47.91,34.31a50.64,50.64,0,0,1-21.3,12.47Z"/><path class="cls-4" d="M58.72,5.25c-3.19,13.06-7.56,23-12.22,27.64A49,49,0,0,1,27.18,44.52l-7.71-7.71A48.94,48.94,0,0,1,31.19,17.4c4.66-4.65,14.74-9.06,27.53-12.15M64,0c-.12.09-25.45,4.4-35.64,14.57A52.23,52.23,0,0,0,15,38L26,49A51.76,51.76,0,0,0,49.32,35.72C59.5,25.56,63.88.09,64,0Z"/><path class="cls-4" d="M64,0S50.38,2.71,40.15,7.12C35.69,9,55.11,28,57.09,23.27,61.32,13.19,64,0,64,0Z"/></svg>