<svg id="titles" xmlns="http://www.w3.org/2000/svg" viewBox="0 0 64 64"><defs><style>.cls-1{fill:#5e91da;}.cls-2{fill:#0050c5;}.cls-3{fill:#aad2f2;stroke:#2b8fde;stroke-miterlimit:10;stroke-width:3px;}</style></defs><title>i_learn-about</title><polygon class="cls-1" points="56 28.4 52 28.4 52 4 13 4 13 15.2 9 15.2 9 0 56 0 56 28.4"/><path class="cls-2" d="M11,32A10,10,0,1,1,21,22,10,10,0,0,1,11,32Zm0-16a6,6,0,1,0,6,6A6,6,0,0,0,11,16Z"/><path class="cls-2" d="M0,39.88a11,11,0,1,1,22,0l-4,0a7.09,7.09,0,0,0-7-7.14,7.08,7.08,0,0,0-7,7.14Z"/><circle class="cls-3" cx="11.1" cy="53.5" r="6"/><circle class="cls-3" cx="24.3" cy="53.5" r="6"/><circle class="cls-3" cx="36.5" cy="53.5" r="6"/><circle class="cls-3" cx="48.5" cy="53.5" r="6"/><rect class="cls-1" x="26" y="27" width="34" height="4"/></svg>