<svg xmlns="http://www.w3.org/2000/svg" viewBox="0 0 64 64"><defs><style>.cls-1{fill:#d4e8f8;}.cls-2{fill:#2a6dcf;}.cls-3{fill:#2b8fde;}</style></defs><title>i_whats-new</title><g id="Layer_1" data-name="Layer 1"><path class="cls-1" d="M26.57,46c-1-3.13-4.33-10.76-8-14-6-4.94-6-10.61-5.87-12.22V19.5c0-8.34,6.83-15.72,15.56-16.8h0s3.12-.27,4.87-.27h.11l.09.13H34.4C44.1,2.7,52,10.29,52,19.5v.63c.12,1.53,0,6.92-6,12-3.44,3-7,10.63-8,13.92Z"/><path class="cls-2" d="M32.19,4.45l.07.1,2.11,0C43,4.69,50,11.38,50,19.5v.4c0,.06,0,.19,0,.38.1,1.29,0,5.85-5.25,10.28l0,0,0,0C41.35,33.56,38.07,40,36.58,44H28c-1.45-3.94-4.65-10.45-8.12-13.51l-.05,0-.05,0c-5.19-4.28-5.21-9.09-5.09-10.47,0-.22,0-.37,0-.43,0-7.33,6-13.82,13.74-14.8.73-.06,2.41-.19,3.75-.24m.94-4C31.27.43,28,.71,28,.71,18.3,1.91,10.71,10,10.71,19.5c0,.27-1.07,7.73,6.53,14C20.7,36.54,24.3,44.8,24.83,47.2l.4.8H39.35l.4-.8c.53-2.4,4.26-10.66,7.59-13.59C54.93,27.22,54,20.16,54,19.9v-.4C54,9.24,45.21.71,34.42.58A2.73,2.73,0,0,0,33.14.43Z"/><rect class="cls-2" x="25" y="51" width="14" height="5"/><polygon class="cls-2" points="29.09 64 34.79 64 38.58 59 25.08 59 29.09 64"/><path class="cls-3" d="M37,44H34V31H31V44H28V31H24.85s-4.93-2.77-4.93-5.44a4.92,4.92,0,0,1,4.93-4.93c2.8,0,4.93,2.26,6.15,4.93V28h3V25.56s.94-4.72,4.95-4.92a5,5,0,0,1,4.87,3.18c1.28,3.35-1.37,6.64-4.6,7.18H37ZM25.74,23.47a2.25,2.25,0,0,0-2.23,2.67A2.38,2.38,0,0,0,25.78,28H28V25.74A2.43,2.43,0,0,0,25.74,23.47ZM36,25.33V28h2.67c4-1.33,1.93-4.19,0-4C37.5,24.11,36,24.16,36,25.33Z"/></g></svg>