<svg id="titles" xmlns="http://www.w3.org/2000/svg" viewBox="0 0 64 64"><defs><style>.cls-1{fill:#2a6dcf;}.cls-2{fill:#aad2f2;}.cls-3{fill:#2b8fde;}.cls-4{fill:none;stroke:#0050c5;stroke-miterlimit:10;stroke-width:3px;}</style></defs><title>i_code-performance</title><path class="cls-1" d="M15.3,55q-4.18,0-6.24-2.12T7,46.17V34.38a5.19,5.19,0,0,0-.88-3.28A3.52,3.52,0,0,0,3.2,30H2V26H3a5.52,5.52,0,0,0,1.86-.28,2.87,2.87,0,0,0,1.25-.85,3.5,3.5,0,0,0,.7-1.48A9.47,9.47,0,0,0,7,21.25V10a17.76,17.76,0,0,1,.47-4.34A8,8,0,0,1,9,2.52,6.3,6.3,0,0,1,11.54.64,10,10,0,0,1,15.3,0H17V4H15.62a6.16,6.16,0,0,0-1.89.27,3.58,3.58,0,0,0-1.46.89,4,4,0,0,0-.94,1.62A8.12,8.12,0,0,0,11,9.27v9.15a41.94,41.94,0,0,1-.27,5,6,6,0,0,1-.84,2.09,4,4,0,0,1-1.45,1.3,6.66,6.66,0,0,1-2.06.65,4.63,4.63,0,0,1,3.48,2A9.41,9.41,0,0,1,11,34.66v11a8.43,8.43,0,0,0,.33,2.55,4,4,0,0,0,.94,1.63,3.47,3.47,0,0,0,1.46.87,6.42,6.42,0,0,0,1.89.26H17v4Z"/><path class="cls-1" d="M47,55V51h1.38a6.42,6.42,0,0,0,1.89-.26,3.47,3.47,0,0,0,1.46-.87,4,4,0,0,0,.94-1.63A8.43,8.43,0,0,0,53,45.68v-11a9.41,9.41,0,0,1,1.14-5.19,4.63,4.63,0,0,1,3.48-2,6.66,6.66,0,0,1-2.06-.65,4,4,0,0,1-1.45-1.3,6,6,0,0,1-.84-2.09,41.94,41.94,0,0,1-.27-5V9.27a8.12,8.12,0,0,0-.33-2.49,4,4,0,0,0-.94-1.62,3.58,3.58,0,0,0-1.46-.89A6.16,6.16,0,0,0,48.38,4H47V0h1.7a10,10,0,0,1,3.77.64A6.3,6.3,0,0,1,55,2.52a8,8,0,0,1,1.48,3.12A17.76,17.76,0,0,1,57,10V21.25a9.47,9.47,0,0,0,.21,2.15,3.5,3.5,0,0,0,.7,1.48,2.87,2.87,0,0,0,1.25.85A5.52,5.52,0,0,0,61,26h1v4H60.8a3.52,3.52,0,0,0-2.92,1.1A5.19,5.19,0,0,0,57,34.38V46.17q0,4.6-2.06,6.71T48.7,55Z"/><path class="cls-2" d="M32,46.5A15.5,15.5,0,1,1,47.5,31,15.52,15.52,0,0,1,32,46.5Z"/><path class="cls-3" d="M32,17A14,14,0,1,1,18,31,14,14,0,0,1,32,17m0-3A17,17,0,1,0,49,31,17,17,0,0,0,32,14Z"/><polyline class="cls-4" points="31.5 21 31.5 31.5 41 31.5"/><rect class="cls-3" x="30" y="10" width="3" height="5"/><rect class="cls-3" x="25" y="7" width="13" height="3"/><rect class="cls-3" x="44.21" y="14.5" width="2.59" height="8" transform="translate(26.41 -26.75) rotate(45)"/></svg>