<svg id="titles" xmlns="http://www.w3.org/2000/svg" viewBox="0 0 64 64"><defs><style>.cls-1{fill:#5e91da;}.cls-2{fill:#0050c5;}.cls-3{fill:#fff;}</style></defs><title>i_tools</title><circle class="cls-1" cx="32" cy="32" r="32" transform="translate(-13.25 32) rotate(-45)"/><path class="cls-2" d="M34.47,12.57A11,11,0,0,1,45.71,9.82l-6.36,6.36,1,6,6,1,6.36-6.36A11.07,11.07,0,0,1,37.69,30.35a2.59,2.59,0,0,1-.47.68L16.72,51.54c-1.25,1.25-3.53,1-5.09-.57s-1.82-3.84-.57-5.09L31.57,25.37a2.59,2.59,0,0,1,.68-.47A11,11,0,0,1,34.47,12.57Zm-21.29,34a2,2,0,1,0,2.83,0,2,2,0,0,0-2.83,0h0Z"/><path class="cls-3" d="M31.34,31.75l-9.66-9.66L18,22.62l-6.4-9.19,2.83-2.83L23.62,17l-.53,3.71,9.66,9.66a3.42,3.42,0,0,1,4.3.06L51.2,44.54c1.25,1.25,1,3.53-.57,5.09s-3.84,1.82-5.09.57L31.4,36.06A3.42,3.42,0,0,1,31.34,31.75Z"/></svg>