<svg xmlns="http://www.w3.org/2000/svg" viewBox="0 0 64 64">
  <defs>
    <style>
      .cls-1 {
        fill: #fcd116;
      }

      .cls-2 {
        fill: #1e1e1e;
      }

      .cls-3 {
        fill: #fffacb;
      }
    </style>
  </defs>
  <title>logo_azure-hd-insight</title>
  <g id="Names">
    <g>
      <polygon class="cls-1" points="22.09 18.35 17.69 19.11 13.8 20.86 10.41 23 7.15 26.89 5.39 28.77 3.64 29.39 3.13 28.27 4.01 27.14 4.14 25.5 4.77 25.5 5.27 26.01 5.14 24.38 4.52 23.87 4.52 23.25 3.01 24.13 1.5 25.76 1.25 27.26 1.88 28.52 2.38 30.52 3.51 31.03 4.77 31.03 5.9 30.27 5.14 34.16 5.9 38.43 5.02 40.44 2.38 43.33 2.76 45.21 4.14 47.22 6.52 48.85 7.9 49.1 9.29 49.1 8.41 52.86 11.67 54.24 15.81 54.75 17.19 53.74 17.32 51.36 18.95 48.72 19.07 46.59 22.84 46.97 26.35 46.59 22.84 48.72 23.47 51.23 25.6 54.75 27.86 55.63 29.49 55 30.24 53.49 33.88 50.73 34.63 51.36 40.28 51.61 41.41 50.6 41.54 48.97 41.16 48.35 40.91 43.95 39.03 40.19 39.28 38.43 40.41 39.06 43.67 42.07 45.18 42.2 46.93 41.44 48.69 40.19 49.57 37.3 54.59 37.68 57.73 36.42 60.24 34.16 61.99 30.78 62.5 26.76 62.12 22.24 61.12 18.1 60.11 16.72 58.73 16.34 56.35 18.98 54.21 19.73 52.33 16.59 50.45 14.84 49.32 14.21 45.3 10.7 41.91 8.94 38.65 8.69 34.76 9.32 31.37 10.57 29.11 12.45 27.23 14.71 25.35 15.21 22.09 18.35"/>
      <polygon class="cls-2" points="5.14 26.89 5.64 27.51 5.77 26.76 5.39 26.76 5.14 26.89"/>
      <path class="cls-2" d="M62.87,22a13.91,13.91,0,0,0-1.51-5c-.13-.13-.25-.38-.38-.5a5.18,5.18,0,0,0-1.38-.88,1.86,1.86,0,0,0-1.63,0c-.13.13-.25.13-.38.25a7,7,0,0,0-.75,1A8.85,8.85,0,0,1,56,18a4.87,4.87,0,0,1-1.38.75,4.87,4.87,0,0,0-.75-1.38,11.77,11.77,0,0,0-1.13-1.51l-1-1-1.13-.75a27.94,27.94,0,0,1-3-2.38c-.38-.38-.88-.75-1.25-1.13a11.12,11.12,0,0,0-6.65-2.89,18.17,18.17,0,0,0-7.53,1.63,13.23,13.23,0,0,0-3.26,2,18,18,0,0,0-2.38,2.76,3.71,3.71,0,0,0-1.25.25,4.45,4.45,0,0,0-1.51,1,8.12,8.12,0,0,1-1.13,1h0l-1,1A27.49,27.49,0,0,0,15.06,19a18.8,18.8,0,0,0-5.4,3.26,9.44,9.44,0,0,0-1.88,2A20.44,20.44,0,0,0,6.4,26.38L5.27,27.51A2.6,2.6,0,0,1,4,28.27H4a1,1,0,0,1-.38.13v-.13a3.22,3.22,0,0,0,.75-2.38c.13.13.13.25.25.38s.13.25.25.38l.25-.25.38.13a5.26,5.26,0,0,0,.13-2,1.72,1.72,0,0,0-.63-1c0-.13.13-.13.13-.25a1.81,1.81,0,0,0,.25-.88l-.25-.13h0l.25.13.38-.25-.5.13a8.15,8.15,0,0,0-3.39,2.13,5.57,5.57,0,0,0-1,1.38A2.8,2.8,0,0,0,.5,27.39a3.77,3.77,0,0,0,.75,1.38,8,8,0,0,0,.25.88,1.78,1.78,0,0,1,.25.75,2.61,2.61,0,0,0,1.38,1.25,3.06,3.06,0,0,0,1.51,0c-.13.63-.13,1.25-.25,1.88a26.27,26.27,0,0,0,.13,3,1.59,1.59,0,0,0,.13.75c0,.25.13.5.13.75a1.78,1.78,0,0,0-.25.75A5.24,5.24,0,0,1,4,40.06l-1,1-.88.88-.25.25A1.54,1.54,0,0,0,1.25,44a17.87,17.87,0,0,0,.63,2,7.63,7.63,0,0,0,1.25,1.76,13.4,13.4,0,0,0,3.14,2,3.72,3.72,0,0,0,2,.25c0,.13,0,.25-.13.25a6.12,6.12,0,0,0-.38.88C7,52.86,7.78,53.74,9,54.24a12.34,12.34,0,0,0,2,.63c.13,0,.25.13.5.13a18.76,18.76,0,0,0,3.51.75c1.38.13,2.64-.25,3-1.51A5.52,5.52,0,0,0,18.32,53V51.86a6.72,6.72,0,0,1,.88-1.51c0-.13.13-.13.13-.25.25-.5.5-.75.5-1.13V47.47a15.19,15.19,0,0,0,2.38.13h1.25c-.13,0-.25.13-.38.13a.12.12,0,0,0-.13.13c-1.13.5-1.13,1.63-.75,2.64A6,6,0,0,0,23.59,53a9.84,9.84,0,0,0,2.51,2.89c1,.63,2.13.63,3.64-.13A2.61,2.61,0,0,0,31,54.37c.13-.13.25-.38.38-.5a18.78,18.78,0,0,1,1.88-1.51,5.31,5.31,0,0,1,.88-.63,4.18,4.18,0,0,0,.75.38,4.71,4.71,0,0,0,1.38.13h3.26a3.63,3.63,0,0,0,2.13-.38,2.17,2.17,0,0,0,1-1.88V49a1.67,1.67,0,0,0-.38-.88V45.33A6.3,6.3,0,0,0,42,43.83a6.12,6.12,0,0,0-.5-1.38c-.13-.38-.25-.63-.38-1l-.25.13h0l.25-.13h0a7.68,7.68,0,0,0-.63-1.51v-.38l.5.5.75.75a8.64,8.64,0,0,0,1.63,1.38,3,3,0,0,0,2.13.5,5,5,0,0,0,2.76-1,6.13,6.13,0,0,0,1.76-2.26c.13-.25.13-.5.25-.75s.13-.38.13-.63a14.37,14.37,0,0,0,4,.13,11.13,11.13,0,0,0,3.64-1,9.23,9.23,0,0,0,3.64-3.64h0a14.19,14.19,0,0,0,1.76-5.65C63.37,26.38,63.25,24.12,62.87,22ZM44,37.18c-.38,1.25-1,3.39.75,3.76a2.24,2.24,0,0,0,1.88-.38,3.54,3.54,0,0,1-1.63,0,1.1,1.1,0,0,1-.88-.75c.13.13.38.13.88.25a2.25,2.25,0,0,0,2.76-1.25,13,13,0,0,1,.38-1.51,8,8,0,0,0,.88.25c-.13.5-.38,1-.5,1.63a3.55,3.55,0,0,1-3.51,2.38c-1.38,0-2.13-.88-3.14-1.63-.63-.5-1.25-1.13-1.88-1.63A13.88,13.88,0,0,1,35.51,36a8.59,8.59,0,0,0,3.39,2.64,32.84,32.84,0,0,1-1.63,6c-.25,1-2.64,4.89-3.39,5.27-.5.25-3.39,2.76-4,3.14a5.63,5.63,0,0,1-1.38,1.63c-1.88,1-3.14-.88-4.14-2.51-.5-.75-1.76-2.89-.63-3.51s1.63-1,2.76-1.63a3.81,3.81,0,0,0,.63.88c0-.38-.13-.63-.13-1a3.58,3.58,0,0,1,0-1.63c0-.5.13-1.13.13-1.63-.13.63-.5,1.13-.63,1.76a1.13,1.13,0,0,0-.13.63,20.28,20.28,0,0,1-7.28.13c-.13-.88-.38-1.88-.5-2.51v4a2.86,2.86,0,0,1-.5,2c-.38.75-.63.88-1.25,2.13a10.8,10.8,0,0,1-.13,2c-.38,1.25-3.76.25-4.64,0-1.13-.25-3.39-.75-2.89-2.26a18.2,18.2,0,0,0,1.13-4.52A24.36,24.36,0,0,1,6,36.55a13.09,13.09,0,0,1,.5-6.15,16.69,16.69,0,0,1,4.39-6.9C13.8,21,16.44,20,20.71,19.36c-1,1.13-2,2.38-3.14,3.64a19.45,19.45,0,0,0-2.51,4c-1,2-1,2.76.38,4.39,1.13,1.51,1.76,2.13,2.13,3.64a8.13,8.13,0,0,0-.63,2.64c1.38,1.51,2.38,2.51,3.64,2.76a4.86,4.86,0,0,0,3.51-.38c2.51-1.25,4.89-3,7.78-3.14a13.93,13.93,0,0,0,.5-9.29,55.58,55.58,0,0,1-.75-6.4,16.36,16.36,0,0,0-.25,6.53c.5,2.76.88,5.77-.5,8.16-2.64.25-4.89,1.76-7.28,3a4.14,4.14,0,0,1-3,.25c-.75-.13-1.38-.75-2.51-2a5.83,5.83,0,0,1,.75-2.89,54.73,54.73,0,0,1,3-5.15c-1.25,1.63-2.51,3-3.51,4.52a11.7,11.7,0,0,0-1.88-3,2.64,2.64,0,0,1-.38-3.26,13.48,13.48,0,0,1,2.51-4c2-2.26,3.89-4.64,6.15-6.9A4.78,4.78,0,0,1,28,15.09c1.51-.25,2.89-.5,4.39-.88a25.62,25.62,0,0,1-4.27.38h0c1.38-1.76,2.13-2.76,4.39-3.76,5.52-2.38,9-2.64,13.3,1a30,30,0,0,0,3.26,2.64,5.52,5.52,0,0,0-1.25.25,4.78,4.78,0,0,1,1.88.13c.13.13.38.25.5.38A5.11,5.11,0,0,1,52,16.72a16.62,16.62,0,0,1,1.51,2.51c-.25-.13-.5-.13-.75-.25a.75.75,0,0,0-.5-.13,1.51,1.51,0,0,0-1,.25h0a4.09,4.09,0,0,1-1.63.5,1.39,1.39,0,0,0,1,0h.13c-.13.13-.13.38-.25.63a2.14,2.14,0,0,0,.13.88h0c0,.13.13.13.13.25-.25.13-.38.13-.63.25a12.09,12.09,0,0,1,3,0c.13.38.13.63.25,1H53a1.72,1.72,0,0,0-1.76-.13c-2.13.5-1.63,1.76-2.64,3.64,1-1.25,1-2.64,2.64-3,.38-.13.63-.25.88-.13A2.46,2.46,0,0,0,51,24.12c-.5,1.38-.13,2.38-.75,3.64.63-1.13.63-2.13,1.25-3.39.25-.38,1-1.13,1.38-1.13h.38a12.22,12.22,0,0,1,.13,2c-.13,1.13-.38,2.76-.5,3.39A9,9,0,0,0,54,25.25a9.5,9.5,0,0,0,0-3.76c-.38-1.76,1.38-1.38,2.38-2.26.75-.63,1.25-1.51,1.88-2.13s1.76.25,2,1a25,25,0,0,1,1.38,10c-.38,3.14-1.88,6.65-4.64,8.16-3.51,2-7.78.75-11.29-.38a9,9,0,0,1-1.88-1A2.82,2.82,0,0,1,44,37.18ZM40.91,49.85c-.13,1.25-.5,1.38-1.76,1.38A26.23,26.23,0,0,1,36,51.11a6.82,6.82,0,0,1-1.38-.25c1.13-.88,3.14-4.39,3.51-5.65s.88-2.38,1.13-3.64a7.08,7.08,0,0,0,.5,1.51,7.43,7.43,0,0,1,.63,2.38,24.18,24.18,0,0,0,.13,3A1.94,1.94,0,0,1,40.91,49.85ZM4.26,23.75a2,2,0,0,0-.38,1c-.38,1.38.13,2.64-1.13,3.64.63,1.13.5,1.63,1.88,1.13A5.18,5.18,0,0,0,6,28.64c-.13.5-.38,1-.5,1.51,0,.13,0,.13-.13.25-1,.38-2.26.63-2.76-.38a6.21,6.21,0,0,1-.5-1.63C.5,26.76,2.88,24.5,4.26,23.75Zm.13,1.51a.75.75,0,0,1,.13-.5c0-.13,0-.13.13-.25.38.25.38.5.5,1C4.89,25.25,4.64,25.13,4.39,25.25ZM5.65,39.94A29.66,29.66,0,0,0,9,47.22H9a8.65,8.65,0,0,1-.38,1c-1,1.38-3.51-.63-4.27-1.38a5.08,5.08,0,0,1-1.51-2.76c-.13-.63,0-.63.5-1.13l1.88-1.88ZM53.46,19.23c0,.13.13.25.13.38l-.13.13c-.13-.13-.25-.38-.38-.5ZM6.77,26.89Zm-2-3ZM1.63,28.64ZM19.2,47.09ZM49.82,37.8Zm11.29-4.27Z"/>
      <path class="cls-2" d="M56.6,20.74a4.68,4.68,0,0,0,3-3.76,6.87,6.87,0,0,1-3.26,3.26,3.09,3.09,0,0,1-2.13.13A3.25,3.25,0,0,0,56.6,20.74Z"/>
      <path class="cls-2" d="M46.56,22.49a13.05,13.05,0,0,0-1.88.25c0-.25-.13-.38-.13-.63a1.78,1.78,0,0,0-1.13-1c.38-.25.88-.5,1.25-.75-1,.5-2.13.38-3,.88S39.91,23.37,39.15,24a10.47,10.47,0,0,0,1.51-1,2.33,2.33,0,0,0,.25.88,2,2,0,0,0,.88.88A3.93,3.93,0,0,0,41.16,26,11,11,0,0,1,46.56,22.49Z"/>
      <path class="cls-2" d="M37.52,20.61a5,5,0,0,1,3.14-3.89C37.65,17.47,37.15,18.73,37.52,20.61Z"/>
      <path class="cls-2" d="M42.42,34.92c-.13.38-.13,1-.25,1.38a5.43,5.43,0,0,1,.63-1.51c.25-.5.38-.5.88-.75a11.66,11.66,0,0,0,1.25-.63c-.38,0-1,.25-1.38.25C42.67,33.79,42.54,34,42.42,34.92Z"/>
      <path class="cls-2" d="M26.35,18c-1.13,1.13-2.13,4.77-2.51,6.27.5-1.25,1.88-4.64,2.89-5.52a2.63,2.63,0,0,1,.75-.5c-.75,1.25-.63,1.51-.38,3.14a6.63,6.63,0,0,1,1.76-3.64c1-.25,2-.63,3.14-1l-3.64.38C27.23,17.35,27,17.35,26.35,18Z"/>
      <path class="cls-3" d="M41.29,24.38a.84.84,0,0,1,1.51-.75v.13a8.12,8.12,0,0,0-1.13,1,.4.4,0,0,1-.38-.38"/>
      <path class="cls-3" d="M50.57,20.74a.63.63,0,0,1,1.25,0V21a3,3,0,0,0-1,.25c-.13,0-.25-.25-.25-.5"/>
    </g>
  </g>
</svg>
