<svg id="Logos" xmlns="http://www.w3.org/2000/svg" viewBox="0 0 64 64">
  <defs>
    <style>
      .cls-1 {
        fill: #0072c6;
      }

      .cls-2 {
        fill: #2d88cc;
      }

      .cls-3 {
        fill: #fff;
      }

      .cls-4 {
        fill: #b7d332;
      }

      .cls-5 {
        fill: #7fb900;
      }
    </style>
  </defs>
  <title>logo_azure-sql-database</title>
  <g>
    <path class="cls-1" d="M8,9V55.27C8,60.15,19.05,64,32.14,64V9Z"/>
    <path class="cls-2" d="M32,64h0c13.35,0,24-4,24-8.84V8.78L32,8.92Z"/>
    <path class="cls-3" d="M55.92,8.69c0,4.73-10.73,8.69-23.9,8.69s-24-4-24-8.69S18.73,0,31.9,0s24,4,24,8.69"/>
    <path class="cls-4" d="M52,8.4c0,1.15-1.2,2.25-3.23,3.19-.57.26-1.21.51-1.91.75h0a48.88,48.88,0,0,1-14.88,2.07,47.25,47.25,0,0,1-15.35-2.27c-.56-.21-1.07-.43-1.54-.65C13.1,10.56,12,9.48,12,8.35,12,5.12,20.75,3.2,31.5,3.2S52,5.2,52,8.4Z"/>
    <path class="cls-5" d="M48.26,11.59q-.66.32-1.44.75h0a48.88,48.88,0,0,1-14.88,2.07,47.25,47.25,0,0,1-15.35-2.27c-.43-.25-.83-.47-1.2-.65,3.4-1.42,9.34-2.21,16.06-2.21S44.62,10.12,48.26,11.59Z"/>
    <path class="cls-3" d="M24.66,40.13a3.86,3.86,0,0,1-1.53,3.27,6.86,6.86,0,0,1-4.23,1.16,8,8,0,0,1-3.84-.83V40.42A5.92,5.92,0,0,0,19,41.93a2.67,2.67,0,0,0,1.6-.41,1.29,1.29,0,0,0,.56-1.1,1.53,1.53,0,0,0-.54-1.17A10,10,0,0,0,18.39,38Q15,36.38,15,33.62a3.92,3.92,0,0,1,1.48-3.2,6,6,0,0,1,3.93-1.2,9.82,9.82,0,0,1,3.6.57v3.09a5.87,5.87,0,0,0-3.41-1,2.53,2.53,0,0,0-1.52.41,1.29,1.29,0,0,0-.56,1.09A1.56,1.56,0,0,0,19,34.5a7.28,7.28,0,0,0,1.85,1.11,9.14,9.14,0,0,1,3,2A3.72,3.72,0,0,1,24.66,40.13Z"/>
    <path class="cls-3" d="M40.62,36.78a8.46,8.46,0,0,1-1.19,4.54A6.35,6.35,0,0,1,36.08,44l4.3,4H36L33,44.56a7.2,7.2,0,0,1-3.56-1,6.55,6.55,0,0,1-2.45-2.66,8.17,8.17,0,0,1-.86-3.77A8.81,8.81,0,0,1,27,33a6.65,6.65,0,0,1,2.63-2.78,7.69,7.69,0,0,1,3.89-1,7.15,7.15,0,0,1,3.67.94,6.42,6.42,0,0,1,2.51,2.68A8.47,8.47,0,0,1,40.62,36.78ZM37.1,37a5.8,5.8,0,0,0-1-3.56,3.18,3.18,0,0,0-2.69-1.31,3.38,3.38,0,0,0-2.78,1.31,5.46,5.46,0,0,0-1,3.5,5.45,5.45,0,0,0,1,3.47,3.29,3.29,0,0,0,2.72,1.3,3.34,3.34,0,0,0,2.74-1.26A5.33,5.33,0,0,0,37.1,37Z"/>
    <polygon class="cls-3" points="51.9 44.3 43.07 44.3 43.07 29.47 46.41 29.47 46.41 41.59 51.9 41.59 51.9 44.3"/>
  </g>
</svg>
