<svg id="Logos" xmlns="http://www.w3.org/2000/svg" viewBox="0 0 64 64">
  <defs>
    <style>
      .cls-1 {
        fill: #7a7a7a;
      }

      .cls-2 {
        fill: #48c8ef;
      }

      .cls-3 {
        fill: #00abec;
      }

      .cls-4 {
        fill: #84d6ef;
      }

      .cls-5 {
        opacity: 0.2;
        isolation: isolate;
      }

      .cls-6 {
        fill: #f1f1f1;
      }
    </style>
  </defs>
  <title>logo_azure-stream-analytics</title>
  <path class="cls-1" d="M55.56,40.24l1.51-3.91L64,33.94V28.39l-.76-.25-6.17-1.76-1.51-3.91L58.71,16h0L54.8,12.14l-.76.38-5.67,2.9-4-1.64L41.82,7.1H36.15l-.25.76L34,13.78l-3.91,1.51-6.68-2.9-4,3.91.38.76,1.76,3.28a19.83,19.83,0,0,1,10-2.52,20.32,20.32,0,0,1,13,5.29,29.17,29.17,0,0,1,2.39,2,9.62,9.62,0,0,1,1,1.39,9.83,9.83,0,0,1-2.52,12.6,9.65,9.65,0,0,1-10,1.39c-.38-.25-.63-.25-.76-.38h0A13.08,13.08,0,0,1,32.5,38.6c-.25,0-.38-.25-.76-.25a3.11,3.11,0,0,0-2.14,1l-.25.25h0a19,19,0,0,1-8.06,5L20.15,47l3.78,3.78.25.25.76-.38,5.67-2.9,3.91,1.51L36.66,56h5.67l.25-.76,2-5.92L48.5,47.8l6.68,2.9L59,46.54l-.38-.76Z"/>
  <path class="cls-2" d="M21.79,30.41h0a10.06,10.06,0,0,1-15.25-.25,1.06,1.06,0,0,0-1.76,0,1.43,1.43,0,0,0-.38,1,2.41,2.41,0,0,0,.38,1,12.72,12.72,0,0,0,18.9.25h0a10.11,10.11,0,0,1,15.12.38c.63.63,1.39.63,1.76,0a1.43,1.43,0,0,0,.38-1,2.41,2.41,0,0,0-.38-1A12.68,12.68,0,0,0,21.79,30.41Z"/>
  <path class="cls-3" d="M31.24,32.8a8,8,0,0,0-6,2.52l-.25.25-.25.25a14.2,14.2,0,0,1-11,4.54c-4.16,0-7.81-2-10.84-5-.63-.63-1.39-.63-1.76,0C1,35.32,1,35.57,1,36a1.7,1.7,0,0,0,.63,1.13A16.66,16.66,0,0,0,14.23,43,16.24,16.24,0,0,0,27,37.46l.25-.25.25-.25a5.71,5.71,0,0,1,4.16-1.76,5.94,5.94,0,0,1,4.16,2c.63.63,1.39.63,1.76,0a1.43,1.43,0,0,0,.38-1,2.41,2.41,0,0,0-.38-1A10.25,10.25,0,0,0,31.24,32.8Z"/>
  <path class="cls-4" d="M20.66,27.64a14.78,14.78,0,0,1,11-4.66A14.61,14.61,0,0,1,42.2,28c.63.63,1.39.63,1.76,0a1.43,1.43,0,0,0,.38-1A2.41,2.41,0,0,0,44,26a16.66,16.66,0,0,0-12.6-5.92,16.92,16.92,0,0,0-12.73,5.54l-.25.25-.25.25A5.71,5.71,0,0,1,14,27.89a5.72,5.72,0,0,1-4.16-2c-.63-.63-1.39-.63-1.76,0a1.43,1.43,0,0,0-.38,1,2.41,2.41,0,0,0,.38,1,8.09,8.09,0,0,0,12,.25l.25-.25Z"/>
  <g class="cls-5">
    <path class="cls-6" d="M32.37,38.47c-.25,0-.38-.25-.76-.25a3.11,3.11,0,0,0-2.14,1l-.25.25a19,19,0,0,1-8.06,5L20,46.91l2,2L32.37,38.47Z"/>
    <path class="cls-6" d="M21.66,20.45a19.83,19.83,0,0,1,10-2.52,20.32,20.32,0,0,1,13,5.29l1.76,1.39L56.82,14.15,54.68,12l-.76.38-5.67,2.9-3.91-1.51L41.82,7.1H36.15l-.25.76L34,13.78l-3.91,1.51-6.68-2.9-4,3.91.38.76Z"/>
  </g>
</svg>
