<svg xmlns="http://www.w3.org/2000/svg" viewBox="0 0 64 64">
  <defs>
    <style>
      .cls-1 {
        fill: #3e3e3e;
      }

      .cls-2 {
        fill: #a0a1a2;
      }

      .cls-3 {
        fill: #fff;
      }

      .cls-4 {
        fill: #b7d332;
      }

      .cls-5 {
        fill: #7fb900;
      }

      .cls-6 {
        fill: #3999c6;
      }

      .cls-7 {
        fill: #59b4d9;
      }
    </style>
  </defs>
  <title>logo_azure-datalake</title>
  <g id="Names">
    <g>
      <g>
        <path class="cls-1" d="M32.14,9V64h-.27A57.9,57.9,0,0,1,19.2,62.62c-.34-.08-.67-.15-1-.24a5,5,0,0,1-.52-.14C11.84,60.67,8,58.15,8,55.27V9Z"/>
        <path class="cls-2" d="M56,8.78V55.16c0,4.39-8.64,8-20.11,8.73h-.22c-.76,0-1.52.07-2.3.09H32V8.92Z"/>
        <path class="cls-3" d="M55.92,8.69c0,4.73-10.73,8.69-23.9,8.69s-24-4-24-8.69S18.73,0,31.9,0s24,4,24,8.69"/>
        <path class="cls-4" d="M52,8.4c0,1.15-1.2,2.25-3.23,3.19-.57.26-1.21.51-1.91.75h0a48.88,48.88,0,0,1-14.88,2.07,47.25,47.25,0,0,1-15.35-2.27c-.56-.21-1.07-.43-1.54-.65C13.1,10.56,12,9.48,12,8.35,12,5.12,20.75,3.2,31.5,3.2S52,5.2,52,8.4Z"/>
        <path class="cls-5" d="M48.26,11.59q-.66.32-1.44.75h0a48.88,48.88,0,0,1-14.88,2.07,47.25,47.25,0,0,1-15.35-2.27c-.43-.25-.83-.47-1.2-.65,3.4-1.42,9.34-2.21,16.06-2.21S44.62,10.12,48.26,11.59Z"/>
      </g>
      <path class="cls-6" d="M32,40.13V64h-.14A61.65,61.65,0,0,1,19.2,62.62c-.34-.08-.67-.15-1-.24a5,5,0,0,1-.52-.14C11.84,60.67,8,58.15,8,55.27V37.59a9.77,9.77,0,0,0,6.63,2.54,10.15,10.15,0,0,0,8.63-4.91A10.35,10.35,0,0,0,32,40.13Z"/>
      <path class="cls-7" d="M56,37.87V55.16c0,4.39-8.64,8-20.11,8.73h-.22c-.76.05-1.53.07-2.3.09H32.08V40.13a10.26,10.26,0,0,0,8.62-4.91,10.61,10.61,0,0,0,8.89,4.91A10.18,10.18,0,0,0,56,37.87Z"/>
    </g>
  </g>
</svg>
