<svg xmlns="http://www.w3.org/2000/svg" viewBox="0 0 1024 1024"><style>.icon-canvas-transparent{opacity:0;fill:#f6f6f6}.icon-white{fill:#fff}.icon-visualstudio-online{fill:#007acc}</style><path class="icon-canvas-transparent" d="M1024 0v1024H0V0h1024z" id="canvas"/><path class="icon-white" d="M968 136.824v724.449L728.195 958.82 381.199 611.902 161.871 782.824 56 729.887V270.113l105.926-52.965L380.23 389.144 728.137 41.236 968 136.824z" id="outline"/><g id="iconBg"><path class="icon-visualstudio-online" d="M732 60L381.492 410.508 160 236l-88 44v440l88 44 222.516-173.406L732 940l220-89.492V147.672L732 60zM160 636V368l132 132-132 136zm572 42.984L500.813 500 732 321.016v357.968z"/></g></svg>