<svg id="ICONS" xmlns="http://www.w3.org/2000/svg" viewBox="0 0 400 140">
  <defs>
    <style>
      .cls-1 {
        fill: #ff9f2b;
      }

      .cls-2 {
        fill: #ff8c00;
      }

      .cls-3 {
        fill: #556a8a;
      }

      .cls-4, .cls-8 {
        fill: #fff;
      }

      .cls-5 {
        fill: #e5e5e5;
      }

      .cls-6 {
        fill: #5c2d91;
      }

      .cls-7 {
        fill: none;
      }

      .cls-7, .cls-8 {
        stroke: #556a8a;
        stroke-miterlimit: 10;
        stroke-width: 2px;
      }
    </style>
  </defs>
  <title>vs-subscription-temp</title>
  <g>
    <g>
      <g>
        <path class="cls-1" d="M157.64,115c-1.21.4-2.51.77-3.85,1.13,8.08-33.55,24-27.48,24-27.48l2.6,2.46.1.32C181,93.69,183.2,106.93,157.64,115Z"/>
        <path class="cls-2" d="M157.64,115c7.9-27.62,21.47-24,22.85-23.57C181,93.69,183.2,106.93,157.64,115Z"/>
        <polygon class="cls-3" points="181.74 97.81 170.45 86.52 179.49 84.26 183.72 88.51 181.74 97.81"/>
      </g>
      <polygon class="cls-3" points="184 72.8 153.52 71.67 149 67.15 174.97 54.73 185.82 58.81 184 72.8"/>
      <polygon class="cls-3" points="196.9 82 198.03 112.48 202.54 117 214.96 91.03 210.88 80.18 196.9 82"/>
      <g>
        <path class="cls-4" d="M190.82,95.45h-.34l-.27-.25L174.12,78.42l.07-.4c0-.17,3.06-17.24,18.28-32.39,14.6-14.52,48.65-20.63,50.1-20.88l1.11-.19-.18,1.11s-.59,3.55-1.81,8.71c-3.31,13.95-9.25,32.57-18.73,42.09C208.2,91.32,192.17,95.45,190.82,95.45Z"/>
        <path class="cls-5" d="M240.81,36.35c-2.7,11.35-8.56,31-18.52,41-14.72,14.82-30.74,17.9-31.57,18.06l-9-9S184.61,70,199.82,54.86C209.82,44.91,229.44,39.05,240.81,36.35Z"/>
        <path class="cls-6" d="M244,24.08s-11.74,1.76-29.22,8.7l21.39,21.39C241.19,40.63,244,24.08,244,24.08Z"/>
        <path class="cls-7" d="M190.82,95.45h-.34l-.27-.25L174.12,78.42l.07-.4c0-.17,3.06-17.24,18.28-32.39,14.6-14.52,48.65-20.63,50.1-20.88l1.11-.19-.18,1.11s-.59,3.55-1.81,8.71c-3.31,13.95-9.25,32.57-18.73,42.09C208.2,91.32,192.17,95.45,190.82,95.45Z"/>
      </g>
    </g>
    <circle class="cls-8" cx="206.48" cy="61.12" r="7.98"/>
  </g>
</svg>
