<?xml version="1.0" encoding="utf-8"?>
<!-- Generator: Adobe Illustrator 20.1.0, SVG Export Plug-In . SVG Version: 6.00 Build 0)  -->
<svg version="1.1" id="Layer_1" xmlns="http://www.w3.org/2000/svg" xmlns:xlink="http://www.w3.org/1999/xlink" x="0px" y="0px"
	 viewBox="0 0 415 140" style="enable-background:new 0 0 415 140;" xml:space="preserve">
<style type="text/css">
	.st0{fill:#C7C7C7;}
	.st1{fill:#B2D7F0;}
	.st2{fill:#919191;}
	.st3{fill:#447995;}
	.st4{fill:none;stroke:#447995;stroke-width:2;stroke-miterlimit:10;}
	.st5{fill:none;stroke:#447995;stroke-width:2;stroke-miterlimit:10;stroke-dasharray:4.2976,4.2976;}
	.st6{fill:#FFFFFF;}
	.st7{fill:#E4EDF1;}
	.st8{fill:#E3E3E3;}
	.st9{fill:#5E5E5E;}
	.st10{fill:#2E2E2E;}
	.st11{fill:#7CABC2;}
	.st12{fill:#96BCCE;}
	.st13{fill:#2C3E50;}
	.st14{clip-path:url(#SVGID_2_);fill:#447995;}
	
		.st15{fill-rule:evenodd;clip-rule:evenodd;fill:none;stroke:#E3E3E3;stroke-width:1.3089;stroke-linecap:round;stroke-linejoin:round;stroke-miterlimit:10;stroke-dasharray:1.3089,2.6179;}
	.st16{fill:#5D5D5D;}
	.st17{fill:none;stroke:#909090;stroke-width:1.1744;stroke-miterlimit:10;stroke-dasharray:2.3488,3.5233;}
	.st18{fill:#395B71;}
	.st19{fill-rule:evenodd;clip-rule:evenodd;fill:#395B71;}
	.st20{fill-rule:evenodd;clip-rule:evenodd;fill:#2E2E2E;}
	.st21{fill:#2C3E58;}
	.st22{fill:#4889A8;}
	.st23{fill:#929090;}
	.st24{fill:#96BBCD;}
	.st25{fill:#3A5C71;}
	.st26{fill:#757575;}
	.st27{fill:#682A7A;}
	.st28{fill:#478AA9;}
	.st29{fill:#672A79;}
	.st30{fill:#334D63;}
	.st31{fill:#5D5F5E;}
	.st32{fill:#FAB516;}
	.st33{fill:#F5891F;}
	.st34{fill:#CB6D29;}
	.st35{opacity:0.41;fill:#929090;}
	.st36{clip-path:url(#SVGID_4_);}
	.st37{clip-path:url(#SVGID_6_);}
	.st38{fill:#FE8B0C;}
	.st39{fill:#231F20;}
	.st40{fill:#909090;}
	.st41{fill:none;stroke:#909090;stroke-miterlimit:10;stroke-dasharray:2,2;}
	.st42{fill-rule:evenodd;clip-rule:evenodd;fill:#478AA9;}
	.st43{clip-path:url(#SVGID_8_);}
	.st44{clip-path:url(#SVGID_10_);}
	.st45{fill:#7DB912;}
	.st46{fill:#3B77AD;}
	.st47{fill:#F7CD13;}
	.st48{fill:#464646;}
	.st49{fill:#929497;}
	.st50{fill:#A6A8AB;}
	.st51{fill:#2F75BB;}
	.st52{fill:none;stroke:#757575;stroke-width:0.5023;stroke-miterlimit:10;}
	.st53{fill:#ACACAC;}
	.st54{fill:#3C88C6;}
	.st55{fill:#E4CB58;}
	.st56{fill:#58595B;}
	.st57{fill:#007ACC;}
	.st58{fill:#DB58DB;}
	.st59{fill:#B4079C;}
	.st60{fill:#9A37AF;}
	.st61{fill:#721481;}
	.st62{fill:#73AA24;}
	.st63{fill:#05930C;}
	.st64{fill:#2581BF;}
	.st65{fill:#004E8C;}
	.st66{fill:#D9DCE1;}
	.st67{fill:none;stroke:#909090;stroke-width:0.9199;stroke-miterlimit:10;}
	.st68{fill:none;stroke:#909090;stroke-width:0.9494;stroke-miterlimit:10;}
	.st69{fill:none;stroke:#909090;stroke-width:0.8988;stroke-miterlimit:10;}
	.st70{fill:none;stroke:#909090;stroke-width:0.8481;stroke-miterlimit:10;}
	.st71{fill:none;stroke:#909090;stroke-width:0.7975;stroke-miterlimit:10;}
	.st72{fill:none;stroke:#909090;stroke-width:0.7469;stroke-miterlimit:10;}
	.st73{fill:none;stroke:#909090;stroke-width:0.6963;stroke-miterlimit:10;}
	.st74{fill:#CADEE6;}
	.st75{fill:none;stroke:#447995;stroke-miterlimit:10;}
	.st76{fill:#FFFFFF;stroke:#96BCCE;stroke-width:0.75;stroke-miterlimit:10;}
	.st77{clip-path:url(#SVGID_12_);}
	.st78{fill:#08BBF1;}
	.st79{fill:#0AA5E2;}
	.st80{fill:#181717;}
	.st81{fill:#F3AF21;}
	.st82{fill:none;stroke:#5D5D5D;stroke-width:0.8345;stroke-miterlimit:10;}
	.st83{fill:none;stroke:#5D5D5D;stroke-width:1.3526;stroke-miterlimit:10;}
	.st84{fill-rule:evenodd;clip-rule:evenodd;fill:#7DB912;}
	.st85{fill:#333333;}
	.st86{fill:none;stroke:#FFFFFF;stroke-width:0.2247;stroke-linecap:round;stroke-linejoin:round;stroke-miterlimit:10;}
	.st87{fill:#737374;}
	.st88{fill:#515050;}
	.st89{fill:none;stroke:#000000;stroke-width:0.4495;stroke-miterlimit:1;}
	.st90{fill:none;}
	.st91{fill:#619BB5;}
	.st92{fill:none;stroke:#395B71;stroke-width:0.234;stroke-miterlimit:10;}
	.st93{fill:#32383D;}
	.st94{fill:#00BCF2;}
	.st95{fill:#2C2737;}
	.st96{fill:#201D29;}
	.st97{fill:#22BAED;}
	.st98{fill:#221F1F;}
	.st99{clip-path:url(#SVGID_14_);}
	.st100{clip-path:url(#SVGID_16_);}
	.st101{fill:#5E615F;}
	.st102{fill:none;stroke:#767676;stroke-width:0.199;stroke-miterlimit:10;}
	.st103{fill:#699F63;}
	.st104{fill-rule:evenodd;clip-rule:evenodd;fill:#333333;}
	.st105{fill-rule:evenodd;clip-rule:evenodd;fill:#699F63;}
	.st106{clip-path:url(#XMLID_3_);}
	.st107{fill:url(#SVGID_17_);}
	.st108{fill:url(#SVGID_18_);}
	.st109{fill:url(#SVGID_19_);}
	.st110{fill:url(#SVGID_20_);}
	.st111{fill:url(#SVGID_21_);}
	.st112{fill:url(#SVGID_22_);}
	.st113{fill:#00890B;}
	.st114{fill:#B0CDDA;}
	.st115{clip-path:url(#SVGID_24_);}
	.st116{fill:#515150;}
	.st117{fill:#171717;}
	.st118{fill:#457994;}
	.st119{fill:#F16424;}
	.st120{fill:#8B6AB1;}
	.st121{fill:#5C2D91;}
	.st122{clip-path:url(#SVGID_26_);fill:#447995;}
	.st123{fill:#B8D71C;}
	.st124{fill:#2B2B2B;}
	.st125{clip-path:url(#SVGID_28_);}
	.st126{fill:#BAD80A;}
	.st127{fill:#F58B20;}
	.st128{clip-path:url(#SVGID_30_);}
	.st129{clip-path:url(#SVGID_32_);}
	.st130{fill:none;stroke:#BAD80A;stroke-width:3.0831;stroke-miterlimit:10;}
	.st131{clip-path:url(#SVGID_34_);}
	.st132{fill:#FF8C00;}
	.st133{fill:#E73F24;}
	.st134{fill:#F58B23;}
	.st135{fill:#ADADAD;}
	.st136{fill:#959595;}
	.st137{fill:#474748;}
	.st138{fill:#6D6E70;}
	.st139{fill:#1772B8;}
	.st140{fill:#767778;}
	.st141{fill:#A86527;}
	.st142{fill:#048273;}
	.st143{fill:none;stroke:#6D6E70;stroke-miterlimit:10;}
	.st144{opacity:0.3;fill:#929090;}
	.st145{fill:#8FD4EF;}
	.st146{fill:#FFFFFF;stroke:#B0CDDA;stroke-miterlimit:10;}
	.st147{fill-rule:evenodd;clip-rule:evenodd;fill:#909090;}
	.st148{fill-rule:evenodd;clip-rule:evenodd;fill:#757575;}
	.st149{fill:#FFCD49;}
	.st150{fill:#CF5BC0;}
	.st151{fill:#7953A5;}
	.st152{fill:#A3D4EF;}
	.st153{fill:#539B00;}
</style>
<g>
	<path class="st0" d="M277.022,21.227c-13.674,0-24.706,3.956-32.797,11.76l-31.65,27.906l-1.498-1.323v0.253l-25.111-22.141
		C177.36,30.176,163.614,21.227,147,21.227c-28.122,0-51,22.878-51,51s22.878,51,51,51c13.695,0,27.069-5.673,39.749-16.861
		l25.826-22.806l2.238,1.973V85.3l27.297,24.104c9.49,8.914,21.882,13.822,34.911,13.822c28.122,0,51-22.878,51-51
		S305.144,21.227,277.022,21.227z M175.625,93.758c-9.651,8.516-19.014,12.655-28.625,12.655c-18.851,0-34.187-15.336-34.187-34.187
		S128.149,38.04,147,38.04c11.405,0,21.474,6.696,27.88,12.284l24.985,22.03L175.625,93.758z M277.022,106.414
		c-8.767,0-17.103-3.314-23.473-9.332l-0.209-0.191L225.277,72.11l30.376-26.783l0.152-0.148c4.924-4.803,11.863-7.138,21.217-7.138
		c18.851,0,34.187,15.336,34.187,34.187S295.873,106.414,277.022,106.414z"/>
	<path class="st123" d="M210.33,85.491l14.947-13.381l30.376-26.783l0.152-0.148c4.924-4.803,11.863-7.138,21.217-7.138
		c18.663,0,33.871,15.034,34.173,33.626h16.82c-0.302-27.864-23.059-50.44-50.993-50.44c-13.674,0-24.706,3.956-32.797,11.76
		l-29.149,25.701l-0.263,0.274l-14.948,13.39l-24.241,21.405c-9.651,8.516-19.014,12.655-28.625,12.655
		c-18.663,0-33.871-15.034-34.173-33.626h-16.82c0.302,27.864,23.059,50.44,50.993,50.44c13.695,0,27.069-5.673,39.749-16.861
		l23.499-20.751C210.301,85.533,210.33,85.491,210.33,85.491z"/>
	<path class="st1" d="M274.403,97.164c0.239,0.847,1.062,1.164,1.618,1.188l3.626-0.113c0.848-0.24,1.43-0.772,1.481-1.885
		l0.204-4.447c0.077-1.669,0.66-2.2,1.797-2.706c0.581-0.53,1.428-0.771,2.01-1.303c0.846-0.239,1.696-0.481,3.047,0.415
		l4.053,2.693c0.822,0.316,1.669,0.075,1.96-0.191l2.644-2.944c0.291-0.266,0.342-1.379-0.454-2.251l-3.182-3.486
		c-1.062-1.164-0.745-1.986-0.431-2.806l-0.266-0.291c0.582-0.531,0.901-1.354,0.927-1.908c0.051-1.113,0.658-2.202,2.617-2.389
		l4.21-0.649c1.139-0.506,1.454-1.327,1.479-1.882l-0.376-3.919c0.025-0.557-0.77-1.429-1.616-1.186l-4.45-0.204
		c-1.669-0.075-2.464-0.945-2.704-1.793c-0.531-0.581-0.77-1.429-1.3-2.009c-0.24-0.847-0.481-1.694,0.152-3.336l2.669-3.501
		c0.607-1.089,0.369-1.935-0.163-2.517l-2.97-2.084c-0.53-0.581-1.644-0.632-2.224-0.102l-3.225,3.477
		c-1.163,1.061-2.277,1.011-3.096,0.697c-0.822-0.316-1.644-0.632-2.201-0.657l-0.266-0.291c-0.82-0.314-1.642-0.63-2.122-2.324
		l-0.615-4.766c-0.24-0.847-1.062-1.164-1.616-1.186l-3.922,0.38c-0.557-0.025-1.427,0.769-1.187,1.617l-0.498,4.716
		c-0.075,1.666-0.657,2.198-1.504,2.439c-0.582,0.531-1.428,0.771-2.012,1.304c-1.138,0.505-1.984,0.744-3.335-0.152l-3.765-2.956
		c-0.822-0.316-1.67-0.076-2.25,0.453l-2.645,2.948c-0.024,0.556-0.339,1.377,0.457,2.249l3.182,3.486
		c1.062,1.164,1.302,2.011,0.428,2.808c-0.025,0.557-0.343,1.379-0.394,2.491c-0.318,0.821-0.633,1.642-2.592,1.832l-4.5,0.91
		c-0.848,0.24-1.164,1.063-1.191,1.619l0.378,3.917c-0.029,0.558,0.768,1.431,1.327,1.453l4.739-0.063
		c1.668,0.076,2.196,0.655,2.438,1.502c0.505,1.138,1.036,1.72,1.274,2.566c0.796,0.872,0.744,1.985,0.137,3.073l-2.959,3.768
		c-0.317,0.819-0.077,1.666,0.453,2.247l2.679,2.351c0.531,0.581,1.643,0.633,2.225,0.102l3.225-3.477
		c1.164-1.063,2.275-1.012,3.096-0.697c0.821,0.317,1.642,0.633,2.466,0.948c1.111,0.051,1.642,0.633,2.122,2.324L274.403,97.164
		 M285.326,71.745c0.326,5.031-3.506,9.593-8.829,10.19c-5.324,0.595-9.885-3.233-10.182-8.82c-0.327-5.03,3.507-9.593,8.538-9.922
		C280.174,62.598,284.734,66.424,285.326,71.745"/>
	<path class="st1" d="M169.324,56.702c0.451-0.411,0.34-1.134,0.066-1.434l-1.917-2.1c-0.274-0.3-0.847-0.327-1.434-0.065
		l-3.264,2.154c-0.697-0.465-1.532-1.076-2.23-1.54l1.048-3.98c0.161-0.424-0.099-1.011-0.523-1.174l-2.393-1.114
		c-0.562-0.314-1.148-0.052-1.312,0.371l-2.318,3.49c-0.848-0.326-1.696-0.651-2.558-0.69l-0.389-4.045
		c0.027-0.574-0.384-1.024-0.959-1.05l-2.733,0.02c-0.424-0.162-0.874,0.249-1.037,0.673l-0.909,4.129
		c-0.861-0.038-1.736,0.21-2.609,0.457l-1.988-3.684c-0.274-0.301-0.835-0.613-1.272-0.489l-2.637,1.031
		c-0.436,0.123-0.75,0.684-0.626,1.122l0.826,3.92c-0.738,0.398-1.488,1.083-2.225,1.482l-3.189-2.588
		c-0.274-0.301-0.848-0.326-1.298,0.085l-1.952,1.781c-0.45,0.411-0.477,0.985-0.203,1.285l2.287,3.411
		c-0.614,0.835-1.365,1.52-1.692,2.368l-3.965-1.329c-0.575-0.026-1.012,0.097-1.325,0.658l-1.118,2.396
		c-0.162,0.423-0.052,1.147,0.508,1.46l3.353,2.165c-0.326,0.848-0.367,1.709-0.694,2.558l-4.044,0.393
		c-0.437,0.124-0.887,0.535-0.915,1.109l-0.119,2.583c-0.027,0.574,0.385,1.025,0.808,1.187l4.143,0.619
		c0.097,1.012,0.194,2.023,0.441,2.897l-3.687,1.989c-0.437,0.125-0.751,0.686-0.49,1.273l0.893,2.485
		c0.123,0.437,0.685,0.75,1.258,0.776l4.072-0.967c0.398,0.737,0.794,1.475,1.193,2.211l-2.592,3.192
		c-0.164,0.424-0.19,0.998,0.084,1.298l1.917,2.1c0.274,0.3,0.984,0.476,1.285,0.202l3.415-2.291c0.697,0.464,1.532,1.076,2.23,1.54
		l-1.046,3.979c-0.163,0.424,0.096,1.011,0.521,1.174l2.53,1.266c0.424,0.163,0.861,0.038,1.312-0.374l2.168-3.353
		c0.861,0.038,1.71,0.364,2.571,0.403l0.238,4.181c0.124,0.438,0.535,0.888,1.109,0.913l2.72,0.267
		c0.438-0.124,0.888-0.535,1.051-0.959l0.76-3.991c1.011-0.099,1.886-0.347,2.897-0.445l1.852,3.535
		c0.26,0.588,0.835,0.613,1.272,0.489l2.485-0.894c0.587-0.262,0.901-0.823,0.778-1.26l-0.826-3.92
		c0.738-0.399,1.474-0.797,2.225-1.482l3.19,2.59c0.41,0.449,0.985,0.475,1.435,0.065l1.952-1.781
		c0.45-0.411,0.476-0.985,0.066-1.435l-2.289-3.413c0.75-0.685,1.215-1.382,1.691-2.367l3.966,1.329
		c0.424,0.163,1.01-0.097,1.174-0.521l1.267-2.532c0.163-0.425-0.097-1.011-0.371-1.311l-3.49-2.314
		c0.327-0.849,0.504-1.561,0.544-2.421l4.194-0.53c0.437-0.123,0.888-0.535,0.901-0.822l0.132-2.87
		c0.027-0.574-0.384-1.024-0.959-1.05l-3.992-0.755c-0.097-1.012-0.058-1.873-0.304-2.747l3.399-2.004
		c0.589-0.26,0.901-0.822,0.64-1.408l-0.892-2.486c-0.123-0.437-0.684-0.75-1.271-0.49l-4.059,0.681
		c-0.398-0.737-0.794-1.475-1.193-2.211L169.324,56.702 M151.617,69.565c1.642,1.799,1.524,4.383-0.277,6.027
		c-1.651,1.507-4.236,1.39-5.878-0.409c-1.506-1.651-1.524-4.384,0.127-5.892C147.39,67.647,150.11,67.915,151.617,69.565"/>
</g>
<g>
	<circle class="st28" cx="66.502" cy="70.725" r="49.498"/>
	<g id="green_bottle">
		<path class="st6" d="M73.479,56.642V38.241h2.993c1.379,0,2.507-1.128,2.507-2.507c0-1.379-1.128-2.507-2.507-2.507H56.531
			c-1.379,0-2.507,1.128-2.507,2.507c0,1.379,1.128,2.507,2.507,2.507h2.993v18.401c0,0-13.165,46.968-13.165,48.786
			c0,1.817,1.178,2.617,2.617,2.617h35.052c1.439,0,2.617-0.581,2.617-2.617C86.644,103.393,73.479,56.642,73.479,56.642z"/>
		<g>
			<defs>
				<path id="SVGID_27_" d="M73.479,56.642V38.241h2.993c1.379,0,2.507-1.128,2.507-2.507c0-1.379-1.128-2.507-2.507-2.507H56.531
					c-1.379,0-2.507,1.128-2.507,2.507c0,1.379,1.128,2.507,2.507,2.507h2.993v18.401c0,0-13.165,46.968-13.165,48.786
					c0,1.817,1.178,2.617,2.617,2.617h35.052c1.439,0,2.617-0.581,2.617-2.617C86.644,103.393,73.479,56.642,73.479,56.642z"/>
			</defs>
			<clipPath id="SVGID_2_">
				<use xlink:href="#SVGID_27_"  style="overflow:visible;"/>
			</clipPath>
			<g style="clip-path:url(#SVGID_2_);">
				<g>
					<path class="st126" d="M84.853,108.927H43.43c-2.675,0-8.917-2.189-8.917-4.864v-8.261c0-2.675,2.189-4.864,4.864-4.864h49.529
						c2.675,0,4.864,2.189,4.864,4.864l-4.053,8.261C89.717,106.738,87.528,108.927,84.853,108.927z"/>
					<g>
						<circle class="st126" cx="62.595" cy="90.319" r="3.906"/>
						<circle class="st126" cx="57.11" cy="90.177" r="3.843"/>
						<circle class="st126" cx="53.409" cy="91.071" r="3.974"/>
						<circle class="st126" cx="67.037" cy="88.808" r="2.998"/>
						<circle class="st126" cx="70.457" cy="89.885" r="2.998"/>
						<circle class="st126" cx="75.542" cy="90.893" r="4.713"/>
						<circle class="st126" cx="81.139" cy="91.341" r="4.713"/>
					</g>
					<g>
						<circle class="st126" cx="59.023" cy="81.279" r="2.267"/>
						<circle class="st126" cx="62.671" cy="69.829" r="1.826"/>
						<circle class="st126" cx="71.588" cy="77.631" r="2.267"/>
						<circle class="st126" cx="69.561" cy="61.553" r="1.826"/>
						<circle class="st126" cx="65.228" cy="50.88" r="1.274"/>
					</g>
				</g>
			</g>
		</g>
		<path class="st90" d="M73.479,56.642V38.241h2.993c1.379,0,2.507-1.128,2.507-2.507c0-1.379-1.128-2.507-2.507-2.507H56.531
			c-1.379,0-2.507,1.128-2.507,2.507c0,1.379,1.128,2.507,2.507,2.507h2.993v18.401c0,0-13.165,46.968-13.165,48.786
			c0,1.817,1.178,2.617,2.617,2.617h35.052c1.439,0,2.617-0.581,2.617-2.617C86.644,103.393,73.479,56.642,73.479,56.642z"/>
	</g>
</g>
<g>
	<g>
		<path class="st11" d="M375.426,113.227h-63.443c-1.27,0-2.3-1.03-2.3-2.3V34.65c0-1.27,1.03-2.3,2.3-2.3h63.443
			c1.27,0,2.3,1.03,2.3,2.3v76.277C377.727,112.197,376.697,113.227,375.426,113.227z"/>
		<path class="st10" d="M360.171,27.749h-8.887c-0.255-4.317-3.803-7.749-8.184-7.749c-4.381,0-7.928,3.432-8.184,7.749h-8.645
			c-2.34,0-4.238,1.897-4.238,4.238v8.354h42.376v-8.354C364.408,29.646,362.511,27.749,360.171,27.749z M343.301,31.098
			c-1.739,0-3.148-1.409-3.148-3.148s1.409-3.148,3.148-3.148c1.739,0,3.148,1.409,3.148,3.148S345.04,31.098,343.301,31.098z"/>
		<g>
			<g>
				<rect x="329.554" y="49.593" class="st6" width="36.984" height="3.999"/>
			</g>
			<g>
				<rect x="318.586" y="49.593" class="st6" width="7.142" height="3.999"/>
			</g>
		</g>
		<g>
			<g>
				<rect x="329.554" y="59.563" class="st6" width="36.984" height="3.999"/>
			</g>
			<g>
				<rect x="318.586" y="59.563" class="st6" width="7.142" height="3.999"/>
			</g>
		</g>
		<g>
			<g>
				<rect x="329.554" y="69.532" class="st6" width="36.984" height="3.999"/>
			</g>
			<g>
				<rect x="318.586" y="69.532" class="st6" width="7.142" height="3.999"/>
			</g>
		</g>
	</g>
	<g>
		<circle class="st127" cx="373.268" cy="80.837" r="22.732"/>
		<polygon class="st124" points="386.027,69.464 389.541,72.979 368.502,94.018 358.065,83.586 361.58,80.071 368.502,86.988 		"/>
	</g>
</g>
</svg>
