<svg id="Layer_2" data-name="Layer 2" xmlns="http://www.w3.org/2000/svg" xmlns:xlink="http://www.w3.org/1999/xlink" viewBox="0 0 400 140"><defs><style>.cls-1,.cls-10,.cls-11,.cls-4,.cls-5,.cls-9{fill:none;}.cls-2{fill:#9fcb9f;}.cls-3{clip-path:url(#clip-path);}.cls-4,.cls-5{stroke:#fff;stroke-linecap:round;stroke-linejoin:round;stroke-width:1.54px;opacity:0.3;}.cls-4,.cls-8,.cls-9{fill-rule:evenodd;}.cls-6{fill:#464646;}.cls-7{fill:#231f20;}.cls-8{fill:#2b5c72;}.cls-10,.cls-11,.cls-9{stroke:#2b5c72;stroke-miterlimit:10;stroke-width:0.72px;}.cls-11{stroke-dasharray:0.72 0.72;}.cls-12,.cls-13{fill:#fff;}.cls-12{opacity:0.25;}.cls-14{fill:#e4edf1;}.cls-15{fill:#221f1f;}</style><clipPath id="clip-path"><rect class="cls-1" x="139.87" y="19.34" width="154.26" height="84.27"/></clipPath></defs><title>vs_gaming-2</title><rect class="cls-2" x="139.87" y="19.34" width="154.26" height="84.27"/><g class="cls-3"><polyline class="cls-4" points="168.42 104.44 168.42 56.29 190.26 56.29"/><polyline class="cls-4" points="242.33 19.62 242.33 43.41 222.45 43.41 222.45 65.25 193.62 65.25 193.62 90.45 153.3 90.45 153.3 105.56"/><path class="cls-4" d="M138.75,79.25h14.84V61.05c0-7.84,3.64-17.92,17.36-17.92h27.44c9,0,18.48-5,18.48-14.84v-16"/><line class="cls-5" x1="188.86" y1="43.13" x2="188.86" y2="19.9"/><polyline class="cls-4" points="168.98 43.13 168.98 30.82 150.5 30.82"/><path class="cls-4" d="M206.5,105.84V89.33c0-9,1.68-14.84,17.36-14.84h59.91V26.06h14"/><polyline class="cls-4" points="226.65 104.44 226.65 86.53 244.57 86.53 244.57 54.05 299.16 54.05"/><path class="cls-4" d="M292.72,95.21H281c-10.64,0-18.48-3.08-18.48-16V33.34"/></g><polygon class="cls-6" points="249.4 121.28 183.92 121.28 187.75 116.93 245.56 116.93 249.4 121.28"/><path class="cls-7" d="M246.81,123.71H186.62a2.57,2.57,0,0,1-2.83-2.45H249.4S249.73,123.71,246.81,123.71Z"/><polygon class="cls-7" points="230.85 118.47 202.46 118.47 204.76 105.42 228.55 105.42 230.85 118.47"/><polygon class="cls-6" points="279.31 133.59 155.64 133.59 162.88 125.37 272.06 125.37 279.31 133.59"/><polygon class="cls-7" points="267.96 131.09 166.99 131.09 170.54 126.33 264.41 126.33 267.96 131.09"/><path class="cls-7" d="M274.42,136.64H160.74c-5.25,0-5.34-3.08-5.34-3.08H279.31S279.95,136.64,274.42,136.64Z"/><path class="cls-8" d="M202,100.92l.17-1a9.3,9.3,0,0,0-1.75-8.71l2.22-13.66a3.19,3.19,0,0,0-6.09-1.88L191.37,88a9.31,9.31,0,0,0-7,6.38l-2.71,6.51Z"/><path class="cls-7" d="M292.86,17.95H139.94a3.54,3.54,0,0,0-3.54,3.54v81.68a3.54,3.54,0,0,0,3.54,3.54H292.86a3.54,3.54,0,0,0,3.54-3.54V21.48A3.54,3.54,0,0,0,292.86,17.95ZM291,100.52H141.62v-78H291Z"/><path class="cls-9" d="M197.85,51.46A9.74,9.74,0,1,0,210,45,9.74,9.74,0,0,0,197.85,51.46Z"/><line class="cls-10" x1="194.96" y1="50.57" x2="200.53" y2="52.29"/><line class="cls-10" x1="213.67" y1="56.34" x2="219.23" y2="58.05"/><line class="cls-10" x1="209.03" y1="47.69" x2="210.75" y2="42.13"/><line class="cls-10" x1="206.1" y1="57.22" x2="207.81" y2="51.65"/><line class="cls-11" x1="201.98" y1="70.56" x2="205.47" y2="59.24"/><line class="cls-10" x1="204.26" y1="53.44" x2="209.82" y2="55.15"/><polygon class="cls-12" points="290.65 68.38 290.65 23 245.27 23 290.65 68.38"/><path class="cls-13" d="M138.6,3.36a35,35,0,1,1-35,35,35,35,0,0,1,35-35"/><polygon class="cls-14" points="134.33 22.02 126.39 24.67 115.79 35.27 118.44 43.22 128.13 52.9 150.23 59.11 156.49 53.22 157.21 40.31 152.88 22.02 152.88 14.08 134.33 22.02"/><path class="cls-15" d="M157.06,38.23l3-5.23-5.78-21.57-21.76,6.11-2.88,5H123L107.11,38.31l16.11,15.86h6.57L133,59.6l21.6,5.69,5.5-21.92ZM129.56,24l16.78-4.28-9.19,16.06H118.24Zm.17,28.88L118.26,41.05h19.17L146.79,57Zm21.56,1.38-9.46-16.09,9.07-15.86,4.76,16.18Z"/></svg>