<svg id="Layer_2" data-name="Layer 2" xmlns="http://www.w3.org/2000/svg" viewBox="0 0 400 140"><defs><style>.cls-1{fill:#2e2e2e;}.cls-2{fill:#96bcce;}.cls-3{fill:#5d5f5e;}.cls-4,.cls-8{fill:#fff;}.cls-4{opacity:0.25;}.cls-5{fill:#757575;}.cls-6{fill:#633ba3;}.cls-7{fill:#5c2d91;}</style></defs><title>vs_gaming-1</title><rect class="cls-1" x="128.09" y="30.52" width="124.46" height="85.78" rx="2.16" ry="2.16"/><rect class="cls-2" x="135.43" y="36.72" width="109.92" height="73.16"/><polygon class="cls-3" points="247.69 74.61 250.57 74.97 250.57 72.03 247.69 72.39 247.69 74.61"/><polygon class="cls-4" points="245.46 82.33 245.46 36.72 195.65 36.72 245.46 82.33"/><path class="cls-1" d="M265.12,127c-2.69.61-7.27,1.18-15.45,1.18s-14.21-.59-16.51-1.18-3.85-2-3.85-4.14V54c0-2.21,1.47-3.55,3.95-3.92a131.55,131.55,0,0,1,16.3-1A96.07,96.07,0,0,1,265,50c2.66.42,3.94,1.8,3.94,4v68.8C269,125,267.81,126.4,265.12,127Z"/><rect class="cls-2" x="231.19" y="57.77" width="35.77" height="62.13"/><circle class="cls-5" cx="249.02" cy="52.9" r="0.78"/><circle class="cls-5" cx="236.76" cy="53.51" r="0.62"/><polygon class="cls-4" points="266.96 88.38 266.96 57.77 233.53 57.77 266.96 88.38"/><circle class="cls-6" cx="145.29" cy="46.82" r="35"/><path class="cls-7" d="M121,21.61A35,35,0,1,0,170.5,71.08Z"/><path class="cls-8" d="M118.68,58a1.47,1.47,0,0,1-1.48-1.48,1.46,1.46,0,0,1,.42-1.06,1.42,1.42,0,0,1,1.05-.43,1.45,1.45,0,0,1,.58.12,1.55,1.55,0,0,1,.47.31,1.48,1.48,0,0,1,.45,1.07,1.37,1.37,0,0,1-.12.58,1.59,1.59,0,0,1-.32.47,1.48,1.48,0,0,1-.47.32A1.45,1.45,0,0,1,118.68,58Z"/><path class="cls-8" d="M138.53,57.69,126.29,40l-.45-.69a4.5,4.5,0,0,1-.36-.69h-.08q0,.28.05.77t0,1.23V57.69h-2V35.63h2.26l12,17.49.5.78.41.67h.08q-.06-.51-.09-1.14t0-1.4V35.63h2.06V57.69Z"/><path class="cls-8" d="M144.8,57.69V35.63h10.75v1.88h-8.71V45.6h8.06v1.85h-8.06v8.38H156v1.86Z"/><path class="cls-8" d="M167,37.51V57.69h-2V37.51h-6.35V35.63h14.77v1.88Z"/></svg>