<svg id="Layer_1" data-name="Layer 1" xmlns="http://www.w3.org/2000/svg" viewBox="0 0 400 140"><defs><style>.cls-1{fill:#fff;}.cls-2{fill:#aab2da;}.cls-3{fill:gray;}.cls-4{fill:#959595;}.cls-5{fill:#515050;}.cls-6{fill:none;}.cls-7{fill:#333;}.cls-8{fill:#f58b20;}.cls-9{fill:#008a00;}.cls-10{fill:#969696;}.cls-11{fill:#5e5e5e;}.cls-12{fill:#ffb900;}.cls-13{fill:#556a8a;fill-rule:evenodd;}.cls-14{fill:#5c2d91;}</style></defs><title>vs_tools-1</title><path class="cls-1" d="M117.89,95.91c-3.57-6.54-14.6-28.14-14.6-28.14a8.27,8.27,0,0,1-1.3-4.91V38H90V62.87a9.59,9.59,0,0,1-1.3,4.91s-11,21.59-14.92,28.14C70.86,101.47,75.4,109,80.92,109h31.46c4.86,0,8.76-7.53,5.51-13.09"/><path class="cls-2" d="M105.41,37.84A4,4,0,0,1,101.57,42H90a4.33,4.33,0,0,1-4.33-3.46A3.93,3.93,0,0,1,89.73,34h11.84a3.7,3.7,0,0,1,3.84,3.84"/><path class="cls-2" d="M117.68,96.33C115,91.51,108.28,78.49,104.93,72H86.36C83,78.49,76.19,91.51,73.3,96.33c-2.94,5.55,1.63,13.05,7.18,13.05h31.66C117,109.39,120.94,101.88,117.68,96.33Z"/><path class="cls-3" d="M196,84V41s6.32-6,6.35-10.28A12.42,12.42,0,0,0,195,19.39V31h-9V19.33a12.89,12.89,0,0,0-7.61,11.26c0,4.32,5.61,10.35,5.61,10.35V84a11.66,11.66,0,0,0-6.15,10.28,12,12,0,0,0,7.35,11l8.71-.09a12,12,0,0,0,1.8-21.28"/><path class="cls-4" d="M129.36,27a14.08,14.08,0,0,0,1.06,5.28,1.09,1.09,0,0,0,.35.7c3.17,5.28,3.87,11.61,3.17,14.77h3.87V15.37c-4.58,0-8.45,7-8.45,11.61"/><polygon class="cls-5" points="137.81 26.27 132.88 26.27 137.81 15.37 137.81 26.27"/><polygon class="cls-6" points="137.81 26.27 132.88 26.27 137.81 15.37 137.81 26.27"/><path class="cls-4" d="M146.26,27a14.08,14.08,0,0,1-1.06,5.28,1.23,1.23,0,0,0-.35.7h-.35c-2.82,5.28-3.52,11.61-2.82,14.77h-3.87V15.37c4.58,0,8.45,7,8.45,11.61"/><polygon class="cls-7" points="137.81 26.27 142.74 26.27 137.81 15.37 137.81 26.27"/><polygon class="cls-6" points="137.81 26.27 142.74 26.27 137.81 15.37 137.81 26.27"/><path class="cls-8" d="M124.43,107.53a2.78,2.78,0,0,0,2.82-2.82c0-25,4.93-36.58,8.45-46.08h-6c-3.52,9.5-8.1,21.81-8.1,46.08a3,3,0,0,0,2.82,2.82"/><path class="cls-4" d="M139.57,58.63h6.34l-1.06-2.11c-2.46-6-4.22-10.9-4.22-17.24,0,5.63-1.41,9.85-2.82,14.42.7,1.76,1.06,3.17,1.76,4.92"/><path class="cls-8" d="M148,104.72a3,3,0,0,0,2.82,2.81,2.78,2.78,0,0,0,2.82-2.81c0-24.27-4.22-36.58-7.75-46.08h-6.34c3.87,9.5,8.45,21.11,8.45,46.08"/><path class="cls-4" d="M140.63,39.29a3,3,0,0,0-2.82-2.81A2.78,2.78,0,0,0,135,39.29a37.61,37.61,0,0,0,2.82,14.42c1.41-4.57,2.82-8.79,2.82-14.42"/><path class="cls-5" d="M144.86,33h0a1.23,1.23,0,0,1,.35-.7c.35-1.41.71-2.46,1.06-3.87h-7.75v6.33a75.1,75.1,0,0,0,3.17,13c-.7-3.17,0-9.5,2.82-14.77Z"/><polygon class="cls-7" points="137.81 26.27 142.74 26.27 137.81 15.37 137.81 26.27"/><polygon class="cls-6" points="137.81 26.27 142.74 26.27 137.81 15.37 137.81 26.27"/><path class="cls-4" d="M142.74,31.2a4.93,4.93,0,0,1-9.86,0,4.93,4.93,0,0,1,9.86,0"/><path class="cls-4" d="M130.77,56.52l-1.06,2.11h6c.35-.35.35-1.06.7-1.41l-2.82-8.44c-.7,2.46-1.76,4.93-2.82,7.74"/><path class="cls-4" d="M135,39.29a18.54,18.54,0,0,1-.35,4.57c.35,1.41,1.06,2.81,1.41,4.22A33.48,33.48,0,0,1,135,39.29"/><path class="cls-5" d="M136.05,48.08a26.32,26.32,0,0,0,1.76,5.63s-.71-2.46-1.76-5.63"/><path class="cls-5" d="M136.05,48.08c-.35-1.41-1.06-2.81-1.41-4.22-.35,1.41-.7,3.17-1.06,4.92l2.82,8.44c.35-1.06,1.06-2.46,1.41-3.52a26.32,26.32,0,0,1-1.76-5.63"/><rect class="cls-6" x="120.57" y="14.32" width="32.73" height="92.84"/><path class="cls-9" d="M167.19,107.21h-6.53v5.65a4.28,4.28,0,0,0,2.08.59h2.08a7,7,0,0,0,2.37-.59Z"/><rect class="cls-10" x="162.44" y="19.84" width="2.67" height="57.35"/><rect class="cls-6" x="162.44" y="19.84" width="2.67" height="57.35"/><polygon class="cls-10" points="165.11 19.84 164.52 16.57 163.93 19.84 165.11 19.84"/><polygon class="cls-6" points="165.11 19.84 164.52 16.57 163.93 19.84 165.11 19.84"/><polygon class="cls-10" points="163.93 19.84 163.04 16.57 162.44 19.84 163.93 19.84"/><polygon class="cls-6" points="163.93 19.84 163.04 16.57 162.44 19.84 163.93 19.84"/><polygon class="cls-11" points="163.63 14.2 163.04 16.57 163.93 21.63 164.52 16.57 163.93 14.2 163.63 14.2"/><polygon class="cls-6" points="163.63 14.2 163.04 16.57 163.93 21.63 164.52 16.57 163.93 14.2 163.63 14.2"/><rect class="cls-10" x="162.44" y="19.84" width="2.67" height="57.35"/><rect class="cls-3" x="162" y="20" width="4" height="57"/><polygon class="cls-10" points="165.11 19.84 164.52 16.57 163.93 19.84 165.11 19.84"/><polygon class="cls-7" points="165.11 19.84 164.52 16.57 163.93 19.84 165.11 19.84"/><polygon class="cls-10" points="163.93 19.84 163.04 16.57 162.44 19.84 163.93 19.84"/><polygon class="cls-7" points="163.93 19.84 163.04 16.57 162.44 19.84 163.93 19.84"/><polygon class="cls-11" points="163.63 14.2 163.04 16.57 163.93 21.63 164.52 16.57 163.93 14.2 163.63 14.2"/><polygon class="cls-6" points="163.63 14.2 163.04 16.57 163.93 21.63 164.52 16.57 163.93 14.2 163.63 14.2"/><rect class="cls-6" x="163.04" y="20.73" width="1.48" height="1.49"/><rect class="cls-6" x="157.4" y="13" width="11.57" height="100.73"/><path class="cls-12" d="M169,101V65H159v35.63c1.14.59,8.86.59,10,0"/><rect class="cls-6" x="160.66" y="65.01" width="6.53" height="35.96"/><path class="cls-13" d="M220,134a5,5,0,0,0,5-5V106.14c0-5-4.76-9.14-10.53-9.14H195V83.78C195,76.7,187.73,72,179.4,72H103.11C94.77,72,89,76.7,89,83.78V97H68.34C63.22,97,58,101.1,58,106.14V129a5,5,0,0,0,5,5ZM97,83.7c0-1.3,2.21-3.7,6.06-3.7h76.39c3.21,0,5.55,2.4,5.55,3.7V97H97Z"/><path class="cls-14" d="M318.75,26.12,281.84,63,258.3,44.72,249,49.37v46.5l9.3,4.65,23.54-18.31,36.91,36.91,23.25-9.3V35.42ZM259,86.51V58.73l13.89,13.89Zm35.53-13.89,24.47-19V91.65Z"/></svg>