<svg id="Layer_1" data-name="Layer 1" xmlns="http://www.w3.org/2000/svg" viewBox="0 0 400 140"><defs><style>.cls-1{opacity:0.3;}.cls-2{fill:#2f75bb;}.cls-3{fill:#549dd5;}.cls-4{fill:#5e5e5e;}.cls-5{fill:#2e2e2e;}.cls-6{fill:#221f1f;}.cls-7{fill:#fff;}.cls-8{fill:#5e615f;}.cls-9{fill:#acacac;}.cls-10{fill:none;stroke:#767676;stroke-miterlimit:10;stroke-width:0.2px;}</style></defs><title>vs_windows-1</title><text class="cls-1"></text><rect class="cls-2" x="125" y="11" width="136" height="75"/><polygon class="cls-3" points="261 50.82 261 10 220.18 10 261 50.82"/><polygon class="cls-4" points="224.06 102 163.83 102 167.36 98 220.53 98 224.06 102"/><path class="cls-5" d="M221.07,104H166.93c-2.5,0-2.55-2-2.55-2h59S223.7,104,221.07,104Z"/><polygon class="cls-5" points="207 100 180.89 100 183 88 204.89 88 207 100"/><path class="cls-6" d="M262.82,9H125.18A3.18,3.18,0,0,0,122,12.18V85.82A3.18,3.18,0,0,0,125.18,89H262.82A3.18,3.18,0,0,0,266,85.82V12.18A3.18,3.18,0,0,0,262.82,9ZM261,83H127V13H261Z"/><polygon class="cls-4" points="250.31 113 139.06 113 145.58 106 243.79 106 250.31 113"/><polygon class="cls-5" points="240.1 111 149.27 111 152.46 107 236.91 107 240.1 111"/><path class="cls-5" d="M245.91,116H143.65c-4.73,0-4.81-3-4.81-3H250.31S250.88,116,245.91,116Z"/><polygon class="cls-7" points="188 47 188 31.16 171 33.32 171 47 188 47"/><polygon class="cls-7" points="190 47 212 47 212 28.07 190 30.91 190 47"/><polygon class="cls-7" points="190 49 190 65.3 212 68.28 212 49 190 49"/><polygon class="cls-7" points="188 49 172 49 172.1 62.78 188 65.03 188 49"/><path class="cls-6" d="M347,123V51.81A2.81,2.81,0,0,0,344.19,49H244.81A2.81,2.81,0,0,0,242,51.81V123Z"/><path class="cls-6" d="M355.68,131H234.12a4.81,4.81,0,0,1-4.71-4h131S358.83,131,355.68,131Z"/><rect class="cls-8" x="294" y="51" width="2" height="2"/><rect class="cls-8" x="293" y="115" width="3" height="3"/><rect class="cls-2" x="248" y="54" width="94" height="58"/><polygon class="cls-3" points="342 54 305.96 54 342 87.72 342 54"/><polygon class="cls-9" points="229.4 127 242.22 122 347.08 122 360.4 127 229.4 127"/><polygon class="cls-4" points="244.51 125 248.11 123 340.75 123 344.62 125 244.51 125"/><polygon class="cls-7" points="291 81 291 66.09 275 68.12 275 81 291 81"/><polygon class="cls-7" points="293 81 313 81 313 63.17 293 65.85 293 81"/><polygon class="cls-7" points="293 83 293 98.34 313 101.15 313 83 293 83"/><polygon class="cls-7" points="291 83 275 83 275.11 95.97 291 98.09 291 83"/><path class="cls-6" d="M65.18,119.42l84.42,3.95a2.29,2.29,0,0,0,2.39-2.29V48.85a2.29,2.29,0,0,0-2.39-2.29L65.18,50.51A2.29,2.29,0,0,0,63,52.8v64.34A2.29,2.29,0,0,0,65.18,119.42Z"/><polygon class="cls-2" points="68 113.32 145 116.44 145 52.97 68 56.09 68 113.32"/><polygon class="cls-3" points="145 81.85 145 52.85 117.13 53.98 145 81.85"/><polygon class="cls-7" points="103 83 103 67.66 87 69.75 87 83 103 83"/><polygon class="cls-7" points="104 83 125 83 125 64.66 104 67.41 104 83"/><polygon class="cls-7" points="104 85 104 100.79 125 103.67 125 85 104 85"/><polygon class="cls-7" points="103 85 87 85 87.11 98.34 103 100.53 103 85"/><rect class="cls-5" x="41" y="67" width="32" height="63" rx="1.97" ry="1.97"/><path class="cls-5" d="M41,121v6.45A1.55,1.55,0,0,0,42.55,129h28.9A1.55,1.55,0,0,0,73,127.45V121Z"/><rect class="cls-2" x="42" y="74" width="28" height="46"/><path class="cls-10" d="M60.6,71H52.36c-.44-.45-.8-.8-.8-1.24a.74.74,0,0,1,.8-.76H60.6a.74.74,0,0,1,.8.76C61.4,70.2,61,70.55,60.6,71Z"/><circle class="cls-9" cx="46.51" cy="124.69" r="0.89"/><circle class="cls-9" cx="66.18" cy="124.69" r="0.89"/><polygon class="cls-9" points="58 125.58 56 125.36 56 123.89 58 123.72 58 125.58"/><polygon class="cls-3" points="70 98.63 70 74 45.37 74 70 98.63"/><polygon class="cls-7" points="55 92 55 85.28 48 86.2 48 92 55 92"/><polygon class="cls-7" points="56 92 65 92 65 83.97 56 85.17 56 92"/><polygon class="cls-7" points="56 93 56 99.91 65 101.18 65 93 56 93"/><polygon class="cls-7" points="55 93 48 93 48.05 98.84 55 99.8 55 93"/></svg>