<svg id="Layer_1" data-name="Layer 1" xmlns="http://www.w3.org/2000/svg" viewBox="0 0 400 140"><defs><style>.cls-1{fill:#2e2e2e;}.cls-2{fill:#96bcce;}.cls-3{fill:#5d5f5e;}.cls-4,.cls-5{fill:#fff;}.cls-4{opacity:0.25;}.cls-6{fill:#3b77ad;}.cls-7{fill:#f7cd13;}.cls-8{fill:#478aa9;}</style></defs><title>vs_web-3</title><path class="cls-1" d="M272,124V37.55A3.55,3.55,0,0,0,268.45,34H143.55A3.55,3.55,0,0,0,140,37.55V124Z"/><rect class="cls-2" x="145" y="40" width="122" height="77"/><path class="cls-1" d="M282.91,128H130.46c-5.08,0-5.91-7-5.91-7H288.82S286.85,128,282.91,128Z"/><rect class="cls-3" x="205.75" y="37.13" width="2.09" height="1.91"/><polygon class="cls-4" points="267.08 39.85 211.84 39.85 267.08 91.54 267.08 39.85"/><circle class="cls-5" cx="145.17" cy="47.51" r="35"/><path class="cls-5" d="M128.84,34.47V45.55h10.75V48H128.84V61.38h-2.73V32h14.33v2.5Z"/><path class="cls-5" d="M165.65,42.18h-5.46l-1.44,6.62h5.8l-.45,1.89h-5.72l-1.78,8.16h-2.11l1.76-8.16h-5.31l-1.74,8.16h-2.11l1.74-8.16h-5.58l.39-1.89h5.6l1.39-6.62h-5.84l.41-1.89H151L152.79,32h2.11l-1.76,8.33h5.33L160.25,32h2.09l-1.78,8.33h5.52Zm-12.88,0-1.46,6.62h5.35l1.44-6.62Z"/><path class="cls-6" d="M158,28.12c0-4.17-5.51-6.77-12.83-6.77s-13.07,2-13.07,6.14v6h13v1.89H126.39c-2.76,0-8.5,1.73-8.5,12.75s5,13.38,7.64,13.38h4.65c-.08-.08,0-3.39,0-6.93s3.54-7.4,7.72-7.4H151c5.43,0,7.24-3.39,7.24-7.72S158,31.58,158,28.12Zm-20.31,2a2.36,2.36,0,1,1,2.36-2.36A2.36,2.36,0,0,1,137.73,30.09Z"/><path class="cls-7" d="M132.29,68.19c0,4.17,5.51,6.77,12.83,6.77s13.07-2,13.07-6.14v-6h-13V60.95h18.74c2.76,0,8.5-1.73,8.5-12.75s-5-13.38-7.64-13.38h-4.65c.08.08,0,3.39,0,6.93s-3.54,7.4-7.72,7.4H139.3c-5.43,0-7.24,3.39-7.24,7.72S132.29,64.73,132.29,68.19Zm20.31-2a2.36,2.36,0,1,1-2.36,2.36A2.36,2.36,0,0,1,152.61,66.22Z"/><path class="cls-8" d="M236,75.42a.91.91,0,0,0,.85.62l1.9-.06a1,1,0,0,0,.78-1l.11-2.33a1.35,1.35,0,0,1,.94-1.42c.3-.28.75-.4,1.05-.68a1.64,1.64,0,0,1,1.6.22l2.13,1.41a1.11,1.11,0,0,0,1-.1l1.39-1.54a1,1,0,0,0-.24-1.18l-1.67-1.83a1.19,1.19,0,0,1-.23-1.47l-.14-.15a1.58,1.58,0,0,0,.49-1c0-.58.35-1.15,1.37-1.25l2.21-.34a1.16,1.16,0,0,0,.78-1l-.2-2.06a.72.72,0,0,0-.85-.62L247,59.54a1.39,1.39,0,0,1-1.42-.94c-.28-.31-.4-.75-.68-1.05a2.34,2.34,0,0,1,.08-1.75l1.4-1.84a1.05,1.05,0,0,0-.09-1.32l-1.56-1.09a.89.89,0,0,0-1.17-.05l-1.69,1.82a1.49,1.49,0,0,1-1.62.37,4.52,4.52,0,0,0-1.15-.34l-.14-.15A1.54,1.54,0,0,1,237.84,52l-.32-2.5a.9.9,0,0,0-.85-.62l-2.06.2a.72.72,0,0,0-.62.85l-.26,2.47c0,.87-.34,1.15-.79,1.28-.31.28-.75.4-1.06.68a1.54,1.54,0,0,1-1.75-.08l-2-1.55a1.14,1.14,0,0,0-1.18.24l-1.39,1.55a1.29,1.29,0,0,0,.24,1.18l1.67,1.83c.56.61.68,1.05.22,1.47,0,.29-.18.72-.21,1.31-.17.43-.33.86-1.36,1l-2.36.48a.91.91,0,0,0-.62.85l.2,2.05a.93.93,0,0,0,.7.76l2.49,0c.87,0,1.15.34,1.28.79a13.06,13.06,0,0,1,.67,1.35,1.31,1.31,0,0,1,.07,1.61l-1.55,2a1.13,1.13,0,0,0,.24,1.18l1.41,1.23a.89.89,0,0,0,1.17.05l1.69-1.82a1.49,1.49,0,0,1,1.62-.37l1.29.5c.58,0,.86.33,1.11,1.22l.48,2.36m5.73-13.34a5.14,5.14,0,0,1-4.63,5.35,4.77,4.77,0,0,1-5.34-4.63,4.9,4.9,0,0,1,4.48-5.21,5,5,0,0,1,5.49,4.49"/><path class="cls-8" d="M250.82,76a.61.61,0,0,1-.71.14c-.09.08-.25-.28-.33-.55l-.3-1.07c-.16-.36-.51-.38-.61-.12l-.83.76a1,1,0,0,1-.73.5l-.42-.46-.76-.83c-.25-.28-.52-.2-.62.06L245,75.54a2.59,2.59,0,0,1-.39.69,5.18,5.18,0,0,1-.6-.29l-1-.4c-.34-.19-.53,0-.55.33l0,1.15a.85.85,0,0,1-.21.7,2.16,2.16,0,0,1-.62.06l-1.06,0c-.35,0-.54.15-.38.51l.48,1.08c.08.27.14.71.14.71a2.11,2.11,0,0,1-.63.24l-1.08.48c-.27.08-.37.34-.12.61l.85.75a4.4,4.4,0,0,1,.41.64,4.42,4.42,0,0,1-.47.6l-.83.76c-.18.17-.11.44.15.54l1,.4c.26.1.61.29.6.47a2.32,2.32,0,0,1-.12.61l-.58,1c-.1.26.07.45.33.55l1.15,0a1.73,1.73,0,0,1,.79.12.67.67,0,0,1,.06.62l-.06,1.24c0,.35.24.45.51.38l1-.57a.89.89,0,0,1,.8-.05c.09-.08.17.18.33.55l.3,1.07c.16.36.43.28.61.12l.83-.76a1,1,0,0,1,.73-.5l.42.46.76.83c.25.28.52.2.62-.06l.41-1.22a1.85,1.85,0,0,1,.47-.6,5.23,5.23,0,0,1,.61.29l1,.4c.35.19.53,0,.55-.33l-.13-1.07a1.89,1.89,0,0,1,.22-.87l.71,0,1.06,0c.35,0,.45-.25.38-.51l-.48-1.08c-.08-.27-.14-.71-.14-.71a1.36,1.36,0,0,1,.54-.33l1.17-.39c.27-.08.37-.34.12-.61l-.85-.75a2.73,2.73,0,0,1-.41-.64c-.08-.09.19-.35.38-.51l.92-.84c.18-.17.11-.44-.15-.54l-1-.4c-.26-.1-.69-.39-.6-.47-.08-.09,0-.35.12-.61l.58-1c.1-.26-.07-.45-.42-.46l-1.06,0a4.9,4.9,0,0,1-.79-.12,1.14,1.14,0,0,1-.14-.71l.14-1.14c0-.35-.24-.45-.51-.38Zm-2.22,5.91a1.52,1.52,0,0,1-2.55,1.65,1.39,1.39,0,0,1,.53-2,1.5,1.5,0,0,1,2,.36"/><path class="cls-8" d="M223.66,71.52a1.1,1.1,0,0,0,.07-1.46l-1.95-2.13a1.3,1.3,0,0,0-1.46-.07L217,70c-.71-.47-1.56-1.09-2.27-1.56l1.07-4a1,1,0,0,0-.53-1.19l-2.43-1.13a.92.92,0,0,0-1.33.38L209.15,66a8.51,8.51,0,0,0-2.6-.7l-.4-4.11a1,1,0,0,0-1-1.07l-2.78,0c-.43-.16-.89.25-1.05.68l-.92,4.2a8.59,8.59,0,0,0-2.65.46l-2-3.74a1.47,1.47,0,0,0-1.29-.5l-2.68,1a1,1,0,0,0-.64,1.14l.84,4c-.75.4-1.51,1.1-2.26,1.51l-3.24-2.63a.94.94,0,0,0-1.32.09l-2,1.81a.94.94,0,0,0-.21,1.31L185.29,73a11.93,11.93,0,0,0-1.72,2.41l-4-1.35a1.28,1.28,0,0,0-1.35.67l-1.14,2.44a1.26,1.26,0,0,0,.52,1.48l3.41,2.2c-.33.86-.37,1.74-.71,2.6l-4.11.4a1.28,1.28,0,0,0-.93,1.13l-.12,2.63a1.27,1.27,0,0,0,.82,1.21l4.21.63a17.22,17.22,0,0,0,.45,2.94l-3.75,2a.92.92,0,0,0-.5,1.29l.91,2.53a1.37,1.37,0,0,0,1.28.79l4.14-1,1.21,2.25-2.63,3.24a1.37,1.37,0,0,0,.09,1.32l1.95,2.13a1.11,1.11,0,0,0,1.31.21l3.47-2.33c.71.47,1.56,1.09,2.27,1.56l-1.06,4a1,1,0,0,0,.53,1.19l2.57,1.29a1.25,1.25,0,0,0,1.33-.38l2.2-3.41c.87,0,1.74.37,2.61.41l.24,4.25a1.27,1.27,0,0,0,1.13.93l2.76.27a1.76,1.76,0,0,0,1.07-1l.77-4.06c1-.1,1.92-.35,2.94-.45l1.88,3.59a1,1,0,0,0,1.29.5l2.53-.91a1.19,1.19,0,0,0,.79-1.28l-.84-4a10.49,10.49,0,0,0,2.26-1.51l3.24,2.63a1,1,0,0,0,1.46.07l2-1.81a1,1,0,0,0,.07-1.46l-2.33-3.47a7.29,7.29,0,0,0,1.72-2.41l4,1.35a1,1,0,0,0,1.19-.53L228,97.74a1.47,1.47,0,0,0-.38-1.33l-3.55-2.35a7.45,7.45,0,0,0,.55-2.46l4.26-.54c.44-.13.9-.54.92-.84l.13-2.92a1,1,0,0,0-1-1.07l-4.06-.77a15.91,15.91,0,0,0-.31-2.79l3.45-2a1.07,1.07,0,0,0,.65-1.43l-.91-2.53a.92.92,0,0,0-1.29-.5l-4.13.69-1.21-2.25,2.48-3.1m-18,13.07a4.23,4.23,0,0,1-.28,6.13,4.19,4.19,0,0,1-6-.42,4.24,4.24,0,1,1,6.26-5.71"/></svg>