<svg id="Layer_1" data-name="Layer 1" xmlns="http://www.w3.org/2000/svg" viewBox="0 0 400 140"><defs><style>.cls-1{fill:#00bcf2;}</style></defs><title>vs_web-2</title><path class="cls-1" d="M225.19,87.07a10.08,10.08,0,0,1-19.31,4H146.6a26.16,26.16,0,1,1,0-52.32H149l0,.11h0l0-.11a32.25,32.25,0,0,1,57.23-5,40,40,0,0,0-7.92,2.68,24.18,24.18,0,0,0-40.36,2.28q-.59,1-1.07,2.08a23.9,23.9,0,0,0-1.83,6h-8.4a18.11,18.11,0,1,0,0,36.22h59.28a10.08,10.08,0,0,1,19.31,4ZM247.6,57a36.28,36.28,0,0,0-67.88,8.18A28.2,28.2,0,0,0,159.36,77h43.18a16.1,16.1,0,1,1,0,20.12h-48a28.2,28.2,0,0,0,27.93,24.22h64.9A32.19,32.19,0,0,0,247.6,57Z"/></svg>