<svg id="Layer_1" data-name="Layer 1" xmlns="http://www.w3.org/2000/svg" xmlns:xlink="http://www.w3.org/1999/xlink" viewBox="0 0 400 140"><defs><style>.cls-1,.cls-5{fill:url(#linear-gradient);}.cls-1{clip-rule:evenodd;}.cls-2,.cls-4{fill:#699f63;}.cls-3{fill:#333;}.cls-3,.cls-4,.cls-5{fill-rule:evenodd;}.cls-6{clip-path:url(#clip-path);}.cls-7{fill:none;}.cls-8{fill:url(#linear-gradient-3);}.cls-9{fill:url(#linear-gradient-4);}.cls-10{fill:url(#linear-gradient-5);}.cls-11{fill:url(#linear-gradient-6);}.cls-12{fill:url(#linear-gradient-7);}.cls-13{fill:url(#linear-gradient-8);}</style><linearGradient id="linear-gradient" x1="183.96" y1="48.46" x2="168.98" y2="79" gradientUnits="userSpaceOnUse"><stop offset="0" stop-color="#41873f"/><stop offset="0.33" stop-color="#418b3d"/><stop offset="0.64" stop-color="#409637"/><stop offset="0.93" stop-color="#3fa92d"/><stop offset="1" stop-color="#3fae2a"/></linearGradient><clipPath id="clip-path"><path id="_Clipping_Path_" data-name="&lt;Clipping Path&gt;" class="cls-1" d="M178.22,41.34a2,2,0,0,0-2,0L159.65,50.9a2,2,0,0,0-1,1.73V71.78a2,2,0,0,0,1,1.73l16.57,9.57a2,2,0,0,0,2,0l16.57-9.57a2,2,0,0,0,1-1.73V52.63a2,2,0,0,0-1-1.73Z"/></clipPath><linearGradient id="linear-gradient-3" x1="174.7" y1="64.44" x2="216.71" y2="33.4" gradientUnits="userSpaceOnUse"><stop offset="0.14" stop-color="#41873f"/><stop offset="0.4" stop-color="#54a044"/><stop offset="0.71" stop-color="#66b748"/><stop offset="0.91" stop-color="#6cc04a"/></linearGradient><linearGradient id="linear-gradient-4" x1="158.06" y1="37.89" x2="196.38" y2="37.89" gradientUnits="userSpaceOnUse"><stop offset="0.09" stop-color="#6cc04a"/><stop offset="0.29" stop-color="#66b748"/><stop offset="0.6" stop-color="#54a044"/><stop offset="0.86" stop-color="#41873f"/></linearGradient><linearGradient id="linear-gradient-5" x1="158.06" y1="62.2" x2="196.38" y2="62.2" xlink:href="#linear-gradient-4"/><linearGradient id="linear-gradient-6" x1="158.06" y1="73.14" x2="196.38" y2="73.14" xlink:href="#linear-gradient-4"/><linearGradient id="linear-gradient-7" x1="156.42" y1="78.08" x2="197.97" y2="78.08" xlink:href="#linear-gradient-4"/><linearGradient id="linear-gradient-8" x1="202.75" y1="47.55" x2="179.12" y2="95.76" xlink:href="#linear-gradient"/></defs><title>vs_web-4</title><path class="cls-2" d="M199,123.28a3.29,3.29,0,0,1-1.65-.44l-5.25-3.1c-.78-.44-.4-.59-.14-.68a10.46,10.46,0,0,0,2.37-1.08.4.4,0,0,1,.39,0l4,2.39a.52.52,0,0,0,.49,0L215,111.33a.5.5,0,0,0,.24-.43V92.77a.51.51,0,0,0-.24-.43l-15.71-9.06a.49.49,0,0,0-.48,0l-15.7,9.06a.5.5,0,0,0-.25.43V110.9a.48.48,0,0,0,.25.42l4.3,2.49c2.34,1.17,3.77-.21,3.77-1.59V94.32a.45.45,0,0,1,.46-.45h2a.45.45,0,0,1,.46.45v17.9c0,3.12-1.7,4.9-4.65,4.9a6.72,6.72,0,0,1-3.62-1l-4.12-2.37A3.32,3.32,0,0,1,180,110.9V92.77a3.31,3.31,0,0,1,1.65-2.86l15.71-9.08a3.44,3.44,0,0,1,3.3,0l15.71,9.08A3.32,3.32,0,0,1,218,92.77V110.9a3.33,3.33,0,0,1-1.65,2.87l-15.71,9.07A3.3,3.3,0,0,1,199,123.28Z"/><path class="cls-2" d="M203.86,110.79c-6.88,0-8.32-3.16-8.32-5.8a.45.45,0,0,1,.45-.45h2a.46.46,0,0,1,.45.38c.31,2.07,1.22,3.11,5.38,3.11,3.31,0,4.72-.75,4.72-2.51,0-1-.4-1.76-5.54-2.27-4.3-.43-7-1.38-7-4.81,0-3.17,2.67-5.06,7.15-5.06,5,0,7.52,1.75,7.84,5.5a.45.45,0,0,1-.45.49h-2a.45.45,0,0,1-.44-.35c-.49-2.18-1.68-2.87-4.91-2.87-3.61,0-4,1.26-4,2.2,0,1.14.5,1.48,5.38,2.12s7.12,1.54,7.12,4.94S208.83,110.79,203.86,110.79Z"/><path class="cls-2" d="M226.51,91.77a3,3,0,1,1-3-3A3,3,0,0,1,226.51,91.77Zm-5.57,0a2.54,2.54,0,1,0,2.53-2.53A2.54,2.54,0,0,0,220.95,91.76Zm1.4-1.69h1.17c.4,0,1.19,0,1.19.9a.78.78,0,0,1-.64.83c.47,0,.5.34.56.77a3.35,3.35,0,0,0,.18.9h-.72c0-.16-.13-1-.13-1.07s-.11-.29-.35-.29H223v1.36h-.66Zm.64,1.49h.53a.46.46,0,0,0,.51-.48c0-.47-.32-.47-.5-.47H223Z"/><path class="cls-3" d="M150.34,52.33a2,2,0,0,0-1-1.75L132.68,41a2,2,0,0,0-.92-.26h-.17a2,2,0,0,0-.92.26L114,50.59a2,2,0,0,0-1,1.75l0,25.82a1,1,0,0,0,.5.87,1,1,0,0,0,1,0l9.9-5.67a2,2,0,0,0,1-1.75V59.54a2,2,0,0,1,1-1.74l4.22-2.43a2,2,0,0,1,1-.27,2,2,0,0,1,1,.27l4.21,2.43a2,2,0,0,1,1,1.74V71.6a2,2,0,0,0,1,1.75L148.8,79a1,1,0,0,0,1,0,1,1,0,0,0,.5-.87Z"/><path class="cls-3" d="M230.5,16.84a1,1,0,0,0-1.5.88V43.29a.7.7,0,0,1-1.06.61l-4.17-2.4a2,2,0,0,0-2,0L205.1,51.12a2,2,0,0,0-1,1.74V72.1a2,2,0,0,0,1,1.74l16.67,9.63a2,2,0,0,0,2,0l16.67-9.63a2,2,0,0,0,1-1.74v-48a2,2,0,0,0-1-1.76ZM229,65.78a.5.5,0,0,1-.25.44L223,69.51a.5.5,0,0,1-.5,0l-5.72-3.3a.5.5,0,0,1-.25-.44V59.17a.5.5,0,0,1,.25-.44l5.72-3.31a.5.5,0,0,1,.5,0l5.72,3.31a.5.5,0,0,1,.25.44Z"/><path class="cls-3" d="M286,59a2,2,0,0,0,1-1.74V52.59a2,2,0,0,0-1-1.74l-16.56-9.61a2,2,0,0,0-2,0l-16.66,9.62a2,2,0,0,0-1,1.74V71.83a2,2,0,0,0,1,1.75L267.33,83a2,2,0,0,0,2,0l10-5.57a1,1,0,0,0,0-1.75l-16.77-9.62a1,1,0,0,1-.51-.87v-6a1,1,0,0,1,.5-.87l5.22-3a1,1,0,0,1,1,0l5.22,3a1,1,0,0,1,.5.87v4.74a1,1,0,0,0,1.51.87Z"/><path class="cls-4" d="M268.18,58.1a.39.39,0,0,1,.39,0l3.2,1.84a.39.39,0,0,1,.19.33V64a.39.39,0,0,1-.19.33l-3.2,1.84a.39.39,0,0,1-.39,0L265,64.3a.39.39,0,0,1-.19-.33V60.27a.39.39,0,0,1,.19-.33Z"/><path id="_Clipping_Path_2" data-name="&lt;Clipping Path&gt;" class="cls-5" d="M178.22,41.34a2,2,0,0,0-2,0L159.65,50.9a2,2,0,0,0-1,1.73V71.78a2,2,0,0,0,1,1.73l16.57,9.57a2,2,0,0,0,2,0l16.57-9.57a2,2,0,0,0,1-1.73V52.63a2,2,0,0,0-1-1.73Z"/><g class="cls-6"><path class="cls-7" d="M176.18,41.34,159.25,50.9c-.62.36-1.4,1-1.4,1.73V71.78c0,.47.53.92.85,1.27l18.82-31.92A1.63,1.63,0,0,0,176.18,41.34Z"/><path class="cls-7" d="M177.78,83.27a2,2,0,0,0,.47-.19l17.58-9.57c.62-.36,2-1,2-1.73V52.63c0-.53-1.22-1-1.59-1.39Z"/><path class="cls-8" d="M194.82,50.9,178.2,41.34a2,2,0,0,0-.52-.21L159,73a2.28,2.28,0,0,0,.56.46l16.65,9.57a2,2,0,0,0,1.55.19l17.49-32A2.18,2.18,0,0,0,194.82,50.9Z"/><path class="cls-7" d="M197.85,71.78V52.63c0-.72-1.42-1.38-2-1.73L178.7,41.34a3.69,3.69,0,0,0-.86-.22l19.08,31.12C197,72.09,197.85,71.93,197.85,71.78Z"/><path class="cls-7" d="M159.25,50.9c-.62.36-1.4,1-1.4,1.73V71.78c0,.72.79,1.38,1.4,1.73l16.81,9.57a2.27,2.27,0,0,0,1.36.25l-18-32.49Z"/><polygon class="cls-9" points="175.67 37.82 175.44 37.95 175.74 37.95 175.67 37.82"/><path class="cls-10" d="M194.83,73.51a2.09,2.09,0,0,0,1-1.27L177.59,41.11a2,2,0,0,0-1.41.22l-16.51,9.51,17.83,32.49a2,2,0,0,0,.73-.25Z"/><polygon class="cls-11" points="196.38 73.2 196.27 73.01 196.27 73.27 196.38 73.2"/><path class="cls-12" d="M194.83,73.51l-16.59,9.57a2,2,0,0,1-.73.25l1.12.6,19.22-10.67V73l-1.25-.78C196.47,72.77,195.31,73.23,194.83,73.51Z"/><path class="cls-13" d="M194.83,73.51l-16.59,9.57a2,2,0,0,1-.73.25l1.12.6,19.22-10.67V73l-1.25-.78C196.47,72.77,195.31,73.23,194.83,73.51Z"/></g></svg>