<svg id="Layer_1" data-name="Layer 1" xmlns="http://www.w3.org/2000/svg" width="160" height="80" viewBox="0 0 160 80"><defs><style>.cls-1{fill:#e5e5e5;}.cls-2{fill:#5c2d91;}.cls-3,.cls-6,.cls-8{fill:#fff;}.cls-3{stroke:#737373;}.cls-3,.cls-6{stroke-miterlimit:10;}.cls-4{fill:#737373;}.cls-5{fill:#d0c2df;}.cls-6{stroke:#5c2d91;}.cls-7{fill:#8360ac;}</style></defs><title>whatsnew</title><polygon class="cls-1" points="34.55 50 45.8 30.5 34.55 11 12.03 11 0.77 30.5 12.03 50 34.55 50"/><polygon class="cls-2" points="67.97 69 79.23 49.5 67.97 30 45.45 30 34.2 49.5 45.45 69 67.97 69"/><path class="cls-3" d="M32.5,24h0v-.18a8.67,8.67,0,0,0-8.71-8.42,15,15,0,0,0-2.85.06h0a8.66,8.66,0,0,0-7.71,8.36A7.21,7.21,0,0,0,16.14,30c1.54,1.36,3.14,5,3.38,6.11l.18.36H26l.18-.36c.24-1.07,1.9-4.74,3.38-6C32.91,27.25,32.5,24.11,32.5,24Z"/><rect class="cls-4" x="20" y="39" width="6" height="2"/><polygon class="cls-4" points="22.24 45 24.46 45 26.35 43 20.35 43 22.24 45"/><path class="cls-4" d="M25,36H24V29H22v7H21V29H19.53s-2.19-1.11-2.19-2.29a2.19,2.19,0,0,1,2.19-2.19A2.66,2.66,0,0,1,22,26.71V28h2V26.71s.74-2.19,1.93-2.19a2.23,2.23,0,0,1,2.19,2.19A2.39,2.39,0,0,1,25.93,29H25ZM20,26a1,1,0,0,0-1,1,1,1,0,0,0,1,1h1V27A1.08,1.08,0,0,0,20,26Zm6,0a1,1,0,0,0-1,1v1h1a1,1,0,0,0,1-1A1,1,0,0,0,26,26Z"/><polygon class="cls-5" points="114.55 50 125.8 30.5 114.55 11 92.03 11 80.77 30.5 92.03 50 114.55 50"/><polygon class="cls-2" points="147.97 69 159.23 49.5 147.97 30 125.45 30 114.2 49.5 125.45 69 147.97 69"/><path class="cls-6" d="M112.5,24h0v-.18a8.67,8.67,0,0,0-8.71-8.42,15,15,0,0,0-2.85.06h0a8.66,8.66,0,0,0-7.71,8.36A7.21,7.21,0,0,0,96.14,30c1.54,1.36,3.14,5,3.38,6.11l.18.36H106l.18-.36c.24-1.07,1.9-4.74,3.38-6C112.91,27.25,112.5,24.11,112.5,24Z"/><rect class="cls-2" x="100" y="39" width="6" height="2"/><polygon class="cls-2" points="102.24 45 104.46 45 106.35 43 100.35 43 102.24 45"/><path class="cls-7" d="M105,36h-1V29h-2v7h-1V29H99.53s-2.19-1.11-2.19-2.29a2.19,2.19,0,0,1,2.19-2.19A2.66,2.66,0,0,1,102,26.71V28h2V26.71s.74-2.19,1.93-2.19a2.23,2.23,0,0,1,2.19,2.19A2.39,2.39,0,0,1,105.93,29H105Zm-5-10a1,1,0,0,0-1,1,1,1,0,0,0,1,1h1V27A1.08,1.08,0,0,0,100,26Zm6,0a1,1,0,0,0-1,1v1h1a1,1,0,0,0,1-1A1,1,0,0,0,106,26Z"/><path class="cls-8" d="M62,38l-9.52,9.53L46.4,42.8,44,44V56l2.4,1.2,6.08-4.73L62,62l6-2.4V40.4ZM46.4,53.6V46.4L50,50ZM55.66,50,62,45.07v9.86Z"/><path class="cls-8" d="M142,38l-9.52,9.53L126.4,42.8,124,44V56l2.4,1.2,6.08-4.73L142,62l6-2.4V40.4ZM126.4,53.6V46.4L130,50Zm9.26-3.6L142,45.07v9.86Z"/></svg>