<?xml version="1.0" encoding="UTF-8" standalone="no"?>
<svg
   xmlns:dc="http://purl.org/dc/elements/1.1/"
   xmlns:cc="http://creativecommons.org/ns#"
   xmlns:rdf="http://www.w3.org/1999/02/22-rdf-syntax-ns#"
   xmlns:svg="http://www.w3.org/2000/svg"
   xmlns="http://www.w3.org/2000/svg"
   xmlns:sodipodi="http://sodipodi.sourceforge.net/DTD/sodipodi-0.dtd"
   xmlns:inkscape="http://www.inkscape.org/namespaces/inkscape"
   width="48"
   height="47.762699"
   viewBox="147 17 48 47.762699"
   version="1.1"
   id="svg4188"
   sodipodi:docname="vs-code-logo.svg"
   style="fill:none"
   inkscape:version="0.92.4 (5da689c313, 2019-01-14)">
  <metadata
     id="metadata4192">
    <rdf:RDF>
      <cc:Work
         rdf:about="">
        <dc:format>image/svg+xml</dc:format>
        <dc:type
           rdf:resource="http://purl.org/dc/dcmitype/StillImage" />
      </cc:Work>
    </rdf:RDF>
  </metadata>
  <sodipodi:namedview
     pagecolor="#ffffff"
     bordercolor="#666666"
     borderopacity="1"
     objecttolerance="10"
     gridtolerance="10"
     guidetolerance="10"
     inkscape:pageopacity="0"
     inkscape:pageshadow="2"
     inkscape:window-width="1636"
     inkscape:window-height="1159"
     id="namedview4190"
     showgrid="false"
     inkscape:zoom="2.2264151"
     inkscape:cx="61.897995"
     inkscape:cy="61.559863"
     inkscape:window-x="0"
     inkscape:window-y="0"
     inkscape:window-maximized="0"
     inkscape:current-layer="svg4188" />
  <path
     d="m 261.69799,-49.597163 h -105.6 v 105.6 h 105.6 z"
     id="path4130"
     inkscape:connector-curvature="0"
     style="fill:#ffffff" />
  <mask
     id="mask0"
     mask-type="alpha"
     maskUnits="userSpaceOnUse"
     x="147"
     y="17"
     width="106"
     height="106">
    <path
       d="m 222.167,122.276 c 1.669,0.651 3.573,0.609 5.258,-0.202 l 21.823,-10.501 c 2.294,-1.104 3.752,-3.424 3.752,-5.971 V 34.3981 c 0,-2.5462 -1.458,-4.867 -3.751,-5.9705 L 227.425,17.9262 c -2.212,-1.0642 -4.8,-0.8035 -6.741,0.6075 -0.277,0.2016 -0.541,0.4267 -0.789,0.6747 L 178.116,57.3239 159.918,43.5102 c -1.694,-1.2859 -4.063,-1.1806 -5.637,0.2506 l -5.836,5.3094 c -1.925,1.7506 -1.927,4.7783 -0.005,6.5317 l 15.782,14.3982 -15.782,14.3981 c -1.922,1.7535 -1.92,4.7812 0.005,6.5318 l 5.836,5.3093 c 1.574,1.4312 3.943,1.5366 5.637,0.2507 l 18.198,-13.8138 41.779,38.1158 c 0.661,0.661 1.437,1.159 2.272,1.484 z m 4.349,-76.3391 -31.7,24.0632 31.7,24.0632 z"
       id="path4132"
       inkscape:connector-curvature="0"
       style="clip-rule:evenodd;fill:#ffffff;fill-rule:evenodd" />
  </mask>
  <g
     mask="url(#mask0)"
     id="g4149"
     transform="matrix(0.38793615,0,0,0.38793615,93.42524,13.725873)">
    <path
       d="M 249.249,28.444 227.408,17.9281 c -2.528,-1.2172 -5.549,-0.7038 -7.533,1.2802 l -71.499,65.1899 c -1.923,1.7534 -1.92,4.7811 0.005,6.5318 l 5.84,5.3093 c 1.575,1.4312 3.946,1.5365 5.641,0.2506 L 245.963,31.1721 C 248.851,28.9808 253,31.041 253,34.6667 v -0.2536 c 0,-2.545 -1.458,-4.865 -3.751,-5.9691 z"
       id="path4135"
       inkscape:connector-curvature="0"
       style="fill:#0065a9" />
    <g
       id="g4139"
       style="filter:url(#filter0_d)">
      <path
         d="m 249.249,111.556 -21.841,10.516 c -2.528,1.217 -5.549,0.704 -7.533,-1.28 L 148.376,55.6019 c -1.923,-1.7534 -1.92,-4.7812 0.005,-6.5318 l 5.84,-5.3093 c 1.575,-1.4312 3.946,-1.5366 5.641,-0.2507 l 86.101,65.3179 c 2.888,2.191 7.037,0.131 7.037,-3.495 v 0.254 c 0,2.545 -1.458,4.865 -3.751,5.969 z"
         id="path4137"
         inkscape:connector-curvature="0"
         style="fill:#007acc" />
    </g>
    <g
       id="g4143"
       style="filter:url(#filter1_d)">
      <path
         d="m 227.409,122.074 c -2.529,1.216 -5.55,0.702 -7.534,-1.282 2.445,2.444 6.625,0.713 6.625,-2.745 V 21.9524 c 0,-3.4574 -4.18,-5.1889 -6.625,-2.7441 1.984,-1.9842 5.005,-2.4984 7.534,-1.2823 l 21.837,10.5015 C 251.541,29.531 253,31.8518 253,34.398 v 71.204 c 0,2.546 -1.459,4.867 -3.754,5.971 z"
         id="path4141"
         inkscape:connector-curvature="0"
         style="fill:#1f9cf0" />
    </g>
    <g
       style="opacity:0.25;mix-blend-mode:overlay"
       id="g4147">
      <path
         d="m 222.102,122.276 c 1.67,0.65 3.573,0.609 5.258,-0.202 l 21.824,-10.501 c 2.293,-1.104 3.752,-3.424 3.752,-5.971 V 34.398 c 0,-2.5461 -1.459,-4.867 -3.752,-5.9705 L 227.36,17.9261 c -2.211,-1.0641 -4.799,-0.8035 -6.74,0.6076 -0.277,0.2015 -0.541,0.4266 -0.789,0.6746 L 178.052,57.3239 159.854,43.5101 c -1.694,-1.2859 -4.064,-1.1805 -5.637,0.2507 l -5.837,5.3093 c -1.924,1.7506 -1.926,4.7783 -0.004,6.5318 L 164.158,70 148.376,84.3981 c -1.922,1.7535 -1.92,4.7812 0.004,6.5318 l 5.837,5.3094 c 1.573,1.4311 3.943,1.5365 5.637,0.2506 l 18.198,-13.8138 41.779,38.1159 c 0.661,0.661 1.437,1.159 2.271,1.484 z M 226.452,45.9368 194.751,70 226.452,94.0632 Z"
         id="path4145"
         style="clip-rule:evenodd;fill:url(#paint0_linear);fill-rule:evenodd"
         inkscape:connector-curvature="0" />
    </g>
  </g>
  <defs
     id="defs4186">
    <filter
       id="filter0_d"
       x="138.10201"
       y="33.778801"
       width="123.731"
       height="97.780296"
       filterUnits="userSpaceOnUse"
       style="color-interpolation-filters:sRGB">
      <feFlood
         flood-opacity="0"
         result="BackgroundImageFix"
         id="feFlood4151" />
      <feColorMatrix
         in="SourceAlpha"
         type="matrix"
         values="0 0 0 0 0 0 0 0 0 0 0 0 0 0 0 0 0 0 127 0"
         id="feColorMatrix4153" />
      <feOffset
         id="feOffset4155" />
      <feGaussianBlur
         stdDeviation="4.41667"
         id="feGaussianBlur4157" />
      <feColorMatrix
         type="matrix"
         values="0 0 0 0 0 0 0 0 0 0 0 0 0 0 0 0 0 0 0.25 0"
         id="feColorMatrix4159" />
      <feBlend
         mode="overlay"
         in2="BackgroundImageFix"
         result="effect1_dropShadow"
         id="feBlend4161" />
      <feBlend
         mode="normal"
         in="SourceGraphic"
         in2="effect1_dropShadow"
         result="shape"
         id="feBlend4163" />
    </filter>
    <filter
       id="filter1_d"
       x="211.04201"
       y="8.4398603"
       width="50.791698"
       height="123.12"
       filterUnits="userSpaceOnUse"
       style="color-interpolation-filters:sRGB">
      <feFlood
         flood-opacity="0"
         result="BackgroundImageFix"
         id="feFlood4166" />
      <feColorMatrix
         in="SourceAlpha"
         type="matrix"
         values="0 0 0 0 0 0 0 0 0 0 0 0 0 0 0 0 0 0 127 0"
         id="feColorMatrix4168" />
      <feOffset
         id="feOffset4170" />
      <feGaussianBlur
         stdDeviation="4.41667"
         id="feGaussianBlur4172" />
      <feColorMatrix
         type="matrix"
         values="0 0 0 0 0 0 0 0 0 0 0 0 0 0 0 0 0 0 0.25 0"
         id="feColorMatrix4174" />
      <feBlend
         mode="overlay"
         in2="BackgroundImageFix"
         result="effect1_dropShadow"
         id="feBlend4176" />
      <feBlend
         mode="normal"
         in="SourceGraphic"
         in2="effect1_dropShadow"
         result="shape"
         id="feBlend4178" />
    </filter>
    <linearGradient
       id="paint0_linear"
       x1="199.936"
       y1="17.2733"
       x2="199.936"
       y2="122.727"
       gradientUnits="userSpaceOnUse">
      <stop
         stop-color="white"
         id="stop4181" />
      <stop
         offset="1"
         stop-color="white"
         stop-opacity="0"
         id="stop4183" />
    </linearGradient>
  </defs>
</svg>
