<svg width="68" height="68" viewBox="0 0 68 68" fill="none" xmlns="http://www.w3.org/2000/svg">
<g clip-path="url(#clip0_13267_92282)">
<g filter="url(#filter0_d_13267_92282)">
<rect x="3.125" y="3.125" width="61.75" height="61.75" rx="13.6563" fill="white"/>
<rect x="3.125" y="3.125" width="61.75" height="61.75" rx="13.6563" fill="white"/>
</g>
<g filter="url(#filter1_dd_13267_92282)">
<path d="M20.4625 48.7847L13.3375 43.441C13.1155 43.2758 12.9353 43.0609 12.8115 42.8133C12.6878 42.5658 12.6239 42.2927 12.625 42.016V25.9847C12.6239 25.708 12.6878 25.4349 12.8115 25.1874C12.9353 24.9399 13.1155 24.7249 13.3375 24.5597L20.4625 19.216C20.2405 19.3811 20.0603 19.5961 19.9366 19.8436C19.8128 20.0911 19.7489 20.3643 19.75 20.641V47.3597C19.7489 47.6365 19.8128 47.9096 19.9366 48.1571C20.0603 48.4046 20.2405 48.6196 20.4625 48.7847Z" fill="url(#paint0_linear_13267_92282)"/>
<path d="M54.5824 20.0439C54.2888 19.8512 53.945 19.749 53.5938 19.75C53.3662 19.7481 53.1405 19.7912 52.9296 19.8768C52.7186 19.9624 52.5267 20.0888 52.3648 20.2488L52.2401 20.3734L44.6698 27.632L38.0257 34L30.1615 41.5436L22.8851 48.5172L22.7604 48.6419C22.5984 48.8019 22.4065 48.9283 22.1956 49.0138C21.9847 49.0994 21.7589 49.1425 21.5313 49.1407C21.146 49.1399 20.7712 49.0153 20.4625 48.7847L13.3375 43.441C13.6997 43.7126 14.1517 43.8358 14.6016 43.7862C15.0516 43.7366 15.4658 43.5175 15.76 43.1735L23.6688 33.9911L30.1615 26.4564L41.5348 13.2484C41.6999 13.0528 41.9059 12.8956 42.1382 12.7879C42.3705 12.6802 42.6235 12.6246 42.8796 12.625C43.2308 12.624 43.5746 12.7262 43.8682 12.9189L54.5824 20.0439Z" fill="url(#paint1_linear_13267_92282)"/>
<path d="M54.5824 47.9562L43.8949 55.0812C43.5314 55.3189 43.0942 55.4174 42.6638 55.3585C42.2335 55.2996 41.8388 55.0872 41.5526 54.7606L30.1615 41.5436L23.6688 33.9911L15.76 24.8177C15.4633 24.4771 15.0487 24.2612 14.5995 24.2133C14.1502 24.1654 13.6994 24.2893 13.3375 24.5597L20.4625 19.216C20.7712 18.9854 21.146 18.8602 21.5313 18.8594C21.7589 18.8576 21.9847 18.9007 22.1956 18.9862C22.4065 19.0718 22.5984 19.1982 22.7604 19.3582L22.8851 19.4829L30.1615 26.4564L38.0257 34L44.6787 40.377L52.2401 47.6266L52.3648 47.7513C52.5267 47.9113 52.7186 48.0377 52.9296 48.1233C53.1405 48.2089 53.3662 48.252 53.5938 48.2501C53.945 48.2511 54.2888 48.1489 54.5824 47.9562Z" fill="url(#paint2_linear_13267_92282)"/>
<path d="M55.375 21.5313V46.4688C55.3753 46.7628 55.3031 47.0523 55.1649 47.3117C55.0266 47.5712 54.8266 47.7925 54.5824 47.9562L43.8949 55.0812C44.1391 54.9175 44.3391 54.6962 44.4774 54.4367C44.6156 54.1773 44.6878 53.8878 44.6875 53.5938L44.6787 40.377L44.6698 27.632L44.6608 14.4063C44.6622 14.1121 44.5905 13.8222 44.4521 13.5626C44.3138 13.303 44.1132 13.0818 43.8682 12.9189L54.5824 20.0439C54.826 20.2082 55.0255 20.4298 55.1637 20.689C55.3019 20.9483 55.3744 21.2375 55.375 21.5313Z" fill="url(#paint3_linear_13267_92282)"/>
</g>
<g clip-path="url(#clip1_13267_92282)">
<mask id="mask0_13267_92282" style="mask-type:alpha" maskUnits="userSpaceOnUse" x="12" y="12" width="44" height="44">
<path d="M20.4625 48.7847L13.3375 43.441C13.1155 43.2758 12.9353 43.0609 12.8115 42.8133C12.6878 42.5658 12.6239 42.2927 12.625 42.016V25.9847C12.6239 25.708 12.6878 25.4349 12.8115 25.1874C12.9353 24.9399 13.1155 24.7249 13.3375 24.5597L20.4625 19.216C20.2405 19.3811 20.0603 19.5961 19.9366 19.8436C19.8128 20.0911 19.7489 20.3643 19.75 20.641V47.3597C19.7489 47.6365 19.8128 47.9096 19.9366 48.1571C20.0603 48.4046 20.2405 48.6196 20.4625 48.7847Z" fill="white"/>
<path d="M54.5824 20.0439C54.2888 19.8512 53.945 19.749 53.5938 19.75C53.3662 19.7481 53.1405 19.7912 52.9296 19.8768C52.7186 19.9624 52.5267 20.0888 52.3648 20.2488L52.2401 20.3734L44.6698 27.632L38.0257 34L30.1615 41.5436L22.8851 48.5172L22.7604 48.6419C22.5984 48.8019 22.4065 48.9283 22.1956 49.0138C21.9847 49.0994 21.7589 49.1425 21.5313 49.1407C21.146 49.1399 20.7712 49.0153 20.4625 48.7847L13.3375 43.441C13.6997 43.7126 14.1517 43.8358 14.6016 43.7862C15.0516 43.7366 15.4658 43.5175 15.76 43.1735L23.6688 33.9911L30.1615 26.4564L41.5348 13.2484C41.6999 13.0528 41.9059 12.8956 42.1382 12.7879C42.3705 12.6802 42.6235 12.6246 42.8796 12.625C43.2308 12.624 43.5746 12.7262 43.8682 12.9189L54.5824 20.0439Z" fill="white"/>
<path d="M54.5824 47.9562L43.8949 55.0812C43.5314 55.3189 43.0942 55.4174 42.6638 55.3585C42.2335 55.2996 41.8388 55.0872 41.5526 54.7606L30.1615 41.5436L23.6688 33.9911L15.76 24.8177C15.4633 24.4771 15.0487 24.2612 14.5995 24.2133C14.1502 24.1654 13.6994 24.2893 13.3375 24.5597L20.4625 19.216C20.7712 18.9854 21.146 18.8602 21.5313 18.8594C21.7589 18.8576 21.9847 18.9007 22.1956 18.9862C22.4065 19.0718 22.5984 19.1982 22.7604 19.3582L22.8851 19.4829L30.1615 26.4564L38.0257 34L44.6787 40.377L52.2401 47.6266L52.3648 47.7513C52.5267 47.9113 52.7186 48.0377 52.9296 48.1233C53.1405 48.2089 53.3662 48.252 53.5938 48.2501C53.945 48.2511 54.2888 48.1489 54.5824 47.9562Z" fill="white"/>
<path d="M55.375 21.5313V46.4688C55.3753 46.7628 55.3031 47.0523 55.1649 47.3117C55.0266 47.5712 54.8266 47.7925 54.5824 47.9562L43.8949 55.0812C44.1391 54.9175 44.3391 54.6962 44.4774 54.4367C44.6156 54.1773 44.6878 53.8878 44.6875 53.5938L44.6787 40.377L44.6698 27.632L44.6608 14.4063C44.6622 14.1121 44.5905 13.8222 44.4521 13.5626C44.3138 13.303 44.1132 13.0818 43.8682 12.9189L54.5824 20.0439C54.826 20.2082 55.0255 20.4298 55.1637 20.689C55.3019 20.9483 55.3744 21.2375 55.375 21.5313Z" fill="white"/>
</mask>
<g mask="url(#mask0_13267_92282)">
<path d="M20.4625 48.7846L13.3375 43.4408C13.1155 43.2757 12.9353 43.0607 12.8115 42.8132C12.6878 42.5657 12.6239 42.2926 12.625 42.0158V25.9846C12.6239 25.7078 12.6878 25.4347 12.8115 25.1872C12.9353 24.9397 13.1155 24.7247 13.3375 24.5596L20.4625 19.2158C20.2405 19.381 20.0603 19.5959 19.9366 19.8435C19.8128 20.091 19.7489 20.3641 19.75 20.6408V47.3596C19.7489 47.6363 19.8128 47.9094 19.9366 48.1569C20.0603 48.4045 20.2405 48.6194 20.4625 48.7846Z" fill="#5E438F"/>
<g filter="url(#filter2_dd_13267_92282)">
<path d="M54.5823 20.0439C54.2887 19.8512 53.9449 19.749 53.5937 19.75C53.3661 19.7481 53.1403 19.7912 52.9294 19.8768C52.7185 19.9624 52.5266 20.0888 52.3646 20.2488L52.2399 20.3734L44.6696 27.632L38.0255 34L30.1613 41.5436L22.8849 48.5172L22.7602 48.6419C22.5983 48.8019 22.4063 48.9283 22.1954 49.0138C21.9845 49.0994 21.7588 49.1425 21.5312 49.1407C21.1459 49.1399 20.7711 49.015 20.4624 48.7844L13.3374 43.4406C13.6995 43.7123 14.1515 43.8358 14.6015 43.7862C15.0515 43.7366 15.4657 43.5175 15.7599 43.1735L19.7499 38.5422L23.6687 33.9911L30.1613 26.4564L41.5346 13.2484C41.6998 13.0528 41.9057 12.8956 42.138 12.7879C42.3703 12.6802 42.6234 12.6246 42.8795 12.625C43.2307 12.624 43.5744 12.7262 43.8681 12.9189L54.5823 20.0439Z" fill="url(#paint4_linear_13267_92282)"/>
</g>
<g filter="url(#filter3_dd_13267_92282)">
<path d="M54.5823 47.9562L43.8948 55.0812C43.5312 55.3189 43.0941 55.4174 42.6637 55.3585C42.2333 55.2996 41.8387 55.0872 41.5524 54.7606L30.1613 41.5437L23.6687 33.9912L19.7499 29.449L15.7599 24.8177C15.4631 24.4771 15.0486 24.2612 14.5993 24.2133C14.1501 24.1654 13.6993 24.289 13.3374 24.5594L20.4624 19.2157C20.7711 18.9851 21.1459 18.8602 21.5312 18.8594C21.7588 18.8576 21.9845 18.9007 22.1954 18.9862C22.4063 19.0718 22.5983 19.1982 22.7602 19.3582L22.8849 19.4829L30.1613 26.4565L38.0255 34.0001L44.6785 40.377L52.2399 47.6266L52.3646 47.7513C52.5266 47.9113 52.7185 48.0377 52.9294 48.1233C53.1403 48.2089 53.3661 48.252 53.5937 48.2501C53.9449 48.2511 54.2887 48.1489 54.5823 47.9562Z" fill="url(#paint5_linear_13267_92282)"/>
</g>
<g filter="url(#filter4_dd_13267_92282)">
<path d="M55.3746 21.5313V46.4688C55.3749 46.7628 55.3027 47.0523 55.1644 47.3117C55.0262 47.5711 54.8261 47.7925 54.5819 47.9562L43.8944 55.0812C44.1386 54.9175 44.3387 54.6961 44.4769 54.4367C44.6152 54.1773 44.6873 53.8878 44.687 53.5938L44.6781 40.3769L44.6692 27.6321L44.6603 14.4063C44.6617 14.1121 44.59 13.8222 44.4517 13.5626C44.3133 13.303 44.1126 13.0818 43.8677 12.9189L54.5819 20.0439C54.8255 20.2082 55.0251 20.4297 55.1633 20.689C55.3015 20.9483 55.374 21.2375 55.3746 21.5313Z" fill="url(#paint6_linear_13267_92282)"/>
</g>
</g>
</g>
</g>
<defs>
<filter id="filter0_d_13267_92282" x="1.49219" y="2.30859" width="65.0156" height="65.0156" filterUnits="userSpaceOnUse" color-interpolation-filters="sRGB">
<feFlood flood-opacity="0" result="BackgroundImageFix"/>
<feColorMatrix in="SourceAlpha" type="matrix" values="0 0 0 0 0 0 0 0 0 0 0 0 0 0 0 0 0 0 127 0" result="hardAlpha"/>
<feOffset dy="0.816407"/>
<feGaussianBlur stdDeviation="0.816407"/>
<feColorMatrix type="matrix" values="0 0 0 0 0 0 0 0 0 0 0 0 0 0 0 0 0 0 0.28 0"/>
<feBlend mode="normal" in2="BackgroundImageFix" result="effect1_dropShadow_13267_92282"/>
<feBlend mode="normal" in="SourceGraphic" in2="effect1_dropShadow_13267_92282" result="shape"/>
</filter>
<filter id="filter1_dd_13267_92282" x="11.7875" y="12.4847" width="44.425" height="45.1236" filterUnits="userSpaceOnUse" color-interpolation-filters="sRGB">
<feFlood flood-opacity="0" result="BackgroundImageFix"/>
<feColorMatrix in="SourceAlpha" type="matrix" values="0 0 0 0 0 0 0 0 0 0 0 0 0 0 0 0 0 0 127 0" result="hardAlpha"/>
<feOffset dy="0.175342"/>
<feGaussianBlur stdDeviation="0.157808"/>
<feColorMatrix type="matrix" values="0 0 0 0 0 0 0 0 0 0 0 0 0 0 0 0 0 0 0.12 0"/>
<feBlend mode="normal" in2="BackgroundImageFix" result="effect1_dropShadow_13267_92282"/>
<feColorMatrix in="SourceAlpha" type="matrix" values="0 0 0 0 0 0 0 0 0 0 0 0 0 0 0 0 0 0 127 0" result="hardAlpha"/>
<feOffset dy="1.39585"/>
<feGaussianBlur stdDeviation="0.418754"/>
<feColorMatrix type="matrix" values="0 0 0 0 0 0 0 0 0 0 0 0 0 0 0 0 0 0 0.2 0"/>
<feBlend mode="normal" in2="effect1_dropShadow_13267_92282" result="effect2_dropShadow_13267_92282"/>
<feBlend mode="normal" in="SourceGraphic" in2="effect2_dropShadow_13267_92282" result="shape"/>
</filter>
<filter id="filter2_dd_13267_92282" x="9.7749" y="9.95312" width="48.3696" height="43.6406" filterUnits="userSpaceOnUse" color-interpolation-filters="sRGB">
<feFlood flood-opacity="0" result="BackgroundImageFix"/>
<feColorMatrix in="SourceAlpha" type="matrix" values="0 0 0 0 0 0 0 0 0 0 0 0 0 0 0 0 0 0 127 0" result="hardAlpha"/>
<feOffset dy="0.169219"/>
<feGaussianBlur stdDeviation="0.169219"/>
<feColorMatrix type="matrix" values="0 0 0 0 0 0 0 0 0 0 0 0 0 0 0 0 0 0 0.24 0"/>
<feBlend mode="normal" in2="BackgroundImageFix" result="effect1_dropShadow_13267_92282"/>
<feColorMatrix in="SourceAlpha" type="matrix" values="0 0 0 0 0 0 0 0 0 0 0 0 0 0 0 0 0 0 127 0" result="hardAlpha"/>
<feOffset dy="0.890626"/>
<feGaussianBlur stdDeviation="1.78125"/>
<feColorMatrix type="matrix" values="0 0 0 0 0 0 0 0 0 0 0 0 0 0 0 0 0 0 0.22 0"/>
<feBlend mode="normal" in2="effect1_dropShadow_13267_92282" result="effect2_dropShadow_13267_92282"/>
<feBlend mode="normal" in="SourceGraphic" in2="effect2_dropShadow_13267_92282" result="shape"/>
</filter>
<filter id="filter3_dd_13267_92282" x="9.7749" y="16.1875" width="48.3696" height="43.6406" filterUnits="userSpaceOnUse" color-interpolation-filters="sRGB">
<feFlood flood-opacity="0" result="BackgroundImageFix"/>
<feColorMatrix in="SourceAlpha" type="matrix" values="0 0 0 0 0 0 0 0 0 0 0 0 0 0 0 0 0 0 127 0" result="hardAlpha"/>
<feOffset dy="0.169219"/>
<feGaussianBlur stdDeviation="0.169219"/>
<feColorMatrix type="matrix" values="0 0 0 0 0 0 0 0 0 0 0 0 0 0 0 0 0 0 0.24 0"/>
<feBlend mode="normal" in2="BackgroundImageFix" result="effect1_dropShadow_13267_92282"/>
<feColorMatrix in="SourceAlpha" type="matrix" values="0 0 0 0 0 0 0 0 0 0 0 0 0 0 0 0 0 0 127 0" result="hardAlpha"/>
<feOffset dy="0.890626"/>
<feGaussianBlur stdDeviation="1.78125"/>
<feColorMatrix type="matrix" values="0 0 0 0 0 0 0 0 0 0 0 0 0 0 0 0 0 0 0.22 0"/>
<feBlend mode="normal" in2="effect1_dropShadow_13267_92282" result="effect2_dropShadow_13267_92282"/>
<feBlend mode="normal" in="SourceGraphic" in2="effect2_dropShadow_13267_92282" result="shape"/>
</filter>
<filter id="filter4_dd_13267_92282" x="33.1802" y="2.23144" width="32.8819" height="63.5371" filterUnits="userSpaceOnUse" color-interpolation-filters="sRGB">
<feFlood flood-opacity="0" result="BackgroundImageFix"/>
<feColorMatrix in="SourceAlpha" type="matrix" values="0 0 0 0 0 0 0 0 0 0 0 0 0 0 0 0 0 0 127 0" result="hardAlpha"/>
<feOffset/>
<feGaussianBlur stdDeviation="0.0890626"/>
<feColorMatrix type="matrix" values="0 0 0 0 0 0 0 0 0 0 0 0 0 0 0 0 0 0 0.24 0"/>
<feBlend mode="normal" in2="BackgroundImageFix" result="effect1_dropShadow_13267_92282"/>
<feColorMatrix in="SourceAlpha" type="matrix" values="0 0 0 0 0 0 0 0 0 0 0 0 0 0 0 0 0 0 127 0" result="hardAlpha"/>
<feOffset/>
<feGaussianBlur stdDeviation="5.34375"/>
<feColorMatrix type="matrix" values="0 0 0 0 0 0 0 0 0 0 0 0 0 0 0 0 0 0 0.3 0"/>
<feBlend mode="normal" in2="effect1_dropShadow_13267_92282" result="effect2_dropShadow_13267_92282"/>
<feBlend mode="normal" in="SourceGraphic" in2="effect2_dropShadow_13267_92282" result="shape"/>
</filter>
<linearGradient id="paint0_linear_13267_92282" x1="34" y1="12.625" x2="34" y2="55.3751" gradientUnits="userSpaceOnUse">
<stop stop-color="white"/>
<stop offset="1" stop-color="white" stop-opacity="0"/>
</linearGradient>
<linearGradient id="paint1_linear_13267_92282" x1="34" y1="12.625" x2="34" y2="55.3751" gradientUnits="userSpaceOnUse">
<stop stop-color="white"/>
<stop offset="1" stop-color="white" stop-opacity="0"/>
</linearGradient>
<linearGradient id="paint2_linear_13267_92282" x1="34" y1="12.625" x2="34" y2="55.3751" gradientUnits="userSpaceOnUse">
<stop stop-color="white"/>
<stop offset="1" stop-color="white" stop-opacity="0"/>
</linearGradient>
<linearGradient id="paint3_linear_13267_92282" x1="34" y1="12.625" x2="34" y2="55.3751" gradientUnits="userSpaceOnUse">
<stop stop-color="white"/>
<stop offset="1" stop-color="white" stop-opacity="0"/>
</linearGradient>
<linearGradient id="paint4_linear_13267_92282" x1="47.3593" y1="12.625" x2="15.6156" y2="44.5748" gradientUnits="userSpaceOnUse">
<stop stop-color="#7252AA"/>
<stop offset="1" stop-color="#7252AA"/>
</linearGradient>
<linearGradient id="paint5_linear_13267_92282" x1="16.6327" y1="20.418" x2="46.4686" y2="53.8164" gradientUnits="userSpaceOnUse">
<stop stop-color="#AE7FE2"/>
<stop offset="1" stop-color="#9A70D4"/>
</linearGradient>
<linearGradient id="paint6_linear_13267_92282" x1="49.4944" y1="12.0593" x2="49.4944" y2="55.0454" gradientUnits="userSpaceOnUse">
<stop stop-color="#D59DFF"/>
<stop offset="1" stop-color="#C18EF1"/>
</linearGradient>
<clipPath id="clip0_13267_92282">
<rect width="68" height="68" fill="white"/>
</clipPath>
<clipPath id="clip1_13267_92282">
<rect width="42.75" height="42.75" fill="white" transform="translate(12.625 12.625)"/>
</clipPath>
</defs>
</svg>
