<svg width="96" height="96" viewBox="0 0 96 96" fill="none" xmlns="http://www.w3.org/2000/svg">
<mask id="mask0" mask-type="alpha" maskUnits="userSpaceOnUse" x="0" y="0" width="96" height="96">
<path fill-rule="evenodd" clip-rule="evenodd" d="M1.07945 24.1004C0.395469 24.6704 0 25.5147 0 26.4051V34.3757C0 35.389 0.511568 36.3339 1.36012 36.8878L18.3828 48L1.36012 59.1121C0.511569 59.666 0 60.6109 0 61.6242V69.5948C0 70.4852 0.395468 71.3295 1.07945 71.8995L28.2451 94.5376C29.3326 95.4438 30.8181 95.7078 32.1512 95.2317L41.3453 91.948C42.9373 91.3795 44 89.8715 44 88.1811V64.7221L69.5728 81.4155C71.1061 82.4165 73.0127 82.6624 74.7499 82.0833L91.8974 76.3675C94.3474 75.5508 96 73.258 96 70.6754V25.3245C96 22.7419 94.3474 20.4491 91.8974 19.6324L74.7499 13.9166C73.0127 13.3375 71.1061 13.5834 69.5728 14.5844L44 31.2778V7.81883C44 6.12837 42.9373 4.62042 41.3453 4.05186L32.1512 0.768244C30.8181 0.292131 29.3326 0.55609 28.2451 1.46233L1.07945 24.1004ZM29.8228 55.4675L8.97656 66.3247L30 81.1364V55.5832L29.8228 55.4675ZM44.1602 48L72 33.5V62.5L44.1602 48ZM30 40.4167V14.8635L8.97656 29.6752L29.8223 40.5324L30 40.4167Z" fill="white"/>
</mask>
<g mask="url(#mask0)">
<path d="M26.7463 2.7146L30.0007 0.000244141L44.0002 5.00024V91.0002L30.0002 96.0002L26.7463 93.2947C28.7151 94.9373 29.9719 95.0081 30.0002 92.1086C30.0002 92.0759 30.0007 92.0427 30.0007 92.009V4.00024C30.0007 3.96655 30.0002 3.93335 30.0002 3.90063C29.9719 1.00122 28.7151 1.07202 26.7463 2.7146Z" fill="#97043F"/>
<g filter="url(#filter0_d)">
<path d="M-0.000244141 36.0002V25.0002L29.9998 0.000244141L43.9998 5.00024L44.0002 9.00024C44.0002 6.54663 42.9211 5.79517 40.7781 7.27026L40.7502 7.28931L-0.000244141 36.0002Z" fill="#B61857"/>
<path d="M3.07739 33.845C0.655029 35.5559 0.661865 36.446 3.07739 38.009L0.000244141 36.0183L3.07739 33.845Z" fill="#B61857"/>
</g>
<g filter="url(#filter1_d)">
<path d="M71.9993 13.0002L-0.000732422 60.0002V70.9817L-0.0144043 70.9885L-0.000732422 71.0002L3.06274 73.5593C0.802979 71.6716 0.628174 70.7444 2.7605 69.5618C2.85669 69.5085 2.95728 69.4548 3.06274 69.4006L90.5256 23.8577C93.9998 22.0442 95.9998 22.5002 96.0002 27.0002L95.9993 21.0002L71.9993 13.0002Z" fill="#B61857"/>
</g>
<g filter="url(#filter2_d)">
<path d="M3.07739 62.1648C0.655029 60.4539 0.661865 59.5637 3.07739 58.0007L0.000244141 59.9915L-0.000244141 60.0002V71.0002L29.9998 96.0002L43.9919 91.0032L43.9998 91.0002L44.0002 87.009C44.0002 89.3787 42.9944 90.1609 40.9954 88.8835C40.9153 88.8323 40.8337 88.7776 40.7502 88.72L3.07739 62.1648Z" fill="#CB2E6D"/>
</g>
<g filter="url(#filter3_d)">
<path d="M-0.000244141 25.0095L-0.0144043 25.0212L-0.000244141 25.0286V36.0002L71.9998 83.0002L95.989 75.0037L96.0002 75.0095L95.9998 75.0002L96.0002 69.0095C96.0002 73.3884 94.1057 73.9377 90.8025 72.2932C90.7112 72.2478 90.6189 72.2009 90.5256 72.1521L2.56763 26.3376C0.641357 25.2063 0.873779 24.2791 3.06274 22.4504L-0.000244141 25.0002V25.0095Z" fill="#CB2E6D"/>
</g>
<g filter="url(#filter4_d)">
<path d="M72.0007 13.0002L67.2122 16.134C70.761 13.8113 71.9724 14.9724 72.0002 18.8616C72.0002 18.9075 72.0007 18.9539 72.0007 19.0002V77.009C72.0007 77.0554 72.0002 77.1018 72.0002 77.1477C71.9724 81.0369 70.761 82.198 67.2122 79.8752L72.0002 83.0002L96.0002 75.0002V21.0002L72.0007 13.0002Z" fill="#E9528F"/>
</g>
<g style="mix-blend-mode:overlay" opacity="0.25">
<rect width="96" height="96" fill="url(#paint0_linear)"/>
</g>
</g>
<defs>
<filter id="filter0_d" x="-4.00024" y="-3.99976" width="52.0005" height="46.0088" filterUnits="userSpaceOnUse" color-interpolation-filters="sRGB">
<feFlood flood-opacity="0" result="BackgroundImageFix"/>
<feColorMatrix in="SourceAlpha" type="matrix" values="0 0 0 0 0 0 0 0 0 0 0 0 0 0 0 0 0 0 127 0"/>
<feOffset/>
<feGaussianBlur stdDeviation="2"/>
<feColorMatrix type="matrix" values="0 0 0 0 0 0 0 0 0 0 0 0 0 0 0 0 0 0 0.25 0"/>
<feBlend mode="overlay" in2="BackgroundImageFix" result="effect1_dropShadow"/>
<feBlend mode="normal" in="SourceGraphic" in2="effect1_dropShadow" result="shape"/>
</filter>
<filter id="filter1_d" x="-4.0144" y="9.00024" width="104.015" height="68.5591" filterUnits="userSpaceOnUse" color-interpolation-filters="sRGB">
<feFlood flood-opacity="0" result="BackgroundImageFix"/>
<feColorMatrix in="SourceAlpha" type="matrix" values="0 0 0 0 0 0 0 0 0 0 0 0 0 0 0 0 0 0 127 0"/>
<feOffset/>
<feGaussianBlur stdDeviation="2"/>
<feColorMatrix type="matrix" values="0 0 0 0 0 0 0 0 0 0 0 0 0 0 0 0 0 0 0.25 0"/>
<feBlend mode="overlay" in2="BackgroundImageFix" result="effect1_dropShadow"/>
<feBlend mode="normal" in="SourceGraphic" in2="effect1_dropShadow" result="shape"/>
</filter>
<filter id="filter2_d" x="-4.00024" y="54.0007" width="52.0005" height="45.9995" filterUnits="userSpaceOnUse" color-interpolation-filters="sRGB">
<feFlood flood-opacity="0" result="BackgroundImageFix"/>
<feColorMatrix in="SourceAlpha" type="matrix" values="0 0 0 0 0 0 0 0 0 0 0 0 0 0 0 0 0 0 127 0"/>
<feOffset/>
<feGaussianBlur stdDeviation="2"/>
<feColorMatrix type="matrix" values="0 0 0 0 0 0 0 0 0 0 0 0 0 0 0 0 0 0 0.25 0"/>
<feBlend mode="overlay" in2="BackgroundImageFix" result="effect1_dropShadow"/>
<feBlend mode="normal" in="SourceGraphic" in2="effect1_dropShadow" result="shape"/>
</filter>
<filter id="filter3_d" x="-4.0144" y="18.4504" width="104.015" height="68.5498" filterUnits="userSpaceOnUse" color-interpolation-filters="sRGB">
<feFlood flood-opacity="0" result="BackgroundImageFix"/>
<feColorMatrix in="SourceAlpha" type="matrix" values="0 0 0 0 0 0 0 0 0 0 0 0 0 0 0 0 0 0 127 0"/>
<feOffset/>
<feGaussianBlur stdDeviation="2"/>
<feColorMatrix type="matrix" values="0 0 0 0 0 0 0 0 0 0 0 0 0 0 0 0 0 0 0.25 0"/>
<feBlend mode="overlay" in2="BackgroundImageFix" result="effect1_dropShadow"/>
<feBlend mode="normal" in="SourceGraphic" in2="effect1_dropShadow" result="shape"/>
</filter>
<filter id="filter4_d" x="63.2122" y="9.00024" width="36.7881" height="78" filterUnits="userSpaceOnUse" color-interpolation-filters="sRGB">
<feFlood flood-opacity="0" result="BackgroundImageFix"/>
<feColorMatrix in="SourceAlpha" type="matrix" values="0 0 0 0 0 0 0 0 0 0 0 0 0 0 0 0 0 0 127 0"/>
<feOffset/>
<feGaussianBlur stdDeviation="2"/>
<feColorMatrix type="matrix" values="0 0 0 0 0 0 0 0 0 0 0 0 0 0 0 0 0 0 0.25 0"/>
<feBlend mode="overlay" in2="BackgroundImageFix" result="effect1_dropShadow"/>
<feBlend mode="normal" in="SourceGraphic" in2="effect1_dropShadow" result="shape"/>
</filter>
<linearGradient id="paint0_linear" x1="48" y1="0" x2="48" y2="96" gradientUnits="userSpaceOnUse">
<stop stop-color="white"/>
<stop offset="1" stop-color="white" stop-opacity="0"/>
</linearGradient>
</defs>
</svg>
