<?xml version="1.0" encoding="UTF-8" standalone="no"?>
<svg
   xmlns:dc="http://purl.org/dc/elements/1.1/"
   xmlns:cc="http://creativecommons.org/ns#"
   xmlns:rdf="http://www.w3.org/1999/02/22-rdf-syntax-ns#"
   xmlns:svg="http://www.w3.org/2000/svg"
   xmlns="http://www.w3.org/2000/svg"
   xmlns:sodipodi="http://sodipodi.sourceforge.net/DTD/sodipodi-0.dtd"
   xmlns:inkscape="http://www.inkscape.org/namespaces/inkscape"
   id="ICONS"
   viewBox="0 0 48 46.884068"
   version="1.1"
   sodipodi:docname="vs-subscription-temp.svg"
   width="48"
   height="46.884068"
   inkscape:version="0.92.4 (5da689c313, 2019-01-14)">
  <metadata
     id="metadata4372">
    <rdf:RDF>
      <cc:Work
         rdf:about="">
        <dc:format>image/svg+xml</dc:format>
        <dc:type
           rdf:resource="http://purl.org/dc/dcmitype/StillImage" />
      </cc:Work>
    </rdf:RDF>
  </metadata>
  <sodipodi:namedview
     pagecolor="#ffffff"
     bordercolor="#666666"
     borderopacity="1"
     objecttolerance="10"
     gridtolerance="10"
     guidetolerance="10"
     inkscape:pageopacity="0"
     inkscape:pageshadow="2"
     inkscape:window-width="1249"
     inkscape:window-height="1149"
     id="namedview4370"
     showgrid="false"
     inkscape:zoom="1.1575"
     inkscape:cx="51"
     inkscape:cy="47"
     inkscape:window-x="0"
     inkscape:window-y="0"
     inkscape:window-maximized="0"
     inkscape:current-layer="ICONS" />
  <defs
     id="defs4337">
    <style
       id="style4335">
      .cls-1 {
        fill: #ff9f2b;
      }

      .cls-2 {
        fill: #ff8c00;
      }

      .cls-3 {
        fill: #556a8a;
      }

      .cls-4, .cls-8 {
        fill: #fff;
      }

      .cls-5 {
        fill: #e5e5e5;
      }

      .cls-6 {
        fill: #5c2d91;
      }

      .cls-7 {
        fill: none;
      }

      .cls-7, .cls-8 {
        stroke: #556a8a;
        stroke-miterlimit: 10;
        stroke-width: 2px;
      }
    </style>
  </defs>
  <title
     id="title4339">vs-subscription-temp</title>
  <g
     id="g4367"
     transform="matrix(0.50056729,0,0,0.50056729,-74.584526,-11.682306)">
    <g
       id="g4363">
      <g
         id="g4347">
        <path
           class="cls-1"
           d="m 157.64,115 c -1.21,0.4 -2.51,0.77 -3.85,1.13 8.08,-33.55 24,-27.48 24,-27.48 l 2.6,2.46 0.1,0.32 c 0.51,2.26 2.71,15.5 -22.85,23.57 z"
           id="path4341"
           inkscape:connector-curvature="0"
           style="fill:#ff9f2b" />
        <path
           class="cls-2"
           d="m 157.64,115 c 7.9,-27.62 21.47,-24 22.85,-23.57 0.51,2.26 2.71,15.5 -22.85,23.57 z"
           id="path4343"
           inkscape:connector-curvature="0"
           style="fill:#ff8c00" />
        <polygon
           class="cls-3"
           points="183.72,88.51 181.74,97.81 170.45,86.52 179.49,84.26 "
           id="polygon4345"
           style="fill:#556a8a" />
      </g>
      <polygon
         class="cls-3"
         points="174.97,54.73 185.82,58.81 184,72.8 153.52,71.67 149,67.15 "
         id="polygon4349"
         style="fill:#556a8a" />
      <polygon
         class="cls-3"
         points="214.96,91.03 210.88,80.18 196.9,82 198.03,112.48 202.54,117 "
         id="polygon4351"
         style="fill:#556a8a" />
      <g
         id="g4361">
        <path
           class="cls-4"
           d="m 190.82,95.45 h -0.34 l -0.27,-0.25 -16.09,-16.78 0.07,-0.4 c 0,-0.17 3.06,-17.24 18.28,-32.39 14.6,-14.52 48.65,-20.63 50.1,-20.88 l 1.11,-0.19 -0.18,1.11 c 0,0 -0.59,3.55 -1.81,8.71 -3.31,13.95 -9.25,32.57 -18.73,42.09 -14.76,14.85 -30.79,18.98 -32.14,18.98 z"
           id="path4353"
           inkscape:connector-curvature="0"
           style="fill:#ffffff" />
        <path
           class="cls-5"
           d="m 240.81,36.35 c -2.7,11.35 -8.56,31 -18.52,41 -14.72,14.82 -30.74,17.9 -31.57,18.06 l -9,-9 c 0,0 2.89,-16.41 18.1,-31.55 10,-9.95 29.62,-15.81 40.99,-18.51 z"
           id="path4355"
           inkscape:connector-curvature="0"
           style="fill:#e5e5e5" />
        <path
           class="cls-6"
           d="m 244,24.08 c 0,0 -11.74,1.76 -29.22,8.7 l 21.39,21.39 C 241.19,40.63 244,24.08 244,24.08 Z"
           id="path4357"
           inkscape:connector-curvature="0"
           style="fill:#5c2d91" />
        <path
           class="cls-7"
           d="m 190.82,95.45 h -0.34 l -0.27,-0.25 -16.09,-16.78 0.07,-0.4 c 0,-0.17 3.06,-17.24 18.28,-32.39 14.6,-14.52 48.65,-20.63 50.1,-20.88 l 1.11,-0.19 -0.18,1.11 c 0,0 -0.59,3.55 -1.81,8.71 -3.31,13.95 -9.25,32.57 -18.73,42.09 -14.76,14.85 -30.79,18.98 -32.14,18.98 z"
           id="path4359"
           inkscape:connector-curvature="0"
           style="fill:none;stroke:#556a8a;stroke-width:2px;stroke-miterlimit:10" />
      </g>
    </g>
    <circle
       class="cls-8"
       cx="206.48"
       cy="61.119999"
       r="7.98"
       id="circle4365"
       style="fill:#ffffff;stroke:#556a8a;stroke-width:2px;stroke-miterlimit:10" />
  </g>
</svg>
