<svg id="Layer_1" data-name="Layer 1" xmlns="http://www.w3.org/2000/svg" width="160" height="80" viewBox="0 0 160 80"><defs><style>.cls-1{fill:#e5e5e5;}.cls-2{fill:#5c2d91;}.cls-3{fill:#fff;}.cls-4{fill:#c55555;}.cls-5{fill:#505050;}.cls-6{fill:#737373;}.cls-7{fill:gray;}.cls-8{fill:#d0c2df;}</style></defs><title>getstarted</title><polygon class="cls-1" points="34.55 50 45.8 30.5 34.55 11 12.03 11 0.77 30.5 12.03 50 34.55 50"/><polygon class="cls-2" points="67.97 69 79.23 49.5 67.97 30 45.45 30 34.2 49.5 45.45 69 67.97 69"/><path class="cls-3" d="M62,38l-9.52,9.53L46.4,42.8,44,44V56l2.4,1.2,6.08-4.73L62,62l6-2.4V40.4ZM46.4,53.6V46.4L50,50ZM55.66,50,62,45.07v9.86Z"/><path class="cls-4" d="M16.38,35.54s-3-1.06-4.49,5.23c6.08-1.62,5-4.76,5-4.76Z"/><polygon class="cls-5" points="20.43 35.17 17.39 32.1 16.06 33.42 17.02 34.38 14.88 34.77 17.75 37.66 18.16 35.52 19.11 36.48 20.43 35.17"/><path class="cls-3" d="M16.73,32.1a16.93,16.93,0,0,1,4.56-8c3.26-3.24,10.16-4.59,12.3-4.95-.37,2.15-1.76,9-5,12.28a16.87,16.87,0,0,1-8.06,4.51Z"/><path class="cls-6" d="M33,19.73c-.5,2.63-1.89,8.46-4.75,11.31a16.58,16.58,0,0,1-7.55,4.32L19,33.64l-1.69-1.7a16.47,16.47,0,0,1,4.36-7.52c2.86-2.85,8.7-4.2,11.33-4.69m1.22-1.24,0,0c-.7.09-9.35,1.32-13.23,5.19a17,17,0,0,0-4.74,8.55l2.07,2.08,0,0,2.07,2.08a17,17,0,0,0,8.58-4.7c3.88-3.86,5.16-12.5,5.26-13.2l0,0h0v0Z"/><path class="cls-6" d="M18.61,28.43s-3.62-2.16-5.33-.25a32.73,32.73,0,0,0-2.82,3.65l.63.54s2-2.21,3.67-2.24a7.64,7.64,0,0,1,2.73,1Z"/><path class="cls-6" d="M24.21,34s2.15,3.66.23,5.35a32.73,32.73,0,0,1-3.66,2.8l-.54-.64s2.22-2,2.26-3.66a7.64,7.64,0,0,0-.94-2.74Z"/><path class="cls-7" d="M27.25,20.67a39,39,0,0,1,6.23-1.56,39,39,0,0,1-1.59,6.23Z"/><path class="cls-6" d="M32.87,19.73a38.88,38.88,0,0,1-1.19,4.69l-3.51-3.53a38.86,38.86,0,0,1,4.69-1.16m1.22-1.24,0,0a38.59,38.59,0,0,0-7.72,1.95l5.75,5.78a38.59,38.59,0,0,0,2-7.71l0,0h0v0Z"/><polygon class="cls-8" points="114.55 50 125.8 30.5 114.55 11 92.03 11 80.77 30.5 92.03 50 114.55 50"/><polygon class="cls-2" points="147.97 69 159.23 49.5 147.97 30 125.45 30 114.2 49.5 125.45 69 147.97 69"/><path class="cls-3" d="M142,38l-9.52,9.53L126.4,42.8,124,44V56l2.4,1.2,6.08-4.73L142,62l6-2.4V40.4ZM126.4,53.6V46.4L130,50Zm9.26-3.6L142,45.07v9.86Z"/><path class="cls-4" d="M96.38,35.54s-3-1.06-4.49,5.23c6.08-1.62,5-4.76,5-4.76Z"/><polygon class="cls-5" points="100.43 35.17 97.39 32.1 96.06 33.42 97.02 34.38 94.88 34.77 97.75 37.66 98.16 35.52 99.11 36.48 100.43 35.17"/><path class="cls-3" d="M96.73,32.1a16.92,16.92,0,0,1,4.56-8c3.25-3.23,10.15-4.59,12.3-4.95-.37,2.15-1.76,9-5,12.28a16.94,16.94,0,0,1-8.06,4.51Z"/><path class="cls-2" d="M113,19.73c-.5,2.63-1.89,8.46-4.75,11.31a16.58,16.58,0,0,1-7.55,4.32L99,33.64l-1.69-1.7a16.47,16.47,0,0,1,4.36-7.52c2.86-2.85,8.7-4.2,11.33-4.69m1.22-1.24,0,0c-.7.09-9.35,1.32-13.23,5.19a17,17,0,0,0-4.74,8.55l2.07,2.08,0,0,2.07,2.08a17,17,0,0,0,8.58-4.7c3.88-3.86,5.16-12.5,5.26-13.2l0,0h0v0Z"/><path class="cls-2" d="M98.61,28.43s-3.62-2.16-5.33-.25a32.73,32.73,0,0,0-2.82,3.65l.63.54s2-2.21,3.67-2.24a7.64,7.64,0,0,1,2.73,1Z"/><path class="cls-2" d="M104.21,34s2.15,3.66.23,5.35a32.73,32.73,0,0,1-3.66,2.8l-.54-.64s2.22-2,2.26-3.66a7.64,7.64,0,0,0-.94-2.74Z"/><path class="cls-2" d="M107.25,20.67a39,39,0,0,1,6.23-1.56,39,39,0,0,1-1.59,6.23Z"/><path class="cls-2" d="M112.87,19.73a38.88,38.88,0,0,1-1.19,4.69l-3.51-3.53a38.85,38.85,0,0,1,4.69-1.16m1.22-1.24,0,0a38.59,38.59,0,0,0-7.72,1.95l5.75,5.78a38.6,38.6,0,0,0,2-7.71l0,0h0v0Z"/></svg>