<?xml version="1.0" encoding="utf-8"?>
<!-- Generator: Adobe Illustrator 20.1.0, SVG Export Plug-In . SVG Version: 6.00 Build 0)  -->
<svg version="1.1" xmlns="http://www.w3.org/2000/svg" xmlns:xlink="http://www.w3.org/1999/xlink" x="0px" y="0px"
	 viewBox="0 0 160 80" style="enable-background:new 0 0 160 80;" xml:space="preserve" height="80" width="160">
<style type="text/css">
	.st0{fill:#DCDCDC;}
	.st1{fill:#CCCCCC;}
	.st2{fill:#FFFFFF;}
	.st3{fill:#444444;}
	.st4{fill:#6E6E6E;}
	.st5{fill:#D0BBD9;}
	.st6{fill:#A388C1;}
	.st7{fill:#5C2D91;}
	.st8{fill:#C1E3F1;}
	.st9{fill:#D0BCD9;}
	.st10{fill:#804998;}
	.st11{fill:#3999C6;}
	.st12{fill:#0072C6;}
	.st13{fill:#3E3E3E;}
	.st14{fill:#888888;}
	.st15{fill:#8B6AB1;}
	.st16{fill:#A0A1A2;enable-background:new    ;}
	.st17{fill:#888888;enable-background:new    ;}
	.st18{fill:#73AA24;}
	.st19{fill:#05930C;}
	.st20{fill:none;stroke:#FF8C00;stroke-width:2;stroke-linecap:round;stroke-miterlimit:10;}
	.st21{fill:none;stroke:#FFFFFF;stroke-width:2;stroke-linecap:round;stroke-miterlimit:10;}
	.st22{fill:#A0A1A2;}
	.st23{fill:none;stroke:#888888;stroke-width:6;stroke-miterlimit:10;stroke-dasharray:1,8;}
	.st24{fill:#A3A3A3;}
	.st25{fill:none;stroke:#3999C6;stroke-width:6;stroke-miterlimit:10;stroke-dasharray:1,8;}
	.st26{fill:#FEE990;}
	.st27{fill:none;stroke:#6E6E6E;stroke-width:4;stroke-miterlimit:10;}
</style>
<g id="Layer_1">
	<g>
		<g>
			<polygon class="st0" points="17,49 4,27 17,5 43,5 56,27 43,49 			"/>
		</g>
		<g>
			<path class="st1" d="M16.679,30.69C20.717,15.272,32.275,12.268,42,10.499c-1.015,8.059-4.082,22.84-19.096,26.339L16.679,30.69z
				"/>
			<path class="st2" d="M38.75,23.228c0,0,2.813-9.255,3.25-12.729c-4.166,0.758-8.669,1.742-12.773,3.832
				C29.227,14.332,30.89,21.524,38.75,23.228z"/>
			<polygon class="st3" points="22.492,35.34 17.981,31.063 16.022,33.129 17.434,34.468 14.374,35.125 18.628,39.158 
				19.121,36.067 20.534,37.406 			"/>
			<path class="st4" d="M42,10.499c-8.408,1.529-18.18,3.989-23.284,14.587c-1.872-0.575-4.253-0.869-5.563,0.688
				c-2.372,2.821-3.901,5.361-3.901,5.361l0.933,0.747c0,0,2.828-3.258,5.184-3.377c0.525-0.027,1.203,0.139,1.849,0.358
				c-0.19,0.591-0.373,1.195-0.538,1.827l6.224,6.149c0.821-0.191,1.601-0.422,2.352-0.678c0,0,0,0,0,0
				c0.208,0.56,0.363,1.13,0.365,1.591c0.007,2.36-3.095,5.357-3.095,5.357L23.321,44c0,0,2.454-1.662,5.145-4.182
				c1.408-1.318,1.103-3.51,0.494-5.301c-0.001,0.001-0.003,0.001-0.004,0.002C38.799,28.996,41.139,17.333,42,10.499z
				 M23.46,34.787l-4.706-4.649c3.558-12.034,12.107-15.463,21.037-17.326C37.716,25.103,32.354,32.313,23.46,34.787z"/>
			<path class="st4" d="M37.44,24.613c-9.172-1.988-9.987-8.943-10.017-9.239l3.979-0.406l-1.99,0.203l1.987-0.23
				c0.023,0.18,0.647,4.411,6.888,5.765L37.44,24.613z"/>
		</g>
	</g>
	<g>
		<g>
			<polygon class="st8" points="97,49 84,27 97,5 123,5 136,27 123,49 			"/>
		</g>
		<g>
			<path class="st9" d="M96.679,30.69c4.038-15.418,15.595-18.422,25.321-20.191c-1.015,8.059-4.082,22.84-19.096,26.339
				L96.679,30.69z"/>
			<path class="st2" d="M118.75,23.228c0,0,2.813-9.255,3.25-12.729c-4.166,0.758-8.669,1.742-12.773,3.832
				C109.227,14.332,110.89,21.524,118.75,23.228z"/>
			<polygon class="st3" points="102.492,35.34 97.981,31.063 96.022,33.129 97.434,34.468 94.374,35.125 98.628,39.158 
				99.121,36.067 100.534,37.406 			"/>
			<path class="st10" d="M122,10.499c-8.408,1.529-18.18,3.989-23.284,14.587c-1.872-0.575-4.253-0.869-5.563,0.688
				c-2.372,2.821-3.901,5.361-3.901,5.361l0.933,0.747c0,0,2.828-3.258,5.184-3.377c0.525-0.027,1.203,0.139,1.849,0.358
				c-0.19,0.591-0.373,1.195-0.538,1.827l6.224,6.149c0.821-0.191,1.601-0.422,2.352-0.678c0,0,0,0,0,0
				c0.208,0.56,0.363,1.13,0.365,1.591c0.007,2.36-3.095,5.357-3.095,5.357L103.321,44c0,0,2.454-1.662,5.145-4.182
				c1.408-1.318,1.103-3.51,0.494-5.301c-0.001,0.001-0.003,0.001-0.004,0.002C118.799,28.996,121.139,17.333,122,10.499z
				 M103.46,34.787l-4.706-4.649c3.558-12.034,12.107-15.463,21.037-17.326C117.716,25.103,112.354,32.313,103.46,34.787z"/>
			<path class="st10" d="M117.44,24.613c-9.172-1.988-9.987-8.943-10.017-9.239l3.979-0.406l-1.99,0.203l1.987-0.23
				c0.023,0.18,0.647,4.411,6.888,5.765L117.44,24.613z"/>
		</g>
	</g>
	<g>
		<polygon class="st7" points="39,78 26,56 39,34 65,34 78,56 65,78 		"/>
	</g>
	<g>
		<path class="st2" d="M57.5,42L46.391,53.116L39.3,47.6L36.5,49v14l2.8,1.4l7.091-5.516L57.5,70l7-2.8V44.8L57.5,42z M39.3,60.2
			v-8.4l4.2,4.2L39.3,60.2z M50.101,56l7.399-5.754v11.508L50.101,56z"/>
	</g>
	<g>
		<polygon class="st7" points="119,78 106,56 119,34 145,34 158,56 145,78 		"/>
	</g>
	<g>
		<path class="st2" d="M138,42l-11.109,11.116L119.8,47.6L117,49v14l2.8,1.4l7.091-5.516L138,70l7-2.8V44.8L138,42z M119.8,60.2
			v-8.4L124,56L119.8,60.2z M130.601,56L138,50.246v11.508L130.601,56z"/>
	</g>
</g>
<g id="Layer_2">
</g>
</svg>
