<svg xmlns="http://www.w3.org/2000/svg" viewBox="0 0 64 64">
  <defs>
    <style>
      .cls-1 {
        fill: #fff;
      }

      .cls-2 {
        fill: #ace8f9;
      }

      .cls-3 {
        fill: #556a8a;
      }

      .cls-4 {
        fill: none;
        stroke: #556a8a;
        stroke-miterlimit: 10;
        stroke-width: 2px;
      }
    </style>
  </defs>
  <title>i_web</title>
  <g id="ICONS-64x">
    <circle class="cls-1" cx="32" cy="32" r="32"/>
    <path class="cls-1" d="M62.5,31.75a2.09,2.09,0,0,1,0,.25A30.24,30.24,0,0,1,2,32a2.09,2.09,0,0,1,0-.25,30.25,30.25,0,0,1,60.5,0Z"/>
    <path class="cls-2" d="M32.25,62.5A30.82,30.82,0,0,1,1.51,32v-.5H63V32A30.82,30.82,0,0,1,32.25,62.5Z"/>
    <path class="cls-3" d="M32,2A30,30,0,1,1,2,32,30,30,0,0,1,32,2m0-2A32,32,0,1,0,64,32,32,32,0,0,0,32,0Z"/>
    <path class="cls-3" d="M32,2c5.71,0,12.08,12.32,12.08,30S37.71,62,32,62,19.92,49.68,19.92,32,26.29,2,32,2m0-2C24.22,0,17.92,14.33,17.92,32S24.22,64,32,64,46.08,49.67,46.08,32,39.78,0,32,0Z"/>
    <path class="cls-4" d="M57.88,15c-4.63,1.39-14.57,2.36-26.09,2.36s-21.67-1-26.23-2.4"/>
    <path class="cls-4" d="M5.55,48.32c4.34-1.41,14.49-2.4,26.33-2.4,11.54,0,21.49.94,26,2.3"/>
    <line class="cls-4" x1="0.94" y1="32" x2="63.33" y2="32"/>
  </g>
</svg>
