<svg xmlns="http://www.w3.org/2000/svg" viewBox="0 0 450 300"><defs><style>.a{fill:#5db15d;}.b{fill:#007596;}.c{fill:#bad80a;}.d{fill:#f3f3f3;}.e{fill:#9ab208;}.f{fill:#107c10;}.g{fill:#704322;}.h{fill:#301d19;}.i{fill:#613d30;}.j{fill:#3b930f;}.k{fill:#a6a6a6;}.l{fill:#329132;}.m{fill:#57372b;}.n{fill:#939393;}.o{fill:#f8d5b9;}.p{fill:#deb695;}.q{fill:#f6caa7;}.r{fill:#fff;}.s{fill:#5c005c;}.t{fill:#798c08;}.u{fill:#d2d2d2;}.v{fill:#0d520d;}.w{fill:#737373;}.x{fill:#dadada;}.y{fill:#676767;}.z{fill:#0e6f0e;}.aa{fill:#8e562e;}.ab{fill:#bdbdbd;}.ac{fill:#ab845f;}.ad{fill:#ba8c57;}.ae{fill:#e8ed59;}.af{fill:#bb9167;}.ag{fill:#666;}.ah{fill:#f57800;}</style></defs><title>swimlane-collaborative-debugging</title><polygon class="a" points="294.227 253.173 294.227 253.173 304.458 268.771 294.227 253.173"/><path class="b" d="M167.819,206.205a26.661,26.661,0,0,0,5.635,41.976c.524.262,1.056.524,1.579.785a22.209,22.209,0,1,1-7.214-42.762Z"/><path class="c" d="M47.046,79.633H330.505V253.212H60.29a13.244,13.244,0,0,1-13.244-13.244Z"/><path class="d" d="M322.543,86H90.043v2.389H320.154V244.453H54.453a12.383,12.383,0,0,0-.962,2.389H322.543Z"/><path class="e" d="M90.043,78.837V236.491h-22.5c-8.2,0-14.817,5.633-14.817,13.764,0,0-5.678-3.407-5.678-9.439,0-17.313-.008-161.979-.008-161.979Z"/><path class="f" d="M61.727,62.912A14.681,14.681,0,0,0,47.046,77.593V241.371c.033-.2.045-.97.045-.97a14.461,14.461,0,0,1,14.5-13.465H77.3V62.912Z"/><path class="d" d="M223.81,219.94a1.254,1.254,0,0,1-1.3,1.423H180.65a1.375,1.375,0,0,1-1.429-1.423v-2.855a1.352,1.352,0,0,1,1.429-1.3h41.858a1.169,1.169,0,0,1,1.3,1.3Zm-21.9,13.648c-8.523,0-13.763-3.407-15.6-9.836h31.071C215.679,230.18,210.31,233.588,201.911,233.588Zm20.6-25.761c.391,0,1.3.131,1.3,1.424v2.857a1.212,1.212,0,0,1-1.3,1.293H180.65a1.254,1.254,0,0,1-1.429-1.293v-2.857a1.316,1.316,0,0,1,1.429-1.424ZM179.221,200.4a1.306,1.306,0,0,1,1.429-1.327h41.858a1.18,1.18,0,0,1,1.3,1.327v2.924a1.21,1.21,0,0,1-1.3,1.323H180.65a1.262,1.262,0,0,1-1.429-1.323Zm-8.735-28.465c-.9-1.035-1.812-2.083-2.588-3.119h0a42.584,42.584,0,0,1-8.948-26.068,43.016,43.016,0,0,1,38.63-42.666,42.905,42.905,0,0,1,29.691,68.733h-.132c-.776,1.035-1.684,2.083-2.588,3.119h0c-4.285,5.307-11.15,15.431-11.926,25.546H182.412C181.636,187.361,174.644,177.11,170.486,171.93Zm74.266-29.873a42.329,42.329,0,0,1-8.78,25.959h.177c-.793,1.057-1.586,2.128-2.513,3.185h-.375c-4.273,5.328-11.469,15.872-12.136,26.276h-7.07c.8-9.867,7.607-19.883,11.735-25.076.934-1.069,1.863-2.134,2.8-3.212v.293l.656-.669h-.133a45.535,45.535,0,0,0,8-18.313h1.831v-1.592h-1.42a61.239,61.239,0,0,0,.515-6.849A44.7,44.7,0,0,0,206.922,99.57,42.765,42.765,0,0,1,244.752,142.056Zm-21.3,55.611c.651-9.745,7.455-19.637,11.521-24.765.912-1.056,1.829-2.108,2.613-3.173l.917-.918h-.133a45.892,45.892,0,0,0,8.647-26.744c0-25.028-20.163-45.445-45.04-45.445a45.4,45.4,0,0,0-45.164,45.445,44.381,44.381,0,0,0,8.771,26.61l-.129.134.784.918c.917,1.065,1.7,2.117,2.746,3.173,3.925,5.129,10.737,15.02,11.521,24.765a3.1,3.1,0,0,0-2.879,3.159v2.905a2.908,2.908,0,0,0,1.572,2.763,3.413,3.413,0,0,0-1.572,2.763v2.905A2.716,2.716,0,0,0,179.2,214.8a3.407,3.407,0,0,0-1.572,2.763v2.905a3.221,3.221,0,0,0,3.273,3.288h3.659c1.843,7.508,7.991,11.719,17.417,11.719s15.579-4.211,17.408-11.719h3.672a3.106,3.106,0,0,0,3.141-3.288v-2.905a2.842,2.842,0,0,0-1.44-2.633,3.44,3.44,0,0,0,1.44-2.763v-2.905a3.065,3.065,0,0,0-1.44-2.763,3.272,3.272,0,0,0,1.44-2.763v-2.905A3.051,3.051,0,0,0,223.452,197.667Z"/><rect class="d" x="231.772" y="200.66" width="11.944" height="1.593"/><rect class="d" x="236.55" y="209.419" width="1.593" height="2.389"/><rect class="d" x="236.55" y="214.196" width="1.593" height="2.389"/><rect class="d" x="236.55" y="204.642" width="1.593" height="2.389"/><rect class="d" x="236.55" y="218.974" width="1.593" height="2.389"/><rect class="d" x="236.55" y="229.325" width="1.593" height="2.389"/><rect class="d" x="236.55" y="223.751" width="1.593" height="2.389"/><rect class="d" x="231.772" y="234.102" width="11.944" height="1.592"/><rect class="d" x="128.262" y="108.297" width="1.592" height="2.389"/><rect class="d" x="128.262" y="160.052" width="1.592" height="2.389"/><rect class="d" x="128.262" y="145.72" width="1.592" height="2.389"/><rect class="d" x="128.262" y="155.275" width="1.592" height="2.389"/><rect class="d" x="128.262" y="150.498" width="1.592" height="2.389"/><rect class="d" x="128.262" y="140.943" width="1.592" height="2.389"/><rect class="d" x="128.262" y="122.63" width="1.592" height="2.389"/><rect class="d" x="128.262" y="113.075" width="1.592" height="2.389"/><rect class="d" x="128.262" y="136.165" width="1.592" height="2.389"/><rect class="d" x="128.262" y="117.852" width="1.592" height="2.389"/><rect class="d" x="128.262" y="127.407" width="1.592" height="2.389"/><rect class="d" x="128.262" y="164.83" width="1.592" height="2.389"/><rect class="d" x="128.262" y="132.184" width="1.592" height="2.389"/><rect class="d" x="128.262" y="207.03" width="1.592" height="2.389"/><rect class="d" x="128.262" y="202.253" width="1.592" height="2.389"/><rect class="d" x="128.262" y="211.808" width="1.592" height="2.389"/><rect class="d" x="128.262" y="216.585" width="1.592" height="2.389"/><rect class="d" x="128.262" y="169.607" width="1.592" height="2.389"/><rect class="d" x="128.262" y="197.476" width="1.592" height="2.389"/><rect class="d" x="128.262" y="221.363" width="1.592" height="2.389"/><rect class="d" x="128.262" y="192.698" width="1.592" height="2.389"/><rect class="d" x="128.262" y="179.162" width="1.592" height="2.389"/><rect class="d" x="128.262" y="174.385" width="1.592" height="2.389"/><rect class="d" x="128.262" y="183.94" width="1.592" height="2.389"/><rect class="d" x="128.262" y="188.717" width="1.592" height="2.389"/><rect class="d" x="122.688" y="226.14" width="11.944" height="1.592"/><rect class="d" x="122.688" y="104.316" width="11.944" height="1.592"/><rect class="d" x="226.995" y="148.905" width="2.389" height="1.592"/><rect class="d" x="231.772" y="148.905" width="2.389" height="1.592"/><rect class="d" x="222.217" y="148.905" width="2.389" height="1.592"/><rect class="d" x="207.885" y="148.905" width="2.389" height="1.592"/><rect class="d" x="217.44" y="148.905" width="2.389" height="1.592"/><rect class="d" x="212.663" y="148.905" width="2.389" height="1.592"/><rect class="d" x="261.233" y="148.905" width="2.389" height="1.592"/><rect class="d" x="266.01" y="148.905" width="2.389" height="1.592"/><rect class="d" x="242.123" y="148.905" width="2.389" height="1.592"/><rect class="d" x="256.456" y="148.905" width="2.389" height="1.592"/><rect class="d" x="251.678" y="148.905" width="2.389" height="1.592"/><rect class="d" x="246.901" y="148.905" width="2.389" height="1.592"/><rect class="d" x="203.108" y="144.128" width="1.592" height="11.943"/><rect class="d" x="270.788" y="144.128" width="1.592" height="11.943"/><path class="d" d="M202.044,110.686h.918a.852.852,0,0,0,.914-.772.772.772,0,0,0-.914-.821h-.918a32.035,32.035,0,0,0-32.378,32.57v.785c-.276.523.119.918.642.918h0a1.069,1.069,0,0,0,.95-1.052v-.652A30.871,30.871,0,0,1,202.044,110.686Z"/><path class="g" d="M308.651,241.229c-3.931-3.541-10.1-7.742-13.111-16.008s-7.219-10.36,2.356-13.909a149.564,149.564,0,0,1,19.149,24.4A19.993,19.993,0,0,1,308.651,241.229Z"/><path class="h" d="M308.651,241.229c-3.931-3.541-10.1-7.742-13.111-16.008s-7.219-10.36,2.356-13.909a149.564,149.564,0,0,1,19.149,24.4A19.993,19.993,0,0,1,308.651,241.229Z"/><path class="i" d="M269.186,220.638a3.5,3.5,0,0,0,4.321,2.356,3.369,3.369,0,0,0,2.36-4.2,3.3,3.3,0,0,0-4.193-2.489A3.586,3.586,0,0,0,269.186,220.638Z"/><path class="i" d="M275.606,233.749a3.454,3.454,0,0,0,4.6,1.571,3.5,3.5,0,0,0,1.7-4.583,3.667,3.667,0,0,0-4.725-1.7A3.487,3.487,0,0,0,275.606,233.749Z"/><path class="i" d="M280.06,240.049a3.672,3.672,0,0,0,4.725,1.7,3.487,3.487,0,0,0,1.571-4.716,3.332,3.332,0,0,0-4.583-1.584A3.513,3.513,0,0,0,280.06,240.049Z"/><path class="i" d="M285.833,245.692a3.4,3.4,0,0,0,4.588,1.7,3.51,3.51,0,0,0,1.713-4.6,3.556,3.556,0,0,0-4.725-1.7A3.461,3.461,0,0,0,285.833,245.692Z"/><polygon class="j" points="251.74 152.809 320.976 258.018 304.458 268.771 235.351 163.705 251.74 152.809"/><path class="i" d="M279.927,204.107a80.173,80.173,0,0,0,17.969,2.622l28.582,9.051s4.206,24.66-6.025,23.613c-10.231-1.18-22.423-22.042-22.423-22.042a23.149,23.149,0,0,0-7.347-1.7C281.64,216.7,276.915,208.038,279.927,204.107Z"/><polygon class="i" points="357.952 225.354 297.896 206.729 319.405 239.13 355.073 253.039 357.952 225.354"/><polygon class="k" points="402.963 239.676 337.756 217.35 334.087 247.134 402.963 275.506 402.963 239.676"/><path class="l" d="M334.348,244.907l-.262,2.227Z"/><path class="m" d="M335.005,239.525l-.657,5.382Z"/><polygon class="n" points="335.005 239.525 334.348 244.907 334.087 247.134 402.963 275.133 402.963 266.996 335.005 239.525"/><path class="o" d="M253.311,115.82s-7.338-13.253-1.965-24.4c-13.244,8.789-13.767,10.622-13.767,10.622l2.227,17.578Z"/><path class="p" d="M253.311,115.82s-7.338-13.253-1.965-24.4c-13.244,8.789-13.767,10.622-13.767,10.622l2.227,17.578Z"/><path class="q" d="M230.888,95.743s1.7,7.609,5.515,8.266c3.4.537,13.634-8.789,13.763-9.708,14.947,4.991,9.708,19.291,9.708,19.291s.785,1.18,10.36,6.42C288.583,114.382,286.88,101,286.88,101l5.648-.395-.262-22.171L271.8,82.109s-21.9-3.94-24.256-1.309C246.106,82.5,230.888,95.743,230.888,95.743Z"/><polygon class="r" points="289.24 75.68 290.549 102.305 303.136 101.782 301.827 73.976 289.24 75.68"/><path class="p" d="M258.036,99.421l8.647-18.1a21.1,21.1,0,0,0-3.274-.524s-9.441,15.076-9.051,15.48A14.829,14.829,0,0,1,258.036,99.421Z"/><polygon class="s" points="262.886 66.629 231.016 126.179 233.115 127.36 264.98 67.809 262.886 66.629"/><polygon class="f" points="269.186 70.032 264.98 67.809 262.886 66.629 231.016 126.179 233.115 127.36 237.317 129.6 269.186 70.032"/><polygon class="d" points="231.016 126.179 230.755 134.316 237.317 129.6 231.016 126.179"/><polygon class="t" points="234.042 131.956 230.755 134.316 230.888 130.252 234.042 131.956"/><polygon class="d" points="266.422 65.316 264.98 67.809 269.186 70.032 270.495 67.543 266.422 65.316"/><polygon class="u" points="266.422 65.316 264.98 67.809 262.886 66.629 264.327 64.14 266.422 65.316"/><path class="f" d="M272.327,64.14a.918.918,0,0,0-.39-1.322l-2.36-1.309a3.326,3.326,0,0,1-.914-.523,2.074,2.074,0,0,1-.927-.528l-.266-.129a1.1,1.1,0,0,0-1.437.524L264.066,64.4l2.094,1.18,4.206,2.227Z"/><path class="v" d="M266.16,65.582l2.5-4.6a2.074,2.074,0,0,1-.927-.528l-.266-.129a1.1,1.1,0,0,0-1.437.524L264.066,64.4Z"/><polygon class="v" points="262.886 66.629 231.016 126.179 233.115 127.36 264.98 67.809 262.886 66.629"/><path class="q" d="M237.055,120.669a4.065,4.065,0,0,1-4.6-3.669l-2.489-18.1a4.137,4.137,0,0,1,3.678-4.6,4.222,4.222,0,0,1,4.588,3.683l2.489,18.1A4.145,4.145,0,0,1,237.055,120.669Z"/><path class="q" d="M240.724,123.038a5.466,5.466,0,0,1,3.8-6.7l22.818-6.819a5.451,5.451,0,0,1,6.691,3.807,5.51,5.51,0,0,1-3.8,6.682l-22.818,6.824A5.459,5.459,0,0,1,240.724,123.038Z"/><path class="p" d="M258.036,120.931l-15.742,4.725a5.511,5.511,0,0,0,5.12,1.18l22.818-6.824c17.565-5.369,16.78-17.836,16.647-18.887C286.88,101.125,284.391,113.854,258.036,120.931Z"/><path class="w" d="M402.963,53.4C384.994,56.3,294.755,72.185,294.755,72.185l1.571,32.131,106.637-.657Z"/><path class="l" d="M363.151,98.374h0v5.24c-12.206.262-42.1.523-57.305.657h0l57.305-.262Z"/><path class="x" d="M296.192,102.222h0l.133,2.094h0Z"/><path class="y" d="M402.963,98.42c-66.571,1.837-106.7,1.837-106.7,1.837v1.966l.133,2.094h9.173c15.2-.133,85.192-.395,97.389-.657Z"/><path class="e" d="M330.027,216.436a2.59,2.59,0,0,1-2.751,2.223,2.461,2.461,0,0,1-2.241-2.88,2.519,2.519,0,0,1,2.764-2.227A2.547,2.547,0,0,1,330.027,216.436Z"/><path class="e" d="M329.5,221.423a2.575,2.575,0,0,1-5.12-.524,2.628,2.628,0,0,1,2.893-2.241A2.527,2.527,0,0,1,329.5,221.423Z"/><path class="e" d="M328.98,226.534a2.581,2.581,0,1,1-2.241-2.884A2.652,2.652,0,0,1,328.98,226.534Z"/><path class="e" d="M328.456,231.521a2.633,2.633,0,0,1-2.9,2.227,2.507,2.507,0,1,1,2.9-2.227Z"/><path class="e" d="M327.8,236.641a2.524,2.524,0,0,1-2.764,2.227,2.553,2.553,0,0,1-2.227-2.893,2.6,2.6,0,0,1,2.751-2.227A2.476,2.476,0,0,1,327.8,236.641Z"/><path class="e" d="M327.276,241.619a2.509,2.509,0,1,1-2.241-2.751A2.44,2.44,0,0,1,327.276,241.619Z"/><rect class="c" x="78.099" y="86.003" width="11.943" height="2.389"/><path class="c" d="M54.293,244.453a11.373,11.373,0,0,0-1.021,2.389H48.878a10.524,10.524,0,0,1-1.1-2.389Z"/><polygon class="v" points="238.364 161.598 235.351 163.705 263.933 207.252 304.458 268.771 307.604 266.806 238.364 161.598"/><polygon class="f" points="303.531 260.507 300.385 262.483 299.338 261.042 302.484 258.936 303.531 260.507"/><polygon class="f" points="301.303 257.232 298.158 259.326 297.244 257.756 300.256 255.662 301.303 257.232"/><polygon class="f" points="299.209 253.958 296.064 256.052 295.017 254.481 298.158 252.374 299.209 253.958"/><polygon class="f" points="297.111 250.67 293.965 252.778 292.918 251.194 296.064 249.1 297.111 250.67"/><polygon class="j" points="294.883 247.525 291.729 249.49 290.81 247.919 293.965 245.954 294.883 247.525"/><rect class="f" x="288.789" y="243.56" width="3.79" height="1.896" transform="translate(-86.849 202.672) rotate(-33.745)"/><rect class="f" x="286.695" y="240.283" width="3.78" height="1.889" transform="translate(-85.315 200.351) rotate(-33.653)"/><polygon class="f" points="288.455 237.688 285.309 239.787 284.391 238.212 287.536 236.109 288.455 237.688"/><polygon class="f" points="286.356 234.405 283.215 236.513 282.163 234.929 285.309 232.83 286.356 234.405"/><polygon class="j" points="284.262 231.26 281.116 233.225 280.06 231.654 283.215 229.689 284.262 231.26"/><polygon class="f" points="282.035 227.985 278.88 230.079 277.962 228.509 281.116 226.401 282.035 227.985"/><rect class="f" x="275.941" y="224.016" width="3.78" height="1.889" transform="translate(-78.135 192.015) rotate(-33.709)"/><rect class="f" x="273.847" y="220.741" width="3.777" height="1.889" transform="translate(-76.639 189.955) rotate(-33.653)"/><polygon class="f" points="275.606 218.136 272.593 220.243 271.542 218.659 274.687 216.698 275.606 218.136"/><polygon class="j" points="273.507 214.994 270.366 216.96 269.314 215.518 272.46 213.419 273.507 214.994"/><polygon class="f" points="271.413 211.72 268.258 213.814 267.207 212.244 270.366 210.136 271.413 211.72"/><rect class="f" x="265.32" y="207.749" width="3.783" height="1.89" transform="translate(-70.834 182.611) rotate(-33.578)"/><polygon class="f" points="267.078 205.158 263.933 207.252 263.019 205.682 266.031 203.583 267.078 205.158"/><polygon class="f" points="264.98 201.87 261.839 203.978 260.791 202.394 263.933 200.428 264.98 201.87"/><polygon class="j" points="262.886 198.725 259.74 200.69 258.693 199.248 261.839 197.154 262.886 198.725"/><polygon class="f" points="260.658 195.45 257.513 197.549 256.585 195.974 259.74 193.867 260.658 195.45"/><rect class="f" x="254.565" y="191.483" width="3.789" height="1.891" transform="translate(-63.62 173.747) rotate(-33.542)"/><polygon class="f" points="256.457 188.888 253.311 190.987 252.264 189.412 255.405 187.318 256.457 188.888"/><polygon class="f" points="254.23 185.734 251.084 187.713 250.165 186.129 253.311 184.163 254.23 185.734"/><rect class="j" x="248.147" y="181.777" width="3.777" height="1.889" transform="translate(-59.362 169.376) rotate(-33.689)"/><polygon class="f" points="250.037 179.185 246.891 181.279 245.844 179.709 248.99 177.601 250.037 179.185"/><polygon class="f" points="247.809 175.898 244.784 177.996 243.736 176.421 246.891 174.327 247.809 175.898"/><polygon class="f" points="245.711 172.623 242.556 174.717 241.509 173.147 244.655 171.181 245.711 172.623"/><polygon class="f" points="243.608 169.469 240.462 171.443 239.415 169.992 242.556 167.898 243.608 169.469"/><polygon class="f" points="306.162 258.674 303.531 260.507 302.484 258.936 305.243 257.099 306.162 258.674"/><polygon class="f" points="304.068 255.4 301.303 257.232 300.256 255.662 303.007 253.825 304.068 255.4"/><polygon class="f" points="301.96 252.112 299.209 253.958 298.158 252.374 300.909 250.542 301.96 252.112"/><polygon class="f" points="299.861 248.967 297.111 250.67 296.064 249.1 298.814 247.396 299.861 248.967"/><polygon class="e" points="299.995 244.108 294.883 247.525 293.965 245.954 299.076 242.538 299.995 244.108"/><polygon class="f" points="295.54 242.405 292.789 244.242 291.729 242.666 294.493 240.834 295.54 242.405"/><rect class="f" x="289.881" y="238.318" width="3.314" height="1.889" transform="translate(-83.727 201.624) rotate(-33.648)"/><polygon class="f" points="291.205 235.847 288.455 237.688 287.536 236.109 290.287 234.405 291.205 235.847"/><polygon class="f" points="289.107 232.701 286.356 234.405 285.309 232.83 288.06 231.131 289.107 232.701"/><polygon class="e" points="289.369 227.843 284.262 231.26 283.215 229.689 288.322 226.273 289.369 227.843"/><polygon class="f" points="284.785 226.14 282.035 227.985 281.116 226.401 283.867 224.569 284.785 226.14"/><rect class="f" x="279.127" y="222.05" width="3.316" height="1.891" transform="translate(-76.459 192.271) rotate(-33.541)"/><polygon class="f" points="280.593 219.578 277.833 221.423 276.782 219.853 279.532 218.136 280.593 219.578"/><polygon class="f" points="278.356 216.436 275.606 218.136 274.687 216.698 277.438 214.861 278.356 216.436"/><polygon class="e" points="278.618 211.587 273.507 214.994 272.46 213.419 277.571 210.003 278.618 211.587"/><polygon class="f" points="274.164 209.874 271.413 211.72 270.366 210.136 273.117 208.299 274.164 209.874"/><rect class="f" x="268.508" y="205.784" width="3.311" height="1.89" transform="translate(-69.315 184.831) rotate(-33.732)"/><polygon class="f" points="269.838 203.454 267.078 205.158 266.031 203.583 268.791 201.87 269.838 203.454"/><rect class="f" x="264.179" y="199.353" width="3.308" height="1.891" transform="translate(-66.459 181.098) rotate(-33.69)"/><polygon class="e" points="267.997 195.322 262.886 198.725 261.839 197.154 266.945 193.738 267.997 195.322"/><polygon class="f" points="263.409 193.605 260.658 195.45 259.74 193.867 262.491 192.034 263.409 193.605"/><polygon class="f" points="261.315 190.33 258.564 192.167 257.513 190.592 260.264 188.888 261.315 190.33"/><polygon class="f" points="259.216 187.185 256.457 188.888 255.405 187.451 258.169 185.605 259.216 187.185"/><polygon class="f" points="256.989 183.901 254.23 185.734 253.311 184.163 256.062 182.331 256.989 183.901"/><polygon class="e" points="257.251 179.052 252.131 182.46 251.084 180.889 256.195 177.473 257.251 179.052"/><polygon class="f" points="252.788 177.34 250.037 179.185 248.99 177.601 251.74 175.769 252.788 177.34"/><polygon class="f" points="250.56 174.065 247.809 175.898 246.891 174.327 249.642 172.623 250.56 174.065"/><polygon class="f" points="248.466 170.92 245.711 172.623 244.655 171.181 247.415 169.336 248.466 170.92"/><rect class="f" x="242.805" y="166.821" width="3.316" height="1.891" transform="translate(-51.995 163.229) rotate(-33.584)"/><rect class="d" x="103.37" y="137.392" width="1.834" height="2.358" transform="translate(-24.035 21.904) rotate(-10.759)"/><rect class="d" x="104.253" y="142.034" width="1.834" height="2.358" transform="translate(-24.893 22.158) rotate(-10.762)"/><rect class="d" x="105.133" y="146.667" width="1.834" height="2.358" transform="translate(-25.742 22.404) rotate(-10.762)"/><rect class="d" x="97.546" y="133.268" width="11.801" height="1.845" transform="translate(-23.237 21.676) rotate(-10.762)"/><path class="f" d="M122.394,86.389l37.212,5.482-42.681,31.75ZM190.8,83.941,111.566,72.288,99.941,151.553Z"/><polygon class="v" points="105.435 147.429 103.434 148.879 101.275 145.952 103.141 144.532 105.435 147.429"/><polygon class="v" points="109.294 144.564 107.428 145.984 105.142 143.086 107.135 141.641 109.294 144.564"/><polygon class="v" points="113.147 141.695 111.286 143.119 109.125 140.184 110.991 138.763 113.147 141.695"/><polygon class="v" points="117.139 138.796 115.14 140.251 112.984 137.319 114.853 135.893 117.139 138.796"/><polygon class="v" points="120.997 135.926 119.005 137.371 116.822 134.322 118.814 132.873 120.997 135.926"/><polygon class="v" points="124.827 132.931 122.965 134.351 120.806 131.428 122.671 129.999 124.827 132.931"/><polygon class="v" points="128.825 130.04 126.832 131.484 124.663 128.55 126.537 127.128 128.825 130.04"/><polygon class="v" points="132.677 127.163 130.687 128.62 128.53 125.684 130.522 124.239 132.677 127.163"/><polygon class="v" points="136.543 124.291 134.669 125.718 132.514 122.79 134.376 121.37 136.543 124.291"/><polygon class="v" points="140.398 121.427 138.536 122.847 136.377 119.924 138.241 118.491 140.398 121.427"/><polygon class="v" points="144.383 118.538 142.391 119.983 140.234 117.046 142.226 115.602 144.383 118.538"/><polygon class="v" points="148.248 115.658 146.373 117.081 144.194 114.026 146.069 112.604 148.248 115.658"/><polygon class="v" points="152.077 112.663 150.216 114.083 148.061 111.16 149.922 109.735 152.077 112.663"/><polygon class="v" points="156.062 109.77 154.069 111.214 151.915 108.291 153.906 106.838 156.062 109.77"/><polygon class="v" points="159.929 106.903 158.068 108.323 155.771 105.413 157.772 103.967 159.929 106.903"/><polygon class="v" points="163.785 104.025 161.919 105.446 159.765 102.522 161.627 101.102 163.785 104.025"/><polygon class="v" points="167.779 101.13 165.778 102.581 163.619 99.654 165.611 98.209 167.779 101.13"/><polygon class="v" points="171.633 98.266 169.771 99.685 167.486 96.787 169.476 95.329 171.633 98.266"/><polygon class="v" points="175.492 95.401 173.626 96.821 171.445 93.758 173.335 92.464 175.492 95.401"/><polygon class="v" points="179.483 92.497 177.457 93.812 175.303 90.889 177.164 89.469 179.483 92.497"/><polygon class="v" points="183.317 89.501 181.451 90.922 179.166 88.023 181.157 86.574 183.317 89.501"/><polygon class="v" points="187.17 86.632 185.309 88.052 183.15 85.13 185.014 83.7 187.17 86.632"/><polygon class="e" points="100.651 152.484 99.941 151.553 190.766 84.012 191.264 85.207 100.651 152.484"/><polygon class="l" points="111.566 72.288 111.566 72.288 119.946 73.509 111.566 72.288"/><polygon class="z" points="111.42 72.288 122.688 85.904 122.725 79.086 119.8 73.509 111.42 72.288"/><path class="aa" d="M152.511,78.4l10.416,1.484c-5.126-9.435-3.856-10.476-7.182-14.645a18.444,18.444,0,0,0-14.7-6.432l-.126.024L130.4,36.535,109.428,54l13.443,25.084-.141,9.782a4.254,4.254,0,0,0,6.339,3.862,4.3,4.3,0,0,0,4.214,3.878,3.257,3.257,0,0,0,2.4-.722l.025.131a4.331,4.331,0,0,0,4.17,4.406,4.433,4.433,0,0,0,3.834-2.328,4.386,4.386,0,0,0,6.969-3.325l.09-6.561,1.52-10.3Z"/><polygon class="d" points="127.345 35.906 104.334 51.773 108.01 57.072 133.919 40.27 131.473 35.121 127.345 35.906"/><polygon class="u" points="73.322 2 104.268 53.714 132.342 35.688 116.318 2.398 73.322 2"/><polygon class="ab" points="116.517 2 107.759 2.398 126.391 39.298 132.342 35.489 116.517 2"/><path class="g" d="M152.511,78.4l10.416,1.484c-.4-.723-1.032-1.936-1.032-1.936Z"/><polygon class="g" points="110.26 55.578 132.624 41.18 134.593 45.218 110.26 55.578"/><path class="ac" d="M185.584,199.577a3.444,3.444,0,0,0,3.123,3.984,3.67,3.67,0,0,0,3.981-3.126,3.583,3.583,0,0,0-3.123-3.984A3.467,3.467,0,0,0,185.584,199.577Z"/><path class="f" d="M200.147,238.852c-3.4-6.741-21.516-45.057-21.516-45.057,3.921-2.021,6.65-3.288,6.65-3.288,18.794,39.219,21.528,45.015,21.528,45.015a3.627,3.627,0,0,1-1.584,5A3.809,3.809,0,0,1,200.147,238.852Z"/><path class="v" d="M180.653,198.067c-1.252-2.643-2.022-4.272-2.022-4.272,3.921-2.021,6.65-3.288,6.65-3.288l2.009,4.193Z"/><path class="v" d="M204.373,230.405c.736,1.542,1.263,2.65,1.634,3.429l-5.857,5.023,0-.005c-.433-.86-1.107-2.236-1.951-3.979Z"/><path class="ad" d="M155.826,256.314l49.5-30.3h0l.185-.014a4.578,4.578,0,0,0,1.454-3.623,2.73,2.73,0,0,1,1.081.955,4.288,4.288,0,0,1-.448,6.264l-.085.1-24.642,19.369c-.643.131-20.989,13.666-20.989,13.666Z"/><path class="b" d="M186.978,154.846a26.661,26.661,0,0,1-35.454,23.169c-.54-.225-1.086-.457-1.627-.682a22.209,22.209,0,1,0,37.08-22.487Z"/><path class="f" d="M196.634,179.076a27.2,27.2,0,1,1-16.8-34.512A27.214,27.214,0,0,1,196.634,179.076Z"/><path class="ae" d="M191.926,177.432A22.211,22.211,0,1,1,178.1,149.172,22.311,22.311,0,0,1,191.926,177.432Z"/><path class="af" d="M169.3,226.4l4.5-13.01a8.325,8.325,0,0,1,3.791-4.88l15.1-9.77.1.088a4.251,4.251,0,0,1,5.711.854,4.45,4.45,0,0,1-.44,6.254c-.085.1-.182.011-.27.111h0a4.324,4.324,0,0,1,5.271,1.157,4.28,4.28,0,0,1-.285,6.059,4.623,4.623,0,0,1,5.013,1.268,4.572,4.572,0,0,1-.544,6.352,4.443,4.443,0,0,1-1.89.953,4,4,0,0,1,2.692,1.5,4.288,4.288,0,0,1-.448,6.264l-.085.1-24.642,19.369c-.643.131-30.78,19.413-30.78,19.413-4.044-3.252-20.327-19.182-20.327-19.182C158.083,233.17,169.3,226.4,169.3,226.4Z"/><path class="ac" d="M146.07,261.666c49.5-30.3,59.26-35.649,59.26-35.649h0l.185-.014a4.578,4.578,0,0,0,1.454-3.623,2.73,2.73,0,0,1,1.081.955,4.288,4.288,0,0,1-.448,6.264l-.085.1-24.642,19.369c-.643.131-29.161,19.885-29.161,19.885C147.654,262.533,146.07,261.666,146.07,261.666Z"/><path class="w" d="M155.7,230.3a1.208,1.208,0,0,0-.266,1.688l19.359,24.634a1.206,1.206,0,0,0,1.688.267l5.229-4.136a1.208,1.208,0,0,0,.266-1.688l-19.352-24.628a1.224,1.224,0,0,0-1.695-.273Z"/><path class="y" d="M162.513,226.168c.1.088.013.186.109.271l13.7,17.359,4.948,6.294.708.975a1.261,1.261,0,0,1-.093,1.492l-.173.2-5.229,4.136a1.387,1.387,0,0,1-1.578,0c-.1-.085-.1-.085-.109-.271L155.434,231.99a1.26,1.26,0,0,1,.092-1.492l.174-.2,5.228-4.136A1.418,1.418,0,0,1,162.513,226.168Z"/><polygon points="158.664 236.067 171.669 252.641 178.755 246.999 165.746 230.422 158.664 236.067"/><polygon class="c" points="161.409 236.919 164.639 240.997 169.154 237.468 165.924 233.391 161.409 236.919"/><polygon class="d" points="165.539 236.198 166.511 236.881 165.904 237.568 165.707 237.395 165.967 237.101 165.671 236.839 165.261 237.699 164.927 238.279 165.255 239.093 164.985 239.204 164.557 238.302 164.968 237.441 164.316 237.389 163.991 238.151 163.795 237.978 164.106 237.029 164.859 237.17 165.192 236.591 164.64 236.627 164.417 236.081 164.79 236.061 164.9 236.332 165.539 236.198"/><path class="d" d="M165.69,235.632c-.074.284-.064.468.036.556.283.075.466.062.553-.036a.393.393,0,1,0-.589-.52Z"/><polygon class="c" points="164.835 241.17 168.068 245.424 172.486 241.811 169.35 237.641 164.835 241.17"/><polygon class="d" points="170.081 242.316 168.574 243.432 166.663 241.045 168.074 239.843 168.1 241.79 170.081 242.316"/><polygon class="d" points="170.84 242.021 170.754 242.119 168.87 241.678 168.843 239.732 168.93 239.634 170.84 242.021"/><polygon class="c" points="168.264 245.598 171.477 249.674 176.009 246.146 172.682 241.984 168.264 245.598"/><path class="d" d="M171.623,244.369c.26-.295.726-.232,1.032.212.2.173.309.448.135.644a1.4,1.4,0,0,1,.762.323.987.987,0,0,1-.118,1.119c-.617.5-1.848.115-2.414-.035C171.071,245.979,171,244.87,171.623,244.369Z"/><polygon class="r" points="154.139 235.297 172.055 258.387 166.481 262.568 149.561 238.282 154.139 235.297"/><polygon class="w" points="169.666 264.558 149.959 238.282 52.62 297.801 122.091 298 169.666 264.558"/><polygon class="ag" points="166.332 259.953 108.618 297.801 122.091 297.84 169.666 264.398 166.332 259.953"/><path class="ah" d="M180.165,172.5a9.305,9.305,0,0,0,.058-2.279,4.654,4.654,0,0,0,5.694-1.8l1.5-2.359-1.573-1-1.5,2.359a2.8,2.8,0,0,1-3.854.864l-.786-.5-.024.038a9.313,9.313,0,0,0-.725-1.475,4.518,4.518,0,0,0,1.457-1.42,4.605,4.605,0,0,0,.671-1.895l2.811-.63-.407-1.816-2.551.572a4.575,4.575,0,0,0-5.2-3.3l-.572-2.551-1.816.407.63,2.81a4.6,4.6,0,0,0-1.427,1.416,4.518,4.518,0,0,0-.662,1.924,9.322,9.322,0,0,0-1.643-.026l.024-.038-.786-.5a2.8,2.8,0,0,1-.864-3.854l1.495-2.359-1.573-1-1.495,2.359a4.654,4.654,0,0,0,.8,5.919,9.3,9.3,0,0,0-2.037,1.025,4.653,4.653,0,0,0-6.315,1.494L158,167.256l1.573,1,1.495-2.359a2.788,2.788,0,0,1,3.166-1.166,9.1,9.1,0,0,0-1.1,1.376l-1.993,3.145c-.068.108-.1.225-.167.334l-.027-.118a6.194,6.194,0,0,0-4.684,7.391l1.816-.407a4.318,4.318,0,0,1,1.978-4.622A9.246,9.246,0,0,0,175,181.3a4.318,4.318,0,0,1-3.335,3.761l.407,1.816a6.193,6.193,0,0,0,4.684-7.391l-.118.026c.072-.1.163-.186.231-.294l1.993-3.145a9.1,9.1,0,0,0,.777-1.578,2.789,2.789,0,0,1,.3,3.361l-1.5,2.359,1.573,1,1.495-2.359A4.653,4.653,0,0,0,180.165,172.5Zm-2.189-12.423a2.8,2.8,0,0,1,.864,3.854,2.644,2.644,0,0,1-1,.922,8.573,8.573,0,0,0-4.122-2.612,2.645,2.645,0,0,1,.406-1.3A2.8,2.8,0,0,1,177.976,160.079Zm-2.68,18.14a7.447,7.447,0,1,1-12.58-7.973l1.993-3.145a7.454,7.454,0,0,1,7.9-3.254h0a6.9,6.9,0,0,1,4.252,2.695h0a7.455,7.455,0,0,1,.429,8.531Z"/></svg>