<svg id="Icons" xmlns="http://www.w3.org/2000/svg" viewBox="0 0 64 64">
  <title>logo_git-blk</title>
  <g id="use4187">
    <path d="M61.83,29.24,34.76,2.17a4,4,0,0,0-5.65,0L23.49,7.79l7.13,7.13a4.74,4.74,0,0,1,6,6l6.87,6.87a4.75,4.75,0,1,1-1.81,7.85,4.8,4.8,0,0,1-1.16-5.17L34,24.11V41a2,2,0,0,1,1.38.9,4.72,4.72,0,1,1-6.78,0c.46-.46,1.4-.8,1.4-1v-17c0-.23-.93-.58-1.39-1a4.72,4.72,0,0,1-.94-5.19l-7-7L2.15,29.11a4,4,0,0,0,0,5.65L29.23,61.83a4,4,0,0,0,5.65,0L61.83,34.89A4,4,0,0,0,61.83,29.24Z"/>
  </g>
</svg>
