<?xml version="1.0" encoding="utf-8"?>
<!-- Generator: Adobe Illustrator 20.1.0, SVG Export Plug-In . SVG Version: 6.00 Build 0)  -->
<svg version="1.1" xmlns="http://www.w3.org/2000/svg" xmlns:xlink="http://www.w3.org/1999/xlink" x="0px" y="0px"
	 viewBox="0 0 160 80" style="enable-background:new 0 0 160 80;" xml:space="preserve" width="160" height="80">
<style type="text/css">
	.st0{fill:#DCDCDC;}
	.st1{fill:#C1E3F1;}
	.st2{fill:#FFFFFF;}
	.st3{fill:#888888;}
	.st4{fill:#666666;}
	.st5{fill:#3999C6;}
	.st6{fill:#444444;}
	.st7{fill:#0072C6;}
	.st8{fill:#3E3E3E;}
	.st9{fill:#804998;}
	.st10{fill:#8B6AB1;}
	.st11{fill:#5C2D91;}
	.st12{fill:#A0A1A2;enable-background:new    ;}
	.st13{fill:#888888;enable-background:new    ;}
	.st14{fill:#73AA24;}
	.st15{fill:#05930C;}
	.st16{fill:none;stroke:#DD5900;stroke-width:2;stroke-linecap:round;stroke-miterlimit:10;}
	.st17{fill:none;stroke:#0072C6;stroke-width:2;stroke-linecap:round;stroke-miterlimit:10;}
	.st18{fill:#A0A1A2;}
	.st19{fill:none;stroke:#888888;stroke-width:6;stroke-miterlimit:10;stroke-dasharray:1,8;}
	.st20{fill:#A3A3A3;}
	.st21{fill:none;stroke:#3999C6;stroke-width:6;stroke-miterlimit:10;stroke-dasharray:1,8;}
	.st22{fill:#FEE990;}
</style>
<g id="Layer_1">
	<g>
		<path class="st18" d="M64.47,77.546c0.184,0.371,0.592,0.446,0.851,0.409l1.668-0.367c0.371-0.185,0.595-0.481,0.521-1.001
			l-0.291-2.075c-0.109-0.779,0.114-1.075,0.596-1.407c0.223-0.296,0.594-0.481,0.817-0.777c0.371-0.184,0.743-0.369,1.445-0.072
			l2.109,0.894c0.408,0.075,0.779-0.11,0.89-0.258l0.968-1.591c0.112-0.148,0.039-0.668-0.405-1.002l-1.774-1.337
			c-0.592-0.446-0.517-0.854-0.443-1.26l-0.148-0.112c0.223-0.296,0.3-0.704,0.263-0.963c-0.073-0.519,0.114-1.075,1.003-1.332
			l1.891-0.665c0.483-0.333,0.558-0.74,0.521-0.999l-0.514-1.78c-0.037-0.26-0.48-0.594-0.851-0.409l-2.076,0.292
			c-0.779,0.11-1.222-0.224-1.406-0.595c-0.296-0.223-0.48-0.594-0.775-0.816c-0.184-0.371-0.37-0.742-0.219-1.556l0.931-1.851
			c0.186-0.556,0.003-0.927-0.294-1.15l-1.554-0.706c-0.296-0.223-0.815-0.15-1.038,0.146l-1.19,1.888
			c-0.446,0.592-0.965,0.665-1.372,0.591c-0.408-0.075-0.815-0.15-1.075-0.113l-0.148-0.112c-0.406-0.074-0.814-0.149-1.183-0.891
			l-0.698-2.151c-0.184-0.371-0.592-0.446-0.85-0.409l-1.781,0.516c-0.26,0.037-0.593,0.48-0.409,0.851L58.63,57.6
			c0.11,0.777-0.113,1.074-0.484,1.258c-0.223,0.296-0.594,0.481-0.817,0.778c-0.482,0.332-0.853,0.516-1.556,0.219l-1.998-1.041
			c-0.408-0.075-0.779,0.11-1.001,0.404l-0.968,1.593c0.037,0.259-0.037,0.666,0.406,1l1.774,1.337
			c0.592,0.446,0.777,0.817,0.442,1.262c0.037,0.26-0.039,0.667,0.034,1.187c-0.076,0.407-0.15,0.814-1.04,1.072l-2.002,0.811
			c-0.371,0.185-0.446,0.593-0.41,0.852l0.515,1.779c0.035,0.261,0.479,0.595,0.74,0.557l2.187-0.44
			c0.778-0.109,1.073,0.113,1.258,0.483c0.332,0.482,0.628,0.706,0.812,1.076c0.444,0.335,0.516,0.853,0.33,1.41l-1.042,1.999
			c-0.076,0.406,0.109,0.777,0.404,1l1.443,0.855c0.296,0.223,0.815,0.151,1.038-0.146l1.19-1.888
			c0.446-0.593,0.965-0.665,1.372-0.591c0.407,0.076,0.815,0.15,1.223,0.225c0.518-0.073,0.815,0.15,1.183,0.891L64.47,77.546
			 M67.318,64.84c0.587,2.299-0.79,4.741-3.2,5.479c-2.411,0.737-4.853-0.638-5.475-3.197c-0.588-2.298,0.79-4.742,3.089-5.33
			C64.142,61.056,66.583,62.43,67.318,64.84"/>
		<path class="st18" d="M55.346,16.002c0.485-0.442,0.365-1.219,0.07-1.542l-2.061-2.258c-0.294-0.323-0.91-0.351-1.542-0.07
			l-3.509,2.316c-0.749-0.499-1.647-1.157-2.398-1.655l1.127-4.279c0.173-0.456-0.107-1.087-0.562-1.262l-2.572-1.198
			c-0.604-0.337-1.234-0.056-1.411,0.399l-2.492,3.752c-0.912-0.35-1.823-0.7-2.75-0.742l-0.418-4.348
			c0.029-0.617-0.413-1.101-1.031-1.129l-2.938,0.021c-0.455-0.174-0.94,0.268-1.115,0.723l-0.978,4.439
			c-0.926-0.041-1.866,0.226-2.805,0.492L25.823,5.7c-0.295-0.323-0.897-0.659-1.368-0.525l-2.835,1.108
			c-0.469,0.132-0.806,0.736-0.673,1.206l0.888,4.214c-0.794,0.428-1.6,1.164-2.393,1.593l-3.428-2.783
			c-0.295-0.323-0.912-0.35-1.396,0.091l-2.098,1.915c-0.484,0.442-0.513,1.059-0.218,1.382l2.459,3.667
			c-0.66,0.897-1.467,1.634-1.819,2.546l-4.262-1.429c-0.618-0.028-1.088,0.104-1.424,0.708l-1.202,2.576
			c-0.174,0.455-0.056,1.233,0.546,1.57l3.605,2.327c-0.35,0.912-0.394,1.837-0.746,2.75l-4.348,0.422
			c-0.469,0.133-0.954,0.575-0.983,1.192l-0.128,2.777c-0.028,0.618,0.413,1.102,0.869,1.277l4.454,0.665
			c0.104,1.088,0.208,2.175,0.474,3.115l-3.964,2.139c-0.47,0.134-0.808,0.737-0.527,1.369l0.961,2.671
			c0.133,0.47,0.736,0.807,1.352,0.834l4.378-1.039c0.427,0.793,0.853,1.585,1.282,2.377l-2.787,3.431
			c-0.176,0.456-0.204,1.072,0.09,1.395l2.061,2.258c0.295,0.323,1.058,0.512,1.381,0.217l3.671-2.463
			c0.749,0.499,1.647,1.157,2.398,1.655l-1.124,4.278c-0.176,0.456,0.104,1.087,0.56,1.262l2.72,1.361
			c0.456,0.175,0.925,0.041,1.41-0.402l2.33-3.604c0.925,0.041,1.838,0.392,2.764,0.433l0.256,4.495
			c0.133,0.47,0.575,0.954,1.192,0.982L33.126,62c0.47-0.133,0.955-0.576,1.13-1.031l0.817-4.291
			c1.087-0.107,2.028-0.373,3.114-0.478l1.991,3.8c0.279,0.632,0.897,0.659,1.367,0.526l2.672-0.961
			c0.632-0.281,0.969-0.885,0.836-1.355l-0.888-4.214c0.793-0.429,1.585-0.857,2.392-1.594l3.43,2.784
			c0.441,0.483,1.059,0.511,1.543,0.07l2.098-1.915c0.484-0.442,0.512-1.059,0.071-1.542l-2.46-3.669
			c0.807-0.736,1.306-1.486,1.818-2.545l4.264,1.429c0.456,0.175,1.086-0.105,1.262-0.56l1.362-2.722
			c0.176-0.456-0.104-1.087-0.399-1.41l-3.752-2.488c0.352-0.912,0.541-1.678,0.585-2.603l4.509-0.57
			c0.47-0.133,0.954-0.575,0.968-0.884l0.142-3.085c0.029-0.617-0.413-1.101-1.031-1.129l-4.291-0.812
			c-0.104-1.088-0.063-2.014-0.327-2.954l3.654-2.154c0.633-0.28,0.968-0.884,0.688-1.514l-0.959-2.672
			c-0.133-0.47-0.736-0.806-1.366-0.527l-4.364,0.732c-0.427-0.793-0.854-1.586-1.283-2.377L55.346,16.002 M36.309,29.831
			c1.766,1.934,1.639,4.712-0.298,6.48c-1.775,1.62-4.554,1.494-6.319-0.44c-1.62-1.774-1.639-4.714,0.136-6.334
			C31.765,27.769,34.69,28.057,36.309,29.831"/>
		<g>
			<circle class="st11" cx="33.078" cy="32.984" r="20"/>
			<g>
				<path class="st5" d="M35.582,24.723c-1.315,1.311-1.643,3.281-0.985,4.924L24.41,39.821c-0.656,0.656-0.656,1.641,0,2.298h0.33
					c0.658,0.656,1.643,0.656,2.299,0l10.184-9.847c1.644,0.327,3.614,0,4.927-1.313c1.315-0.985,1.644-2.955,0.988-4.597
					l-3.286,3.284l-1.973-0.658l-0.656-1.97l3.286-3.281C38.868,23.08,36.895,23.409,35.582,24.723 M25.068,40.148
					c0.658-0.327,1.315-0.327,1.643,0c0.329,0.329,0.329,0.985,0,1.314c-0.327,0.656-0.985,0.656-1.643,0
					C24.74,41.133,24.74,40.477,25.068,40.148"/>
				<path class="st2" d="M42.645,40.971l-0.985,0.984c-0.658,0.656-1.643,0.656-1.97,0l-6.9-6.565c-0.656-0.655-0.656-1.64,0-1.969
					l-4.6-4.595l-1.643-0.327l-2.301-3.612l1.316-0.985l3.284,2.299l0.659,1.64l4.271,4.268c0.655-0.329,1.643-0.329,1.97,0
					l6.899,6.893C43.303,39.657,43.303,40.643,42.645,40.971"/>
			</g>
		</g>
	</g>
	<g>
		<path class="st9" d="M144.51,77.546c0.184,0.371,0.592,0.446,0.851,0.409l1.668-0.367c0.371-0.185,0.595-0.481,0.521-1.001
			l-0.291-2.075c-0.109-0.779,0.114-1.075,0.596-1.407c0.223-0.296,0.594-0.481,0.817-0.777c0.371-0.184,0.743-0.369,1.445-0.072
			l2.109,0.894c0.408,0.075,0.779-0.11,0.89-0.258l0.968-1.591c0.112-0.148,0.039-0.668-0.405-1.002l-1.774-1.337
			c-0.592-0.446-0.517-0.854-0.443-1.26l-0.148-0.112c0.223-0.296,0.3-0.704,0.263-0.963c-0.073-0.519,0.114-1.075,1.003-1.332
			l1.891-0.665c0.483-0.333,0.558-0.74,0.521-0.999l-0.514-1.78c-0.037-0.26-0.48-0.594-0.851-0.409l-2.076,0.292
			c-0.779,0.11-1.222-0.224-1.406-0.595c-0.296-0.223-0.48-0.594-0.775-0.816c-0.184-0.371-0.37-0.742-0.219-1.556l0.931-1.851
			c0.186-0.556,0.003-0.927-0.294-1.15l-1.554-0.706c-0.296-0.223-0.815-0.15-1.038,0.146l-1.19,1.888
			c-0.446,0.592-0.965,0.665-1.372,0.591c-0.408-0.075-0.815-0.15-1.075-0.113l-0.148-0.112c-0.406-0.074-0.814-0.149-1.183-0.891
			l-0.698-2.151c-0.184-0.371-0.592-0.446-0.85-0.409l-1.781,0.516c-0.26,0.037-0.593,0.48-0.409,0.851l0.178,2.225
			c0.11,0.777-0.113,1.074-0.484,1.258c-0.223,0.296-0.594,0.481-0.817,0.778c-0.482,0.332-0.853,0.516-1.556,0.219l-1.998-1.041
			c-0.408-0.075-0.779,0.11-1.001,0.404l-0.968,1.593c0.037,0.259-0.037,0.666,0.406,1l1.774,1.337
			c0.592,0.446,0.777,0.817,0.442,1.262c0.037,0.26-0.039,0.667,0.034,1.187c-0.076,0.407-0.15,0.814-1.04,1.072l-2.002,0.811
			c-0.371,0.185-0.446,0.593-0.41,0.852l0.515,1.779c0.035,0.261,0.479,0.595,0.74,0.557l2.187-0.44
			c0.778-0.109,1.073,0.113,1.258,0.483c0.332,0.482,0.628,0.706,0.812,1.076c0.444,0.335,0.516,0.853,0.33,1.41l-1.042,1.999
			c-0.076,0.406,0.109,0.777,0.404,1l1.443,0.855c0.296,0.223,0.815,0.151,1.038-0.146l1.19-1.888
			c0.446-0.593,0.965-0.665,1.372-0.591c0.407,0.076,0.815,0.15,1.223,0.225c0.518-0.073,0.815,0.15,1.183,0.891L144.51,77.546
			 M147.358,64.84c0.587,2.299-0.79,4.741-3.2,5.479c-2.411,0.737-4.853-0.638-5.475-3.197c-0.588-2.298,0.79-4.742,3.089-5.33
			C144.181,61.056,146.622,62.43,147.358,64.84"/>
		<path class="st9" d="M135.385,16.002c0.485-0.442,0.365-1.219,0.07-1.542l-2.061-2.258c-0.294-0.323-0.91-0.351-1.542-0.07
			l-3.509,2.316c-0.749-0.499-1.647-1.157-2.398-1.655l1.127-4.279c0.173-0.456-0.107-1.087-0.562-1.262l-2.572-1.198
			c-0.604-0.337-1.234-0.056-1.411,0.399l-2.492,3.752c-0.912-0.35-1.823-0.7-2.75-0.742l-0.418-4.348
			c0.029-0.617-0.413-1.101-1.031-1.129l-2.938,0.021c-0.455-0.174-0.94,0.268-1.115,0.723l-0.978,4.439
			C109.88,9.128,108.94,9.396,108,9.661L105.863,5.7c-0.295-0.323-0.897-0.659-1.368-0.525l-2.835,1.108
			c-0.469,0.132-0.806,0.736-0.673,1.206l0.888,4.214c-0.794,0.428-1.6,1.164-2.393,1.593l-3.428-2.783
			c-0.295-0.323-0.912-0.35-1.396,0.091l-2.098,1.915c-0.484,0.442-0.513,1.059-0.218,1.382l2.459,3.667
			c-0.66,0.897-1.467,1.634-1.819,2.546l-4.262-1.429c-0.618-0.028-1.088,0.104-1.424,0.708l-1.202,2.576
			c-0.174,0.455-0.056,1.233,0.546,1.57l3.605,2.327c-0.351,0.912-0.394,1.837-0.746,2.75l-4.348,0.422
			c-0.469,0.133-0.954,0.575-0.983,1.192l-0.128,2.777c-0.028,0.618,0.413,1.102,0.869,1.277l4.454,0.665
			c0.104,1.088,0.208,2.175,0.474,3.115l-3.964,2.139c-0.47,0.134-0.808,0.737-0.527,1.369l0.961,2.671
			c0.133,0.47,0.736,0.807,1.352,0.834l4.378-1.039c0.427,0.793,0.853,1.585,1.282,2.377l-2.787,3.431
			c-0.176,0.456-0.204,1.072,0.09,1.395l2.061,2.258c0.295,0.323,1.058,0.512,1.381,0.217l3.671-2.463
			c0.749,0.499,1.647,1.157,2.398,1.655l-1.124,4.278c-0.176,0.456,0.104,1.087,0.56,1.262l2.72,1.361
			c0.456,0.175,0.925,0.041,1.41-0.402l2.33-3.604c0.925,0.041,1.838,0.392,2.764,0.433l0.256,4.495
			c0.133,0.47,0.575,0.954,1.192,0.982L113.166,62c0.47-0.133,0.955-0.576,1.13-1.031l0.817-4.291
			c1.087-0.107,2.028-0.373,3.114-0.478l1.991,3.8c0.279,0.632,0.897,0.659,1.367,0.526l2.672-0.961
			c0.632-0.281,0.969-0.885,0.836-1.355l-0.888-4.214c0.793-0.429,1.585-0.857,2.392-1.594l3.43,2.784
			c0.441,0.483,1.059,0.511,1.543,0.07l2.098-1.915c0.484-0.442,0.512-1.059,0.071-1.542l-2.46-3.669
			c0.807-0.736,1.306-1.486,1.818-2.545l4.264,1.429c0.456,0.175,1.086-0.105,1.262-0.56l1.362-2.722
			c0.176-0.456-0.104-1.087-0.399-1.41l-3.752-2.488c0.352-0.912,0.541-1.678,0.585-2.603l4.509-0.57
			c0.47-0.133,0.954-0.575,0.968-0.884l0.142-3.085c0.029-0.617-0.413-1.101-1.031-1.129l-4.291-0.812
			c-0.104-1.088-0.063-2.014-0.327-2.954l3.654-2.154c0.633-0.28,0.968-0.884,0.688-1.514l-0.959-2.672
			c-0.133-0.47-0.736-0.806-1.366-0.527l-4.364,0.732c-0.427-0.793-0.854-1.586-1.283-2.377L135.385,16.002 M116.349,29.831
			c1.766,1.934,1.639,4.712-0.298,6.48c-1.775,1.62-4.554,1.494-6.319-0.44c-1.62-1.774-1.639-4.714,0.136-6.334
			C111.804,27.769,114.729,28.057,116.349,29.831"/>
		<g>
			<circle class="st11" cx="113.117" cy="32.984" r="20"/>
			<g>
				<path class="st5" d="M115.622,24.723c-1.315,1.311-1.643,3.281-0.985,4.924L104.45,39.821c-0.656,0.656-0.656,1.641,0,2.298
					h0.33c0.658,0.656,1.643,0.656,2.299,0l10.184-9.847c1.644,0.327,3.614,0,4.927-1.313c1.315-0.985,1.644-2.955,0.988-4.597
					l-3.286,3.284l-1.973-0.658l-0.656-1.97l3.286-3.281C118.907,23.08,116.934,23.409,115.622,24.723 M105.107,40.148
					c0.658-0.327,1.315-0.327,1.643,0c0.329,0.329,0.329,0.985,0,1.314c-0.327,0.656-0.985,0.656-1.643,0
					C104.78,41.133,104.78,40.477,105.107,40.148"/>
				<path class="st2" d="M122.685,40.971l-0.985,0.984c-0.658,0.656-1.643,0.656-1.97,0l-6.9-6.565c-0.656-0.655-0.656-1.64,0-1.969
					l-4.6-4.595l-1.643-0.327l-2.301-3.612l1.316-0.985l3.284,2.299l0.659,1.64l4.271,4.268c0.655-0.329,1.643-0.329,1.97,0
					l6.899,6.893C123.342,39.657,123.342,40.643,122.685,40.971"/>
			</g>
		</g>
	</g>
</g>
<g id="Layer_2">
</g>
</svg>
