<svg id="Layer_1" data-name="Layer 1" xmlns="http://www.w3.org/2000/svg" width="160" height="80" viewBox="0 0 160 80"><defs><style>.cls-1{fill:#b3b3b3;}.cls-2{fill:#9273b6;}.cls-3{fill:#333;}.cls-4{fill:#fff;}.cls-5{fill:gray;}.cls-6{fill:#5c2d91;}</style></defs><title>setup-install</title><path class="cls-1" d="M53.87,62.21a.92.92,0,0,0-.2,1L54.56,65a1,1,0,0,0,1.24.27L58,64.31a1.37,1.37,0,0,1,1.71.24c.39.16.7.51,1.09.66a1.65,1.65,0,0,1,.5,1.55l-.35,2.56a1.12,1.12,0,0,0,.54.89l2,.59c.19.08.74-.15,1-.74l.93-2.32a1.2,1.2,0,0,1,1.24-.85l.08-.19a1.6,1.6,0,0,0,1.13,0,1.3,1.3,0,0,1,1.75.7l1.28,1.86a1.17,1.17,0,0,0,1.24.27l1.79-1.08a.73.73,0,0,0,.2-1l-.93-2.17a1.41,1.41,0,0,1,.23-1.71c.16-.39.51-.7.66-1.08a2.37,2.37,0,0,1,1.63-.7l2.29.47a1.07,1.07,0,0,0,1.17-.66l.31-1.9A.9.9,0,0,0,79,58.57l-2.41-.74a1.51,1.51,0,0,1-1-1.32,4.57,4.57,0,0,0-.19-1.2l.08-.19A1.56,1.56,0,0,1,76,53.56l2.14-1.39a.92.92,0,0,0,.2-1l-1.09-1.79a.73.73,0,0,0-1-.2L73.87,50c-.81.35-1.2.19-1.51-.16-.39-.16-.7-.51-1.09-.66a1.55,1.55,0,0,1-.7-1.63l.55-2.48a1.15,1.15,0,0,0-.73-1l-2-.59c-.27.12-.74.15-1,.74l-.93,2.32c-.31.78-.66,1.09-1.24.85-.27.12-.74.15-1.28.39-.47,0-.93.08-1.47-.82L61,45a.92.92,0,0,0-1-.2l-1.79,1.08a.94.94,0,0,0-.39,1l1.12,2.25c.35.82.19,1.2-.16,1.51a13.21,13.21,0,0,1-.93,1.2,1.32,1.32,0,0,1-1.44.77l-2.48-.55a1.15,1.15,0,0,0-1,.73l-.51,1.82a.9.9,0,0,0,.46,1.09l2.41.74a1.5,1.5,0,0,1,1,1.32l.11,1.4c.23.54.08.93-.62,1.55l-1.94,1.47m14.67-.63a5.2,5.2,0,0,1-6.91-1.88,4.82,4.82,0,0,1,1.87-6.9,5,5,0,0,1,6.71,1.8,5,5,0,0,1-1.68,7"/><path class="cls-1" d="M52,49.22a1.12,1.12,0,0,0,1.36-.58l1.09-2.71a1.32,1.32,0,0,0-.58-1.36l-3.45-2.06c.12-.85.31-1.9.43-2.75l4.16-.8a1,1,0,0,0,.85-1l0-2.71a.93.93,0,0,0-.93-1.05l-4.27-.59a8.61,8.61,0,0,0-.5-2.68l3.57-2.17a1,1,0,0,0,.55-1.36L53,24.86c0-.46-.62-.7-1.09-.66l-4.23,1A8.69,8.69,0,0,0,46.09,23l2.53-3.49a1.49,1.49,0,0,0-.11-1.4l-2.13-2A1,1,0,0,0,45.05,16l-3.26,2.51c-.7-.51-1.67-.9-2.37-1.4l1-4.11a1,1,0,0,0-.66-1.17l-2.52-1a1,1,0,0,0-1.28.39L33.8,14.89a12.07,12.07,0,0,0-2.95-.51l-.54-4.27a1.29,1.29,0,0,0-1.2-.93l-2.72,0a1.28,1.28,0,0,0-1.13,1.12l-.51,4.07c-.93.08-1.75.42-2.68.5l-2.17-3.57A1.29,1.29,0,0,0,18.47,11L16,12a1.29,1.29,0,0,0-.74,1.28l1.28,4.11a17.42,17.42,0,0,0-2.49,1.7l-3.49-2.53a.93.93,0,0,0-1.4.11l-1.9,1.94a1.38,1.38,0,0,0-.16,1.51L9.84,23.5,8.32,25.59l-4.11-1A1.39,1.39,0,0,0,3,25.27L2,28c-.16.39,0,1.12.39,1.28L6,31.4c-.12.85-.31,1.9-.43,2.75L1.4,35a1,1,0,0,0-.86,1l0,2.91a1.27,1.27,0,0,0,.93,1l4.07.51c.35.81.43,1.75.77,2.56L2.51,45.09a1.29,1.29,0,0,0-.35,1.43l1,2.64a1.78,1.78,0,0,0,1.36.55l4-1.08c.54.89,1.16,1.59,1.7,2.49L7.78,54.41a1,1,0,0,0,.11,1.4l1.94,1.9a1.2,1.2,0,0,0,1.51.16l3.26-2.51A10.62,10.62,0,0,0,17,56.75l-1,4.11a1,1,0,0,0,.58,1.36l2.52,1a1,1,0,0,0,1.36-.58L22.6,59a7.38,7.38,0,0,0,2.95.51l.54,4.27a1,1,0,0,0,1,.86l2.91,0a1.49,1.49,0,0,0,1-.93l.59-4.27a7.54,7.54,0,0,0,2.49-.58l2.36,3.65a1.31,1.31,0,0,0,1.16.47l2.72-1.16a1,1,0,0,0,.55-1.36l-1.08-4A16.1,16.1,0,0,0,42.24,55l3.37,2.26a1.08,1.08,0,0,0,1.59,0l1.91-1.94a.93.93,0,0,0-.11-1.4l-2.44-3.46,1.52-2.09,3.92.9M32.17,38.55A4.28,4.28,0,0,1,26.46,41a4.24,4.24,0,0,1-2.24-5.63,4.29,4.29,0,1,1,8,3.2"/><circle class="cls-2" cx="28.18" cy="36.94" r="18.13"/><path class="cls-3" d="M30.74,28.18a4.85,4.85,0,0,0-1,5.22L18.9,44.18a1.68,1.68,0,0,0,0,2.44h.35a1.68,1.68,0,0,0,2.44,0L32.48,36.18a5.83,5.83,0,0,0,5.22-1.39,4.19,4.19,0,0,0,1-4.87L35.26,33.4l-2.09-.7-.7-2.09L36,27.13a4.86,4.86,0,0,0-5.22,1M19.59,44.53a1.56,1.56,0,0,1,1.74,0,1.06,1.06,0,0,1,0,1.39c-.35.7-1,.7-1.74,0a1.06,1.06,0,0,1,0-1.39"/><path class="cls-4" d="M38.22,45.4l-1,1c-.7.7-1.74.7-2.09,0l-7.31-7c-.7-.69-.7-1.74,0-2.09L22.9,32.53l-1.74-.35-2.44-3.83,1.39-1,3.48,2.44.7,1.74L28.82,36a2.19,2.19,0,0,1,2.09,0l7.31,7.31c.7.7.7,1.74,0,2.09"/><path class="cls-5" d="M133.87,62.21a.92.92,0,0,0-.2,1l.89,1.71a1,1,0,0,0,1.24.27l2.17-.93a1.37,1.37,0,0,1,1.71.24c.39.16.7.51,1.09.66a1.65,1.65,0,0,1,.5,1.55l-.35,2.56a1.12,1.12,0,0,0,.54.89l2,.59c.19.08.74-.15,1-.74l.93-2.32a1.2,1.2,0,0,1,1.24-.85l.08-.19a1.6,1.6,0,0,0,1.13,0,1.3,1.3,0,0,1,1.75.7l1.28,1.86a1.17,1.17,0,0,0,1.24.27l1.79-1.08a.73.73,0,0,0,.2-1l-.93-2.17a1.41,1.41,0,0,1,.23-1.71c.16-.39.51-.7.66-1.08a2.37,2.37,0,0,1,1.63-.7l2.29.47a1.07,1.07,0,0,0,1.17-.66l.31-1.9a.9.9,0,0,0-.46-1.09l-2.41-.74a1.51,1.51,0,0,1-1-1.32,4.57,4.57,0,0,0-.19-1.2l.08-.19a1.56,1.56,0,0,1,.62-1.55l2.14-1.39a.92.92,0,0,0,.2-1l-1.09-1.79a.73.73,0,0,0-1-.2l-2.37.85c-.81.35-1.2.19-1.51-.16-.39-.16-.7-.51-1.09-.66a1.55,1.55,0,0,1-.7-1.63l.55-2.48a1.15,1.15,0,0,0-.73-1l-2-.59c-.27.12-.74.15-1,.74l-.93,2.32c-.31.78-.66,1.09-1.24.85-.27.12-.74.15-1.28.39-.47,0-.93.08-1.47-.82L141,45a.92.92,0,0,0-1-.2l-1.79,1.08a.94.94,0,0,0-.39,1l1.12,2.25c.35.82.19,1.2-.16,1.51a13.21,13.21,0,0,1-.93,1.2,1.32,1.32,0,0,1-1.44.77l-2.48-.55a1.15,1.15,0,0,0-1,.73l-.51,1.82a.9.9,0,0,0,.46,1.09l2.41.74a1.5,1.5,0,0,1,1,1.32l.11,1.4c.23.54.08.93-.62,1.55l-1.94,1.47m14.67-.63a5.2,5.2,0,0,1-6.91-1.88,4.82,4.82,0,0,1,1.87-6.9,5,5,0,0,1,6.71,1.8,5,5,0,0,1-1.68,7"/><path class="cls-6" d="M132,49.22a1.12,1.12,0,0,0,1.36-.58l1.09-2.71a1.32,1.32,0,0,0-.58-1.36l-3.45-2.06c.12-.85.31-1.9.43-2.75l4.16-.8a1,1,0,0,0,.85-1l0-2.71a.93.93,0,0,0-.93-1.05l-4.27-.59a8.61,8.61,0,0,0-.5-2.68l3.57-2.17a1,1,0,0,0,.55-1.36L133,24.86c0-.46-.62-.7-1.09-.66l-4.23,1A8.69,8.69,0,0,0,126.09,23l2.53-3.49a1.49,1.49,0,0,0-.11-1.4l-2.13-2a1,1,0,0,0-1.32-.08l-3.26,2.51c-.7-.51-1.67-.9-2.37-1.4l1-4.11a1,1,0,0,0-.66-1.17l-2.52-1a1,1,0,0,0-1.28.39l-2.14,3.64a12.07,12.07,0,0,0-2.95-.51l-.54-4.27a1.29,1.29,0,0,0-1.2-.93l-2.72,0a1.28,1.28,0,0,0-1.13,1.12l-.51,4.07c-.93.08-1.75.42-2.68.5l-2.17-3.57A1.29,1.29,0,0,0,98.47,11L96,12a1.29,1.29,0,0,0-.74,1.28l1.28,4.11a17.42,17.42,0,0,0-2.49,1.7l-3.49-2.53a.93.93,0,0,0-1.4.11l-1.9,1.94a1.38,1.38,0,0,0-.16,1.51l2.71,3.34-1.52,2.09-4.11-1a1.39,1.39,0,0,0-1.16.66L82,28c-.16.39,0,1.12.39,1.28L86,31.4c-.12.85-.31,1.9-.43,2.75L81.4,35a1,1,0,0,0-.86,1l0,2.91a1.27,1.27,0,0,0,.93,1l4.07.51c.35.81.43,1.75.77,2.56l-3.77,2.09a1.29,1.29,0,0,0-.35,1.43l1,2.64a1.78,1.78,0,0,0,1.36.55l4-1.08c.54.89,1.16,1.59,1.7,2.49l-2.45,3.29a1,1,0,0,0,.11,1.4l1.94,1.9a1.2,1.2,0,0,0,1.51.16l3.26-2.51A10.62,10.62,0,0,0,97,56.75l-1,4.11a1,1,0,0,0,.58,1.36l2.52,1a1,1,0,0,0,1.36-.58L102.6,59a7.38,7.38,0,0,0,2.95.51l.54,4.27a1,1,0,0,0,1,.86l2.91,0a1.49,1.49,0,0,0,1-.93l.59-4.27a7.54,7.54,0,0,0,2.49-.58l2.36,3.65a1.31,1.31,0,0,0,1.16.47l2.72-1.16a1,1,0,0,0,.55-1.36l-1.08-4A16.1,16.1,0,0,0,122.24,55l3.37,2.26a1.08,1.08,0,0,0,1.59,0l1.91-1.94a.93.93,0,0,0-.11-1.4l-2.44-3.46,1.52-2.09,3.92.9M112.17,38.55A4.28,4.28,0,0,1,106.46,41a4.24,4.24,0,0,1-2.24-5.63,4.29,4.29,0,1,1,8,3.2"/><circle class="cls-2" cx="108.18" cy="36.94" r="18.13"/><path class="cls-3" d="M110.74,28.18a4.85,4.85,0,0,0-1,5.22L98.9,44.18a1.68,1.68,0,0,0,0,2.44h.35a1.68,1.68,0,0,0,2.44,0l10.79-10.44a5.83,5.83,0,0,0,5.22-1.39,4.19,4.19,0,0,0,1-4.87l-3.48,3.48-2.09-.7-.7-2.09L116,27.13a4.86,4.86,0,0,0-5.22,1M99.59,44.53a1.56,1.56,0,0,1,1.74,0,1.06,1.06,0,0,1,0,1.39c-.35.7-1,.7-1.74,0a1.06,1.06,0,0,1,0-1.39"/><path class="cls-4" d="M118.22,45.4l-1,1c-.7.7-1.74.7-2.09,0l-7.31-7c-.7-.69-.7-1.74,0-2.09l-4.87-4.87-1.74-.35-2.44-3.83,1.39-1,3.48,2.44.7,1.74L108.82,36a2.19,2.19,0,0,1,2.09,0l7.31,7.31c.7.7.7,1.74,0,2.09"/></svg>