<svg id="Layer_1" data-name="Layer 1" xmlns="http://www.w3.org/2000/svg" viewBox="0 0 400 140">
  <defs>
    <style>
      .cls-1 {
        fill: #c7c7c7;
      }

      .cls-2 {
        fill: #aeaeae;
      }

      .cls-2, .cls-5 {
        stroke: #919190;
        stroke-width: 2px;
      }

      .cls-2, .cls-5, .cls-8 {
        stroke-miterlimit: 10;
      }

      .cls-3 {
        fill: #478aa9;
      }

      .cls-4 {
        fill: #7cabc2;
      }

      .cls-4, .cls-5, .cls-7 {
        fill-rule: evenodd;
      }

      .cls-5, .cls-8 {
        fill: none;
      }

      .cls-5 {
        stroke-dasharray: 3 3;
      }

      .cls-6 {
        fill: #f58b20;
      }

      .cls-7 {
        fill: #f3af21;
      }

      .cls-8 {
        stroke: #5d5d5d;
      }

      .cls-9 {
        fill: #ee5129;
      }

      .cls-10 {
        fill: #4a68b0;
      }
    </style>
  </defs>
  <title>vs-hub-docs-features-version-control</title>
  <circle class="cls-1" cx="43.15" cy="70.57" r="31.7"/>
  <rect class="cls-1" x="54.94" y="64.04" width="318" height="12.96"/>
  <line class="cls-2" x1="45.89" y1="71" x2="382" y2="71"/>
  <g>
    <circle class="cls-3" cx="43.25" cy="71.1" r="17.24"/>
    <path class="cls-4" d="M55.65,83.07A17.23,17.23,0,0,0,31.29,58.71Z"/>
  </g>
  <polyline class="cls-5" points="219 70.52 258.68 113.84 341.67 113.84"/>
  <g>
    <circle class="cls-3" cx="223" cy="71.1" r="14"/>
    <path class="cls-4" d="M233.06,80.82A14,14,0,0,0,213.28,61Z"/>
  </g>
  <g>
    <circle class="cls-3" cx="373.24" cy="71.1" r="14"/>
    <path class="cls-4" d="M383.3,80.82A14,14,0,0,0,363.52,61Z"/>
  </g>
  <polyline class="cls-5" points="127.85 71.1 176.82 32.74 332.04 32.74"/>
  <g>
    <circle class="cls-3" cx="134" cy="71.1" r="14"/>
    <path class="cls-4" d="M144.06,80.82A14,14,0,0,0,124.28,61Z"/>
  </g>
  <g>
    <g>
      <circle class="cls-6" cx="181.56" cy="33.94" r="12.16"/>
      <path class="cls-7" d="M190.3,42.38A12.15,12.15,0,0,0,173.12,25.2Z"/>
    </g>
    <g>
      <circle class="cls-6" cx="331.5" cy="33.94" r="12.16"/>
      <path class="cls-7" d="M340.24,42.38A12.15,12.15,0,0,0,323.06,25.2Z"/>
    </g>
    <g>
      <circle class="cls-6" cx="335.18" cy="114.84" r="12.16"/>
      <path class="cls-7" d="M343.92,123.28a12.15,12.15,0,0,0-17.18-17.18Z"/>
    </g>
    <g>
      <circle class="cls-6" cx="259.18" cy="114.84" r="12.16"/>
      <path class="cls-7" d="M267.92,123.28a12.15,12.15,0,0,0-17.18-17.18Z"/>
    </g>
  </g>
  <g>
    <circle class="cls-8" cx="206" cy="16.32" r="5.22"/>
    <path class="cls-8" d="M198,29.19a8,8,0,0,1,16,0"/>
  </g>
  <g>
    <circle class="cls-8" cx="281.91" cy="96.24" r="5.22"/>
    <path class="cls-8" d="M273.91,109.11a8,8,0,0,1,16,0"/>
  </g>
  <g>
    <circle class="cls-8" cx="358" cy="96.24" r="5.22"/>
    <path class="cls-8" d="M350,109.11a8,8,0,0,1,16,0"/>
  </g>
  <g>
    <circle class="cls-8" cx="354" cy="16.32" r="5.22"/>
    <path class="cls-8" d="M346,29.19a8,8,0,0,1,16,0"/>
  </g>
  <path class="cls-9" d="M114.52,102.83,96.17,84.48a1.65,1.65,0,0,0-2.34,0L89.7,88.62l4.3,4.3a3.13,3.13,0,0,1,4,4l4.2,4.2a3.13,3.13,0,1,1-1.82,2l-4-4v10.51a3.14,3.14,0,1,1-2.69,0V98.72a3.12,3.12,0,0,1-1.59-3.93L87.8,90.52,75.48,102.83a1.65,1.65,0,0,0,0,2.34l18.35,18.35a1.65,1.65,0,0,0,2.34,0l18.35-18.35A1.65,1.65,0,0,0,114.52,102.83Z"/>
  <path class="cls-10" d="M99.09,28.22c1.57-.39,3.15-.77,4.71-1.18a.43.43,0,0,1,.57.22,4.64,4.64,0,0,0,5.22,2,4.71,4.71,0,1,0-6-4.89c0,.27-.12.35-.35.41-1.55.38-3.09.76-4.63,1.16-.33.09-.45,0-.59-.29A9.41,9.41,0,1,0,85.66,38c.3.13.35.27.27.56q-.6,2.31-1.16,4.64a.4.4,0,0,1-.44.37A4.71,4.71,0,1,0,89,50.18a4.66,4.66,0,0,0-1.79-5.84.38.38,0,0,1-.2-.5c.41-1.6.8-3.2,1.2-4.8a2.48,2.48,0,0,1,.12-.3,8.36,8.36,0,0,0,3.6-.26,10,10,0,0,0,3.21-1.62l.11.07q3.2,3.2,6.41,6.4c.2.2.13.34,0,.55a4.69,4.69,0,0,0,5.37,6.6,4.7,4.7,0,0,0,1.74-8.26,4.45,4.45,0,0,0-4.93-.51.47.47,0,0,1-.64-.12q-2.17-2.19-4.36-4.36c-.68-.68-1.38-1.34-2.06-2a2.08,2.08,0,0,1,.1-.19,9,9,0,0,0,1.84-6.49C98.75,28.29,98.9,28.26,99.09,28.22Zm-9.68,5.91a4.71,4.71,0,1,1,4.73-4.69A4.71,4.71,0,0,1,89.41,34.12Z"/>
</svg>
