<svg id="Layer_1" data-name="Layer 1" xmlns="http://www.w3.org/2000/svg" viewBox="0 0 400 140">
  <defs>
    <style>
      .cls-1 {
        fill: #bad80a;
      }

      .cls-2 {
        fill: #d1e55c;
      }

      .cls-3 {
        fill: #fff;
        stroke: #556a8a;
        stroke-miterlimit: 10;
        stroke-width: 2px;
      }

      .cls-4 {
        fill: #b2d7f0;
        opacity: 0.8;
      }

      .cls-5 {
        fill: #757575;
      }

      .cls-6 {
        fill: #682a7a;
      }

      .cls-7 {
        fill: #2e2e2e;
      }

      .cls-8 {
        fill: #478aa9;
      }

      .cls-9 {
        fill: #672a79;
      }

      .cls-10 {
        fill: #334d63;
      }

      .cls-11 {
        fill: #5d5f5e;
      }

      .cls-12 {
        fill: #df5c2a;
      }

      .cls-13 {
        fill: #4d4e4e;
      }

      .cls-14 {
        fill: #558ad8;
      }

      .cls-15 {
        fill: #80a7e2;
      }

      .cls-16 {
        fill: #7750a3;
      }

      .cls-17 {
        fill: #e4dced;
      }

      .cls-18 {
        fill: #808285;
      }
    </style>
  </defs>
  <title>vs-hub-docs-features-devops</title>
  <g>
    <g>
      <path class="cls-1" d="M165.81,66.93l-5.73-1.09a22.94,22.94,0,0,0-.44-3.95L164.52,59a1.51,1.51,0,0,0,.92-2l-1.29-3.58a1.3,1.3,0,0,0-1.83-.7l-5.83,1-1.72-3.18,3.51-4.4a1.55,1.55,0,0,0,.09-2.06l-2.75-3a1.86,1.86,0,0,0-2.07-.09L148.87,44c-1-.66-2.2-1.54-3.2-2.21l1.51-5.72a1.42,1.42,0,0,0-.75-1.69L143,32.81a1.31,1.31,0,0,0-1.89.53l-3.33,5a11.89,11.89,0,0,0-3.67-1l-.56-5.81A1.42,1.42,0,0,0,132.15,30l-3.93,0c-.62-.23-1.27.36-1.5,1L125.42,37a12.23,12.23,0,0,0-3.75.65l-2.86-5.29a2.09,2.09,0,0,0-1.83-.7l-3.8,1.49a1.4,1.4,0,0,0-.9,1.61l1.19,5.64c-1.06.57-2.13,1.55-3.2,2.13l-4.59-3.73a1.34,1.34,0,0,0-1.86.12L102,40.53l-1,.92,0,0a1.33,1.33,0,0,0-.26,1.82L104,48.21a17,17,0,0,0-2.43,3.41l-5.7-1.91a1.83,1.83,0,0,0-1.91.95l-1.61,3.44a1.79,1.79,0,0,0,.74,2.1l4.82,3.11c-.47,1.22-.53,2.46-1,3.68l-5.81.56a1.81,1.81,0,0,0-1.32,1.6l-.17,3.71a1.8,1.8,0,0,0,1.15,1.72l6,.89a23.89,23.89,0,0,0,.63,4.16l-5.3,2.86a1.31,1.31,0,0,0-.7,1.84l1.29,3.58A1.93,1.93,0,0,0,94.46,85l5.85-1.39L102,86.8,98.3,91.38a2,2,0,0,0,.12,1.87l2.76,3a1.56,1.56,0,0,0,1.84.3l4.92-3.3c1,.67,2.2,1.55,3.2,2.21l-1.5,5.73a1.38,1.38,0,0,0,.75,1.68l3.63,1.83a1.78,1.78,0,0,0,1.89-.54L119,99.35c1.24.06,2.46.53,3.7.58l.34,6a1.8,1.8,0,0,0,1.59,1.31l3.92.39a2.49,2.49,0,0,0,1.51-1.37l1.1-5.74c1.45-.14,2.71-.51,4.16-.64L138,105a1.42,1.42,0,0,0,1.84.7l3.56-1.29a1.69,1.69,0,0,0,1.12-1.81l-1.19-5.63a14.47,14.47,0,0,0,3.2-2.13l4.59,3.73a1.39,1.39,0,0,0,2.07.09l2.57-2.35.23-.21a1.46,1.46,0,0,0,.51-1,1.42,1.42,0,0,0-.42-1l-3.29-4.92a10.17,10.17,0,0,0,2.43-3.4l5.71,1.91a1.41,1.41,0,0,0,1.68-.75l1.83-3.64a2.09,2.09,0,0,0-.54-1.89l-5-3.32a10.39,10.39,0,0,0,.78-3.49l6-.76c.63-.18,1.28-.77,1.3-1.19l.19-4.12A1.41,1.41,0,0,0,165.81,66.93ZM128.15,77.11a9,9,0,1,1,9-9A9,9,0,0,1,128.15,77.11Z"/>
      <path class="cls-2" d="M165.81,66.93l-5.73-1.09a22.94,22.94,0,0,0-.44-3.95L164.52,59a1.51,1.51,0,0,0,.92-2l-1.29-3.58a1.3,1.3,0,0,0-1.83-.7l-5.83,1-1.72-3.18,3.51-4.4a1.55,1.55,0,0,0,.09-2.06l-2.75-3a1.86,1.86,0,0,0-2.07-.09L148.87,44c-1-.66-2.2-1.54-3.2-2.21l1.51-5.72a1.42,1.42,0,0,0-.75-1.69L143,32.81a1.31,1.31,0,0,0-1.89.53l-3.33,5a11.89,11.89,0,0,0-3.67-1l-.56-5.81A1.42,1.42,0,0,0,132.15,30l-3.93,0c-.62-.23-1.27.36-1.5,1L125.42,37a12.23,12.23,0,0,0-3.75.65l-2.86-5.29a2.09,2.09,0,0,0-1.83-.7l-3.8,1.49a1.4,1.4,0,0,0-.9,1.61l1.19,5.64c-1.06.57-2.13,1.55-3.2,2.13l-4.59-3.73a1.34,1.34,0,0,0-1.86.12L102,40.53l-1,.92,0,0,19.86,19.86a9.89,9.89,0,1,1,14,14l20.95,20.95.23-.21a1.46,1.46,0,0,0,.51-1,1.42,1.42,0,0,0-.42-1l-3.29-4.92a10.17,10.17,0,0,0,2.43-3.4l5.71,1.91a1.41,1.41,0,0,0,1.68-.75l1.83-3.64a2.09,2.09,0,0,0-.54-1.89l-5-3.32a10.39,10.39,0,0,0,.78-3.49l6-.76c.63-.18,1.28-.77,1.3-1.19l.19-4.12A1.41,1.41,0,0,0,165.81,66.93Z"/>
    </g>
    <path class="cls-3" d="M213.77,78.56H211.2c1.28-3.21,2.57-7.05,2.57-10.26A23.69,23.69,0,0,0,190,44.58,23,23,0,0,0,166.89,65.1a25.78,25.78,0,0,0-18-7.69c-12.2,0-23.11,10.26-23.76,22.44a32.12,32.12,0,0,0-7.7-1.28,23.29,23.29,0,0,0-23.76,23.72c0,12.82,10.27,23.08,23.76,23.08h96.32c12.84,0,23.76-10.26,23.76-23.08a23.69,23.69,0,0,0-23.76-23.72"/>
    <path class="cls-4" d="M279.34,58.4a30.41,30.41,0,0,0-60-1A20.7,20.7,0,0,0,186.06,68a18.09,18.09,0,1,0-4.3,35.66h101.8c10.33-2.1,18.1-11.68,18.1-22.62A22.61,22.61,0,0,0,279.34,58.4Z"/>
    <polygon class="cls-5" points="164.79 26.59 164.08 25.89 183.8 10.43 184.33 11.14 164.79 26.59"/>
    <rect class="cls-5" x="180.43" y="39.74" width="1.78" height="81.34"/>
    <rect class="cls-5" x="192.68" y="39.2" width="1.78" height="81.87"/>
    <rect class="cls-5" x="182.2" y="85.2" width="11.9" height="1.6"/>
    <rect class="cls-5" x="182.2" y="96.57" width="10.84" height="1.78"/>
    <polygon class="cls-5" points="180.6 98.16 182.38 98.16 187.53 93.01 192.68 98.16 194.1 98.16 194.1 96.92 188.78 91.59 194.1 86.44 194.1 85.2 192.68 85.2 187.53 90.35 182.2 85.2 180.6 85.2 180.6 86.09 186.29 91.59 180.6 97.28 180.6 98.16"/>
    <rect class="cls-5" x="182.2" y="73.66" width="10.84" height="1.6"/>
    <polygon class="cls-5" points="180.6 86.62 182.38 86.62 187.53 81.47 192.68 86.62 194.1 86.62 194.1 85.55 188.78 80.23 194.1 74.9 194.1 73.66 192.68 73.66 187.53 78.81 182.2 73.66 180.6 73.66 180.6 74.54 186.29 80.23 180.6 85.73 180.6 86.62"/>
    <polygon class="cls-5" points="180.6 75.25 182.38 75.25 187.53 70.11 192.68 75.25 194.1 75.25 194.1 74.19 188.78 68.86 194.1 63.53 194.1 62.29 192.68 62.29 187.53 67.44 182.2 62.29 180.6 62.29 180.6 63.18 186.29 68.86 180.6 74.37 180.6 75.25"/>
    <rect class="cls-5" x="182.2" y="62.11" width="10.84" height="1.6"/>
    <polygon class="cls-5" points="180.6 63.71 182.38 63.71 187.53 58.56 192.68 63.71 194.1 63.71 194.1 62.47 188.78 57.32 194.1 51.99 194.1 50.75 192.68 50.75 187.53 55.9 182.2 50.75 180.6 50.75 180.6 51.63 186.29 57.32 180.6 62.82 180.6 63.71"/>
    <rect class="cls-5" x="182.2" y="50.57" width="10.84" height="1.6"/>
    <rect class="cls-5" x="180.42" y="37.96" width="14.04" height="1.78"/>
    <polygon class="cls-5" points="180.6 52.17 182.38 52.17 187.53 47.02 192.68 52.17 194.1 52.17 194.1 51.1 188.78 45.77 194.1 40.45 194.1 39.2 192.68 39.2 187.53 44.35 182.2 39.2 180.6 39.2 180.6 40.09 186.29 45.77 180.6 51.28 180.6 52.17"/>
    <rect class="cls-5" x="182.2" y="108.11" width="10.84" height="1.6"/>
    <polygon class="cls-5" points="180.6 109.71 182.38 109.71 187.53 104.38 192.68 109.71 194.1 109.71 194.1 108.47 188.78 103.14 194.1 97.81 194.1 96.57 192.68 96.57 187.53 101.89 182.2 96.57 180.6 96.57 180.6 97.45 186.29 103.14 180.6 108.82 180.6 109.71"/>
    <rect class="cls-6" x="182.2" y="119.3" width="10.84" height="1.78"/>
    <rect class="cls-5" x="182.2" y="119.3" width="10.84" height="1.78"/>
    <polygon class="cls-5" points="180.6 120.89 182.38 120.89 187.53 115.75 192.68 120.89 194.1 120.89 194.1 119.83 188.78 114.5 194.1 109.17 194.1 107.93 192.68 107.93 187.53 113.08 182.2 107.93 180.6 107.93 180.6 108.82 186.29 114.5 180.6 120.01 180.6 120.89"/>
    <rect class="cls-7" x="156.79" y="23.75" width="7.64" height="13.14"/>
    <polygon class="cls-5" points="236.92 19.85 183.98 11.14 184.16 10.26 236.92 18.96 236.92 19.85"/>
    <rect class="cls-5" x="183.09" y="10.79" width="1.42" height="15.81"/>
    <polygon class="cls-5" points="183.62 10.79 184.87 10.43 190.37 26.24 188.78 26.24 183.62 10.79"/>
    <rect class="cls-5" x="184.16" y="21.8" width="3.55" height="1.24"/>
    <rect class="cls-5" x="184.16" y="17.89" width="2.31" height="1.07"/>
    <rect class="cls-5" x="184.16" y="17.89" width="2.31" height="1.07"/>
    <path class="cls-5" d="M188.77,26.59h-.18l-4.44-3.2a.33.33,0,0,1,0-.53c.18-.18.35-.36.53-.18l4.26,3.2c.18.18.36.35.18.53,0,.18-.18.18-.36.18"/>
    <path class="cls-5" d="M184.51,22.33c-.18,0-.18,0-.36-.18-.18,0-.18-.36,0-.53l2-2.84a.65.65,0,0,1,.53-.18.65.65,0,0,1,.18.53l-2,3a.62.62,0,0,0-.35.18"/>
    <path class="cls-5" d="M184.51,26.59c-.18,0-.36,0-.36-.18-.18,0-.18-.35,0-.53l3.38-3.2a.33.33,0,0,1,.53,0,.54.54,0,0,1,0,.71l-3.38,3a.17.17,0,0,1-.18.18"/>
    <polygon class="cls-8" points="195.53 26.95 178.65 26.95 178.65 36.89 195.53 36.89 197.48 30.5 195.53 26.95"/>
    <rect class="cls-9" x="188.06" y="28.9" width="1.95" height="5.86"/>
    <rect class="cls-10" x="188.06" y="28.9" width="1.95" height="5.86"/>
    <polygon class="cls-9" points="194.82 28.9 191.62 28.9 191.62 34.76 194.64 34.76 195.7 30.68 194.82 28.9"/>
    <polygon class="cls-10" points="194.82 28.9 191.62 28.9 191.62 34.76 194.64 34.76 195.7 30.68 194.82 28.9"/>
    <polygon class="cls-5" points="204.41 18.96 253.62 18.96 254.69 19.85 204.41 19.85 204.41 18.96"/>
    <polygon class="cls-5" points="197.48 26.24 196.06 26.24 204.05 18.96 205.48 18.96 197.48 26.24"/>
    <polygon class="cls-5" points="197.48 26.24 196.06 26.24 204.05 18.96 205.48 18.96 197.48 26.24"/>
    <rect class="cls-8" x="156.79" y="26.24" width="105" height="2.49"/>
    <polygon class="cls-5" points="260.38 26.24 261.8 26.24 253.62 18.96 252.38 18.96 260.38 26.24"/>
    <g>
      <polygon class="cls-5" points="213.47 26.24 212.05 26.24 220.22 18.96 221.47 18.96 213.47 26.24"/>
      <g>
        <polygon class="cls-5" points="212.23 26.24 213.47 26.24 205.48 18.96 204.05 18.96 212.23 26.24"/>
        <rect class="cls-5" x="212.4" y="19.85" width="0.89" height="6.39"/>
        <rect class="cls-5" x="204.41" y="19.85" width="0.71" height="6.39"/>
        <polygon class="cls-5" points="213.47 26.24 212.05 26.24 220.22 18.96 221.47 18.96 213.47 26.24"/>
        <polygon class="cls-5" points="228.22 26.24 229.64 26.24 221.47 18.96 220.22 18.96 228.22 26.24"/>
        <rect class="cls-5" x="228.57" y="19.85" width="0.71" height="6.39"/>
        <rect class="cls-5" x="220.4" y="19.85" width="0.89" height="6.39"/>
        <polygon class="cls-5" points="229.64 26.24 228.22 26.24 236.21 18.96 237.63 18.96 229.64 26.24"/>
        <polygon class="cls-5" points="245.63 26.24 244.38 26.24 252.38 18.96 253.62 18.96 245.63 26.24"/>
        <polygon class="cls-5" points="244.38 26.24 245.63 26.24 237.63 18.96 236.21 18.96 244.38 26.24"/>
        <rect class="cls-5" x="244.56" y="19.85" width="0.89" height="6.39"/>
        <rect class="cls-5" x="236.57" y="19.85" width="0.71" height="6.39"/>
        <rect class="cls-5" x="252.56" y="19.85" width="0.89" height="6.39"/>
      </g>
    </g>
    <rect class="cls-5" x="252.56" y="19.85" width="0.89" height="6.39"/>
    <path class="cls-5" d="M185,10.79a1,1,0,0,1-1.07.89.89.89,0,1,1,0-1.78,1,1,0,0,1,1.07.89"/>
    <rect class="cls-5" x="252.87" y="28.9" width="0.89" height="25.74"/>
    <path class="cls-11" d="M255.62,25.35a.76.76,0,0,0-.71.71v.18h-3.38v-.18a.81.81,0,0,0-.89-.71.76.76,0,0,0-.71.71v5h6.4v-5a.76.76,0,0,0-.71-.71"/>
    <polygon class="cls-7" points="162.94 135.26 211.61 135.26 208.62 120.56 165.92 120.56 162.94 135.26"/>
    <g>
      <g>
        <g>
          <path class="cls-12" d="M258,75.05s-11.33-4.32-17.08,19.56c23-6.17,18.94-17.8,18.94-17.8Z"/>
          <polygon class="cls-13" points="262.65 80.97 253.81 72.14 260.88 70.37 264.2 73.7 262.65 80.97"/>
          <rect class="cls-13" x="261.03" y="65" width="5" height="12.5" transform="translate(26.8 207.21) rotate(-45)"/>
        </g>
        <polygon class="cls-13" points="267.07 64.75 243.2 63.87 239.67 60.33 260 50.61 268.49 53.8 267.07 64.75"/>
        <polygon class="cls-13" points="271.78 68.6 272.66 92.46 276.19 96 285.92 75.67 282.73 67.17 271.78 68.6"/>
        <path class="cls-14" d="M310.38,24.41S282.91,29,271.49,40.32c-11.91,11.85-14.14,24.75-14.14,24.75l12.37,12.37s12.9-2.23,24.75-14.14C305.83,51.87,310.38,24.41,310.38,24.41Z"/>
        <path class="cls-15" d="M263.6,71.32l6.12,6.12s12.9-2.23,24.75-14.14c10.9-11,15.52-36.63,15.88-38.74Z"/>
        <path class="cls-16" d="M310.38,24.41A128.6,128.6,0,0,0,289.49,30l15.25,15.25A128.6,128.6,0,0,0,310.38,24.41Z"/>
      </g>
      <circle class="cls-13" cx="286.13" cy="49.66" r="6"/>
      <circle class="cls-17" cx="286.13" cy="49.66" r="4"/>
    </g>
    <path class="cls-18" d="M152.18,103.42a1.25,1.25,0,0,0,1.16.81l2.54-.14a1.25,1.25,0,0,0,1-1.35l.08-3.12a1.81,1.81,0,0,1,1.15-1.93c.4-.39,1-.57,1.39-.93a2.19,2.19,0,0,1,2.15.24l2.89,1.83a1.47,1.47,0,0,0,1.34-.18l1.84-2.1a1.3,1.3,0,0,0-.35-1.58l-2.24-2.38a1.59,1.59,0,0,1-.35-2s.84-3.11,2.18-3.28l2.94-.52a1.55,1.55,0,0,0,1-1.34l-.33-2.75a1,1,0,0,0-1.09-.82h-.07l-3.13-.07a1.86,1.86,0,0,1-1.93-1.22c-.39-.4-.57-1-.93-1.38a3.13,3.13,0,0,1,.12-2.35l1.82-2.5a1.41,1.41,0,0,0-.16-1.76l-2.12-1.42a1.25,1.25,0,0,0-1.57,0l-2.19,2.48c-.55.6-1.59,1.51-3.73.12,0,0-1.59-1-1.74-1.83l-.46-3.31a1.25,1.25,0,0,0-1.16-.81l-2.75.33a1,1,0,0,0-.76,1.13v0l-.27,3.31c0,1.17-.41,1.56-1,1.74-.4.39-1,.57-1.39.93a2,2,0,0,1-2.35-.06l-2.69-2a1.52,1.52,0,0,0-1.58.35l-1.84,2.1a1.73,1.73,0,0,0,.35,1.58l2.29,2.4c.76.79,1.13,1.54.1,3.72-.16.59-.43,1.18-1.79,1.33l-3.15.71a1.25,1.25,0,0,0-.81,1.16l.33,2.75a1.25,1.25,0,0,0,1,1l3.32-.11c1.17,0,1.56.41,1.74,1a17.5,17.5,0,0,1,.93,1.78,1.75,1.75,0,0,1,.13,2.1l-2,2.69a1.51,1.51,0,0,0,.35,1.57l1.92,1.61a1.25,1.25,0,0,0,1.57,0L146,98.57a2,2,0,0,1,2.15-.51s3.14.27,3.27,2.22l.7,3.14m7.29-18a6.88,6.88,0,0,1-6,7.28,6.39,6.39,0,0,1-7.23-5.42q0-.31-.06-.62A6.56,6.56,0,0,1,152,79.58a6.65,6.65,0,0,1,7.5,5.68l0,.16"/>
  </g>
</svg>
