<?xml version="1.0" encoding="utf-8"?>
<!-- Generator: Adobe Illustrator 20.1.0, SVG Export Plug-In . SVG Version: 6.00 Build 0)  -->
<svg version="1.1" id="Layer_1" xmlns="http://www.w3.org/2000/svg" xmlns:xlink="http://www.w3.org/1999/xlink" x="0px" y="0px"
	 viewBox="0 0 415 140" style="enable-background:new 0 0 415 140;" xml:space="preserve">
<style type="text/css">
	.st0{fill:#C7C7C7;}
	.st1{fill:#B2D7F0;}
	.st2{fill:#919191;}
	.st3{fill:#447995;}
	.st4{fill:none;stroke:#447995;stroke-width:2;stroke-miterlimit:10;}
	.st5{fill:none;stroke:#447995;stroke-width:2;stroke-miterlimit:10;stroke-dasharray:4.2976,4.2976;}
	.st6{fill:#FFFFFF;}
	.st7{fill:#E4EDF1;}
	.st8{fill:#E3E3E3;}
	.st9{fill:#5E5E5E;}
	.st10{fill:#2E2E2E;}
	.st11{fill:#7CABC2;}
	.st12{fill:#96BCCE;}
	.st13{fill:#2C3E50;}
	.st14{clip-path:url(#SVGID_2_);fill:#447995;}
	
		.st15{fill-rule:evenodd;clip-rule:evenodd;fill:none;stroke:#E3E3E3;stroke-width:1.3089;stroke-linecap:round;stroke-linejoin:round;stroke-miterlimit:10;stroke-dasharray:1.3089,2.6179;}
	.st16{fill:#5D5D5D;}
	.st17{fill:none;stroke:#909090;stroke-width:1.1744;stroke-miterlimit:10;stroke-dasharray:2.3488,3.5233;}
	.st18{fill:#395B71;}
	.st19{fill-rule:evenodd;clip-rule:evenodd;fill:#395B71;}
	.st20{fill-rule:evenodd;clip-rule:evenodd;fill:#2E2E2E;}
	.st21{fill:#2C3E58;}
	.st22{fill:#4889A8;}
	.st23{fill:#929090;}
	.st24{fill:#96BBCD;}
	.st25{fill:#3A5C71;}
	.st26{fill:#757575;}
	.st27{fill:#682A7A;}
	.st28{fill:#478AA9;}
	.st29{fill:#672A79;}
	.st30{fill:#334D63;}
	.st31{fill:#5D5F5E;}
	.st32{fill:#FAB516;}
	.st33{fill:#F5891F;}
	.st34{fill:#CB6D29;}
	.st35{opacity:0.41;fill:#929090;}
	.st36{clip-path:url(#SVGID_4_);}
	.st37{clip-path:url(#SVGID_6_);}
	.st38{fill:#FE8B0C;}
	.st39{fill:#231F20;}
	.st40{fill:#909090;}
	.st41{fill:none;stroke:#909090;stroke-miterlimit:10;stroke-dasharray:2,2;}
	.st42{fill-rule:evenodd;clip-rule:evenodd;fill:#478AA9;}
	.st43{clip-path:url(#SVGID_8_);}
	.st44{clip-path:url(#SVGID_10_);}
	.st45{fill:#7DB912;}
	.st46{fill:#3B77AD;}
	.st47{fill:#F7CD13;}
	.st48{fill:#464646;}
	.st49{fill:#929497;}
	.st50{fill:#A6A8AB;}
	.st51{fill:#2F75BB;}
	.st52{fill:none;stroke:#757575;stroke-width:0.5023;stroke-miterlimit:10;}
	.st53{fill:#ACACAC;}
	.st54{fill:#3C88C6;}
	.st55{fill:#E4CB58;}
	.st56{fill:#58595B;}
	.st57{fill:#007ACC;}
	.st58{fill:#DB58DB;}
	.st59{fill:#B4079C;}
	.st60{fill:#9A37AF;}
	.st61{fill:#721481;}
	.st62{fill:#73AA24;}
	.st63{fill:#05930C;}
	.st64{fill:#2581BF;}
	.st65{fill:#004E8C;}
	.st66{fill:#D9DCE1;}
	.st67{fill:none;stroke:#909090;stroke-width:0.9199;stroke-miterlimit:10;}
	.st68{fill:none;stroke:#909090;stroke-width:0.9494;stroke-miterlimit:10;}
	.st69{fill:none;stroke:#909090;stroke-width:0.8988;stroke-miterlimit:10;}
	.st70{fill:none;stroke:#909090;stroke-width:0.8481;stroke-miterlimit:10;}
	.st71{fill:none;stroke:#909090;stroke-width:0.7975;stroke-miterlimit:10;}
	.st72{fill:none;stroke:#909090;stroke-width:0.7469;stroke-miterlimit:10;}
	.st73{fill:none;stroke:#909090;stroke-width:0.6963;stroke-miterlimit:10;}
	.st74{fill:#CADEE6;}
	.st75{fill:none;stroke:#447995;stroke-miterlimit:10;}
	.st76{fill:#FFFFFF;stroke:#96BCCE;stroke-width:0.75;stroke-miterlimit:10;}
	.st77{clip-path:url(#SVGID_12_);}
	.st78{fill:#08BBF1;}
	.st79{fill:#0AA5E2;}
	.st80{fill:#181717;}
	.st81{fill:#F3AF21;}
	.st82{fill:none;stroke:#5D5D5D;stroke-width:0.8345;stroke-miterlimit:10;}
	.st83{fill:none;stroke:#5D5D5D;stroke-width:1.3526;stroke-miterlimit:10;}
	.st84{fill-rule:evenodd;clip-rule:evenodd;fill:#7DB912;}
	.st85{fill:#333333;}
	.st86{fill:none;stroke:#FFFFFF;stroke-width:0.2247;stroke-linecap:round;stroke-linejoin:round;stroke-miterlimit:10;}
	.st87{fill:#737374;}
	.st88{fill:#515050;}
	.st89{fill:none;stroke:#000000;stroke-width:0.4495;stroke-miterlimit:1;}
	.st90{fill:none;}
	.st91{fill:#619BB5;}
	.st92{fill:none;stroke:#395B71;stroke-width:0.234;stroke-miterlimit:10;}
	.st93{fill:#32383D;}
	.st94{fill:#00BCF2;}
	.st95{fill:#2C2737;}
	.st96{fill:#201D29;}
	.st97{fill:#22BAED;}
	.st98{fill:#221F1F;}
	.st99{clip-path:url(#SVGID_14_);}
	.st100{clip-path:url(#SVGID_16_);}
	.st101{fill:#5E615F;}
	.st102{fill:none;stroke:#767676;stroke-width:0.199;stroke-miterlimit:10;}
	.st103{fill:#699F63;}
	.st104{fill-rule:evenodd;clip-rule:evenodd;fill:#333333;}
	.st105{fill-rule:evenodd;clip-rule:evenodd;fill:#699F63;}
	.st106{clip-path:url(#XMLID_3_);}
	.st107{fill:url(#SVGID_17_);}
	.st108{fill:url(#SVGID_18_);}
	.st109{fill:url(#SVGID_19_);}
	.st110{fill:url(#SVGID_20_);}
	.st111{fill:url(#SVGID_21_);}
	.st112{fill:url(#SVGID_22_);}
	.st113{fill:#00890B;}
	.st114{fill:#B0CDDA;}
	.st115{clip-path:url(#SVGID_24_);}
	.st116{fill:#515150;}
	.st117{fill:#171717;}
	.st118{fill:#457994;}
	.st119{fill:#F16424;}
	.st120{fill:#8B6AB1;}
	.st121{fill:#5C2D91;}
	.st122{clip-path:url(#SVGID_26_);fill:#447995;}
	.st123{fill:#B8D71C;}
	.st124{fill:#2B2B2B;}
	.st125{clip-path:url(#SVGID_28_);}
	.st126{fill:#BAD80A;}
	.st127{fill:#F58B20;}
	.st128{clip-path:url(#SVGID_30_);}
	.st129{clip-path:url(#SVGID_32_);}
	.st130{fill:none;stroke:#BAD80A;stroke-width:3.0831;stroke-miterlimit:10;}
	.st131{clip-path:url(#SVGID_34_);}
	.st132{fill:#FF8C00;}
	.st133{fill:#E73F24;}
	.st134{fill:#F58B23;}
	.st135{fill:#ADADAD;}
	.st136{fill:#959595;}
	.st137{fill:#474748;}
	.st138{fill:#6D6E70;}
	.st139{fill:#1772B8;}
	.st140{fill:#767778;}
	.st141{fill:#A86527;}
	.st142{fill:#048273;}
	.st143{fill:none;stroke:#6D6E70;stroke-miterlimit:10;}
	.st144{opacity:0.3;fill:#929090;}
	.st145{fill:#8FD4EF;}
	.st146{fill:#FFFFFF;stroke:#B0CDDA;stroke-miterlimit:10;}
	.st147{fill-rule:evenodd;clip-rule:evenodd;fill:#909090;}
	.st148{fill-rule:evenodd;clip-rule:evenodd;fill:#757575;}
	.st149{fill:#FFCD49;}
	.st150{fill:#CF5BC0;}
	.st151{fill:#7953A5;}
	.st152{fill:#A3D4EF;}
	.st153{fill:#539B00;}
</style>
<g>
	<path class="st0" d="M377.003,47.314c0.145,0.515,0.645,0.707,0.982,0.721l2.203-0.069c0.515-0.146,0.869-0.469,0.9-1.145
		l0.124-2.701c0.047-1.014,0.4-1.337,1.091-1.644c0.353-0.322,0.868-0.468,1.221-0.791c0.514-0.145,1.03-0.292,1.851,0.252
		l2.462,1.636c0.5,0.192,1.014,0.045,1.19-0.116l1.606-1.788c0.176-0.161,0.207-0.838-0.276-1.368l-1.933-2.118
		c-0.645-0.707-0.452-1.206-0.262-1.704l-0.161-0.176c0.354-0.323,0.548-0.823,0.563-1.159c0.031-0.676,0.4-1.338,1.59-1.451
		l2.557-0.394c0.692-0.308,0.884-0.806,0.898-1.143l-0.228-2.381c0.015-0.339-0.468-0.868-0.982-0.721l-2.703-0.124
		c-1.014-0.045-1.497-0.574-1.643-1.089c-0.323-0.353-0.468-0.868-0.789-1.221c-0.145-0.514-0.293-1.029,0.092-2.027l1.621-2.127
		c0.369-0.661,0.224-1.175-0.099-1.529l-1.804-1.266c-0.322-0.353-0.998-0.384-1.351-0.062l-1.959,2.112
		c-0.706,0.645-1.383,0.614-1.881,0.424c-0.499-0.192-0.998-0.384-1.337-0.399l-0.161-0.176c-0.498-0.191-0.997-0.383-1.289-1.412
		l-0.374-2.895c-0.145-0.514-0.645-0.706-0.982-0.721l-2.383,0.231c-0.339-0.015-0.867,0.467-0.721,0.982l-0.303,2.864
		c-0.045,1.012-0.399,1.335-0.914,1.481c-0.354,0.323-0.868,0.468-1.222,0.792c-0.691,0.307-1.205,0.451-2.026-0.093l-2.287-1.796
		c-0.5-0.192-1.015-0.046-1.367,0.275l-1.607,1.791c-0.014,0.338-0.206,0.836,0.278,1.366l1.933,2.118
		c0.645,0.706,0.791,1.221,0.26,1.705c-0.015,0.339-0.208,0.838-0.239,1.513c-0.193,0.498-0.385,0.997-1.574,1.113l-2.733,0.553
		c-0.515,0.146-0.707,0.645-0.723,0.983l0.23,2.379c-0.018,0.339,0.467,0.869,0.806,0.883l2.879-0.038
		c1.013,0.046,1.334,0.398,1.481,0.912c0.307,0.691,0.63,1.045,0.774,1.558c0.484,0.53,0.452,1.206,0.083,1.867l-1.797,2.289
		c-0.192,0.497-0.047,1.012,0.275,1.365l1.628,1.428c0.323,0.353,0.998,0.385,1.352,0.062l1.959-2.112
		c0.707-0.645,1.382-0.614,1.881-0.423c0.498,0.192,0.997,0.385,1.498,0.576c0.675,0.031,0.997,0.385,1.289,1.412L377.003,47.314
		 M383.638,31.873c0.198,3.057-2.13,5.827-5.363,6.19c-3.234,0.362-6.004-1.964-6.185-5.358c-0.199-3.056,2.13-5.827,5.186-6.027
		C380.508,26.316,383.278,28.64,383.638,31.873"/>
	<path class="st0" d="M394.13,47.967c-0.32,0.293-0.728,0.273-0.826,0.166c-0.107,0.098-0.293-0.32-0.381-0.631l-0.352-1.244
		c-0.186-0.418-0.594-0.436-0.71-0.135l-0.962,0.878c-0.224,0.399-0.64,0.584-0.845,0.575l-0.487-0.534l-0.877-0.961
		c-0.293-0.32-0.604-0.232-0.72,0.07l-0.572,1.305c-0.116,0.302-0.34,0.701-0.446,0.799c0,0-0.302-0.115-0.701-0.339l-1.207-0.464
		c-0.399-0.223-0.613-0.028-0.631,0.381l0.04,1.333c0.089,0.31-0.134,0.711-0.241,0.808c0,0-0.312,0.089-0.721,0.069l-1.226-0.055
		c-0.408-0.018-0.622,0.176-0.436,0.594l0.556,1.254c0.089,0.311,0.167,0.825,0.167,0.825c-0.107,0.098-0.418,0.186-0.729,0.275
		l-1.254,0.557c-0.311,0.089-0.428,0.39-0.135,0.711l0.984,0.864c0.195,0.214,0.477,0.738,0.477,0.738
		c-0.107,0.098-0.223,0.4-0.544,0.692l-0.961,0.878c-0.213,0.195-0.126,0.506,0.176,0.622l1.206,0.464
		c0.302,0.116,0.701,0.339,0.691,0.543c0,0-0.018,0.409-0.135,0.711l-0.67,1.197c-0.116,0.303,0.079,0.516,0.38,0.632l1.332-0.042
		c0.41,0.018,0.818,0.037,0.915,0.144c0.098,0.107,0.186,0.418,0.069,0.72l-0.065,1.43c-0.019,0.408,0.283,0.524,0.594,0.436
		l1.156-0.664c0.418-0.186,0.827-0.168,0.925-0.061c0.107-0.098,0.196,0.214,0.38,0.631l0.352,1.244
		c0.186,0.418,0.497,0.329,0.711,0.135l0.961-0.878c0.223-0.4,0.641-0.585,0.846-0.576l0.487,0.534l0.877,0.961
		c0.292,0.319,0.603,0.232,0.718-0.069l0.476-1.412c0.115-0.302,0.436-0.594,0.543-0.691c0,0,0.302,0.115,0.701,0.339l1.206,0.464
		c0.4,0.222,0.613,0.028,0.631-0.38l-0.147-1.235c0.018-0.409,0.144-0.914,0.251-1.012c0,0,0.409,0.017,0.817,0.036l1.226,0.055
		c0.408,0.019,0.525-0.283,0.437-0.594l-0.556-1.253c-0.089-0.312-0.166-0.827-0.166-0.827c0.107-0.098,0.32-0.293,0.631-0.38
		l1.353-0.451c0.31-0.089,0.426-0.39,0.134-0.711l-0.983-0.864c-0.293-0.32-0.478-0.738-0.478-0.738
		c-0.098-0.107,0.223-0.4,0.437-0.595l1.068-0.975c0.214-0.195,0.126-0.506-0.176-0.622l-1.207-0.463
		c-0.302-0.117-0.798-0.446-0.691-0.544c-0.098-0.107,0.018-0.408,0.135-0.71l0.67-1.198c0.115-0.302-0.079-0.516-0.487-0.534
		l-1.226-0.055c-0.409-0.018-0.915-0.144-0.915-0.144c-0.097-0.106-0.185-0.417-0.166-0.826l0.163-1.323
		c0.019-0.408-0.283-0.524-0.594-0.436L394.13,47.967z M391.563,54.811c0.575,0.845,0.324,1.858-0.522,2.433
		c-0.846,0.576-1.858,0.326-2.433-0.52c-0.477-0.738-0.324-1.857,0.618-2.325C389.965,53.92,391.085,54.073,391.563,54.811"/>
	<path class="st0" d="M365.405,46.599c0.716-0.653,0.539-1.8,0.104-2.277l-3.043-3.335c-0.435-0.477-1.344-0.519-2.277-0.104
		l-5.183,3.419c-1.106-0.737-2.432-1.709-3.541-2.445l1.665-6.319c0.256-0.673-0.157-1.605-0.83-1.864l-3.799-1.769
		c-0.892-0.498-1.823-0.083-2.083,0.589l-3.68,5.541c-1.347-0.518-2.693-1.034-4.061-1.095l-0.618-6.422
		c0.043-0.911-0.61-1.626-1.522-1.668l-4.34,0.032c-0.672-0.257-1.388,0.395-1.647,1.068l-1.444,6.555
		c-1.367-0.061-2.756,0.334-4.143,0.726l-3.157-5.85c-0.436-0.477-1.325-0.973-2.02-0.776l-4.187,1.637
		c-0.692,0.195-1.19,1.087-0.994,1.782l1.312,6.223c-1.172,0.632-2.363,1.719-3.533,2.353l-5.063-4.11
		c-0.436-0.477-1.347-0.518-2.062,0.135l-3.099,2.828c-0.715,0.652-0.757,1.563-0.322,2.041l3.632,5.416
		c-0.975,1.325-2.166,2.413-2.686,3.76l-6.295-2.111c-0.912-0.042-1.606,0.155-2.103,1.045l-1.775,3.805
		c-0.257,0.672-0.083,1.821,0.807,2.318l5.323,3.437c-0.517,1.347-0.582,2.714-1.101,4.061l-6.422,0.623
		c-0.693,0.196-1.409,0.849-1.452,1.761l-0.188,4.101c-0.042,0.912,0.61,1.627,1.283,1.885l6.577,0.982
		c0.155,1.606,0.308,3.211,0.701,4.6l-5.854,3.159c-0.694,0.198-1.193,1.089-0.778,2.022l1.419,3.945
		c0.196,0.694,1.088,1.191,1.997,1.232l6.466-1.535c0.631,1.17,1.261,2.342,1.894,3.51l-4.116,5.068
		c-0.26,0.673-0.302,1.583,0.134,2.06l3.043,3.335c0.436,0.477,1.563,0.756,2.04,0.32l5.422-3.638
		c1.106,0.737,2.432,1.709,3.541,2.445l-1.66,6.319c-0.259,0.674,0.153,1.605,0.828,1.864l4.016,2.01
		c0.673,0.258,1.367,0.06,2.083-0.593l3.441-5.323c1.367,0.06,2.715,0.579,4.082,0.64l0.379,6.638
		c0.197,0.695,0.849,1.41,1.761,1.45l4.318,0.423c0.695-0.197,1.41-0.85,1.669-1.523l1.206-6.337
		c1.605-0.158,2.995-0.552,4.599-0.706l2.94,5.612c0.412,0.933,1.325,0.972,2.019,0.777l3.946-1.419
		c0.933-0.415,1.431-1.307,1.235-2.001l-1.312-6.223c1.171-0.633,2.341-1.266,3.532-2.353l5.065,4.112
		c0.651,0.713,1.563,0.755,2.278,0.103l3.099-2.828c0.715-0.652,0.756-1.565,0.105-2.278l-3.633-5.418
		c1.191-1.088,1.929-2.195,2.685-3.758l6.297,2.111c0.674,0.259,1.604-0.155,1.864-0.828l2.012-4.02
		c0.259-0.674-0.154-1.606-0.589-2.083l-5.54-3.675c0.519-1.348,0.799-2.478,0.864-3.844l6.659-0.842
		c0.694-0.196,1.41-0.849,1.43-1.305l0.21-4.556c0.043-0.911-0.609-1.626-1.522-1.667l-6.338-1.199
		c-0.154-1.606-0.093-2.974-0.483-4.362l5.396-3.181c0.935-0.414,1.43-1.305,1.017-2.236l-1.416-3.947
		c-0.196-0.694-1.087-1.191-2.017-0.778l-6.445,1.081c-0.631-1.171-1.261-2.342-1.894-3.51L365.405,46.599 M337.29,67.022
		c2.608,2.857,2.42,6.959-0.44,9.569c-2.622,2.393-6.725,2.207-9.333-0.65c-2.392-2.621-2.42-6.962,0.201-9.354
		C330.58,63.978,334.898,64.402,337.29,67.022"/>
</g>
<path class="st1" d="M338.248,39.541C336.911,23.551,323.916,11,308.072,11c-11.742,0-21.916,6.896-26.945,16.973
	c-4.693-2.937-10.199-4.628-16.089-4.628c-14.291,0-26.32,9.959-29.944,23.515c-2.743-0.88-5.665-1.36-8.7-1.36
	c-15.718,0-28.46,12.742-28.46,28.46c0,11.414,6.723,21.254,16.422,25.789c2.708,1.128,4.846,2.082,8.857,2.489
	c0.238,0.026,0.476,0.048,0.715,0.068c4.099,0.361,9.73,0.418,18.209,0.418h92.062c2.043,0,4.039-0.252,5.963-0.715
	C354.31,99.194,365,86.354,365,70.932C365,54.823,353.336,41.534,338.248,39.541z"/>
<g>
	<g>
		<path class="st30" d="M42.472,80.703v-5.858c0-0.606,0.493-1.098,1.098-1.098h11.442c0.606,0,1.098,0.493,1.098,1.098v5.858h2.746
			v-5.858c0-2.12-1.725-3.844-3.844-3.844H43.57c-2.12,0-3.844,1.725-3.844,3.844v5.858H42.472z"/>
		<path class="st30" d="M60.892,78.792h-6.268c-0.544,0-0.985,0.441-0.985,0.985v2.411c0,0.544,0.441,0.985,0.985,0.985h6.268
			c0.544,0,0.985-0.441,0.985-0.985v-2.411C61.877,79.233,61.436,78.792,60.892,78.792z"/>
		<path class="st30" d="M44.415,78.792h-6.268c-0.544,0-0.985,0.441-0.985,0.985v2.411c0,0.544,0.441,0.985,0.985,0.985h6.268
			c0.544,0,0.985-0.441,0.985-0.985v-2.411C45.401,79.233,44.96,78.792,44.415,78.792z"/>
	</g>
	<g>
		<path class="st3" d="M70.918,120.543H26.611c-3.651,0-6.611-2.96-6.611-6.611V87.077c0-3.651,2.96-6.611,6.611-6.611h44.306
			c3.651,0,6.611,2.96,6.611,6.611v26.855C77.529,117.583,74.569,120.543,70.918,120.543z"/>
		<path class="st30" d="M77.529,87.155v-1.816c0-2.692-2.182-4.874-4.874-4.874H24.874c-2.692,0-4.874,2.182-4.874,4.874v1.816
			H77.529z"/>
		<g>
			<path class="st18" d="M35.323,97.628h-4.144c-0.584,0-1.078-0.431-1.156-1.009l-0.675-4.953
				c-0.007-0.052-0.011-0.105-0.011-0.158v-5.07c0-0.645,0.523-1.167,1.167-1.167h5.492c0.645,0,1.167,0.523,1.167,1.167v5.205
				c0,0.054-0.004,0.108-0.011,0.161l-0.672,4.818C36.399,97.199,35.905,97.628,35.323,97.628z"/>
		</g>
		<g>
			<path class="st18" d="M67.726,97.628h-4.144c-0.584,0-1.077-0.431-1.156-1.009l-0.675-4.953
				c-0.007-0.052-0.011-0.105-0.011-0.158v-5.07c0-0.645,0.523-1.167,1.167-1.167h5.492c0.645,0,1.167,0.523,1.167,1.167v5.205
				c0,0.054-0.004,0.108-0.011,0.161l-0.672,4.818C68.802,97.199,68.308,97.628,67.726,97.628z"/>
		</g>
		<path class="st30" d="M20,113.929v1.74c0,2.692,2.182,4.874,4.874,4.874h47.781c2.692,0,4.874-2.182,4.874-4.874v-1.74H20z"/>
	</g>
</g>
<g>
	<path class="st11" d="M296.795,40.164l-40.467-0.162c-2.332-0.009-4.229,1.873-4.239,4.205L251.936,82.6
		c-0.009,2.332,1.873,4.229,4.205,4.239L296.608,87c2.332,0.009,4.229-1.873,4.239-4.205L301,44.403
		C301.009,42.072,299.127,40.174,296.795,40.164z"/>
	<path class="st30" d="M266.562,73.181l9.57,0.038l-0.029,7.178l-16.748-0.067l0.134-33.496l14.356,0.057l-0.029,7.178l-7.178-0.029
		L266.562,73.181z M268.965,70.798l14.356,0.057l0.057-14.356l-14.356-0.057L268.965,70.798z M276.238,46.9l-0.029,7.178
		l4.785,0.019l0.01-2.393l7.178,0.029l-0.029,7.178l-2.393-0.01l-0.019,4.785l7.178,0.029l0.067-16.748L276.238,46.9z
		 M285.703,73.257l-7.178-0.029l-0.029,7.178l14.356,0.057l0.057-14.356l-7.178-0.029L285.703,73.257z"/>
</g>
<g>
	<g>
		<circle class="st147" cx="332.92" cy="71.08" r="24.08"/>
		<path class="st148" d="M315.891,54.055c-9.401,9.404-9.4,24.648,0.003,34.051c9.403,9.403,24.647,9.404,34.051,0.002
			L315.891,54.055z"/>
	</g>
	<path class="st0" d="M345.04,62.604c0-2.44-1.984-4.425-4.425-4.425s-4.425,1.985-4.425,4.425c0,2.137,1.522,3.924,3.54,4.335
		v4.515c0,1.464-1.191,2.655-2.655,2.655h-7.965v-7.17c2.017-0.411,3.54-2.199,3.54-4.335c0-2.44-1.985-4.425-4.425-4.425
		c-2.44,0-4.425,1.985-4.425,4.425c0,2.137,1.523,3.924,3.54,4.335v7.17v3.629c-2.017,0.411-3.54,2.198-3.54,4.336
		c0,2.441,1.985,4.425,4.425,4.425c2.44,0,4.425-1.984,4.425-4.425c0-2.137-1.523-3.924-3.54-4.336v-1.859h7.965
		c2.441,0,4.425-1.985,4.425-4.425v-4.515C343.518,66.528,345.04,64.741,345.04,62.604z M325.57,62.604
		c0-1.464,1.191-2.655,2.655-2.655s2.655,1.191,2.655,2.655c0,1.464-1.191,2.655-2.655,2.655S325.57,64.068,325.57,62.604z
		 M330.88,82.074c0,1.464-1.191,2.655-2.655,2.655s-2.655-1.191-2.655-2.655c0-1.464,1.191-2.655,2.655-2.655
		S330.88,80.61,330.88,82.074z M340.615,65.259c-1.464,0-2.655-1.191-2.655-2.655c0-1.464,1.191-2.655,2.655-2.655
		s2.655,1.191,2.655,2.655C343.27,64.068,342.079,65.259,340.615,65.259z"/>
</g>
<g>
	<polygon class="st116" points="89.598,123.103 148,123.103 148,77.875 147.01,77.875 147.01,74.656 148,74.656 148,69.705 
		147.01,69.705 147.01,66.486 148,66.486 148,61.535 147.01,61.535 147.01,58.317 148,58.317 148,53.118 147.01,53.118 
		147.01,49.899 148,49.899 148,45.196 147.01,45.196 147.01,41.977 148,41.977 148,31.332 89.598,31.332 89.598,123.103 	"/>
	<polygon class="st90" points="89.598,122.771 148,122.771 148,77.543 147.01,77.543 147.01,74.324 148,74.324 148,69.373 
		147.01,69.373 147.01,66.154 148,66.154 148,61.203 147.01,61.203 147.01,57.985 148,57.985 148,52.786 147.01,52.786 
		147.01,49.567 148,49.567 148,44.864 147.01,44.864 147.01,41.645 148,41.645 148,31 89.598,31 89.598,122.771 	"/>
	<polyline class="st90" points="89.598,122.771 148,122.771 148,77.543 147.01,77.543 147.01,74.324 148,74.324 148,69.373 
		147.01,69.373 147.01,66.154 148,66.154 148,61.203 147.01,61.203 147.01,57.985 148,57.985 148,52.786 147.01,52.786 
		147.01,49.567 148,49.567 148,44.864 147.01,44.864 147.01,41.645 148,41.645 148,31 89.598,31 89.598,122.771 	"/>
	<polygon class="st10" points="89.598,31.249 107.416,31.249 107.416,41.645 90.836,41.645 90.836,44.864 107.416,44.864 
		107.416,49.567 90.836,49.567 90.836,52.786 107.416,52.786 107.416,57.985 90.836,57.985 90.836,61.203 107.416,61.203 
		107.416,122.771 89.598,122.771 89.598,31 	"/>
	<polygon class="st90" points="89.598,31 107.416,31 107.416,41.645 90.836,41.645 90.836,44.864 107.416,44.864 107.416,49.567 
		90.836,49.567 90.836,52.786 107.416,52.786 107.416,57.985 90.836,57.985 90.836,61.203 107.416,61.203 107.416,122.771 
		89.598,122.771 89.598,31 	"/>
	<polyline class="st90" points="89.598,31 107.416,31 107.416,41.645 90.836,41.645 90.836,44.864 107.416,44.864 107.416,49.567 
		90.836,49.567 90.836,52.786 107.416,52.786 107.416,57.985 90.836,57.985 90.836,61.203 107.416,61.203 107.416,122.771 
		89.598,122.771 89.598,31 	"/>
	<polygon class="st10" points="107.416,41.645 147.01,41.645 147.01,44.864 107.416,44.864 107.416,41.645 	"/>
	<polygon class="st90" points="107.416,41.645 147.01,41.645 147.01,44.864 107.416,44.864 107.416,41.645 	"/>
	<polyline class="st90" points="107.416,41.645 147.01,41.645 147.01,44.864 107.416,44.864 107.416,41.645 	"/>
	<polygon class="st117" points="90.836,41.645 107.416,41.645 107.416,44.864 90.836,44.864 90.836,41.645 	"/>
	<polygon class="st90" points="90.836,41.645 107.416,41.645 107.416,44.864 90.836,44.864 90.836,41.645 	"/>
	<polyline class="st90" points="90.836,41.645 107.416,41.645 107.416,44.864 90.836,44.864 90.836,41.645 	"/>
	<polygon class="st10" points="107.416,49.567 147.01,49.567 147.01,52.786 107.416,52.786 107.416,49.567 	"/>
	<polygon class="st90" points="107.416,49.567 147.01,49.567 147.01,52.786 107.416,52.786 107.416,49.567 	"/>
	<polyline class="st90" points="107.416,49.567 147.01,49.567 147.01,52.786 107.416,52.786 107.416,49.567 	"/>
	<polygon class="st117" points="90.836,49.567 107.416,49.567 107.416,52.786 90.836,52.786 90.836,49.567 	"/>
	<polygon class="st90" points="90.836,49.567 107.416,49.567 107.416,52.786 90.836,52.786 90.836,49.567 	"/>
	<polyline class="st90" points="90.836,49.567 107.416,49.567 107.416,52.786 90.836,52.786 90.836,49.567 	"/>
	<polygon class="st10" points="107.416,57.985 147.01,57.985 147.01,61.203 107.416,61.203 107.416,57.985 	"/>
	<polygon class="st90" points="107.416,57.985 147.01,57.985 147.01,61.203 107.416,61.203 107.416,57.985 	"/>
	<polyline class="st90" points="107.416,57.985 147.01,57.985 147.01,61.203 107.416,61.203 107.416,57.985 	"/>
	<polygon class="st117" points="90.836,57.985 107.416,57.985 107.416,61.203 90.836,61.203 90.836,57.985 	"/>
	<polygon class="st90" points="90.836,57.985 107.416,57.985 107.416,61.203 90.836,61.203 90.836,57.985 	"/>
	<polyline class="st90" points="90.836,57.985 107.416,57.985 107.416,61.203 90.836,61.203 90.836,57.985 	"/>
	<polygon class="st118" points="108.405,44.864 119.541,44.864 119.541,41.645 108.405,41.645 108.405,44.864 	"/>
	<polygon class="st90" points="108.405,44.864 119.541,44.864 119.541,41.645 108.405,41.645 108.405,44.864 	"/>
	<polygon class="st118" points="108.405,52.786 119.541,52.786 119.541,49.567 108.405,49.567 108.405,52.786 	"/>
	<polygon class="st90" points="108.405,52.786 119.541,52.786 119.541,49.567 108.405,49.567 108.405,52.786 	"/>
	<polygon class="st118" points="108.405,61.203 119.541,61.203 119.541,57.985 108.405,57.985 108.405,61.203 	"/>
	<polygon class="st90" points="108.405,61.203 119.541,61.203 119.541,57.985 108.405,57.985 108.405,61.203 	"/>
</g>
<g>
	<g>
		<rect x="131.027" y="57.028" class="st11" width="103.953" height="55.189"/>
		<polygon class="st12" points="234.98,103.166 234.98,57.028 184.105,57.028 		"/>
		<g>
			<polygon class="st9" points="204.883,124.718 160.947,124.718 163.521,121.8 202.309,121.8 			"/>
			<path class="st10" d="M203.145,126.348c-1.963,0-38.519,0-40.386,0c-1.866,0-1.899-1.641-1.899-1.641h44.022
				C204.883,124.707,205.108,126.348,203.145,126.348z"/>
			<polygon class="st10" points="192.44,122.83 173.39,122.83 174.934,114.077 190.896,114.077 			"/>
			<path class="st10" d="M234.049,55.381H131.438c-1.311,0-2.374,1.063-2.374,2.374v54.806c0,1.311,1.063,2.374,2.374,2.374h102.611
				c1.311,0,2.374-1.063,2.374-2.374V57.755C236.423,56.444,235.36,55.381,234.049,55.381z M232.827,110.789H132.57V58.474h100.257
				V110.789z"/>
			<polygon class="st9" points="224.956,132.975 141.973,132.975 146.835,127.464 220.094,127.464 			"/>
			<polygon class="st10" points="217.339,131.301 149.59,131.301 151.969,128.108 214.96,128.108 			"/>
			<path class="st10" d="M221.674,135.024c-3.708,0-72.752,0-76.278,0c-3.525,0-3.586-2.07-3.586-2.07h83.146
				C224.956,132.954,225.382,135.024,221.674,135.024z"/>
		</g>
	</g>
	<g>
		<rect x="142.649" y="62.61" class="st123" width="5.268" height="41.374"/>
		<rect x="152.296" y="81.273" class="st26" width="5.268" height="22.711"/>
		<rect x="161.944" y="77.645" class="st6" width="5.268" height="26.339"/>
		<rect x="171.592" y="65.972" class="st123" width="5.268" height="38.012"/>
		<rect x="181.24" y="90.605" class="st26" width="5.268" height="13.379"/>
		<rect x="190.888" y="75.881" class="st6" width="5.268" height="28.103"/>
		<rect x="200.536" y="62.61" class="st123" width="5.268" height="41.374"/>
		<rect x="210.184" y="65.445" class="st26" width="5.268" height="38.539"/>
		<rect x="219.832" y="90.431" class="st6" width="5.268" height="13.553"/>
	</g>
</g>
</svg>
