<?xml version="1.0" encoding="utf-8"?>
<!-- Generator: Adobe Illustrator 20.1.0, SVG Export Plug-In . SVG Version: 6.00 Build 0)  -->
<svg version="1.1" id="Layer_1" xmlns="http://www.w3.org/2000/svg" xmlns:xlink="http://www.w3.org/1999/xlink" x="0px" y="0px"
	 viewBox="0 0 415 140" style="enable-background:new 0 0 415 140;" xml:space="preserve">
<style type="text/css">
	.st0{fill:#C7C7C7;}
	.st1{fill:#B2D7F0;}
	.st2{fill:#919191;}
	.st3{fill:#447995;}
	.st4{fill:none;stroke:#447995;stroke-width:2;stroke-miterlimit:10;}
	.st5{fill:none;stroke:#447995;stroke-width:2;stroke-miterlimit:10;stroke-dasharray:4.2976,4.2976;}
	.st6{fill:#FFFFFF;}
	.st7{fill:#E4EDF1;}
	.st8{fill:#E3E3E3;}
	.st9{fill:#5E5E5E;}
	.st10{fill:#2E2E2E;}
	.st11{fill:#7CABC2;}
	.st12{fill:#96BCCE;}
	.st13{fill:#2C3E50;}
	.st14{clip-path:url(#SVGID_2_);fill:#447995;}
	
		.st15{fill-rule:evenodd;clip-rule:evenodd;fill:none;stroke:#E3E3E3;stroke-width:1.3089;stroke-linecap:round;stroke-linejoin:round;stroke-miterlimit:10;stroke-dasharray:1.3089,2.6179;}
	.st16{fill:#5D5D5D;}
	.st17{fill:none;stroke:#909090;stroke-width:1.1744;stroke-miterlimit:10;stroke-dasharray:2.3488,3.5233;}
	.st18{fill:#395B71;}
	.st19{fill-rule:evenodd;clip-rule:evenodd;fill:#395B71;}
	.st20{fill-rule:evenodd;clip-rule:evenodd;fill:#2E2E2E;}
	.st21{fill:#2C3E58;}
	.st22{fill:#4889A8;}
	.st23{fill:#929090;}
	.st24{fill:#96BBCD;}
	.st25{fill:#3A5C71;}
	.st26{fill:#757575;}
	.st27{fill:#682A7A;}
	.st28{fill:#478AA9;}
	.st29{fill:#672A79;}
	.st30{fill:#334D63;}
	.st31{fill:#5D5F5E;}
	.st32{fill:#FAB516;}
	.st33{fill:#F5891F;}
	.st34{fill:#CB6D29;}
	.st35{opacity:0.41;fill:#929090;}
	.st36{clip-path:url(#SVGID_4_);}
	.st37{clip-path:url(#SVGID_6_);}
	.st38{fill:#FE8B0C;}
	.st39{fill:#231F20;}
	.st40{fill:#909090;}
	.st41{fill:none;stroke:#909090;stroke-miterlimit:10;stroke-dasharray:2,2;}
	.st42{fill-rule:evenodd;clip-rule:evenodd;fill:#478AA9;}
	.st43{clip-path:url(#SVGID_8_);}
	.st44{clip-path:url(#SVGID_10_);}
	.st45{fill:#7DB912;}
	.st46{fill:#3B77AD;}
	.st47{fill:#F7CD13;}
	.st48{fill:#464646;}
	.st49{fill:#929497;}
	.st50{fill:#A6A8AB;}
	.st51{fill:#2F75BB;}
	.st52{fill:none;stroke:#757575;stroke-width:0.5023;stroke-miterlimit:10;}
	.st53{fill:#ACACAC;}
	.st54{fill:#3C88C6;}
	.st55{fill:#E4CB58;}
	.st56{fill:#58595B;}
	.st57{fill:#007ACC;}
	.st58{fill:#DB58DB;}
	.st59{fill:#B4079C;}
	.st60{fill:#9A37AF;}
	.st61{fill:#721481;}
	.st62{fill:#73AA24;}
	.st63{fill:#05930C;}
	.st64{fill:#2581BF;}
	.st65{fill:#004E8C;}
	.st66{fill:#D9DCE1;}
	.st67{fill:none;stroke:#909090;stroke-width:0.9199;stroke-miterlimit:10;}
	.st68{fill:none;stroke:#909090;stroke-width:0.9494;stroke-miterlimit:10;}
	.st69{fill:none;stroke:#909090;stroke-width:0.8988;stroke-miterlimit:10;}
	.st70{fill:none;stroke:#909090;stroke-width:0.8481;stroke-miterlimit:10;}
	.st71{fill:none;stroke:#909090;stroke-width:0.7975;stroke-miterlimit:10;}
	.st72{fill:none;stroke:#909090;stroke-width:0.7469;stroke-miterlimit:10;}
	.st73{fill:none;stroke:#909090;stroke-width:0.6963;stroke-miterlimit:10;}
	.st74{fill:#CADEE6;}
	.st75{fill:none;stroke:#447995;stroke-miterlimit:10;}
	.st76{fill:#FFFFFF;stroke:#96BCCE;stroke-width:0.75;stroke-miterlimit:10;}
	.st77{clip-path:url(#SVGID_12_);}
	.st78{fill:#08BBF1;}
	.st79{fill:#0AA5E2;}
	.st80{fill:#181717;}
	.st81{fill:#F3AF21;}
	.st82{fill:none;stroke:#5D5D5D;stroke-width:0.8345;stroke-miterlimit:10;}
	.st83{fill:none;stroke:#5D5D5D;stroke-width:1.3526;stroke-miterlimit:10;}
	.st84{fill-rule:evenodd;clip-rule:evenodd;fill:#7DB912;}
	.st85{fill:#333333;}
	.st86{fill:none;stroke:#FFFFFF;stroke-width:0.2247;stroke-linecap:round;stroke-linejoin:round;stroke-miterlimit:10;}
	.st87{fill:#737374;}
	.st88{fill:#515050;}
	.st89{fill:none;stroke:#000000;stroke-width:0.4495;stroke-miterlimit:1;}
	.st90{fill:none;}
	.st91{fill:#619BB5;}
	.st92{fill:none;stroke:#395B71;stroke-width:0.234;stroke-miterlimit:10;}
	.st93{fill:#32383D;}
	.st94{fill:#00BCF2;}
	.st95{fill:#2C2737;}
	.st96{fill:#201D29;}
	.st97{fill:#22BAED;}
	.st98{fill:#221F1F;}
	.st99{clip-path:url(#SVGID_14_);}
	.st100{clip-path:url(#SVGID_16_);}
	.st101{fill:#5E615F;}
	.st102{fill:none;stroke:#767676;stroke-width:0.199;stroke-miterlimit:10;}
	.st103{fill:#699F63;}
	.st104{fill-rule:evenodd;clip-rule:evenodd;fill:#333333;}
	.st105{fill-rule:evenodd;clip-rule:evenodd;fill:#699F63;}
	.st106{clip-path:url(#XMLID_3_);}
	.st107{fill:url(#SVGID_17_);}
	.st108{fill:url(#SVGID_18_);}
	.st109{fill:url(#SVGID_19_);}
	.st110{fill:url(#SVGID_20_);}
	.st111{fill:url(#SVGID_21_);}
	.st112{fill:url(#SVGID_22_);}
	.st113{fill:#00890B;}
	.st114{fill:#B0CDDA;}
	.st115{clip-path:url(#SVGID_24_);}
	.st116{fill:#515150;}
	.st117{fill:#171717;}
	.st118{fill:#457994;}
	.st119{fill:#F16424;}
	.st120{fill:#8B6AB1;}
	.st121{fill:#5C2D91;}
	.st122{clip-path:url(#SVGID_26_);fill:#447995;}
	.st123{fill:#B8D71C;}
	.st124{fill:#2B2B2B;}
	.st125{clip-path:url(#SVGID_28_);}
	.st126{fill:#BAD80A;}
	.st127{fill:#F58B20;}
	.st128{clip-path:url(#SVGID_30_);}
	.st129{clip-path:url(#SVGID_32_);}
	.st130{fill:none;stroke:#BAD80A;stroke-width:3.0831;stroke-miterlimit:10;}
	.st131{clip-path:url(#SVGID_34_);}
	.st132{fill:#FF8C00;}
	.st133{fill:#E73F24;}
	.st134{fill:#F58B23;}
	.st135{fill:#ADADAD;}
	.st136{fill:#959595;}
	.st137{fill:#474748;}
	.st138{fill:#6D6E70;}
	.st139{fill:#1772B8;}
	.st140{fill:#767778;}
	.st141{fill:#A86527;}
	.st142{fill:#048273;}
	.st143{fill:none;stroke:#6D6E70;stroke-miterlimit:10;}
	.st144{opacity:0.3;fill:#929090;}
	.st145{fill:#8FD4EF;}
	.st146{fill:#FFFFFF;stroke:#B0CDDA;stroke-miterlimit:10;}
	.st147{fill-rule:evenodd;clip-rule:evenodd;fill:#909090;}
	.st148{fill-rule:evenodd;clip-rule:evenodd;fill:#757575;}
	.st149{fill:#FFCD49;}
	.st150{fill:#CF5BC0;}
	.st151{fill:#7953A5;}
	.st152{fill:#A3D4EF;}
	.st153{fill:#539B00;}
</style>
<g>
	<g>
		<g>
			<rect x="269.302" y="35.938" class="st23" width="3.967" height="19.867"/>
		</g>
		<g>
			<rect x="336.745" y="35.938" class="st23" width="3.967" height="19.867"/>
		</g>
	</g>
	<g>
		<g>
			<rect x="261.646" y="29.144" class="st24" width="24.188" height="24.188"/>
		</g>
		<g>
			<rect x="285.45" y="29.144" class="st22" width="63.22" height="24.188"/>
		</g>
		<rect x="263.002" y="40.653" class="st22" width="20.828" height="1.431"/>
		<rect x="263.002" y="45.24" class="st22" width="20.828" height="1.431"/>
		<rect x="263.033" y="36.066" class="st22" width="20.828" height="1.431"/>
		<g>
			<polygon class="st25" points="288.686,30.769 287.425,30.769 287.425,31.355 288.686,32.844 288.686,51.597 290.173,51.597 
				290.173,30.769 			"/>
			<polygon class="st25" points="302.571,51.597 304.059,51.597 304.059,30.769 302.571,30.769 301.311,30.769 301.311,31.355 
				302.571,32.844 			"/>
			<polygon class="st25" points="316.456,51.597 317.944,51.597 317.944,30.769 316.456,30.769 315.196,30.769 315.196,31.355 
				316.456,32.844 			"/>
			<polygon class="st25" points="330.342,51.597 331.83,51.597 331.83,30.769 330.342,30.769 329.081,30.769 329.081,31.355 
				330.342,32.844 			"/>
			<polygon class="st25" points="344.227,30.769 342.967,30.769 342.967,31.355 344.227,32.844 344.227,51.597 345.715,51.597 
				345.715,30.769 			"/>
		</g>
	</g>
</g>
<g>
	<g>
		<rect x="169.816" y="114.615" class="st23" width="3.967" height="19.867"/>
	</g>
	<g>
		<rect x="237.259" y="114.615" class="st23" width="3.967" height="19.867"/>
	</g>
</g>
<polygon class="st26" points="73.808,19.362 73.026,18.581 94.726,1.581 95.312,2.363 "/>
<rect x="91.012" y="33.821" class="st26" width="1.955" height="89.492"/>
<rect x="104.499" y="33.234" class="st26" width="1.955" height="90.078"/>
<rect x="92.967" y="83.843" class="st26" width="13.097" height="1.759"/>
<rect x="92.967" y="96.348" class="st26" width="11.924" height="1.954"/>
<polygon class="st26" points="91.206,98.107 93.162,98.107 98.831,92.441 104.499,98.107 106.063,98.107 106.063,96.739 
	100.199,90.877 106.063,85.211 106.063,83.844 104.499,83.844 98.831,89.51 92.966,83.844 91.206,83.844 91.206,84.82 
	97.462,90.877 91.206,97.13 "/>
<rect x="92.967" y="71.142" class="st26" width="11.924" height="1.759"/>
<polygon class="st26" points="91.206,85.406 93.162,85.406 98.831,79.74 104.499,85.406 106.063,85.406 106.063,84.233 
	100.199,78.371 106.063,72.51 106.063,71.142 104.499,71.142 98.831,76.809 92.966,71.142 91.206,71.142 91.206,72.119 
	97.462,78.371 91.206,84.429 "/>
<polygon class="st26" points="91.206,72.901 93.162,72.901 98.831,67.235 104.499,72.901 106.063,72.901 106.063,71.728 
	100.199,65.866 106.063,60.005 106.063,58.636 104.499,58.636 98.831,64.303 92.966,58.636 91.206,58.636 91.206,59.613 
	97.462,65.866 91.206,71.923 "/>
<rect x="92.967" y="58.441" class="st26" width="11.924" height="1.759"/>
<polygon class="st26" points="91.206,60.199 93.162,60.199 98.831,54.533 104.499,60.199 106.063,60.199 106.063,58.832 
	100.199,53.165 106.063,47.304 106.063,45.936 104.499,45.936 98.831,51.603 92.966,45.936 91.206,45.936 91.206,46.913 
	97.462,53.165 91.206,59.223 "/>
<rect x="92.967" y="45.74" class="st26" width="11.924" height="1.759"/>
<rect x="91.011" y="31.867" class="st26" width="15.443" height="1.954"/>
<polygon class="st26" points="91.206,47.499 93.162,47.499 98.831,41.833 104.499,47.499 106.063,47.499 106.063,46.326 
	100.199,40.464 106.063,34.603 106.063,33.234 104.499,33.234 98.831,38.902 92.966,33.234 91.206,33.234 91.206,34.212 
	97.462,40.464 91.206,46.522 "/>
<rect x="92.967" y="109.049" class="st26" width="11.924" height="1.759"/>
<polygon class="st26" points="91.206,110.808 93.162,110.808 98.831,104.946 104.499,110.808 106.063,110.808 106.063,109.44 
	100.199,103.578 106.063,97.716 106.063,96.348 104.499,96.348 98.831,102.21 92.966,96.348 91.206,96.348 91.206,97.325 
	97.462,103.578 91.206,109.83 "/>
<rect x="92.967" y="121.359" class="st27" width="11.924" height="1.954"/>
<rect x="92.967" y="121.359" class="st26" width="11.924" height="1.954"/>
<polygon class="st26" points="91.206,123.118 93.162,123.118 98.831,117.452 104.499,123.118 106.063,123.118 106.063,121.945 
	100.199,116.083 106.063,110.222 106.063,108.853 104.499,108.853 98.831,114.52 92.966,108.853 91.206,108.853 91.206,109.831 
	97.462,116.083 91.206,122.14 "/>
<rect x="65.012" y="16.235" class="st10" width="8.406" height="14.459"/>
<polygon class="st26" points="153.175,11.937 94.92,2.362 95.117,1.386 153.175,10.959 "/>
<rect x="93.944" y="1.972" class="st26" width="1.564" height="17.39"/>
<polygon class="st26" points="94.53,1.971 95.898,1.581 101.957,18.971 100.199,18.971 "/>
<rect x="95.116" y="14.086" class="st26" width="3.91" height="1.367"/>
<rect x="95.117" y="9.788" class="st26" width="2.54" height="1.173"/>
<rect x="95.117" y="9.788" class="st26" width="2.54" height="1.173"/>
<path class="st26" d="M100.199,19.361h-0.196l-4.887-3.517c-0.196-0.195-0.196-0.391,0-0.586c0.196-0.195,0.391-0.391,0.586-0.195
	l4.691,3.517c0.197,0.196,0.391,0.391,0.197,0.586C100.59,19.361,100.393,19.361,100.199,19.361"/>
<path class="st26" d="M95.508,14.672c-0.197,0-0.197,0-0.392-0.195c-0.196,0-0.196-0.391,0-0.586l2.151-3.127
	c0.195-0.195,0.39-0.195,0.586-0.195c0.195,0.195,0.195,0.391,0.195,0.586l-2.15,3.322C95.702,14.477,95.508,14.672,95.508,14.672"
	/>
<path class="st26" d="M95.508,19.361c-0.197,0-0.392,0-0.392-0.195c-0.196,0-0.196-0.391,0-0.586l3.714-3.517
	c0.196-0.197,0.39-0.197,0.586,0c0.196,0.195,0.196,0.586,0,0.781l-3.714,3.322C95.702,19.361,95.508,19.361,95.508,19.361"/>
<polygon class="st28" points="107.627,19.753 89.056,19.753 89.056,30.694 107.627,30.694 109.777,23.661 "/>
<rect x="99.417" y="21.901" class="st29" width="2.15" height="6.448"/>
<rect x="99.417" y="21.901" class="st30" width="2.15" height="6.448"/>
<polygon class="st29" points="106.846,21.902 103.326,21.902 103.326,28.35 106.649,28.35 107.822,23.856 "/>
<polygon class="st30" points="106.846,21.902 103.326,21.902 103.326,28.35 106.649,28.35 107.822,23.856 "/>
<polygon class="st26" points="117.4,10.959 171.551,10.959 172.724,11.937 117.4,11.937 "/>
<polygon class="st26" points="109.777,18.971 108.213,18.971 117.01,10.96 118.575,10.96 "/>
<polygon class="st26" points="109.777,18.971 108.213,18.971 117.01,10.96 118.575,10.96 "/>
<rect x="65.012" y="18.971" class="st28" width="115.53" height="2.736"/>
<polygon class="st26" points="178.979,18.971 180.542,18.971 171.551,10.96 170.182,10.96 "/>
<g>
	<polygon class="st26" points="127.371,18.971 125.807,18.971 134.799,10.96 136.168,10.96 	"/>
	<g>
		<polygon class="st26" points="126.003,18.971 127.371,18.971 118.575,10.96 117.01,10.96 		"/>
		<rect x="126.198" y="11.936" class="st26" width="0.978" height="7.035"/>
		<rect x="117.4" y="11.936" class="st26" width="0.783" height="7.035"/>
		<polygon class="st26" points="127.371,18.971 125.807,18.971 134.799,10.96 136.168,10.96 		"/>
		<polygon class="st26" points="143.597,18.971 145.161,18.971 136.168,10.96 134.799,10.96 		"/>
		<rect x="143.988" y="11.936" class="st26" width="0.781" height="7.035"/>
		<rect x="134.996" y="11.936" class="st26" width="0.978" height="7.035"/>
		<polygon class="st26" points="145.161,18.971 143.597,18.971 152.393,10.96 153.956,10.96 		"/>
		<polygon class="st26" points="162.754,18.971 161.385,18.971 170.182,10.96 171.551,10.96 		"/>
		<polygon class="st26" points="161.385,18.971 162.754,18.971 153.956,10.96 152.393,10.96 		"/>
		<rect x="161.581" y="11.936" class="st26" width="0.977" height="7.035"/>
		<rect x="152.784" y="11.936" class="st26" width="0.783" height="7.035"/>
		<rect x="170.379" y="11.936" class="st26" width="0.977" height="7.035"/>
	</g>
</g>
<rect x="170.379" y="11.936" class="st26" width="0.977" height="7.035"/>
<path class="st26" d="M96.094,1.971c0,0.586-0.585,0.977-1.173,0.977c-0.586,0-0.978-0.391-0.978-0.977
	c0-0.586,0.391-0.977,0.978-0.977C95.508,0.994,96.094,1.385,96.094,1.971"/>
<rect x="170.724" y="21.902" class="st26" width="0.977" height="28.326"/>
<path class="st31" d="M173.751,17.994c-0.391,0-0.783,0.391-0.783,0.781v0.196h-3.714v-0.196c0-0.39-0.391-0.781-0.978-0.781
	c-0.391,0-0.781,0.391-0.781,0.781v0.196v1.758v3.518h7.037v-3.518v-1.758v-0.196C174.532,18.384,174.141,17.994,173.751,17.994"/>
<polygon class="st10" points="71.769,138.921 125.32,138.921 122.037,122.745 75.052,122.745 "/>
<g>
	<g>
		<rect x="162.16" y="107.691" class="st32" width="24.188" height="24.188"/>
	</g>
	<g>
		<rect x="185.964" y="107.691" class="st33" width="63.22" height="24.188"/>
	</g>
	<rect x="163.516" y="119.2" class="st33" width="20.828" height="1.431"/>
	<rect x="163.516" y="123.787" class="st33" width="20.828" height="1.431"/>
	<rect x="163.547" y="114.613" class="st33" width="20.828" height="1.431"/>
	<g>
		<polygon class="st34" points="189.199,109.316 187.939,109.316 187.939,109.902 189.199,111.391 189.199,130.144 190.687,130.144 
			190.687,109.316 		"/>
		<polygon class="st34" points="203.085,130.144 204.573,130.144 204.573,109.316 203.085,109.316 201.824,109.316 201.824,109.902 
			203.085,111.391 		"/>
		<polygon class="st34" points="216.97,130.144 218.458,130.144 218.458,109.316 216.97,109.316 215.71,109.316 215.71,109.902 
			216.97,111.391 		"/>
		<polygon class="st34" points="230.856,130.144 232.343,130.144 232.343,109.316 230.856,109.316 229.595,109.316 229.595,109.902 
			230.856,111.391 		"/>
		<polygon class="st34" points="244.741,109.316 243.481,109.316 243.481,109.902 244.741,111.391 244.741,130.144 246.229,130.144 
			246.229,109.316 		"/>
	</g>
</g>
<g>
	<g>
		<rect x="122.977" y="48.864" class="st24" width="24.188" height="24.188"/>
	</g>
	<g>
		<rect x="146.781" y="48.864" class="st22" width="63.22" height="24.188"/>
	</g>
	<rect x="124.333" y="60.373" class="st22" width="20.828" height="1.431"/>
	<rect x="124.333" y="64.96" class="st22" width="20.828" height="1.431"/>
	<rect x="124.364" y="55.786" class="st22" width="20.828" height="1.431"/>
	<g>
		<polygon class="st25" points="150.017,50.489 148.756,50.489 148.756,51.075 150.017,52.564 150.017,71.317 151.504,71.317 
			151.504,50.489 		"/>
		<polygon class="st25" points="163.902,71.317 165.39,71.317 165.39,50.489 163.902,50.489 162.642,50.489 162.642,51.075 
			163.902,52.564 		"/>
		<polygon class="st25" points="177.787,71.317 179.275,71.317 179.275,50.489 177.787,50.489 176.527,50.489 176.527,51.075 
			177.787,52.564 		"/>
		<polygon class="st25" points="191.673,71.317 193.161,71.317 193.161,50.489 191.673,50.489 190.412,50.489 190.412,51.075 
			191.673,52.564 		"/>
		<polygon class="st25" points="205.558,50.489 204.298,50.489 204.298,51.075 205.558,52.564 205.558,71.317 207.046,71.317 
			207.046,50.489 		"/>
	</g>
</g>
<g>
	<g>
		<g>
			<rect x="269.302" y="88.252" class="st23" width="3.967" height="19.867"/>
		</g>
		<g>
			<rect x="336.745" y="88.252" class="st23" width="3.967" height="19.867"/>
		</g>
	</g>
	<g>
		<g>
			<rect x="261.646" y="81.459" class="st24" width="24.188" height="24.188"/>
		</g>
		<g>
			<rect x="285.45" y="81.459" class="st22" width="63.22" height="24.188"/>
		</g>
		<rect x="263.002" y="92.967" class="st22" width="20.828" height="1.431"/>
		<rect x="263.002" y="97.554" class="st22" width="20.828" height="1.431"/>
		<rect x="263.033" y="88.38" class="st22" width="20.828" height="1.431"/>
		<g>
			<polygon class="st25" points="288.686,83.083 287.425,83.083 287.425,83.669 288.686,85.159 288.686,103.911 290.173,103.911 
				290.173,83.083 			"/>
			<polygon class="st25" points="302.571,103.911 304.059,103.911 304.059,83.083 302.571,83.083 301.311,83.083 301.311,83.669 
				302.571,85.159 			"/>
			<polygon class="st25" points="316.456,103.911 317.944,103.911 317.944,83.083 316.456,83.083 315.196,83.083 315.196,83.669 
				316.456,85.159 			"/>
			<polygon class="st25" points="330.342,103.911 331.83,103.911 331.83,83.083 330.342,83.083 329.081,83.083 329.081,83.669 
				330.342,85.159 			"/>
			<polygon class="st25" points="344.227,83.083 342.967,83.083 342.967,83.669 344.227,85.159 344.227,103.911 345.715,103.911 
				345.715,83.083 			"/>
		</g>
	</g>
</g>
<g>
	<g>
		<g>
			<rect x="269.302" y="114.615" class="st23" width="3.967" height="19.867"/>
		</g>
		<g>
			<rect x="336.745" y="114.615" class="st23" width="3.967" height="19.867"/>
		</g>
	</g>
	<g>
		<g>
			<rect x="261.646" y="107.821" class="st24" width="24.188" height="24.188"/>
		</g>
		<g>
			<rect x="285.45" y="107.821" class="st22" width="63.22" height="24.188"/>
		</g>
		<rect x="263.002" y="119.33" class="st22" width="20.828" height="1.431"/>
		<rect x="263.002" y="123.917" class="st22" width="20.828" height="1.431"/>
		<rect x="263.033" y="114.743" class="st22" width="20.828" height="1.431"/>
		<g>
			<polygon class="st25" points="288.686,109.446 287.425,109.446 287.425,110.032 288.686,111.521 288.686,130.274 
				290.173,130.274 290.173,109.446 			"/>
			<polygon class="st25" points="302.571,130.274 304.059,130.274 304.059,109.446 302.571,109.446 301.311,109.446 
				301.311,110.032 302.571,111.521 			"/>
			<polygon class="st25" points="316.456,130.274 317.944,130.274 317.944,109.446 316.456,109.446 315.196,109.446 
				315.196,110.032 316.456,111.521 			"/>
			<polygon class="st25" points="330.342,130.274 331.83,130.274 331.83,109.446 330.342,109.446 329.081,109.446 329.081,110.032 
				330.342,111.521 			"/>
			<polygon class="st25" points="344.227,109.446 342.967,109.446 342.967,110.032 344.227,111.521 344.227,130.274 
				345.715,130.274 345.715,109.446 			"/>
		</g>
	</g>
</g>
<g>
	<g>
		<g>
			<rect x="269.302" y="62.165" class="st23" width="3.967" height="19.867"/>
		</g>
		<g>
			<rect x="336.745" y="62.165" class="st23" width="3.967" height="19.867"/>
		</g>
	</g>
	<g>
		<g>
			<rect x="261.646" y="55.371" class="st32" width="24.188" height="24.188"/>
		</g>
		<g>
			<rect x="285.45" y="55.371" class="st33" width="63.22" height="24.188"/>
		</g>
		<rect x="263.002" y="66.88" class="st33" width="20.828" height="1.431"/>
		<rect x="263.002" y="71.467" class="st33" width="20.828" height="1.431"/>
		<rect x="263.033" y="62.293" class="st33" width="20.828" height="1.431"/>
		<g>
			<polygon class="st34" points="288.686,56.996 287.425,56.996 287.425,57.582 288.686,59.071 288.686,77.824 290.173,77.824 
				290.173,56.996 			"/>
			<polygon class="st34" points="302.571,77.824 304.059,77.824 304.059,56.996 302.571,56.996 301.311,56.996 301.311,57.582 
				302.571,59.071 			"/>
			<polygon class="st34" points="316.456,77.824 317.944,77.824 317.944,56.996 316.456,56.996 315.196,56.996 315.196,57.582 
				316.456,59.071 			"/>
			<polygon class="st34" points="330.342,77.824 331.83,77.824 331.83,56.996 330.342,56.996 329.081,56.996 329.081,57.582 
				330.342,59.071 			"/>
			<polygon class="st34" points="344.227,56.996 342.967,56.996 342.967,57.582 344.227,59.071 344.227,77.824 345.715,77.824 
				345.715,56.996 			"/>
		</g>
	</g>
</g>
</svg>
