<?xml version="1.0" encoding="utf-8"?>
<!-- Generator: Adobe Illustrator 20.1.0, SVG Export Plug-In . SVG Version: 6.00 Build 0)  -->
<svg version="1.1" id="Layer_1" xmlns="http://www.w3.org/2000/svg" xmlns:xlink="http://www.w3.org/1999/xlink" x="0px" y="0px"
	 viewBox="0 0 415 140" style="enable-background:new 0 0 415 140;" xml:space="preserve">
<style type="text/css">
	.st0{fill:#C7C7C7;}
	.st1{fill:#B2D7F0;}
	.st2{fill:#919191;}
	.st3{fill:#447995;}
	.st4{fill:none;stroke:#447995;stroke-width:2;stroke-miterlimit:10;}
	.st5{fill:none;stroke:#447995;stroke-width:2;stroke-miterlimit:10;stroke-dasharray:4.2976,4.2976;}
	.st6{fill:#FFFFFF;}
	.st7{fill:#E4EDF1;}
	.st8{fill:#E3E3E3;}
	.st9{fill:#5E5E5E;}
	.st10{fill:#2E2E2E;}
	.st11{fill:#7CABC2;}
	.st12{fill:#96BCCE;}
	.st13{fill:#2C3E50;}
	.st14{clip-path:url(#SVGID_2_);fill:#447995;}
	
		.st15{fill-rule:evenodd;clip-rule:evenodd;fill:none;stroke:#E3E3E3;stroke-width:1.3089;stroke-linecap:round;stroke-linejoin:round;stroke-miterlimit:10;stroke-dasharray:1.3089,2.6179;}
	.st16{fill:#5D5D5D;}
	.st17{fill:none;stroke:#909090;stroke-width:1.1744;stroke-miterlimit:10;stroke-dasharray:2.3488,3.5233;}
	.st18{fill:#395B71;}
	.st19{fill-rule:evenodd;clip-rule:evenodd;fill:#395B71;}
	.st20{fill-rule:evenodd;clip-rule:evenodd;fill:#2E2E2E;}
	.st21{fill:#2C3E58;}
	.st22{fill:#4889A8;}
	.st23{fill:#929090;}
	.st24{fill:#96BBCD;}
	.st25{fill:#3A5C71;}
	.st26{fill:#757575;}
	.st27{fill:#682A7A;}
	.st28{fill:#478AA9;}
	.st29{fill:#672A79;}
	.st30{fill:#334D63;}
	.st31{fill:#5D5F5E;}
	.st32{fill:#FAB516;}
	.st33{fill:#F5891F;}
	.st34{fill:#CB6D29;}
	.st35{opacity:0.41;fill:#929090;}
	.st36{clip-path:url(#SVGID_4_);}
	.st37{clip-path:url(#SVGID_6_);}
	.st38{fill:#FE8B0C;}
	.st39{fill:#231F20;}
	.st40{fill:#909090;}
	.st41{fill:none;stroke:#909090;stroke-miterlimit:10;stroke-dasharray:2,2;}
	.st42{fill-rule:evenodd;clip-rule:evenodd;fill:#478AA9;}
	.st43{clip-path:url(#SVGID_8_);}
	.st44{clip-path:url(#SVGID_10_);}
	.st45{fill:#7DB912;}
	.st46{fill:#3B77AD;}
	.st47{fill:#F7CD13;}
	.st48{fill:#464646;}
	.st49{fill:#929497;}
	.st50{fill:#A6A8AB;}
	.st51{fill:#2F75BB;}
	.st52{fill:none;stroke:#757575;stroke-width:0.5023;stroke-miterlimit:10;}
	.st53{fill:#ACACAC;}
	.st54{fill:#3C88C6;}
	.st55{fill:#E4CB58;}
	.st56{fill:#58595B;}
	.st57{fill:#007ACC;}
	.st58{fill:#DB58DB;}
	.st59{fill:#B4079C;}
	.st60{fill:#9A37AF;}
	.st61{fill:#721481;}
	.st62{fill:#73AA24;}
	.st63{fill:#05930C;}
	.st64{fill:#2581BF;}
	.st65{fill:#004E8C;}
	.st66{fill:#D9DCE1;}
	.st67{fill:none;stroke:#909090;stroke-width:0.9199;stroke-miterlimit:10;}
	.st68{fill:none;stroke:#909090;stroke-width:0.9494;stroke-miterlimit:10;}
	.st69{fill:none;stroke:#909090;stroke-width:0.8988;stroke-miterlimit:10;}
	.st70{fill:none;stroke:#909090;stroke-width:0.8481;stroke-miterlimit:10;}
	.st71{fill:none;stroke:#909090;stroke-width:0.7975;stroke-miterlimit:10;}
	.st72{fill:none;stroke:#909090;stroke-width:0.7469;stroke-miterlimit:10;}
	.st73{fill:none;stroke:#909090;stroke-width:0.6963;stroke-miterlimit:10;}
	.st74{fill:#CADEE6;}
	.st75{fill:none;stroke:#447995;stroke-miterlimit:10;}
	.st76{fill:#FFFFFF;stroke:#96BCCE;stroke-width:0.75;stroke-miterlimit:10;}
	.st77{clip-path:url(#SVGID_12_);}
	.st78{fill:#08BBF1;}
	.st79{fill:#0AA5E2;}
	.st80{fill:#181717;}
	.st81{fill:#F3AF21;}
	.st82{fill:none;stroke:#5D5D5D;stroke-width:0.8345;stroke-miterlimit:10;}
	.st83{fill:none;stroke:#5D5D5D;stroke-width:1.3526;stroke-miterlimit:10;}
	.st84{fill-rule:evenodd;clip-rule:evenodd;fill:#7DB912;}
	.st85{fill:#333333;}
	.st86{fill:none;stroke:#FFFFFF;stroke-width:0.2247;stroke-linecap:round;stroke-linejoin:round;stroke-miterlimit:10;}
	.st87{fill:#737374;}
	.st88{fill:#515050;}
	.st89{fill:none;stroke:#000000;stroke-width:0.4495;stroke-miterlimit:1;}
	.st90{fill:none;}
	.st91{fill:#619BB5;}
	.st92{fill:none;stroke:#395B71;stroke-width:0.234;stroke-miterlimit:10;}
	.st93{fill:#32383D;}
	.st94{fill:#00BCF2;}
	.st95{fill:#2C2737;}
	.st96{fill:#201D29;}
	.st97{fill:#22BAED;}
	.st98{fill:#221F1F;}
	.st99{clip-path:url(#SVGID_14_);}
	.st100{clip-path:url(#SVGID_16_);}
	.st101{fill:#5E615F;}
	.st102{fill:none;stroke:#767676;stroke-width:0.199;stroke-miterlimit:10;}
	.st103{fill:#699F63;}
	.st104{fill-rule:evenodd;clip-rule:evenodd;fill:#333333;}
	.st105{fill-rule:evenodd;clip-rule:evenodd;fill:#699F63;}
	.st106{clip-path:url(#XMLID_3_);}
	.st107{fill:url(#SVGID_17_);}
	.st108{fill:url(#SVGID_18_);}
	.st109{fill:url(#SVGID_19_);}
	.st110{fill:url(#SVGID_20_);}
	.st111{fill:url(#SVGID_21_);}
	.st112{fill:url(#SVGID_22_);}
	.st113{fill:#00890B;}
	.st114{fill:#B0CDDA;}
	.st115{clip-path:url(#SVGID_24_);}
	.st116{fill:#515150;}
	.st117{fill:#171717;}
	.st118{fill:#457994;}
	.st119{fill:#F16424;}
	.st120{fill:#8B6AB1;}
	.st121{fill:#5C2D91;}
	.st122{clip-path:url(#SVGID_26_);fill:#447995;}
	.st123{fill:#B8D71C;}
	.st124{fill:#2B2B2B;}
	.st125{clip-path:url(#SVGID_28_);}
	.st126{fill:#BAD80A;}
	.st127{fill:#F58B20;}
	.st128{clip-path:url(#SVGID_30_);}
	.st129{clip-path:url(#SVGID_32_);}
	.st130{fill:none;stroke:#BAD80A;stroke-width:3.0831;stroke-miterlimit:10;}
	.st131{clip-path:url(#SVGID_34_);}
	.st132{fill:#FF8C00;}
	.st133{fill:#E73F24;}
	.st134{fill:#F58B23;}
	.st135{fill:#ADADAD;}
	.st136{fill:#959595;}
	.st137{fill:#474748;}
	.st138{fill:#6D6E70;}
	.st139{fill:#1772B8;}
	.st140{fill:#767778;}
	.st141{fill:#A86527;}
	.st142{fill:#048273;}
	.st143{fill:none;stroke:#6D6E70;stroke-miterlimit:10;}
	.st144{opacity:0.3;fill:#929090;}
	.st145{fill:#8FD4EF;}
	.st146{fill:#FFFFFF;stroke:#B0CDDA;stroke-miterlimit:10;}
	.st147{fill-rule:evenodd;clip-rule:evenodd;fill:#909090;}
	.st148{fill-rule:evenodd;clip-rule:evenodd;fill:#757575;}
	.st149{fill:#FFCD49;}
	.st150{fill:#CF5BC0;}
	.st151{fill:#7953A5;}
	.st152{fill:#A3D4EF;}
	.st153{fill:#539B00;}
</style>
<g>
	<path class="st2" d="M317.288,90.217c0.385-0.35,0.335-0.868,0.201-1.168l-1.016-1.886c-0.35-0.385-0.784-0.552-1.386-0.286
		l-2.404,1.064c-0.902,0.399-1.336,0.231-1.903-0.236c-0.433-0.167-0.784-0.551-1.218-0.719c-0.349-0.384-0.701-0.769-0.583-1.719
		l0.355-2.851c-0.049-0.518-0.4-0.902-0.617-0.985l-2.252-0.621c-0.217-0.084-0.819,0.183-1.07,0.833l-1.003,2.6
		c-0.335,0.868-0.853,0.917-1.369,0.967l-0.084,0.217c-0.434-0.168-0.953-0.12-1.252,0.013c-0.602,0.267-1.337,0.232-1.952-0.753
		l-1.452-2.053c-0.568-0.468-1.084-0.419-1.384-0.285l-1.972,1.231c-0.301,0.133-0.552,0.783-0.201,1.167l1.065,2.405
		c0.4,0.902,0.15,1.551-0.235,1.901c-0.167,0.434-0.552,0.783-0.719,1.216c-0.384,0.35-0.768,0.701-1.802,0.799l-2.553-0.488
		c-0.735-0.034-1.119,0.315-1.287,0.749l-0.319,2.118c-0.167,0.433,0.099,1.035,0.533,1.202l2.687,0.788
		c0.867,0.335,1.134,0.937,1.184,1.452c0.05,0.517,0.099,1.035,0.233,1.336l-0.084,0.217c0.05,0.516,0.1,1.034-0.669,1.733
		l-2.356,1.581c-0.384,0.35-0.335,0.868-0.201,1.166l1.234,1.972c0.133,0.301,0.782,0.551,1.167,0.201l2.623-0.979
		c0.9-0.4,1.334-0.232,1.685,0.152c0.434,0.168,0.784,0.551,1.219,0.719c0.566,0.468,0.916,0.852,0.798,1.802l-0.57,2.768
		c0.049,0.518,0.4,0.903,0.832,1.069l2.255,0.621c0.3-0.134,0.817-0.184,1.068-0.834l1.003-2.6c0.335-0.868,0.719-1.218,1.371-0.966
		c0.301-0.133,0.819-0.182,1.42-0.448c0.517-0.048,1.034-0.098,1.651,0.887l1.667,2.137c0.35,0.385,0.868,0.335,1.169,0.202
		l1.97-1.232c0.303-0.131,0.554-0.783,0.418-1.084l-1.282-2.487c-0.399-0.901-0.232-1.333,0.151-1.684
		c0.468-0.566,0.636-1.001,1.02-1.349c0.251-0.651,0.852-0.916,1.588-0.882l2.77,0.57c0.516-0.048,0.901-0.398,1.068-0.831
		l0.536-2.035c0.167-0.434-0.098-1.035-0.532-1.202l-2.687-0.788c-0.868-0.335-1.134-0.935-1.184-1.452
		c-0.049-0.517-0.098-1.034-0.149-1.553c-0.266-0.6-0.098-1.034,0.669-1.733L317.288,90.217 M300.979,91.143
		c2.572-1.498,5.992-0.675,7.71,1.98c1.717,2.656,0.896,6.074-1.977,7.704c-2.571,1.498-5.992,0.675-7.492-1.897
		C297.504,96.276,298.324,92.858,300.979,91.143"/>
	<path class="st2" d="M312.262,66.716c0.49,0.189,0.69,0.641,0.627,0.804c0.163,0.063-0.189,0.49-0.478,0.754l-1.157,1.053
		c-0.352,0.426-0.151,0.879,0.238,0.841l1.47,0.567c0.553,0.027,0.979,0.378,1.079,0.605l-0.315,0.816l-0.567,1.468
		c-0.189,0.49,0.075,0.779,0.465,0.742l1.721-0.086c0.39-0.037,0.943-0.011,1.107,0.052c0,0,0.038,0.389,0.011,0.941l0.15,1.558
		c-0.026,0.552,0.301,0.678,0.754,0.478l1.421-0.763c0.288-0.264,0.841-0.239,1.005-0.175c0,0,0.264,0.29,0.465,0.743l0.602,1.357
		c0.2,0.452,0.527,0.578,0.879,0.152l1.057-1.279c0.289-0.264,0.804-0.627,0.804-0.627c0.163,0.063,0.427,0.352,0.691,0.641
		l1.28,1.057c0.264,0.289,0.654,0.252,0.843-0.237l0.403-1.532c0.126-0.327,0.541-0.916,0.541-0.916
		c0.163,0.063,0.553,0.026,1.044,0.215l1.469,0.567c0.326,0.126,0.616-0.137,0.578-0.527l-0.149-1.557
		c-0.037-0.39-0.012-0.942,0.215-1.042c0,0,0.453-0.201,0.843-0.237l1.658,0.078c0.39-0.038,0.516-0.364,0.479-0.753l-0.765-1.42
		c-0.202-0.453-0.402-0.905-0.339-1.069c0.063-0.164,0.352-0.426,0.742-0.463l1.584-0.702c0.452-0.199,0.415-0.589,0.151-0.878
		l-1.343-0.894c-0.428-0.352-0.628-0.805-0.565-0.968c-0.163-0.063,0.126-0.327,0.478-0.753l1.158-1.053
		c0.352-0.426,0.089-0.716-0.238-0.842l-1.469-0.567c-0.553-0.026-0.981-0.379-1.081-0.605l0.315-0.816l0.567-1.469
		c0.189-0.489-0.074-0.778-0.464-0.74l-1.786,0.248c-0.389,0.038-0.879-0.151-1.042-0.215c0,0-0.038-0.389-0.012-0.942l-0.149-1.558
		c0.025-0.553-0.3-0.679-0.753-0.478l-1.258,0.826c-0.452,0.201-1.067,0.337-1.231,0.274c0,0-0.202-0.452-0.402-0.904l-0.602-1.357
		c-0.2-0.452-0.591-0.415-0.879-0.153l-1.057,1.279c-0.29,0.264-0.805,0.627-0.805,0.627c-0.163-0.063-0.49-0.189-0.753-0.478
		l-1.219-1.221c-0.263-0.288-0.652-0.252-0.841,0.239l-0.404,1.531c-0.189,0.49-0.541,0.917-0.541,0.917
		c-0.063,0.163-0.553-0.026-0.88-0.152l-1.633-0.63c-0.327-0.126-0.616,0.136-0.579,0.526l0.15,1.558
		c0.036,0.39-0.052,1.106-0.216,1.043c-0.063,0.163-0.452,0.2-0.842,0.237l-1.659-0.078c-0.389,0.038-0.515,0.364-0.315,0.817
		l0.602,1.357c0.201,0.453,0.339,1.069,0.339,1.069c-0.063,0.163-0.352,0.426-0.805,0.626l-1.521,0.538
		c-0.452,0.2-0.415,0.589-0.152,0.878L312.262,66.716z M321.059,65.8c0.604-1.079,1.836-1.354,2.917-0.749
		c1.081,0.605,1.356,1.835,0.751,2.915c-0.541,0.915-1.835,1.354-2.852,0.586C320.957,68.011,320.519,66.717,321.059,65.8"/>
	<g>
		<path class="st3" d="M400.123,45.914c-0.72-1.039-1.862-1.912-3.288-2.493l-0.014,9.957c1.432-0.579,2.58-1.452,3.302-2.494
			l2.058,1.032l1.186,3.077l0.774-0.299l-1.301-3.376l-2.302-1.155c0.258-0.555,0.412-1.143,0.413-1.758
			c0.001-0.619-0.154-1.211-0.414-1.77l2.31-1.151l1.31-3.372l-0.773-0.301l-1.195,3.074L400.123,45.914z"/>
		<path class="st3" d="M391.476,40.664c0.896,0.403,1.714,0.927,2.425,1.555l1.721-2.458c0.269-0.384,0.176-0.914-0.209-1.183
			l-0.966-0.676c-0.384-0.269-0.914-0.176-1.183,0.209L391.476,40.664z"/>
		<path class="st3" d="M387.284,39.761c0.685,0.001,1.352,0.071,1.997,0.198l0.004-3.107c0.001-0.469-0.379-0.85-0.848-0.851
			L387.258,36c-0.469-0.001-0.85,0.379-0.851,0.848l-0.004,2.952C386.694,39.777,386.987,39.761,387.284,39.761z"/>
		<path class="st3" d="M391.565,56.263l1.672,2.402c0.268,0.385,0.798,0.48,1.183,0.212l0.968-0.674
			c0.385-0.268,0.48-0.798,0.212-1.183l-1.624-2.332C393.271,55.322,392.456,55.851,391.565,56.263z"/>
		<path class="st3" d="M383.827,56.605c-0.934-0.332-1.799-0.788-2.564-1.356l-1.225,1.749c-0.269,0.384-0.176,0.914,0.209,1.183
			l0.966,0.676c0.384,0.269,0.914,0.176,1.183-0.209L383.827,56.605z"/>
		<path class="st3" d="M382.424,38.095c-0.268-0.385-0.798-0.48-1.183-0.212l-0.968,0.674c-0.385,0.268-0.48,0.798-0.212,1.183
			l1.317,1.892c0.775-0.557,1.646-1.003,2.587-1.321L382.424,38.095z"/>
		<path class="st3" d="M389.254,59.912l0.004-2.901c-0.645,0.125-1.312,0.193-1.997,0.192c-0.297,0-0.591-0.017-0.881-0.042
			l-0.004,2.747c-0.001,0.469,0.379,0.85,0.848,0.851l1.179,0.002C388.872,60.761,389.253,60.381,389.254,59.912z"/>
		<path class="st3" d="M387.283,40.962c-4.255-0.006-7.761,2.871-8.252,6.582l16.485,0.022
			C395.036,43.854,391.538,40.968,387.283,40.962z"/>
		<path class="st3" d="M395.531,49.228l-16.52-0.023c0.428,3.762,3.957,6.701,8.251,6.707
			C391.557,55.918,395.093,52.989,395.531,49.228z"/>
	</g>
	<g>
		<g>
			<path class="st4" d="M376.425,48.996c0,0-0.759,0-2.131,0"/>
			<path class="st5" d="M369.998,48.996c-9.972,0-29.763,0-46.448,0c-15.506,0-25.929,22.37-6.609,34.063
				c7.744,4.687,8.135,17.667,3.05,24.404c-4.938,6.543-12.544,7.245-19.955,7.245H196.29"/>
			<line class="st4" x1="194.135" y1="114.708" x2="192" y2="114.708"/>
		</g>
	</g>
</g>
<g>
	<rect x="46.613" y="8.352" class="st10" width="203.002" height="119.369"/>
	<rect x="46.613" y="8.352" class="st3" width="203.002" height="15.716"/>
	<rect x="55.594" y="32.113" class="st35" width="38.729" height="87.562"/>
	<rect x="99.375" y="32.113" class="st35" width="68.478" height="87.562"/>
	<rect x="171.782" y="32.113" class="st35" width="68.478" height="87.562"/>
	<rect x="53.349" y="15.836" class="st11" width="26.1" height="3.087"/>
	<g>
		<g>
			<g>
				<rect x="63.41" y="37.165" class="st26" width="27.407" height="2.001"/>
			</g>
			<g>
				<rect x="59.242" y="37.165" class="st26" width="2.835" height="2.001"/>
			</g>
		</g>
		<g>
			<g>
				<rect x="63.41" y="41.166" class="st26" width="21.089" height="2.001"/>
			</g>
			<g>
				<rect x="59.242" y="41.166" class="st26" width="2.835" height="2.001"/>
			</g>
		</g>
		<g>
			<g>
				<rect x="63.41" y="49.168" class="st26" width="25.021" height="2.001"/>
			</g>
			<g>
				<rect x="59.242" y="49.168" class="st26" width="2.835" height="2.001"/>
			</g>
		</g>
		<g>
			<g>
				<rect x="63.41" y="53.17" class="st26" width="21.089" height="2.001"/>
			</g>
			<g>
				<rect x="59.242" y="53.17" class="st26" width="2.835" height="2.001"/>
			</g>
		</g>
		<g>
			<g>
				<rect x="63.41" y="61.172" class="st26" width="27.407" height="2.001"/>
			</g>
			<g>
				<rect x="59.242" y="61.172" class="st26" width="2.835" height="2.001"/>
			</g>
		</g>
		<g>
			<g>
				<rect x="63.41" y="65.173" class="st26" width="21.089" height="2.001"/>
			</g>
			<g>
				<rect x="59.242" y="65.173" class="st26" width="2.835" height="2.001"/>
			</g>
		</g>
	</g>
	<g>
		<defs>
			<rect id="SVGID_3_" x="174.59" y="34.057" width="61.742" height="83.352"/>
		</defs>
		<clipPath id="SVGID_2_">
			<use xlink:href="#SVGID_3_"  style="overflow:visible;"/>
		</clipPath>
		<g style="clip-path:url(#SVGID_2_);">
			<rect x="176.726" y="36.569" class="st26" width="2.755" height="1.837"/>
			<rect x="176.726" y="40.301" class="st26" width="2.755" height="1.837"/>
			<rect x="176.726" y="44.033" class="st26" width="2.755" height="1.837"/>
			<rect x="176.726" y="47.765" class="st26" width="2.755" height="1.837"/>
			<rect x="181.546" y="36.569" class="st26" width="37.993" height="1.837"/>
			<rect x="181.546" y="40.301" class="st26" width="22.727" height="1.837"/>
			<rect x="181.546" y="44.033" class="st26" width="31.508" height="1.837"/>
			<rect x="181.546" y="47.765" class="st26" width="17.562" height="1.837"/>
			<rect x="176.812" y="55.23" class="st26" width="35.123" height="1.837"/>
			<rect x="214.173" y="55.23" class="st26" width="25.137" height="1.837"/>
			<rect x="176.812" y="58.962" class="st26" width="34.951" height="1.837"/>
			<rect x="176.812" y="62.695" class="st26" width="13.602" height="1.837"/>
			<rect x="176.812" y="66.427" class="st26" width="13.602" height="1.837"/>
			<rect x="176.812" y="70.159" class="st26" width="13.602" height="1.837"/>
			<rect x="192.479" y="62.695" class="st26" width="40.805" height="1.837"/>
			<rect x="192.479" y="66.427" class="st26" width="72.657" height="1.837"/>
			<rect x="192.479" y="70.159" class="st26" width="40.805" height="1.837"/>
			<rect x="235.178" y="70.159" class="st26" width="5.682" height="1.837"/>
			<rect x="176.726" y="73.891" class="st26" width="2.755" height="1.837"/>
			<rect x="176.726" y="77.624" class="st26" width="40.461" height="1.837"/>
			<rect x="176.726" y="81.356" class="st26" width="50.619" height="1.837"/>
			<rect x="176.726" y="85.088" class="st26" width="45.109" height="1.837"/>
			<rect x="176.726" y="88.82" class="st26" width="50.274" height="1.837"/>
			<rect x="176.726" y="92.553" class="st26" width="56.128" height="1.837"/>
			<rect x="184.99" y="96.285" class="st26" width="2.755" height="1.837"/>
			<rect x="184.99" y="100.017" class="st26" width="2.755" height="1.837"/>
			<rect x="184.99" y="103.749" class="st26" width="2.755" height="1.837"/>
			<rect x="193.254" y="96.285" class="st26" width="16.529" height="1.837"/>
			<rect x="193.254" y="100.017" class="st26" width="16.529" height="1.837"/>
			<rect x="189.839" y="103.749" class="st26" width="5.682" height="1.837"/>
			<rect x="184.99" y="107.482" class="st26" width="63.532" height="1.837"/>
			<rect x="189.811" y="111.214" class="st26" width="47.347" height="1.837"/>
			<rect x="189.811" y="114.946" class="st26" width="68.18" height="1.837"/>
		</g>
	</g>
	<g>
		<defs>
			<rect id="SVGID_5_" x="101.622" y="34.057" width="61.742" height="83.352"/>
		</defs>
		<clipPath id="SVGID_4_">
			<use xlink:href="#SVGID_5_"  style="overflow:visible;"/>
		</clipPath>
		<g class="st36">
			<rect x="103.757" y="36.569" class="st26" width="2.755" height="1.837"/>
			<rect x="103.757" y="40.301" class="st26" width="2.755" height="1.837"/>
			<rect x="103.757" y="44.033" class="st26" width="2.755" height="1.837"/>
			<rect x="103.757" y="47.765" class="st26" width="2.755" height="1.837"/>
			<rect x="108.578" y="36.569" class="st26" width="37.993" height="1.837"/>
			<rect x="108.578" y="40.301" class="st26" width="22.727" height="1.837"/>
			<rect x="108.578" y="44.033" class="st26" width="31.508" height="1.837"/>
			<rect x="108.578" y="47.765" class="st26" width="17.562" height="1.837"/>
			<rect x="103.843" y="55.23" class="st26" width="35.123" height="1.837"/>
			<rect x="141.205" y="55.23" class="st26" width="25.137" height="1.837"/>
			<rect x="103.843" y="58.962" class="st26" width="34.951" height="1.837"/>
			<rect x="103.843" y="62.695" class="st26" width="13.602" height="1.837"/>
			<rect x="103.843" y="66.427" class="st26" width="13.602" height="1.837"/>
			<rect x="103.843" y="70.159" class="st26" width="13.602" height="1.837"/>
			<rect x="119.511" y="62.695" class="st26" width="40.805" height="1.837"/>
			<rect x="119.511" y="66.427" class="st26" width="72.657" height="1.837"/>
			<rect x="119.511" y="70.159" class="st26" width="40.805" height="1.837"/>
			<rect x="162.21" y="70.159" class="st26" width="5.682" height="1.837"/>
			<rect x="103.757" y="73.891" class="st26" width="2.755" height="1.837"/>
			<rect x="103.757" y="77.624" class="st26" width="40.461" height="1.837"/>
			<rect x="103.757" y="81.356" class="st26" width="50.619" height="1.837"/>
			<rect x="103.757" y="85.088" class="st26" width="45.109" height="1.837"/>
			<rect x="103.757" y="88.82" class="st26" width="50.274" height="1.837"/>
			<rect x="103.757" y="92.553" class="st26" width="56.128" height="1.837"/>
			<rect x="112.022" y="96.285" class="st26" width="2.755" height="1.837"/>
			<rect x="112.022" y="100.017" class="st26" width="2.755" height="1.837"/>
			<rect x="112.022" y="103.749" class="st26" width="2.755" height="1.837"/>
			<rect x="120.286" y="96.285" class="st26" width="16.529" height="1.837"/>
			<rect x="120.286" y="100.017" class="st26" width="16.529" height="1.837"/>
			<rect x="116.871" y="103.749" class="st26" width="5.682" height="1.837"/>
			<rect x="112.022" y="107.482" class="st26" width="63.532" height="1.837"/>
			<rect x="116.842" y="111.214" class="st26" width="47.347" height="1.837"/>
			<rect x="116.842" y="114.946" class="st26" width="68.18" height="1.837"/>
		</g>
	</g>
</g>
<circle class="st11" cx="169.865" cy="72.25" r="33.75"/>
<g>
	<path class="st38" d="M174.472,62.99c0.512-0.804,0.817-1.754,0.827-2.777c0.029-2.919-2.314-5.309-5.234-5.338
		c-2.919-0.029-5.309,2.314-5.338,5.234c-0.01,1.023,0.276,1.979,0.772,2.793c-3.855,1.68-6.572,5.499-6.616,9.977l-0.046,4.639
		c-0.06,6.077,4.818,11.052,10.895,11.112h0c6.077,0.06,11.052-4.818,11.112-10.895l0.046-4.639
		C180.934,68.618,178.293,64.746,174.472,62.99z"/>
	<path class="st18" d="M180.685,68.697c-0.384-0.891-0.873-1.725-1.461-2.494c2.768-0.462,4.901-2.847,4.929-5.748l0.035-3.54
		l-2.36-0.023l-0.035,3.54c-0.019,1.952-1.623,3.524-3.575,3.505l-1.18-0.012l-0.001,0.057c-0.547-0.421-1.143-0.782-1.766-1.105
		c0.387-0.779,0.613-1.62,0.622-2.503c0.009-0.89-0.196-1.728-0.543-2.49l2.607-2.556l-1.652-1.685l-2.367,2.32
		c-1.034-0.938-2.385-1.533-3.887-1.548c-1.502-0.015-2.865,0.553-3.917,1.471l-2.32-2.367l-1.685,1.652l2.556,2.607
		c-0.362,0.754-0.583,1.588-0.592,2.478c-0.009,0.883,0.2,1.729,0.572,2.515c-0.629,0.311-1.232,0.66-1.788,1.07l0.001-0.057
		l-1.18-0.012c-1.952-0.019-3.524-1.623-3.505-3.575l0.035-3.54l-2.36-0.023l-0.035,3.54c-0.029,2.901,2.057,5.327,4.815,5.844
		c-0.603,0.758-1.108,1.582-1.509,2.465c-3.182,0.052-5.774,2.627-5.805,5.828l-0.035,3.54l2.36,0.023l0.035-3.54
		c0.016-1.624,1.135-2.971,2.632-3.371c-0.149,0.723-0.253,1.459-0.26,2.214l-0.047,4.72c-0.002,0.162,0.038,0.312,0.043,0.472
		l-0.108-0.11c-3.089,3.028-3.138,8.003-0.11,11.091l1.685-1.652c-1.684-1.718-1.983-4.263-0.957-6.301
		c1.453,4.808,5.848,8.363,11.129,8.416c5.281,0.052,9.746-3.416,11.294-8.194c0.986,2.058,0.637,4.596-1.081,6.281l1.652,1.685
		c3.089-3.028,3.138-8.003,0.11-11.091l-0.11,0.108c0.008-0.16,0.051-0.31,0.052-0.471l0.047-4.72
		c0.007-0.756-0.082-1.493-0.217-2.219c1.489,0.43,2.581,1.799,2.565,3.423l-0.035,3.54l2.36,0.023l0.035-3.54
		C186.406,71.437,183.865,68.811,180.685,68.697z M170.029,56.775c1.952,0.019,3.524,1.623,3.505,3.575
		c-0.007,0.681-0.215,1.23-0.464,1.663c-2.088-0.62-4.085-0.64-6.186-0.061c-0.24-0.439-0.438-0.991-0.431-1.672
		C166.473,58.328,168.077,56.755,170.029,56.775z M179.259,78.108c-0.051,5.205-4.328,9.398-9.533,9.347s-9.398-4.328-9.347-9.533
		l0.047-4.72c0.039-3.939,2.585-7.468,6.335-8.781l0.001,0c2.225-0.782,4.173-0.763,6.382,0.063l0.001,0
		c3.724,1.387,6.2,4.966,6.161,8.905L179.259,78.108z"/>
</g>
<g>
	<g>
		<path class="st39" d="M233.05,137.628l2.772-2.77c1.832-1.831,1.834-4.8,0.003-6.632l-32.541-31.58
			c-1.831-1.832-4.8-1.834-6.632-0.003l-2.772,2.77c-1.832,1.831-1.834,4.8-0.003,6.632l32.541,31.58
			C228.248,139.457,231.218,139.459,233.05,137.628z"/>
		<path class="st31" d="M197.106,96.25c1.84-1.422,4.492-1.292,6.179,0.396l32.541,31.58c1.687,1.688,1.814,4.34,0.391,6.179
			L197.106,96.25z"/>
		<path class="st8" d="M204.414,116.592l-10.538-10.547c-0.006-0.006-0.01-0.012-0.016-0.017l9.406-9.398l0.017,0.016l10.538,10.547
			L204.414,116.592z"/>
		<path class="st40" d="M193.861,106.028l6.953-6.947l10.554,10.564l-6.954,6.947l-10.538-10.547
			C193.871,106.039,193.867,106.033,193.861,106.028z"/>
	</g>
	<path class="st6" d="M169.27,108.963c10.148,0.005,19.354-4.124,26.019-10.789c6.658-6.658,10.784-15.848,10.788-25.987
		c0.008-20.286-16.489-36.797-36.776-36.808c-20.285-0.009-36.798,16.488-36.808,36.776
		C132.485,92.441,148.982,108.953,169.27,108.963z M169.271,104.442c-17.794-0.007-32.265-14.491-32.256-32.286
		c0.004-8.891,3.623-16.953,9.463-22.794c5.847-5.847,13.92-9.466,22.822-9.462c17.794,0.007,32.265,14.491,32.256,32.286
		C201.549,89.977,187.065,104.448,169.271,104.442z"/>
</g>
</svg>
