<svg xmlns="http://www.w3.org/2000/svg" viewBox="0 0 400 140"><defs><style>.cls-1{isolation:isolate;}.cls-2,.cls-6{fill:none;}.cls-2{stroke:#bcbec0;stroke-miterlimit:10;stroke-width:2px;stroke-dasharray:4.27 4.27;}.cls-3{fill:#b2d7f0;}.cls-4{fill:#666;}.cls-5{fill:#4d4d4d;}.cls-7{fill:#333;}.cls-8{fill:#d4e8f8;}.cls-9{fill:#fff;}.cls-10{fill:#447995;}.cls-11{opacity:0.3;}.cls-12{fill:#7cabc2;}.cls-13{fill:#96bcce;}.cls-14{fill:#2e2e2e;}.cls-15{fill:#5e5e5e;}.cls-16{fill:#221f1f;}.cls-17{fill:#5e615f;}.cls-18{fill:#bad80a;}.cls-19{fill:#d1d3d4;opacity:0.5;mix-blend-mode:screen;}.cls-20{fill:#aab5c5;}.cls-21{fill:#5d5f5e;}.cls-22{fill:#fe8b0c;}.cls-23{fill:#f3af21;}.cls-24{fill:#d83b01;}</style></defs><title>vs-hub-docs-features-9</title><g class="cls-1"><g id="Layer_1" data-name="Layer 1"><line class="cls-2" x1="81.04" y1="55" x2="209.04" y2="36"/><line class="cls-2" x1="58.04" y1="79" x2="186.04" y2="98"/><path class="cls-3" d="M357.63,42.2C356.46,28.08,345.11,17,331.26,17a26.36,26.36,0,0,0-23.54,15,26.19,26.19,0,0,0-14.06-4.09c-12.49,0-23,8.79-26.16,20.77a24.6,24.6,0,0,0-7.6-1.2,25.18,25.18,0,0,0-10.52,47.91,23.37,23.37,0,0,0,7.74,2.2l.62.06c3.58.32,8.5.37,15.91.37h80.43a22,22,0,0,0,5.21-.63C371.66,94.88,381,83.54,381,69.92,381,55.7,370.81,44,357.63,42.2Z"/><line class="cls-2" x1="85.62" y1="70" x2="205.62" y2="70"/><rect class="cls-4" x="198" y="17" width="46" height="80"/><rect class="cls-5" x="227" y="17" width="17" height="80"/><polygon class="cls-6" points="229.54 25.93 198.78 25.93 198.78 28.42 229.54 28.42 229.54 25.93 229.54 25.93"/><polyline class="cls-6" points="229.54 25.93 198.78 25.93 198.78 28.42 229.54 28.42 229.54 25.93"/><rect x="226" y="26" width="16" height="2"/><rect class="cls-7" x="200" y="26" width="17" height="2"/><polygon class="cls-8" points="227 28 217 28 217 26 227 26 227 28 227 28"/><rect class="cls-9" x="198" y="26" width="2" height="2"/><rect x="226" y="32" width="16" height="2"/><rect class="cls-7" x="200" y="32" width="17" height="2"/><polygon class="cls-8" points="227 34 217 34 217 32 227 32 227 34 227 34"/><rect class="cls-9" x="198" y="32" width="2" height="2"/><rect x="226" y="38" width="16" height="2"/><rect class="cls-7" x="200" y="38" width="17" height="2"/><polygon class="cls-8" points="227 40 217 40 217 38 227 38 227 40 227 40"/><rect class="cls-9" x="198" y="38" width="2" height="2"/><rect class="cls-9" x="198" y="44" width="2" height="2"/><rect class="cls-9" x="198" y="50" width="2" height="2"/><circle class="cls-10" cx="63.62" cy="70.15" r="45"/><g id="Completed_Icons" data-name="Completed Icons"><polygon class="cls-9" points="86.04 45 38.04 45 38.04 93 59.04 93 59.04 89 42.04 89 42.04 49 82.04 49 82.04 66 86.04 66 86.04 45"/><rect class="cls-9" x="63.04" y="70" width="26" height="26"/><rect class="cls-9" x="46.04" y="53" width="13" height="13"/><rect class="cls-9" x="46.04" y="70" width="13" height="13"/><rect class="cls-9" x="65.04" y="53" width="13" height="13"/></g><text class="cls-11"></text><rect class="cls-12" x="236" y="36" width="84" height="46"/><polygon class="cls-13" points="320 62 320 36.84 294.85 36.84 320 62"/><polygon class="cls-14" points="285.66 91.84 270.43 91.84 271.66 82.84 284.43 82.84 285.66 91.84"/><polygon class="cls-15" points="296.42 93 260.13 93 262.25 91 294.3 91 296.42 93"/><path class="cls-14" d="M294.76,95H261.39c-1.54,1.08-1.57-1.54-1.57-2h36.6C296.42,93.46,296.42,94,294.76,95Z"/><path class="cls-16" d="M321,35H236a1.83,1.83,0,0,0-2,1.8V81.88a2,2,0,0,0,2,2H321a2,2,0,0,0,2-2V36.8A1.83,1.83,0,0,0,321,35Zm-1,46H237V37.84h83Z"/><path class="cls-16" d="M366,107V65.63A1.63,1.63,0,0,0,364.37,64H306.63A1.63,1.63,0,0,0,305,65.63V107Z"/><path class="cls-16" d="M297.09,107c0-.45.38,1.87,2.73,2h70.45c1.82-.13,2.73-2.45,2.73-2v-1H297Z"/><rect class="cls-17" x="335" y="65" width="1" height="1"/><rect class="cls-17" x="334" y="102" width="2" height="2"/><rect class="cls-18" x="308" y="67" width="55" height="34"/><polygon class="cls-19" points="363 67 342.12 67 363 86.54 363 67"/><rect class="cls-14" x="212" y="69" width="53" height="36" rx="2.16" ry="2.16"/><rect class="cls-20" x="215" y="72" width="47" height="30"/><polygon class="cls-21" points="263 87.58 264 87.74 264 86.49 263 86.64 263 87.58"/><polygon class="cls-19" points="262 91.33 262 72 240.88 72 262 91.33"/><path class="cls-14" d="M234.35,123.49a31.36,31.36,0,0,1-6.62.51,36.15,36.15,0,0,1-7.08-.51c-1-.25-1.65-.84-1.65-1.78V92.18c0-.95.63-1.52,1.69-1.68a56.41,56.41,0,0,1,7-.44,41.19,41.19,0,0,1,6.62.43c1.14.18,1.69.77,1.69,1.72v29.5C236,122.65,235.51,123.23,234.35,123.49Z"/><rect class="cls-18" x="220" y="94.06" width="15" height="25.94"/><polygon class="cls-19" points="235 107.04 235 94.06 220.83 94.06 235 107.04"/><path class="cls-22" d="M204,80.73v33.65c0,1.81-2.07,3.43-5.42,4.61a40.25,40.25,0,0,1-12.58,1.9h-.5v.1h-.32c-10.09-.11-18.18-3.07-18.18-6.61V80.73Z"/><path class="cls-23" d="M204,80.73v33.65c0,1.81-2.07,3.43-5.42,4.61a40.25,40.25,0,0,1-12.58,1.9V80.73Z"/><path class="cls-22" d="M204,80.48c0,3.58-8.28,6.48-18.5,6.48S167,84.06,167,80.48,175.53,74,185.75,74,204,76.9,204,80.48"/><path class="cls-23" d="M198.56,80.44c0,.56-.47,1.09-1.3,1.56a7.22,7.22,0,0,1-1.11.5,38.13,38.13,0,0,1-21.18,0,7.22,7.22,0,0,1-1.11-.5c-.83-.47-1.3-1-1.3-1.56,0-2,5.82-3.56,13-3.56S198.56,78.47,198.56,80.44Z"/><path class="cls-24" d="M196.15,82.5a38.13,38.13,0,0,1-21.18,0,38.13,38.13,0,0,1,21.18,0Z"/></g></g></svg>