<?xml version="1.0" encoding="utf-8"?>
<!-- Generator: Adobe Illustrator 20.1.0, SVG Export Plug-In . SVG Version: 6.00 Build 0)  -->
<svg version="1.1" id="Layer_1" xmlns="http://www.w3.org/2000/svg" xmlns:xlink="http://www.w3.org/1999/xlink" x="0px" y="0px"
	 viewBox="0 0 415 140" style="enable-background:new 0 0 415 140;" xml:space="preserve">
<style type="text/css">
	.st0{fill:#C7C7C7;}
	.st1{fill:#B2D7F0;}
	.st2{fill:#919191;}
	.st3{fill:#447995;}
	.st4{fill:none;stroke:#447995;stroke-width:2;stroke-miterlimit:10;}
	.st5{fill:none;stroke:#447995;stroke-width:2;stroke-miterlimit:10;stroke-dasharray:4.2976,4.2976;}
	.st6{fill:#FFFFFF;}
	.st7{fill:#E4EDF1;}
	.st8{fill:#E3E3E3;}
	.st9{fill:#5E5E5E;}
	.st10{fill:#2E2E2E;}
	.st11{fill:#7CABC2;}
	.st12{fill:#96BCCE;}
	.st13{fill:#2C3E50;}
	.st14{clip-path:url(#SVGID_2_);fill:#447995;}
	
		.st15{fill-rule:evenodd;clip-rule:evenodd;fill:none;stroke:#E3E3E3;stroke-width:1.3089;stroke-linecap:round;stroke-linejoin:round;stroke-miterlimit:10;stroke-dasharray:1.3089,2.6179;}
	.st16{fill:#5D5D5D;}
	.st17{fill:none;stroke:#909090;stroke-width:1.1744;stroke-miterlimit:10;stroke-dasharray:2.3488,3.5233;}
	.st18{fill:#395B71;}
	.st19{fill-rule:evenodd;clip-rule:evenodd;fill:#395B71;}
	.st20{fill-rule:evenodd;clip-rule:evenodd;fill:#2E2E2E;}
	.st21{fill:#2C3E58;}
	.st22{fill:#4889A8;}
	.st23{fill:#929090;}
	.st24{fill:#96BBCD;}
	.st25{fill:#3A5C71;}
	.st26{fill:#757575;}
	.st27{fill:#682A7A;}
	.st28{fill:#478AA9;}
	.st29{fill:#672A79;}
	.st30{fill:#334D63;}
	.st31{fill:#5D5F5E;}
	.st32{fill:#FAB516;}
	.st33{fill:#F5891F;}
	.st34{fill:#CB6D29;}
	.st35{opacity:0.41;fill:#929090;}
	.st36{clip-path:url(#SVGID_4_);}
	.st37{clip-path:url(#SVGID_6_);}
	.st38{fill:#FE8B0C;}
	.st39{fill:#231F20;}
	.st40{fill:#909090;}
	.st41{fill:none;stroke:#909090;stroke-miterlimit:10;stroke-dasharray:2,2;}
	.st42{fill-rule:evenodd;clip-rule:evenodd;fill:#478AA9;}
	.st43{clip-path:url(#SVGID_8_);}
	.st44{clip-path:url(#SVGID_10_);}
	.st45{fill:#7DB912;}
	.st46{fill:#3B77AD;}
	.st47{fill:#F7CD13;}
	.st48{fill:#464646;}
	.st49{fill:#929497;}
	.st50{fill:#A6A8AB;}
	.st51{fill:#2F75BB;}
	.st52{fill:none;stroke:#757575;stroke-width:0.5023;stroke-miterlimit:10;}
	.st53{fill:#ACACAC;}
	.st54{fill:#3C88C6;}
	.st55{fill:#E4CB58;}
	.st56{fill:#58595B;}
	.st57{fill:#007ACC;}
	.st58{fill:#DB58DB;}
	.st59{fill:#B4079C;}
	.st60{fill:#9A37AF;}
	.st61{fill:#721481;}
	.st62{fill:#73AA24;}
	.st63{fill:#05930C;}
	.st64{fill:#2581BF;}
	.st65{fill:#004E8C;}
	.st66{fill:#D9DCE1;}
	.st67{fill:none;stroke:#909090;stroke-width:0.9199;stroke-miterlimit:10;}
	.st68{fill:none;stroke:#909090;stroke-width:0.9494;stroke-miterlimit:10;}
	.st69{fill:none;stroke:#909090;stroke-width:0.8988;stroke-miterlimit:10;}
	.st70{fill:none;stroke:#909090;stroke-width:0.8481;stroke-miterlimit:10;}
	.st71{fill:none;stroke:#909090;stroke-width:0.7975;stroke-miterlimit:10;}
	.st72{fill:none;stroke:#909090;stroke-width:0.7469;stroke-miterlimit:10;}
	.st73{fill:none;stroke:#909090;stroke-width:0.6963;stroke-miterlimit:10;}
	.st74{fill:#CADEE6;}
	.st75{fill:none;stroke:#447995;stroke-miterlimit:10;}
	.st76{fill:#FFFFFF;stroke:#96BCCE;stroke-width:0.75;stroke-miterlimit:10;}
	.st77{clip-path:url(#SVGID_12_);}
	.st78{fill:#08BBF1;}
	.st79{fill:#0AA5E2;}
	.st80{fill:#181717;}
	.st81{fill:#F3AF21;}
	.st82{fill:none;stroke:#5D5D5D;stroke-width:0.8345;stroke-miterlimit:10;}
	.st83{fill:none;stroke:#5D5D5D;stroke-width:1.3526;stroke-miterlimit:10;}
	.st84{fill-rule:evenodd;clip-rule:evenodd;fill:#7DB912;}
	.st85{fill:#333333;}
	.st86{fill:none;stroke:#FFFFFF;stroke-width:0.2247;stroke-linecap:round;stroke-linejoin:round;stroke-miterlimit:10;}
	.st87{fill:#737374;}
	.st88{fill:#515050;}
	.st89{fill:none;stroke:#000000;stroke-width:0.4495;stroke-miterlimit:1;}
	.st90{fill:none;}
	.st91{fill:#619BB5;}
	.st92{fill:none;stroke:#395B71;stroke-width:0.234;stroke-miterlimit:10;}
	.st93{fill:#32383D;}
	.st94{fill:#00BCF2;}
	.st95{fill:#2C2737;}
	.st96{fill:#201D29;}
	.st97{fill:#22BAED;}
	.st98{fill:#221F1F;}
	.st99{clip-path:url(#SVGID_14_);}
	.st100{clip-path:url(#SVGID_16_);}
	.st101{fill:#5E615F;}
	.st102{fill:none;stroke:#767676;stroke-width:0.199;stroke-miterlimit:10;}
	.st103{fill:#699F63;}
	.st104{fill-rule:evenodd;clip-rule:evenodd;fill:#333333;}
	.st105{fill-rule:evenodd;clip-rule:evenodd;fill:#699F63;}
	.st106{clip-path:url(#XMLID_3_);}
	.st107{fill:url(#SVGID_17_);}
	.st108{fill:url(#SVGID_18_);}
	.st109{fill:url(#SVGID_19_);}
	.st110{fill:url(#SVGID_20_);}
	.st111{fill:url(#SVGID_21_);}
	.st112{fill:url(#SVGID_22_);}
	.st113{fill:#00890B;}
	.st114{fill:#B0CDDA;}
	.st115{clip-path:url(#SVGID_24_);}
	.st116{fill:#515150;}
	.st117{fill:#171717;}
	.st118{fill:#457994;}
	.st119{fill:#F16424;}
	.st120{fill:#8B6AB1;}
	.st121{fill:#5C2D91;}
	.st122{clip-path:url(#SVGID_26_);fill:#447995;}
	.st123{fill:#B8D71C;}
	.st124{fill:#2B2B2B;}
	.st125{clip-path:url(#SVGID_28_);}
	.st126{fill:#BAD80A;}
	.st127{fill:#F58B20;}
	.st128{clip-path:url(#SVGID_30_);}
	.st129{clip-path:url(#SVGID_32_);}
	.st130{fill:none;stroke:#BAD80A;stroke-width:3.0831;stroke-miterlimit:10;}
	.st131{clip-path:url(#SVGID_34_);}
	.st132{fill:#FF8C00;}
	.st133{fill:#E73F24;}
	.st134{fill:#F58B23;}
	.st135{fill:#ADADAD;}
	.st136{fill:#959595;}
	.st137{fill:#474748;}
	.st138{fill:#6D6E70;}
	.st139{fill:#1772B8;}
	.st140{fill:#767778;}
	.st141{fill:#A86527;}
	.st142{fill:#048273;}
	.st143{fill:none;stroke:#6D6E70;stroke-miterlimit:10;}
	.st144{opacity:0.3;fill:#929090;}
	.st145{fill:#8FD4EF;}
	.st146{fill:#FFFFFF;stroke:#B0CDDA;stroke-miterlimit:10;}
	.st147{fill-rule:evenodd;clip-rule:evenodd;fill:#909090;}
	.st148{fill-rule:evenodd;clip-rule:evenodd;fill:#757575;}
	.st149{fill:#FFCD49;}
	.st150{fill:#CF5BC0;}
	.st151{fill:#7953A5;}
	.st152{fill:#A3D4EF;}
	.st153{fill:#539B00;}
</style>
<g>
	<path class="st1" d="M297.085,42.452c-1.794-21.47-19.243-38.321-40.517-38.321c-15.765,0-29.425,9.259-36.178,22.789
		c-6.301-3.943-13.694-6.214-21.602-6.214c-19.188,0-35.339,13.372-40.205,31.573c-3.683-1.181-7.606-1.826-11.681-1.826
		c-21.104,0-38.212,17.108-38.212,38.212c0,15.326,9.026,28.537,22.049,34.626c3.636,1.515,6.507,2.795,11.892,3.342
		c0.319,0.035,0.639,0.064,0.96,0.092c5.503,0.485,13.064,0.562,24.448,0.562h123.609c2.743,0,5.423-0.338,8.006-0.96
		c18.999-3.782,33.351-21.021,33.351-41.727C333.004,62.971,317.343,45.128,297.085,42.452z"/>
	<g>
		<path class="st53" d="M313.791,132.615h-91.986c-2.389,0-4.326-1.937-4.326-4.326c0-2.389,1.937-4.326,4.326-4.326h91.986
			c2.389,0,4.326,1.937,4.326,4.326C318.118,130.678,316.181,132.615,313.791,132.615z"/>
	</g>
	<g>
		<g>
			<g>
				<g>
					<polygon class="st80" points="275.332,126.539 258.531,126.494 264.665,117.591 269.247,117.604 					"/>
					
						<rect x="258.053" y="110.955" transform="matrix(1 0.0027 -0.0027 1 0.3129 -0.7234)" class="st39" width="17.819" height="8.16"/>
					<path class="st3" d="M267.212,23.257l0-0.167c0,0-0.024,0.031-0.064,0.083c-0.039-0.052-0.063-0.083-0.063-0.083l0,0.167
						c-1.766,2.314-23.377,31.094-23.438,53.665c-0.064,23.532,11.096,38.744,11.096,38.744l12.092,0.033l0.127,0l12.091,0.033
						c0,0,11.241-15.151,11.305-38.683C290.419,54.478,268.964,25.581,267.212,23.257z"/>
					<path class="st3" d="M252.789,96.577c0,0-18.685,4.808-18.084,15.356s2.405,18.85,2.405,18.85l3.416-0.277
						c0,0-0.509-12.353,4.171-17.235c2.828-2.95,10.758-5.168,10.758-5.168L252.789,96.577z"/>
					<path class="st18" d="M281.912,96.656c0,0,18.659,4.909,18.001,15.453c-0.658,10.544-2.507,18.837-2.507,18.837l-3.414-0.295
						c0,0,0.576-12.35-4.078-17.257c-2.812-2.965-10.73-5.226-10.73-5.226L281.912,96.656z"/>
					<path class="st18" d="M267.212,23.257l0-0.167c0,0-0.024,0.031-0.064,0.083c-0.039-0.052-0.063-0.083-0.063-0.083l0,0.167
						c0,0-0.004,0.006-0.006,0.008l-0.251,92.435l0.006,0l0.127,0l12.091,0.033c0,0,11.241-15.151,11.305-38.683
						C290.419,54.478,268.964,25.581,267.212,23.257z"/>
					<path class="st81" d="M283.866,51.501c-6.45-14.523-15.539-26.766-16.655-28.244l0-0.167c0,0-0.024,0.031-0.064,0.083
						c-0.039-0.052-0.063-0.083-0.063-0.083l0,0.167c-1.124,1.472-10.279,13.666-16.808,28.153L283.866,51.501z"/>
					<path class="st38" d="M266.786,51.455l17.08,0.046c-6.45-14.523-15.539-26.766-16.655-28.244l0-0.167
						c0,0-0.024,0.031-0.064,0.083c-0.039-0.052-0.063-0.083-0.063-0.083l0,0.167c-0.052,0.068-0.138,0.182-0.222,0.294
						L266.786,51.455z"/>
				</g>
			</g>
		</g>
		<path class="st39" d="M259.267,63.182h-13.7c-1.066,3.927-1.697,8.754-1.697,13.978c0,5.224,0.631,10.052,1.697,13.978h13.7
			c-1.066-3.927-1.697-8.754-1.697-13.978C257.57,71.936,258.201,67.108,259.267,63.182z"/>
		<path class="st82" d="M232.689,80.289h-3.755c-0.461,0-0.835-0.374-0.835-0.835v-4.381c0-0.461,0.374-0.835,0.835-0.835h3.755
			c0.461,0,0.835,0.374,0.835,0.835v4.381C233.524,79.916,233.15,80.289,232.689,80.289z"/>
		<path class="st3" d="M245.567,63.182h-13.352c-1.066,3.927-1.697,8.754-1.697,13.978c0,5.224,0.631,10.052,1.697,13.978h13.352
			c-1.066-3.927-1.697-8.754-1.697-13.978C243.87,71.936,244.5,67.108,245.567,63.182z"/>
	</g>
	<g>
		
			<rect x="192.335" y="81.081" transform="matrix(0.9842 -0.1768 0.1768 0.9842 -12.917 37.8685)" class="st11" width="27.454" height="20.689"/>
		<polygon class="st18" points="218.234,81.544 191.212,86.398 194.429,88.634 218.723,84.271 		"/>
		
			<rect x="188.297" y="76.953" transform="matrix(0.9842 -0.1768 0.1768 0.9842 -11.0473 37.3521)" class="st11" width="31.604" height="7.443"/>
	</g>
	<g>
		
			<rect x="144.767" y="90.291" transform="matrix(0.9842 -0.1768 0.1768 0.9842 -15.2944 29.6043)" class="st11" width="27.454" height="20.689"/>
		<polygon class="st18" points="170.666,90.754 143.645,95.608 146.861,97.845 171.156,93.481 		"/>
		
			<rect x="140.729" y="86.163" transform="matrix(0.9842 -0.1768 0.1768 0.9842 -13.4247 29.0879)" class="st11" width="31.604" height="7.443"/>
	</g>
	<g>
		
			<rect x="97.152" y="98.821" transform="matrix(0.9842 -0.1768 0.1768 0.9842 -17.5522 21.321)" class="st11" width="27.454" height="20.689"/>
		<polygon class="st18" points="123.051,99.284 96.029,104.137 99.246,106.374 123.54,102.01 		"/>
		
			<rect x="93.114" y="94.693" transform="matrix(0.9842 -0.1768 0.1768 0.9842 -15.6826 20.8046)" class="st11" width="31.604" height="7.443"/>
	</g>
	<g>
		<g>
			<path class="st53" d="M236.662,106.819L89.97,133.329c-2.757,0.495-5.394-1.338-5.889-4.096
				c-0.495-2.757,1.338-5.394,4.096-5.889l146.693-26.51c2.757-0.495,5.394,1.338,5.889,4.096S239.42,106.323,236.662,106.819z"/>
		</g>
		<g>
			<path class="st83" d="M236.662,106.819L89.97,133.329c-2.757,0.495-5.394-1.338-5.889-4.096
				c-0.495-2.757,1.338-5.394,4.096-5.889l146.693-26.51c2.757-0.495,5.394,1.338,5.889,4.096S239.42,106.323,236.662,106.819z"/>
		</g>
		<g>
			<g>
				
					<ellipse transform="matrix(0.9842 -0.1768 0.1768 0.9842 -14.2865 43.2886)" class="st26" cx="235.796" cy="101.821" rx="3.19" ry="3.19"/>
				
					<ellipse transform="matrix(0.9842 -0.1768 0.1768 0.9842 -15.063 40.4616)" class="st26" cx="219.542" cy="104.766" rx="3.19" ry="3.19"/>
				
					<ellipse transform="matrix(0.9842 -0.1768 0.1768 0.9842 -15.8395 37.6347)" class="st26" cx="203.289" cy="107.71" rx="3.19" ry="3.19"/>
				
					<ellipse transform="matrix(0.9842 -0.1768 0.1768 0.9842 -16.6161 34.8077)" class="st26" cx="187.035" cy="110.654" rx="3.19" ry="3.19"/>
				
					<ellipse transform="matrix(0.9842 -0.1768 0.1768 0.9842 -17.3926 31.9807)" class="st26" cx="170.782" cy="113.599" rx="3.19" ry="3.19"/>
				
					<ellipse transform="matrix(0.9842 -0.1768 0.1768 0.9842 -18.1691 29.1537)" class="st26" cx="154.528" cy="116.543" rx="3.19" ry="3.19"/>
				
					<ellipse transform="matrix(0.9842 -0.1768 0.1768 0.9842 -18.9456 26.3268)" class="st26" cx="138.275" cy="119.488" rx="3.19" ry="3.19"/>
				
					<ellipse transform="matrix(0.9842 -0.1768 0.1768 0.9842 -19.7222 23.4998)" class="st26" cx="122.021" cy="122.432" rx="3.19" ry="3.19"/>
				
					<ellipse transform="matrix(0.9842 -0.1768 0.1768 0.9842 -20.4987 20.6728)" class="st26" cx="105.768" cy="125.377" rx="3.19" ry="3.19"/>
				
					<ellipse transform="matrix(0.9842 -0.1768 0.1768 0.9842 -21.2752 17.8459)" class="st26" cx="89.515" cy="128.321" rx="3.19" ry="3.19"/>
			</g>
		</g>
	</g>
	<g>
		<circle class="st84" cx="92.705" cy="95.722" r="6.397"/>
		<g>
			<polygon class="st6" points="91.893,99.63 90.648,99.603 88.454,96.312 89.718,95.469 91.309,97.856 95.73,91.813 96.956,92.71 
							"/>
		</g>
	</g>
	<g>
		<circle class="st84" cx="140.912" cy="87.131" r="6.397"/>
		<g>
			<polygon class="st6" points="140.1,91.039 138.855,91.012 136.661,87.721 137.925,86.878 139.516,89.265 143.937,83.222 
				145.163,84.119 			"/>
		</g>
	</g>
	<g>
		<circle class="st84" cx="187.888" cy="77.86" r="6.397"/>
		<g>
			<polygon class="st6" points="187.076,81.769 185.831,81.741 183.637,78.45 184.901,77.608 186.492,79.994 190.913,73.952 
				192.139,74.849 			"/>
		</g>
	</g>
</g>
</svg>
