<?xml version="1.0" encoding="utf-8"?>
<!-- Generator: Adobe Illustrator 20.1.0, SVG Export Plug-In . SVG Version: 6.00 Build 0)  -->
<svg version="1.1" id="Layer_1" xmlns="http://www.w3.org/2000/svg" xmlns:xlink="http://www.w3.org/1999/xlink" x="0px" y="0px"
	 viewBox="0 0 415 140" style="enable-background:new 0 0 415 140;" xml:space="preserve">
<style type="text/css">
	.st0{fill:#C7C7C7;}
	.st1{fill:#B2D7F0;}
	.st2{fill:#919191;}
	.st3{fill:#447995;}
	.st4{fill:none;stroke:#447995;stroke-width:2;stroke-miterlimit:10;}
	.st5{fill:none;stroke:#447995;stroke-width:2;stroke-miterlimit:10;stroke-dasharray:4.2976,4.2976;}
	.st6{fill:#FFFFFF;}
	.st7{fill:#E4EDF1;}
	.st8{fill:#E3E3E3;}
	.st9{fill:#5E5E5E;}
	.st10{fill:#2E2E2E;}
	.st11{fill:#7CABC2;}
	.st12{fill:#96BCCE;}
	.st13{fill:#2C3E50;}
	.st14{clip-path:url(#SVGID_2_);fill:#447995;}
	
		.st15{fill-rule:evenodd;clip-rule:evenodd;fill:none;stroke:#E3E3E3;stroke-width:1.3089;stroke-linecap:round;stroke-linejoin:round;stroke-miterlimit:10;stroke-dasharray:1.3089,2.6179;}
	.st16{fill:#5D5D5D;}
	.st17{fill:none;stroke:#909090;stroke-width:1.1744;stroke-miterlimit:10;stroke-dasharray:2.3488,3.5233;}
	.st18{fill:#395B71;}
	.st19{fill-rule:evenodd;clip-rule:evenodd;fill:#395B71;}
	.st20{fill-rule:evenodd;clip-rule:evenodd;fill:#2E2E2E;}
	.st21{fill:#2C3E58;}
	.st22{fill:#4889A8;}
	.st23{fill:#929090;}
	.st24{fill:#96BBCD;}
	.st25{fill:#3A5C71;}
	.st26{fill:#757575;}
	.st27{fill:#682A7A;}
	.st28{fill:#478AA9;}
	.st29{fill:#672A79;}
	.st30{fill:#334D63;}
	.st31{fill:#5D5F5E;}
	.st32{fill:#FAB516;}
	.st33{fill:#F5891F;}
	.st34{fill:#CB6D29;}
	.st35{opacity:0.41;fill:#929090;}
	.st36{clip-path:url(#SVGID_4_);}
	.st37{clip-path:url(#SVGID_6_);}
	.st38{fill:#FE8B0C;}
	.st39{fill:#231F20;}
	.st40{fill:#909090;}
	.st41{fill:none;stroke:#909090;stroke-miterlimit:10;stroke-dasharray:2,2;}
	.st42{fill-rule:evenodd;clip-rule:evenodd;fill:#478AA9;}
	.st43{clip-path:url(#SVGID_8_);}
	.st44{clip-path:url(#SVGID_10_);}
	.st45{fill:#7DB912;}
	.st46{fill:#3B77AD;}
	.st47{fill:#F7CD13;}
	.st48{fill:#464646;}
	.st49{fill:#929497;}
	.st50{fill:#A6A8AB;}
	.st51{fill:#2F75BB;}
	.st52{fill:none;stroke:#757575;stroke-width:0.5023;stroke-miterlimit:10;}
	.st53{fill:#ACACAC;}
	.st54{fill:#3C88C6;}
	.st55{fill:#E4CB58;}
	.st56{fill:#58595B;}
	.st57{fill:#007ACC;}
	.st58{fill:#DB58DB;}
	.st59{fill:#B4079C;}
	.st60{fill:#9A37AF;}
	.st61{fill:#721481;}
	.st62{fill:#73AA24;}
	.st63{fill:#05930C;}
	.st64{fill:#2581BF;}
	.st65{fill:#004E8C;}
	.st66{fill:#D9DCE1;}
	.st67{fill:none;stroke:#909090;stroke-width:0.9199;stroke-miterlimit:10;}
	.st68{fill:none;stroke:#909090;stroke-width:0.9494;stroke-miterlimit:10;}
	.st69{fill:none;stroke:#909090;stroke-width:0.8988;stroke-miterlimit:10;}
	.st70{fill:none;stroke:#909090;stroke-width:0.8481;stroke-miterlimit:10;}
	.st71{fill:none;stroke:#909090;stroke-width:0.7975;stroke-miterlimit:10;}
	.st72{fill:none;stroke:#909090;stroke-width:0.7469;stroke-miterlimit:10;}
	.st73{fill:none;stroke:#909090;stroke-width:0.6963;stroke-miterlimit:10;}
	.st74{fill:#CADEE6;}
	.st75{fill:none;stroke:#447995;stroke-miterlimit:10;}
	.st76{fill:#FFFFFF;stroke:#96BCCE;stroke-width:0.75;stroke-miterlimit:10;}
	.st77{clip-path:url(#SVGID_12_);}
	.st78{fill:#08BBF1;}
	.st79{fill:#0AA5E2;}
	.st80{fill:#181717;}
	.st81{fill:#F3AF21;}
	.st82{fill:none;stroke:#5D5D5D;stroke-width:0.8345;stroke-miterlimit:10;}
	.st83{fill:none;stroke:#5D5D5D;stroke-width:1.3526;stroke-miterlimit:10;}
	.st84{fill-rule:evenodd;clip-rule:evenodd;fill:#7DB912;}
	.st85{fill:#333333;}
	.st86{fill:none;stroke:#FFFFFF;stroke-width:0.2247;stroke-linecap:round;stroke-linejoin:round;stroke-miterlimit:10;}
	.st87{fill:#737374;}
	.st88{fill:#515050;}
	.st89{fill:none;stroke:#000000;stroke-width:0.4495;stroke-miterlimit:1;}
	.st90{fill:none;}
	.st91{fill:#619BB5;}
	.st92{fill:none;stroke:#395B71;stroke-width:0.234;stroke-miterlimit:10;}
	.st93{fill:#32383D;}
	.st94{fill:#00BCF2;}
	.st95{fill:#2C2737;}
	.st96{fill:#201D29;}
	.st97{fill:#22BAED;}
	.st98{fill:#221F1F;}
	.st99{clip-path:url(#SVGID_14_);}
	.st100{clip-path:url(#SVGID_16_);}
	.st101{fill:#5E615F;}
	.st102{fill:none;stroke:#767676;stroke-width:0.199;stroke-miterlimit:10;}
	.st103{fill:#699F63;}
	.st104{fill-rule:evenodd;clip-rule:evenodd;fill:#333333;}
	.st105{fill-rule:evenodd;clip-rule:evenodd;fill:#699F63;}
	.st106{clip-path:url(#XMLID_3_);}
	.st107{fill:url(#SVGID_17_);}
	.st108{fill:url(#SVGID_18_);}
	.st109{fill:url(#SVGID_19_);}
	.st110{fill:url(#SVGID_20_);}
	.st111{fill:url(#SVGID_21_);}
	.st112{fill:url(#SVGID_22_);}
	.st113{fill:#00890B;}
	.st114{fill:#B0CDDA;}
	.st115{clip-path:url(#SVGID_24_);}
	.st116{fill:#515150;}
	.st117{fill:#171717;}
	.st118{fill:#457994;}
	.st119{fill:#F16424;}
	.st120{fill:#8B6AB1;}
	.st121{fill:#5C2D91;}
	.st122{clip-path:url(#SVGID_26_);fill:#447995;}
	.st123{fill:#B8D71C;}
	.st124{fill:#2B2B2B;}
	.st125{clip-path:url(#SVGID_28_);}
	.st126{fill:#BAD80A;}
	.st127{fill:#F58B20;}
	.st128{clip-path:url(#SVGID_30_);}
	.st129{clip-path:url(#SVGID_32_);}
	.st130{fill:none;stroke:#BAD80A;stroke-width:3.0831;stroke-miterlimit:10;}
	.st131{clip-path:url(#SVGID_34_);}
	.st132{fill:#FF8C00;}
	.st133{fill:#E73F24;}
	.st134{fill:#F58B23;}
	.st135{fill:#ADADAD;}
	.st136{fill:#959595;}
	.st137{fill:#474748;}
	.st138{fill:#6D6E70;}
	.st139{fill:#1772B8;}
	.st140{fill:#767778;}
	.st141{fill:#A86527;}
	.st142{fill:#048273;}
	.st143{fill:none;stroke:#6D6E70;stroke-miterlimit:10;}
	.st144{opacity:0.3;fill:#929090;}
	.st145{fill:#8FD4EF;}
	.st146{fill:#FFFFFF;stroke:#B0CDDA;stroke-miterlimit:10;}
	.st147{fill-rule:evenodd;clip-rule:evenodd;fill:#909090;}
	.st148{fill-rule:evenodd;clip-rule:evenodd;fill:#757575;}
	.st149{fill:#FFCD49;}
	.st150{fill:#CF5BC0;}
	.st151{fill:#7953A5;}
	.st152{fill:#A3D4EF;}
	.st153{fill:#539B00;}
</style>
<g>
	<rect x="92.784" y="131.921" class="st39" width="80.675" height="1.99"/>
	<polygon class="st50" points="173.459,131.921 92.784,131.921 95.999,128.293 170.245,128.293 	"/>
	<path class="st10" d="M225.549,124.879H40.771c-1.795,0-3.25-1.455-3.25-3.25V11.25c0-1.795,1.455-3.25,3.25-3.25h184.778
		c1.795,0,3.25,1.455,3.25,3.25v110.379C228.799,123.424,227.344,124.879,225.549,124.879z"/>
	<rect x="40.583" y="11.444" class="st137" width="184.925" height="104.709"/>
	<rect x="40.583" y="117.531" class="st137" width="184.925" height="5.817"/>
	<rect x="222.446" y="14.965" class="st138" width="2.909" height="54.192"/>
	<rect x="221.375" y="14.965" class="st49" width="1.225" height="99.045"/>
	<rect x="45.175" y="15.731" class="st10" width="176.199" height="98.433"/>
	<rect x="46.859" y="15.578" class="st138" width="35.209" height="2.602"/>
	<rect x="46.859" y="25.222" class="st138" width="35.209" height="2.602"/>
	<rect x="119.727" y="123.961" class="st39" width="27.096" height="9.338"/>
	<g>
		<rect x="155.243" y="17.568" class="st31" width="1.837" height="1.225"/>
		<rect x="155.243" y="20.057" class="st31" width="1.837" height="1.225"/>
		<rect x="155.243" y="22.545" class="st31" width="1.837" height="1.225"/>
		<rect x="155.243" y="25.034" class="st31" width="1.837" height="1.225"/>
		<rect x="155.243" y="27.523" class="st31" width="1.837" height="1.225"/>
		<rect x="155.243" y="30.012" class="st31" width="1.837" height="1.225"/>
		<rect x="155.243" y="32.501" class="st31" width="1.837" height="1.225"/>
		<rect x="155.243" y="34.99" class="st31" width="1.837" height="1.225"/>
		<rect x="155.243" y="37.478" class="st31" width="1.837" height="1.225"/>
		<rect x="155.243" y="39.967" class="st31" width="1.837" height="1.225"/>
		<rect x="155.243" y="42.456" class="st31" width="1.837" height="1.225"/>
		<rect x="155.243" y="44.945" class="st31" width="1.837" height="1.225"/>
		<rect x="155.243" y="47.434" class="st31" width="1.837" height="1.225"/>
		<rect x="155.243" y="49.923" class="st31" width="1.837" height="1.225"/>
		<rect x="155.243" y="52.412" class="st31" width="1.837" height="1.225"/>
		<rect x="155.243" y="54.9" class="st31" width="1.837" height="1.225"/>
		<rect x="155.243" y="57.389" class="st31" width="1.837" height="1.225"/>
		<rect x="155.243" y="59.878" class="st31" width="1.837" height="1.225"/>
		<rect x="155.243" y="62.367" class="st31" width="1.837" height="1.225"/>
		<rect x="155.243" y="64.856" class="st31" width="1.837" height="1.225"/>
		<rect x="155.243" y="67.345" class="st31" width="1.837" height="1.225"/>
		<rect x="155.243" y="69.833" class="st31" width="1.837" height="1.225"/>
		<rect x="155.243" y="72.322" class="st31" width="1.837" height="1.225"/>
		<rect x="155.243" y="74.811" class="st31" width="1.837" height="1.225"/>
		<rect x="155.243" y="77.3" class="st31" width="1.837" height="1.225"/>
		<rect x="155.243" y="79.789" class="st31" width="1.837" height="1.225"/>
		<rect x="155.243" y="82.278" class="st31" width="1.837" height="1.225"/>
		<rect x="155.243" y="84.767" class="st31" width="1.837" height="1.225"/>
		<rect x="155.243" y="87.255" class="st31" width="1.837" height="1.225"/>
		<rect x="155.243" y="89.744" class="st31" width="1.837" height="1.225"/>
		<rect x="155.243" y="92.233" class="st31" width="1.837" height="1.225"/>
		<rect x="155.243" y="94.722" class="st31" width="1.837" height="1.225"/>
	</g>
	<rect x="157.998" y="17.568" class="st139" width="1.837" height="1.225"/>
	<rect x="157.998" y="20.057" class="st139" width="1.837" height="1.225"/>
	<rect x="157.998" y="22.545" class="st139" width="1.837" height="1.225"/>
	<rect x="157.998" y="25.034" class="st139" width="1.837" height="1.225"/>
	<rect x="161.213" y="17.568" class="st31" width="25.335" height="1.225"/>
	<rect x="161.213" y="20.057" class="st31" width="15.155" height="1.225"/>
	<rect x="161.213" y="22.545" class="st31" width="21.011" height="1.225"/>
	<rect x="161.213" y="25.034" class="st31" width="11.711" height="1.225"/>
	<rect x="87.733" y="17.568" class="st139" width="1.837" height="1.225"/>
	<rect x="87.733" y="20.057" class="st139" width="1.837" height="1.225"/>
	<rect x="87.733" y="22.545" class="st139" width="1.837" height="1.225"/>
	<rect x="50.533" y="20.057" class="st139" width="1.837" height="1.225"/>
	<rect x="50.533" y="22.545" class="st139" width="1.837" height="1.225"/>
	<rect x="87.733" y="25.034" class="st139" width="1.837" height="1.225"/>
	<rect x="90.947" y="17.568" class="st31" width="25.335" height="1.225"/>
	<rect x="90.947" y="20.057" class="st31" width="15.155" height="1.225"/>
	<rect x="90.947" y="22.545" class="st31" width="21.011" height="1.225"/>
	<rect x="90.947" y="25.034" class="st31" width="11.711" height="1.225"/>
	<rect x="158.055" y="30.012" class="st23" width="23.422" height="1.225"/>
	<rect x="182.97" y="30.012" class="st140" width="16.763" height="1.225"/>
	<rect x="158.055" y="32.501" class="st23" width="23.307" height="1.225"/>
	<rect x="158.055" y="34.99" class="st23" width="9.07" height="1.225"/>
	<rect x="158.055" y="37.478" class="st23" width="9.07" height="1.225"/>
	<rect x="158.055" y="39.967" class="st23" width="9.07" height="1.225"/>
	<rect x="168.503" y="34.99" class="st141" width="27.211" height="1.225"/>
	<rect x="168.503" y="37.478" class="st141" width="48.451" height="1.225"/>
	<rect x="168.503" y="39.967" class="st141" width="27.211" height="1.225"/>
	<rect x="196.977" y="39.967" class="st139" width="3.789" height="1.225"/>
	<rect x="157.998" y="42.456" class="st31" width="1.837" height="1.225"/>
	<rect x="157.998" y="44.945" class="st142" width="26.981" height="1.225"/>
	<rect x="157.998" y="47.434" class="st142" width="33.755" height="1.225"/>
	<rect x="157.998" y="49.923" class="st31" width="30.081" height="1.225"/>
	<rect x="157.998" y="52.412" class="st31" width="33.525" height="1.225"/>
	<rect x="157.998" y="54.9" class="st31" width="37.429" height="1.225"/>
	<rect x="163.509" y="57.389" class="st142" width="1.837" height="1.225"/>
	<rect x="163.509" y="59.878" class="st142" width="1.837" height="1.225"/>
	<rect x="163.509" y="62.367" class="st142" width="1.837" height="1.225"/>
	<rect x="169.02" y="57.389" class="st142" width="11.022" height="1.225"/>
	<rect x="169.02" y="59.878" class="st142" width="11.022" height="1.225"/>
	<rect x="166.743" y="62.367" class="st142" width="3.789" height="1.225"/>
	<rect x="87.79" y="30.012" class="st23" width="23.422" height="1.225"/>
	<rect x="112.704" y="30.012" class="st140" width="16.763" height="1.225"/>
	<rect x="87.79" y="32.501" class="st23" width="23.307" height="1.225"/>
	<rect x="87.79" y="34.99" class="st23" width="9.07" height="1.225"/>
	<rect x="87.79" y="37.478" class="st23" width="9.07" height="1.225"/>
	<rect x="87.79" y="39.967" class="st23" width="9.07" height="1.225"/>
	<rect x="98.238" y="34.99" class="st141" width="27.211" height="1.225"/>
	<rect x="98.238" y="37.478" class="st141" width="48.451" height="1.225"/>
	<rect x="98.238" y="39.967" class="st141" width="27.211" height="1.225"/>
	<rect x="126.712" y="39.967" class="st139" width="3.789" height="1.225"/>
	<rect x="87.733" y="42.456" class="st31" width="1.837" height="1.225"/>
	<rect x="87.733" y="44.945" class="st142" width="26.981" height="1.225"/>
	<rect x="87.733" y="47.434" class="st142" width="33.755" height="1.225"/>
	<rect x="87.733" y="49.923" class="st31" width="30.081" height="1.225"/>
	<rect x="87.733" y="52.412" class="st31" width="33.525" height="1.225"/>
	<rect x="87.733" y="54.9" class="st31" width="37.429" height="1.225"/>
	<rect x="93.244" y="57.389" class="st142" width="1.837" height="1.225"/>
	<rect x="93.244" y="59.878" class="st142" width="1.837" height="1.225"/>
	<rect x="93.244" y="62.367" class="st142" width="1.837" height="1.225"/>
	<rect x="98.755" y="57.389" class="st142" width="11.022" height="1.225"/>
	<rect x="98.755" y="59.878" class="st142" width="11.022" height="1.225"/>
	<rect x="96.478" y="62.367" class="st142" width="3.789" height="1.225"/>
	<rect x="163.509" y="64.856" class="st31" width="42.366" height="1.225"/>
	<rect x="166.724" y="67.345" class="st31" width="31.574" height="1.225"/>
	<rect x="166.724" y="69.833" class="st31" width="45.466" height="1.225"/>
	<rect x="166.724" y="72.322" class="st31" width="31.574" height="1.225"/>
	<rect x="169.939" y="74.811" class="st31" width="19.977" height="1.225"/>
	<rect x="167.183" y="77.3" class="st31" width="2.258" height="1.225"/>
	<rect x="157.998" y="82.278" class="st31" width="1.837" height="1.225"/>
	<rect x="163.968" y="79.789" class="st31" width="1.837" height="1.225"/>
	<rect x="161.213" y="82.278" class="st31" width="1.837" height="1.225"/>
	<rect x="157.998" y="87.255" class="st139" width="1.837" height="1.225"/>
	<rect x="161.213" y="87.255" class="st31" width="18.6" height="1.225"/>
	<rect x="180.961" y="87.255" class="st139" width="8.611" height="1.225"/>
	<rect x="161.213" y="89.744" class="st139" width="1.837" height="1.225"/>
	<rect x="161.213" y="92.233" class="st139" width="1.837" height="1.225"/>
	<rect x="164.428" y="89.744" class="st31" width="23.192" height="1.225"/>
	<rect x="164.428" y="92.233" class="st31" width="23.192" height="1.225"/>
	<rect x="157.998" y="94.722" class="st31" width="1.837" height="1.225"/>
	<rect x="93.244" y="64.856" class="st31" width="42.366" height="1.225"/>
	<rect x="96.458" y="67.345" class="st31" width="31.574" height="1.225"/>
	<rect x="96.458" y="69.833" class="st31" width="45.466" height="1.225"/>
	<rect x="96.458" y="72.322" class="st31" width="31.574" height="1.225"/>
	<rect x="99.673" y="74.811" class="st31" width="19.977" height="1.225"/>
	<rect x="96.918" y="77.3" class="st31" width="2.258" height="1.225"/>
	<rect x="87.733" y="82.278" class="st31" width="1.837" height="1.225"/>
	<rect x="93.703" y="79.789" class="st31" width="1.837" height="1.225"/>
	<rect x="90.947" y="82.278" class="st31" width="1.837" height="1.225"/>
	<rect x="87.733" y="87.255" class="st139" width="1.837" height="1.225"/>
	<rect x="90.947" y="87.255" class="st31" width="18.6" height="1.225"/>
	<rect x="110.695" y="87.255" class="st139" width="8.611" height="1.225"/>
	<rect x="90.947" y="89.744" class="st139" width="1.837" height="1.225"/>
	<rect x="90.947" y="92.233" class="st139" width="1.837" height="1.225"/>
	<rect x="94.162" y="89.744" class="st31" width="23.192" height="1.225"/>
	<rect x="94.162" y="92.233" class="st31" width="23.192" height="1.225"/>
	<rect x="87.733" y="94.722" class="st31" width="1.837" height="1.225"/>
	<g>
		<rect x="84.518" y="17.108" class="st31" width="1.837" height="1.225"/>
		<rect x="84.518" y="19.597" class="st31" width="1.837" height="1.225"/>
		<rect x="84.518" y="22.086" class="st31" width="1.837" height="1.225"/>
		<rect x="84.518" y="24.575" class="st31" width="1.837" height="1.225"/>
		<rect x="84.518" y="27.064" class="st31" width="1.837" height="1.225"/>
		<rect x="84.518" y="29.553" class="st31" width="1.837" height="1.225"/>
		<rect x="84.518" y="32.042" class="st31" width="1.837" height="1.225"/>
		<rect x="84.518" y="34.53" class="st31" width="1.837" height="1.225"/>
		<rect x="84.518" y="37.019" class="st31" width="1.837" height="1.225"/>
		<rect x="84.518" y="39.508" class="st31" width="1.837" height="1.225"/>
		<rect x="84.518" y="41.997" class="st31" width="1.837" height="1.225"/>
		<rect x="84.518" y="44.486" class="st31" width="1.837" height="1.225"/>
		<rect x="84.518" y="46.975" class="st31" width="1.837" height="1.225"/>
		<rect x="84.518" y="49.463" class="st31" width="1.837" height="1.225"/>
		<rect x="84.518" y="51.952" class="st31" width="1.837" height="1.225"/>
		<rect x="84.518" y="54.441" class="st31" width="1.837" height="1.225"/>
		<rect x="84.518" y="56.93" class="st31" width="1.837" height="1.225"/>
		<rect x="84.518" y="59.419" class="st31" width="1.837" height="1.225"/>
		<rect x="84.518" y="61.908" class="st31" width="1.837" height="1.225"/>
		<rect x="84.518" y="64.397" class="st31" width="1.837" height="1.225"/>
		<rect x="84.518" y="66.885" class="st31" width="1.837" height="1.225"/>
		<rect x="84.518" y="69.374" class="st31" width="1.837" height="1.225"/>
		<rect x="84.518" y="71.863" class="st31" width="1.837" height="1.225"/>
		<rect x="84.518" y="74.352" class="st31" width="1.837" height="1.225"/>
		<rect x="84.518" y="76.841" class="st31" width="1.837" height="1.225"/>
		<rect x="84.518" y="79.33" class="st31" width="1.837" height="1.225"/>
		<rect x="84.518" y="81.818" class="st31" width="1.837" height="1.225"/>
		<rect x="84.518" y="84.307" class="st31" width="1.837" height="1.225"/>
		<rect x="84.518" y="86.796" class="st31" width="1.837" height="1.225"/>
		<rect x="84.518" y="89.285" class="st31" width="1.837" height="1.225"/>
		<rect x="84.518" y="91.774" class="st31" width="1.837" height="1.225"/>
		<rect x="84.518" y="94.263" class="st31" width="1.837" height="1.225"/>
	</g>
	<rect x="53.748" y="20.057" class="st31" width="15.155" height="1.225"/>
	<rect x="53.748" y="22.545" class="st31" width="21.011" height="1.225"/>
	<rect x="47.319" y="19.597" class="st31" width="1.837" height="1.225"/>
	<rect x="90.947" y="13.32" class="st31" width="25.335" height="1.225"/>
	<rect x="84.518" y="13.32" class="st31" width="4.21" height="1.225"/>
	<rect x="47.319" y="13.168" class="st31" width="1.837" height="1.225"/>
	<rect x="47.319" y="22.086" class="st31" width="1.837" height="1.225"/>
	<rect x="47.319" y="29.553" class="st31" width="1.837" height="1.225"/>
	<rect x="47.319" y="32.042" class="st31" width="1.837" height="1.225"/>
	<rect x="47.319" y="34.53" class="st31" width="1.837" height="1.225"/>
	<rect x="50.533" y="29.553" class="st31" width="11.941" height="1.225"/>
	<rect x="50.533" y="32.042" class="st31" width="11.941" height="1.225"/>
	<rect x="50.533" y="34.53" class="st31" width="11.941" height="1.225"/>
	<rect x="41.999" y="13.626" class="st31" width="2.181" height="2.181"/>
	
		<rect x="41.999" y="23.729" transform="matrix(0.7071 0.7071 -0.7071 0.7071 30.1711 -23.1993)" class="st31" width="2.181" height="2.181"/>
	<circle class="st31" cx="43.147" cy="19.366" r="1.263"/>
	<circle class="st31" cx="43.147" cy="29.47" r="1.263"/>
	<rect x="212.19" y="13.064" class="st31" width="1.148" height="1.225"/>
	<rect x="214.945" y="13.064" class="st31" width="1.148" height="1.225"/>
	<rect x="217.701" y="13.064" class="st31" width="1.148" height="1.225"/>
	<rect x="220.456" y="13.064" class="st31" width="1.148" height="1.225"/>
	<rect x="223.212" y="13.064" class="st31" width="1.148" height="1.225"/>
	<rect x="157.386" y="14.965" class="st50" width="65.214" height="2.143"/>
	<rect x="87.426" y="26.294" class="st50" width="65.214" height="2.143"/>
	<rect x="151.753" y="15.271" class="st138" width="0.933" height="53.732"/>
	<line class="st143" x1="152.686" y1="15.271" x2="152.686" y2="114.278"/>
	<polygon class="st144" points="188.921,15.118 41.884,87.375 41.884,115.082 85.395,115.082 85.436,114.164 222.599,114.317 
		222.599,14.965 	"/>
	<rect x="40.583" y="114.01" class="st139" width="184.925" height="2.143"/>
</g>
<polygon class="st145" points="295.748,114.052 282.374,90.887 295.748,67.721 322.497,67.721 335.871,90.887 322.497,114.052 "/>
<polygon class="st74" points="254.374,90.298 241,67.133 254.374,43.967 281.123,43.967 294.498,67.133 281.123,90.298 "/>
<polygon class="st146" points="343.22,100.133 324.167,67.133 343.22,34.133 381.325,34.133 400.377,67.133 381.325,100.133 "/>
<polygon class="st74" points="295.698,66.33 282.323,43.165 295.698,20 322.447,20 335.821,43.165 322.447,66.33 "/>
<rect x="348.272" y="37.133" class="st149" width="12" height="12"/>
<rect x="364.272" y="37.133" class="st33" width="12" height="12"/>
<rect x="348.272" y="53.133" class="st150" width="12" height="12"/>
<rect x="364.272" y="53.133" class="st151" width="12" height="12"/>
<rect x="348.272" y="69.133" class="st152" width="12" height="12"/>
<rect x="364.272" y="69.133" class="st28" width="12" height="12"/>
<rect x="348.272" y="85.133" class="st126" width="12" height="12"/>
<rect x="364.272" y="85.133" class="st153" width="12" height="12"/>
<g>
	<path d="M261.387,78.352h-0.867c-1.508,0-2.629-0.354-3.363-1.061s-1.102-1.779-1.102-3.217v-4.031
		c0-0.383-0.043-0.725-0.129-1.025s-0.236-0.555-0.451-0.762s-0.5-0.365-0.855-0.475s-0.803-0.164-1.342-0.164h-0.504v-1.629h0.504
		c0.57,0,1.035-0.047,1.395-0.141s0.641-0.236,0.844-0.428s0.344-0.436,0.422-0.732s0.117-0.648,0.117-1.055v-2.777
		c0-0.656,0.078-1.248,0.234-1.775s0.412-0.977,0.768-1.348s0.816-0.656,1.383-0.855s1.26-0.299,2.08-0.299h0.867v1.641h-0.691
		c-1.813,0-2.719,0.879-2.719,2.637v2.73c0,1.906-0.824,2.98-2.473,3.223c1.664,0.164,2.496,1.234,2.496,3.211v4.008
		c0,1.789,0.898,2.684,2.695,2.684h0.691V78.352z"/>
	<path d="M274.551,56.578h0.867c1.508,0,2.629,0.354,3.363,1.061s1.102,1.779,1.102,3.217v2.707c0,0.383,0.043,0.725,0.129,1.025
		s0.236,0.555,0.451,0.762s0.502,0.365,0.861,0.475s0.809,0.164,1.348,0.164h0.504v1.629h-0.504c-0.57,0-1.037,0.047-1.4,0.141
		s-0.646,0.236-0.85,0.428s-0.344,0.436-0.422,0.732s-0.117,0.648-0.117,1.055v4.102c0,0.656-0.078,1.248-0.234,1.775
		s-0.41,0.977-0.762,1.348s-0.813,0.656-1.383,0.855s-1.266,0.299-2.086,0.299h-0.867v-1.641h0.703c1.805,0,2.707-0.879,2.707-2.637
		V70.02c0-1.906,0.824-2.977,2.473-3.211c-1.664-0.18-2.496-1.254-2.496-3.223v-2.684c0-1.789-0.895-2.684-2.684-2.684h-0.703
		V56.578z"/>
</g>
<g>
	<path d="M302.133,48.523l-1.277,1.289l-7.875-6.574l7.875-6.574l1.277,1.301l-6.387,5.25L302.133,48.523z"/>
	<path d="M315.415,37.965l1.266-1.301l7.875,6.574l-7.875,6.574l-1.266-1.289l6.387-5.262L315.415,37.965z"/>
</g>
<g>
	<path d="M309.453,97.375h-2.273l-1.066-3.34h-6.375l-1.078,3.34h-2.168l5.086-15.316h2.859L309.453,97.375z M305.516,92.172
		l-2.59-8.191l-2.59,8.191H305.516z"/>
	<path d="M319.004,97.375l-0.047-1.582c-0.641,0.633-1.291,1.09-1.951,1.371s-1.354,0.422-2.08,0.422
		c-0.672,0-1.246-0.086-1.723-0.258s-0.869-0.408-1.178-0.709s-0.535-0.654-0.68-1.061s-0.217-0.848-0.217-1.324
		c0-1.18,0.439-2.104,1.318-2.771s2.178-1.002,3.896-1.002h2.438V89.43c0-0.695-0.223-1.252-0.668-1.67s-1.125-0.627-2.039-0.627
		c-0.664,0-1.318,0.074-1.963,0.223s-1.311,0.359-1.998,0.633v-1.84c0.258-0.094,0.545-0.186,0.861-0.275s0.65-0.17,1.002-0.24
		s0.719-0.127,1.102-0.17s0.77-0.064,1.16-0.064c0.711,0,1.352,0.078,1.922,0.234s1.053,0.395,1.447,0.715s0.697,0.723,0.908,1.207
		s0.316,1.055,0.316,1.711v8.109H319.004z M318.781,92.02h-2.59c-0.508,0-0.945,0.051-1.313,0.152s-0.668,0.246-0.902,0.434
		s-0.408,0.412-0.521,0.674s-0.17,0.557-0.17,0.885c0,0.227,0.035,0.443,0.105,0.65s0.184,0.391,0.34,0.551s0.359,0.287,0.609,0.381
		s0.555,0.141,0.914,0.141c0.469,0,1.006-0.143,1.611-0.428s1.244-0.736,1.916-1.354V92.02z"/>
</g>
</svg>
