<?xml version="1.0" encoding="utf-8"?>
<!-- Generator: Adobe Illustrator 20.1.0, SVG Export Plug-In . SVG Version: 6.00 Build 0)  -->
<svg version="1.1" id="Layer_1" xmlns="http://www.w3.org/2000/svg" xmlns:xlink="http://www.w3.org/1999/xlink" x="0px" y="0px"
	 viewBox="0 0 415 140" style="enable-background:new 0 0 415 140;" xml:space="preserve">
<style type="text/css">
	.st0{fill:#C7C7C7;}
	.st1{fill:#B2D7F0;}
	.st2{fill:#919191;}
	.st3{fill:#447995;}
	.st4{fill:none;stroke:#447995;stroke-width:2;stroke-miterlimit:10;}
	.st5{fill:none;stroke:#447995;stroke-width:2;stroke-miterlimit:10;stroke-dasharray:4.2976,4.2976;}
	.st6{fill:#FFFFFF;}
	.st7{fill:#E4EDF1;}
	.st8{fill:#E3E3E3;}
	.st9{fill:#5E5E5E;}
	.st10{fill:#2E2E2E;}
	.st11{fill:#7CABC2;}
	.st12{fill:#96BCCE;}
	.st13{fill:#2C3E50;}
	.st14{clip-path:url(#SVGID_2_);fill:#447995;}
	
		.st15{fill-rule:evenodd;clip-rule:evenodd;fill:none;stroke:#E3E3E3;stroke-width:1.3089;stroke-linecap:round;stroke-linejoin:round;stroke-miterlimit:10;stroke-dasharray:1.3089,2.6179;}
	.st16{fill:#5D5D5D;}
	.st17{fill:none;stroke:#909090;stroke-width:1.1744;stroke-miterlimit:10;stroke-dasharray:2.3488,3.5233;}
	.st18{fill:#395B71;}
	.st19{fill-rule:evenodd;clip-rule:evenodd;fill:#395B71;}
	.st20{fill-rule:evenodd;clip-rule:evenodd;fill:#2E2E2E;}
	.st21{fill:#2C3E58;}
	.st22{fill:#4889A8;}
	.st23{fill:#929090;}
	.st24{fill:#96BBCD;}
	.st25{fill:#3A5C71;}
	.st26{fill:#757575;}
	.st27{fill:#682A7A;}
	.st28{fill:#478AA9;}
	.st29{fill:#672A79;}
	.st30{fill:#334D63;}
	.st31{fill:#5D5F5E;}
	.st32{fill:#FAB516;}
	.st33{fill:#F5891F;}
	.st34{fill:#CB6D29;}
	.st35{opacity:0.41;fill:#929090;}
	.st36{clip-path:url(#SVGID_4_);}
	.st37{clip-path:url(#SVGID_6_);}
	.st38{fill:#FE8B0C;}
	.st39{fill:#231F20;}
	.st40{fill:#909090;}
	.st41{fill:none;stroke:#909090;stroke-miterlimit:10;stroke-dasharray:2,2;}
	.st42{fill-rule:evenodd;clip-rule:evenodd;fill:#478AA9;}
	.st43{clip-path:url(#SVGID_8_);}
	.st44{clip-path:url(#SVGID_10_);}
	.st45{fill:#7DB912;}
	.st46{fill:#3B77AD;}
	.st47{fill:#F7CD13;}
	.st48{fill:#464646;}
	.st49{fill:#929497;}
	.st50{fill:#A6A8AB;}
	.st51{fill:#2F75BB;}
	.st52{fill:none;stroke:#757575;stroke-width:0.5023;stroke-miterlimit:10;}
	.st53{fill:#ACACAC;}
	.st54{fill:#3C88C6;}
	.st55{fill:#E4CB58;}
	.st56{fill:#58595B;}
	.st57{fill:#007ACC;}
	.st58{fill:#DB58DB;}
	.st59{fill:#B4079C;}
	.st60{fill:#9A37AF;}
	.st61{fill:#721481;}
	.st62{fill:#73AA24;}
	.st63{fill:#05930C;}
	.st64{fill:#2581BF;}
	.st65{fill:#004E8C;}
	.st66{fill:#D9DCE1;}
	.st67{fill:none;stroke:#909090;stroke-width:0.9199;stroke-miterlimit:10;}
	.st68{fill:none;stroke:#909090;stroke-width:0.9494;stroke-miterlimit:10;}
	.st69{fill:none;stroke:#909090;stroke-width:0.8988;stroke-miterlimit:10;}
	.st70{fill:none;stroke:#909090;stroke-width:0.8481;stroke-miterlimit:10;}
	.st71{fill:none;stroke:#909090;stroke-width:0.7975;stroke-miterlimit:10;}
	.st72{fill:none;stroke:#909090;stroke-width:0.7469;stroke-miterlimit:10;}
	.st73{fill:none;stroke:#909090;stroke-width:0.6963;stroke-miterlimit:10;}
	.st74{fill:#CADEE6;}
	.st75{fill:none;stroke:#447995;stroke-miterlimit:10;}
	.st76{fill:#FFFFFF;stroke:#96BCCE;stroke-width:0.75;stroke-miterlimit:10;}
	.st77{clip-path:url(#SVGID_12_);}
	.st78{fill:#08BBF1;}
	.st79{fill:#0AA5E2;}
	.st80{fill:#181717;}
	.st81{fill:#F3AF21;}
	.st82{fill:none;stroke:#5D5D5D;stroke-width:0.8345;stroke-miterlimit:10;}
	.st83{fill:none;stroke:#5D5D5D;stroke-width:1.3526;stroke-miterlimit:10;}
	.st84{fill-rule:evenodd;clip-rule:evenodd;fill:#7DB912;}
	.st85{fill:#333333;}
	.st86{fill:none;stroke:#FFFFFF;stroke-width:0.2247;stroke-linecap:round;stroke-linejoin:round;stroke-miterlimit:10;}
	.st87{fill:#737374;}
	.st88{fill:#515050;}
	.st89{fill:none;stroke:#000000;stroke-width:0.4495;stroke-miterlimit:1;}
	.st90{fill:none;}
	.st91{fill:#619BB5;}
	.st92{fill:none;stroke:#395B71;stroke-width:0.234;stroke-miterlimit:10;}
	.st93{fill:#32383D;}
	.st94{fill:#00BCF2;}
	.st95{fill:#2C2737;}
	.st96{fill:#201D29;}
	.st97{fill:#22BAED;}
	.st98{fill:#221F1F;}
	.st99{clip-path:url(#SVGID_14_);}
	.st100{clip-path:url(#SVGID_16_);}
	.st101{fill:#5E615F;}
	.st102{fill:none;stroke:#767676;stroke-width:0.199;stroke-miterlimit:10;}
	.st103{fill:#699F63;}
	.st104{fill-rule:evenodd;clip-rule:evenodd;fill:#333333;}
	.st105{fill-rule:evenodd;clip-rule:evenodd;fill:#699F63;}
	.st106{clip-path:url(#XMLID_3_);}
	.st107{fill:url(#SVGID_17_);}
	.st108{fill:url(#SVGID_18_);}
	.st109{fill:url(#SVGID_19_);}
	.st110{fill:url(#SVGID_20_);}
	.st111{fill:url(#SVGID_21_);}
	.st112{fill:url(#SVGID_22_);}
	.st113{fill:#00890B;}
	.st114{fill:#B0CDDA;}
	.st115{clip-path:url(#SVGID_24_);}
	.st116{fill:#515150;}
	.st117{fill:#171717;}
	.st118{fill:#457994;}
	.st119{fill:#F16424;}
	.st120{fill:#8B6AB1;}
	.st121{fill:#5C2D91;}
	.st122{clip-path:url(#SVGID_26_);fill:#447995;}
	.st123{fill:#B8D71C;}
	.st124{fill:#2B2B2B;}
	.st125{clip-path:url(#SVGID_28_);}
	.st126{fill:#BAD80A;}
	.st127{fill:#F58B20;}
	.st128{clip-path:url(#SVGID_30_);}
	.st129{clip-path:url(#SVGID_32_);}
	.st130{fill:none;stroke:#BAD80A;stroke-width:3.0831;stroke-miterlimit:10;}
	.st131{clip-path:url(#SVGID_34_);}
	.st132{fill:#FF8C00;}
	.st133{fill:#E73F24;}
	.st134{fill:#F58B23;}
	.st135{fill:#ADADAD;}
	.st136{fill:#959595;}
	.st137{fill:#474748;}
	.st138{fill:#6D6E70;}
	.st139{fill:#1772B8;}
	.st140{fill:#767778;}
	.st141{fill:#A86527;}
	.st142{fill:#048273;}
	.st143{fill:none;stroke:#6D6E70;stroke-miterlimit:10;}
	.st144{opacity:0.3;fill:#929090;}
	.st145{fill:#8FD4EF;}
	.st146{fill:#FFFFFF;stroke:#B0CDDA;stroke-miterlimit:10;}
	.st147{fill-rule:evenodd;clip-rule:evenodd;fill:#909090;}
	.st148{fill-rule:evenodd;clip-rule:evenodd;fill:#757575;}
	.st149{fill:#FFCD49;}
	.st150{fill:#CF5BC0;}
	.st151{fill:#7953A5;}
	.st152{fill:#A3D4EF;}
	.st153{fill:#539B00;}
</style>
<g>
	<polyline class="st41" points="91.983,105.556 130.27,34.677 187.685,99.851 241.406,51.615 308.776,104.88 323.991,28.652 
		251.032,49.303 	"/>
	<line class="st41" x1="315.759" y1="104.88" x2="130.27" y2="34.677"/>
	<polyline class="st41" points="85.185,108.835 192.001,102.28 330.985,27.686 	"/>
	<line class="st41" x1="232.161" y1="49.303" x2="127.361" y2="34.677"/>
	<line class="st41" x1="298.468" y1="104.88" x2="200.218" y2="95.711"/>
	<line class="st41" x1="79.518" y1="110.034" x2="241.406" y2="51.615"/>
	<g>
		<g>
			<circle class="st42" cx="309.735" cy="104.966" r="26.409"/>
		</g>
		<g>
			<g>
				<g>
					<circle class="st6" cx="303.622" cy="104.88" r="5.154"/>
					<path class="st6" d="M308.924,109.302c-1.267,1.517-3.171,2.484-5.303,2.484c-2.107,0-3.99-0.946-5.257-2.433
						c-4.791,1.098-4.271,5.705-4.072,9.337c0.041,0.754,0.659,1.343,1.414,1.343h16.111c0.755,0,1.372-0.589,1.414-1.343
						C313.435,114.999,313.968,110.301,308.924,109.302z"/>
				</g>
			</g>
			<g>
				<defs>
					<path id="SVGID_7_" d="M302.835,98.092c4.148-0.199,7.565,3.086,7.565,6.172c0,4.64-2.776,7.48-6.017,7.48
						c-3.241,0,24.299,1.246,24.299,1.246l-2.119-26.279l-22.801,0.664L302.835,98.092z"/>
				</defs>
				<clipPath id="SVGID_2_">
					<use xlink:href="#SVGID_7_"  style="overflow:visible;"/>
				</clipPath>
				<g style="clip-path:url(#SVGID_2_);">
					<g>
						<circle class="st6" cx="316.832" cy="93.04" r="5.154"/>
						<path class="st6" d="M322.134,97.463c-1.267,1.517-3.171,2.484-5.303,2.484c-2.107,0-3.99-0.946-5.257-2.433
							c-4.791,1.098-4.271,5.705-4.072,9.337c0.041,0.754,0.659,1.343,1.414,1.343h16.111c0.755,0,1.372-0.589,1.414-1.343
							C326.645,103.16,327.179,98.462,322.134,97.463z"/>
					</g>
				</g>
			</g>
		</g>
	</g>
	<g>
		<g>
			<circle class="st42" cx="131.229" cy="34.763" r="26.409"/>
		</g>
		<g>
			<g>
				<g>
					<circle class="st6" cx="125.116" cy="34.677" r="5.154"/>
					<path class="st6" d="M130.419,39.1c-1.267,1.517-3.171,2.484-5.303,2.484c-2.107,0-3.99-0.946-5.257-2.433
						c-4.791,1.098-4.271,5.705-4.072,9.337c0.041,0.754,0.659,1.343,1.414,1.343h16.111c0.755,0,1.372-0.589,1.414-1.343
						C134.929,44.797,135.463,40.099,130.419,39.1z"/>
				</g>
			</g>
			<g>
				<defs>
					<path id="SVGID_9_" d="M124.33,27.89c4.148-0.199,7.565,3.086,7.565,6.172c0,4.64-2.776,7.48-6.017,7.48
						c-3.241,0,24.299,1.246,24.299,1.246l-2.119-26.279l-22.801,0.664L124.33,27.89z"/>
				</defs>
				<clipPath id="SVGID_4_">
					<use xlink:href="#SVGID_9_"  style="overflow:visible;"/>
				</clipPath>
				<g class="st36">
					<g>
						<circle class="st6" cx="138.326" cy="22.838" r="5.154"/>
						<path class="st6" d="M143.629,27.26c-1.267,1.517-3.171,2.484-5.303,2.484c-2.107,0-3.99-0.946-5.257-2.433
							c-4.791,1.098-4.271,5.705-4.072,9.337c0.041,0.754,0.659,1.343,1.414,1.343h16.111c0.755,0,1.372-0.589,1.414-1.343
							C148.139,32.958,148.673,28.259,143.629,27.26z"/>
					</g>
				</g>
			</g>
		</g>
	</g>
	<g>
		<circle class="st45" cx="240.592" cy="49.938" r="20.652"/>
		<g>
			<g>
				<circle class="st6" cx="240.406" cy="41.505" r="6.798"/>
				<path class="st6" d="M247.401,47.338c-1.671,2.001-4.183,3.277-6.995,3.277c-2.779,0-5.263-1.248-6.934-3.21
					c-6.319,1.448-5.634,7.526-5.371,12.316c0.055,0.994,0.869,1.771,1.865,1.771h21.251c0.995,0,1.81-0.777,1.865-1.771
					C253.351,54.853,254.055,48.656,247.401,47.338z"/>
			</g>
		</g>
	</g>
	<g>
		<circle class="st33" cx="324.177" cy="30.286" r="20.652"/>
		<g>
			<g>
				<circle class="st6" cx="323.991" cy="21.853" r="6.798"/>
				<path class="st6" d="M330.985,27.686c-1.671,2.001-4.183,3.277-6.995,3.277c-2.779,0-5.263-1.248-6.934-3.21
					c-6.319,1.448-5.634,7.526-5.371,12.316c0.055,0.994,0.869,1.771,1.865,1.771h21.251c0.995,0,1.81-0.777,1.865-1.771
					C336.935,35.201,337.639,29.004,330.985,27.686z"/>
			</g>
		</g>
	</g>
	<g>
		<circle class="st45" cx="92.169" cy="104.88" r="20.652"/>
		<g>
			<g>
				<circle class="st6" cx="91.983" cy="96.447" r="6.798"/>
				<path class="st6" d="M98.978,102.28c-1.671,2.001-4.183,3.277-6.995,3.277c-2.779,0-5.263-1.248-6.934-3.21
					c-6.319,1.448-5.634,7.526-5.371,12.316c0.055,0.994,0.869,1.771,1.865,1.771h21.251c0.995,0,1.81-0.777,1.865-1.771
					C104.927,109.795,105.631,103.598,98.978,102.28z"/>
			</g>
		</g>
	</g>
	<g>
		<circle class="st11" cx="189.348" cy="102.652" r="30.652"/>
		<g>
			<g>
				<circle class="st6" cx="189.072" cy="90.135" r="10.09"/>
				<path class="st6" d="M199.454,98.793c-2.48,2.971-6.209,4.863-10.381,4.863c-4.125,0-7.811-1.852-10.291-4.764
					c-9.379,2.149-8.362,11.17-7.971,18.28c0.081,1.475,1.29,2.629,2.768,2.629h31.542c1.478,0,2.687-1.154,2.768-2.629
					C208.284,109.947,209.329,100.749,199.454,98.793z"/>
			</g>
		</g>
	</g>
</g>
</svg>
