<?xml version="1.0" encoding="utf-8"?>
<!-- Generator: Adobe Illustrator 20.1.0, SVG Export Plug-In . SVG Version: 6.00 Build 0)  -->
<svg version="1.1" id="Layer_1" xmlns="http://www.w3.org/2000/svg" xmlns:xlink="http://www.w3.org/1999/xlink" x="0px" y="0px"
	 viewBox="0 0 415 140" style="enable-background:new 0 0 415 140;" xml:space="preserve">
<style type="text/css">
	.st0{fill:#C7C7C7;}
	.st1{fill:#B2D7F0;}
	.st2{fill:#919191;}
	.st3{fill:#447995;}
	.st4{fill:none;stroke:#447995;stroke-width:2;stroke-miterlimit:10;}
	.st5{fill:none;stroke:#447995;stroke-width:2;stroke-miterlimit:10;stroke-dasharray:4.2976,4.2976;}
	.st6{fill:#FFFFFF;}
	.st7{fill:#E4EDF1;}
	.st8{fill:#E3E3E3;}
	.st9{fill:#5E5E5E;}
	.st10{fill:#2E2E2E;}
	.st11{fill:#7CABC2;}
	.st12{fill:#96BCCE;}
	.st13{fill:#2C3E50;}
	.st14{clip-path:url(#SVGID_2_);fill:#447995;}
	
		.st15{fill-rule:evenodd;clip-rule:evenodd;fill:none;stroke:#E3E3E3;stroke-width:1.3089;stroke-linecap:round;stroke-linejoin:round;stroke-miterlimit:10;stroke-dasharray:1.3089,2.6179;}
	.st16{fill:#5D5D5D;}
	.st17{fill:none;stroke:#909090;stroke-width:1.1744;stroke-miterlimit:10;stroke-dasharray:2.3488,3.5233;}
	.st18{fill:#395B71;}
	.st19{fill-rule:evenodd;clip-rule:evenodd;fill:#395B71;}
	.st20{fill-rule:evenodd;clip-rule:evenodd;fill:#2E2E2E;}
	.st21{fill:#2C3E58;}
	.st22{fill:#4889A8;}
	.st23{fill:#929090;}
	.st24{fill:#96BBCD;}
	.st25{fill:#3A5C71;}
	.st26{fill:#757575;}
	.st27{fill:#682A7A;}
	.st28{fill:#478AA9;}
	.st29{fill:#672A79;}
	.st30{fill:#334D63;}
	.st31{fill:#5D5F5E;}
	.st32{fill:#FAB516;}
	.st33{fill:#F5891F;}
	.st34{fill:#CB6D29;}
	.st35{opacity:0.41;fill:#929090;}
	.st36{clip-path:url(#SVGID_4_);}
	.st37{clip-path:url(#SVGID_6_);}
	.st38{fill:#FE8B0C;}
	.st39{fill:#231F20;}
	.st40{fill:#909090;}
	.st41{fill:none;stroke:#909090;stroke-miterlimit:10;stroke-dasharray:2,2;}
	.st42{fill-rule:evenodd;clip-rule:evenodd;fill:#478AA9;}
	.st43{clip-path:url(#SVGID_8_);}
	.st44{clip-path:url(#SVGID_10_);}
	.st45{fill:#7DB912;}
	.st46{fill:#3B77AD;}
	.st47{fill:#F7CD13;}
	.st48{fill:#464646;}
	.st49{fill:#929497;}
	.st50{fill:#A6A8AB;}
	.st51{fill:#2F75BB;}
	.st52{fill:none;stroke:#757575;stroke-width:0.5023;stroke-miterlimit:10;}
	.st53{fill:#ACACAC;}
	.st54{fill:#3C88C6;}
	.st55{fill:#E4CB58;}
	.st56{fill:#58595B;}
	.st57{fill:#007ACC;}
	.st58{fill:#DB58DB;}
	.st59{fill:#B4079C;}
	.st60{fill:#9A37AF;}
	.st61{fill:#721481;}
	.st62{fill:#73AA24;}
	.st63{fill:#05930C;}
	.st64{fill:#2581BF;}
	.st65{fill:#004E8C;}
	.st66{fill:#D9DCE1;}
	.st67{fill:none;stroke:#909090;stroke-width:0.9199;stroke-miterlimit:10;}
	.st68{fill:none;stroke:#909090;stroke-width:0.9494;stroke-miterlimit:10;}
	.st69{fill:none;stroke:#909090;stroke-width:0.8988;stroke-miterlimit:10;}
	.st70{fill:none;stroke:#909090;stroke-width:0.8481;stroke-miterlimit:10;}
	.st71{fill:none;stroke:#909090;stroke-width:0.7975;stroke-miterlimit:10;}
	.st72{fill:none;stroke:#909090;stroke-width:0.7469;stroke-miterlimit:10;}
	.st73{fill:none;stroke:#909090;stroke-width:0.6963;stroke-miterlimit:10;}
	.st74{fill:#CADEE6;}
	.st75{fill:none;stroke:#447995;stroke-miterlimit:10;}
	.st76{fill:#FFFFFF;stroke:#96BCCE;stroke-width:0.75;stroke-miterlimit:10;}
	.st77{clip-path:url(#SVGID_12_);}
	.st78{fill:#08BBF1;}
	.st79{fill:#0AA5E2;}
	.st80{fill:#181717;}
	.st81{fill:#F3AF21;}
	.st82{fill:none;stroke:#5D5D5D;stroke-width:0.8345;stroke-miterlimit:10;}
	.st83{fill:none;stroke:#5D5D5D;stroke-width:1.3526;stroke-miterlimit:10;}
	.st84{fill-rule:evenodd;clip-rule:evenodd;fill:#7DB912;}
	.st85{fill:#333333;}
	.st86{fill:none;stroke:#FFFFFF;stroke-width:0.2247;stroke-linecap:round;stroke-linejoin:round;stroke-miterlimit:10;}
	.st87{fill:#737374;}
	.st88{fill:#515050;}
	.st89{fill:none;stroke:#000000;stroke-width:0.4495;stroke-miterlimit:1;}
	.st90{fill:none;}
	.st91{fill:#619BB5;}
	.st92{fill:none;stroke:#395B71;stroke-width:0.234;stroke-miterlimit:10;}
	.st93{fill:#32383D;}
	.st94{fill:#00BCF2;}
	.st95{fill:#2C2737;}
	.st96{fill:#201D29;}
	.st97{fill:#22BAED;}
	.st98{fill:#221F1F;}
	.st99{clip-path:url(#SVGID_14_);}
	.st100{clip-path:url(#SVGID_16_);}
	.st101{fill:#5E615F;}
	.st102{fill:none;stroke:#767676;stroke-width:0.199;stroke-miterlimit:10;}
	.st103{fill:#699F63;}
	.st104{fill-rule:evenodd;clip-rule:evenodd;fill:#333333;}
	.st105{fill-rule:evenodd;clip-rule:evenodd;fill:#699F63;}
	.st106{clip-path:url(#XMLID_3_);}
	.st107{fill:url(#SVGID_17_);}
	.st108{fill:url(#SVGID_18_);}
	.st109{fill:url(#SVGID_19_);}
	.st110{fill:url(#SVGID_20_);}
	.st111{fill:url(#SVGID_21_);}
	.st112{fill:url(#SVGID_22_);}
	.st113{fill:#00890B;}
	.st114{fill:#B0CDDA;}
	.st115{clip-path:url(#SVGID_24_);}
	.st116{fill:#515150;}
	.st117{fill:#171717;}
	.st118{fill:#457994;}
	.st119{fill:#F16424;}
	.st120{fill:#8B6AB1;}
	.st121{fill:#5C2D91;}
	.st122{clip-path:url(#SVGID_26_);fill:#447995;}
	.st123{fill:#B8D71C;}
	.st124{fill:#2B2B2B;}
	.st125{clip-path:url(#SVGID_28_);}
	.st126{fill:#BAD80A;}
	.st127{fill:#F58B20;}
	.st128{clip-path:url(#SVGID_30_);}
	.st129{clip-path:url(#SVGID_32_);}
	.st130{fill:none;stroke:#BAD80A;stroke-width:3.0831;stroke-miterlimit:10;}
	.st131{clip-path:url(#SVGID_34_);}
	.st132{fill:#FF8C00;}
	.st133{fill:#E73F24;}
	.st134{fill:#F58B23;}
	.st135{fill:#ADADAD;}
	.st136{fill:#959595;}
	.st137{fill:#474748;}
	.st138{fill:#6D6E70;}
	.st139{fill:#1772B8;}
	.st140{fill:#767778;}
	.st141{fill:#A86527;}
	.st142{fill:#048273;}
	.st143{fill:none;stroke:#6D6E70;stroke-miterlimit:10;}
	.st144{opacity:0.3;fill:#929090;}
	.st145{fill:#8FD4EF;}
	.st146{fill:#FFFFFF;stroke:#B0CDDA;stroke-miterlimit:10;}
	.st147{fill-rule:evenodd;clip-rule:evenodd;fill:#909090;}
	.st148{fill-rule:evenodd;clip-rule:evenodd;fill:#757575;}
	.st149{fill:#FFCD49;}
	.st150{fill:#CF5BC0;}
	.st151{fill:#7953A5;}
	.st152{fill:#A3D4EF;}
	.st153{fill:#539B00;}
</style>
<g>
	<path class="st1" d="M293.672,111.061h-98.805c-9.465,0-15.431-0.074-19.842-0.462c-0.28-0.024-0.566-0.05-0.852-0.083
		c-4.578-0.465-7.237-1.575-10.052-2.752l-0.521-0.22c-11.906-5.567-19.6-17.65-19.6-30.782c0-18.732,15.24-33.971,33.972-33.971
		c2.38,0,4.742,0.248,7.056,0.739c5.332-14.592,19.041-24.517,34.418-24.517c5.549,0,10.997,1.284,15.95,3.737
		c6.583-10.561,17.875-16.986,30.236-16.986c17.617,0,32.724,13.464,35.483,31.113c16.732,3.519,29.042,18.806,29.042,36.635
		c0,17.858-12.338,33.282-29.35,36.702C298.453,110.776,296.052,111.061,293.672,111.061z"/>
</g>
<circle class="st6" cx="318" cy="104" r="20"/>
<g>
	<g>
		<path class="st117" d="M296.661,59.601h-73.25c-1.818,0-3.292-1.474-3.292-3.292V15.292c0-1.818,1.474-3.292,3.292-3.292h73.25
			c1.818,0,3.292,1.474,3.292,3.292v41.017C299.954,58.127,298.48,59.601,296.661,59.601z"/>
		<rect x="222.866" y="14.513" class="st11" width="74.411" height="38.896"/>
		<rect x="222.866" y="14.513" class="st90" width="74.411" height="38.896"/>
		<polygon class="st28" points="297.188,43.209 275.746,14.513 222.866,14.513 222.866,53.409 297.188,53.409 		"/>
	</g>
	<path class="st117" d="M208.016,57.717c-0.003,0.054-0.016,0.104-0.016,0.158c0,1.75,1.375,3.168,3.071,3.168h98.719
		c1.696,0,3.071-1.418,3.071-3.168c0-0.054-0.013-0.105-0.016-0.158H208.016z"/>
</g>
<g>
	<g>
		<path class="st28" d="M318.137,83.007c-11.86,0-21.474,9.613-21.474,21.473c0,11.86,9.615,21.473,21.474,21.473
			c11.859,0,21.473-9.613,21.473-21.473C339.611,92.621,329.996,83.007,318.137,83.007z M318.137,120.521
			c-8.86,0-16.041-7.181-16.041-16.04c0-8.86,7.182-16.04,16.041-16.04c8.859,0,16.04,7.181,16.04,16.04
			C334.178,113.34,326.996,120.521,318.137,120.521z"/>
		<path class="st10" d="M322.717,101.253l3.969-7.562l-1.895-1.352l-5.712,6.35c-2.152-0.464-4.472,0.35-5.833,2.257
			c-1.826,2.559-1.232,6.112,1.326,7.938c2.559,1.826,6.113,1.232,7.939-1.327C323.886,105.634,323.889,103.145,322.717,101.253z"/>
		<polygon class="st28" points="326.933,68 309.341,68 309.341,77.056 313.997,77.056 313.997,80.16 322.017,80.16 322.017,77.056 
			326.933,77.056 		"/>
		
			<rect x="333.42" y="81.195" transform="matrix(0.7072 -0.707 0.707 0.7072 38.7784 262.2345)" class="st28" width="5.137" height="6.209"/>
	</g>
	<g>
		<defs>
			<path id="SVGID_29_" d="M294.016,104.031c0-6.686,2.721-12.735,7.115-17.104h-55.686l14.582,19.516h34.109
				C294.058,105.65,294.016,104.845,294.016,104.031z"/>
		</defs>
		<clipPath id="SVGID_2_">
			<use xlink:href="#SVGID_29_"  style="overflow:visible;"/>
		</clipPath>
		<g style="clip-path:url(#SVGID_2_);">
			<rect x="246.652" y="88.9" class="st40" width="54.162" height="2.631"/>
		</g>
		<g style="clip-path:url(#SVGID_2_);">
			<rect x="246.652" y="95.479" class="st40" width="54.162" height="2.631"/>
		</g>
		<g style="clip-path:url(#SVGID_2_);">
			<rect x="246.652" y="102.057" class="st40" width="54.162" height="2.631"/>
		</g>
	</g>
</g>
<g>
	<g>
		<g>
			<path class="st117" d="M191.389,133.668H72.924c-2.94,0-5.324-2.384-5.324-5.324V62.008c0-2.94,2.384-5.324,5.324-5.324h118.465
				c2.94,0,5.324,2.384,5.324,5.324v66.336C196.714,131.284,194.33,133.668,191.389,133.668z"/>
			<rect x="72.042" y="60.748" class="st26" width="120.342" height="62.905"/>
			<rect x="72.042" y="60.748" class="st90" width="120.342" height="62.905"/>
			<polygon class="st16" points="192.241,107.157 157.564,60.748 72.042,60.748 72.042,123.653 192.241,123.653 			"/>
		</g>
		<path class="st117" d="M48.025,130.62C48.02,130.707,48,130.789,48,130.877c0,2.83,2.223,5.123,4.966,5.123H212.62
			c2.743,0,4.966-2.294,4.966-5.123c0-0.088-0.02-0.169-0.025-0.256H48.025z"/>
	</g>
	<g>
		<defs>
			<path id="SVGID_31_" d="M210.65,118.372H62.397c0,0,27.062-7.844,39.22-20.395c22.851-23.589,48.633-19.61,63.929-1.961
				S210.65,118.372,210.65,118.372z"/>
		</defs>
		<clipPath id="SVGID_4_">
			<use xlink:href="#SVGID_31_"  style="overflow:visible;"/>
		</clipPath>
		<g class="st36">
			<line class="st130" x1="80.831" y1="117.588" x2="80.831" y2="64.64"/>
			<line class="st130" x1="87.449" y1="117.588" x2="87.449" y2="64.64"/>
			<line class="st130" x1="94.067" y1="117.588" x2="94.067" y2="64.64"/>
			<line class="st130" x1="100.686" y1="117.588" x2="100.686" y2="64.64"/>
			<line class="st130" x1="107.304" y1="117.588" x2="107.304" y2="64.64"/>
			<line class="st130" x1="113.923" y1="117.588" x2="113.923" y2="64.64"/>
			<line class="st130" x1="120.541" y1="117.588" x2="120.541" y2="64.64"/>
			<line class="st130" x1="127.16" y1="117.588" x2="127.16" y2="64.64"/>
			<line class="st130" x1="133.778" y1="117.588" x2="133.778" y2="64.64"/>
			<line class="st130" x1="140.397" y1="117.588" x2="140.397" y2="64.64"/>
			<line class="st130" x1="147.015" y1="117.588" x2="147.015" y2="64.64"/>
			<line class="st130" x1="153.633" y1="117.588" x2="153.633" y2="64.64"/>
			<line class="st130" x1="160.252" y1="117.588" x2="160.252" y2="64.64"/>
			<line class="st130" x1="166.87" y1="117.588" x2="166.87" y2="64.64"/>
			<line class="st130" x1="173.489" y1="117.588" x2="173.489" y2="64.64"/>
			<line class="st130" x1="180.107" y1="117.588" x2="180.107" y2="64.64"/>
			<line class="st130" x1="186.726" y1="117.588" x2="186.726" y2="64.64"/>
		</g>
	</g>
	<g>
		<defs>
			<path id="SVGID_33_" d="M75.34,72.485c11.766-8.236,21.179-9.413,35.298,12.158s60.792,32.161,73.734,32.945
				c12.943,0.784-110.602,2.353-110.602,2.353L75.34,72.485z"/>
		</defs>
		<clipPath id="SVGID_6_">
			<use xlink:href="#SVGID_33_"  style="overflow:visible;"/>
		</clipPath>
		<g class="st37">
			<g>
				<rect x="77.515" y="64.64" class="st132" width="1.924" height="52.948"/>
			</g>
			<g>
				<rect x="84.134" y="64.64" class="st132" width="1.924" height="52.948"/>
			</g>
			<g>
				<rect x="90.752" y="64.64" class="st132" width="1.924" height="52.948"/>
			</g>
			<g>
				<rect x="97.371" y="64.64" class="st132" width="1.924" height="52.948"/>
			</g>
			<g>
				<rect x="103.989" y="64.64" class="st132" width="1.924" height="52.948"/>
			</g>
			<g>
				<rect x="110.608" y="64.64" class="st132" width="1.924" height="52.948"/>
			</g>
			<g>
				<rect x="117.226" y="64.64" class="st132" width="1.924" height="52.948"/>
			</g>
			<g>
				<rect x="123.844" y="64.64" class="st132" width="1.924" height="52.948"/>
			</g>
			<g>
				<rect x="130.463" y="64.64" class="st132" width="1.924" height="52.948"/>
			</g>
			<g>
				<rect x="137.082" y="64.64" class="st132" width="1.924" height="52.948"/>
			</g>
			<g>
				<rect x="143.7" y="64.64" class="st132" width="1.924" height="52.948"/>
			</g>
			<g>
				<rect x="150.318" y="64.64" class="st132" width="1.924" height="52.948"/>
			</g>
			<g>
				<rect x="156.937" y="64.64" class="st132" width="1.924" height="52.948"/>
			</g>
			<g>
				<rect x="163.555" y="64.64" class="st132" width="1.924" height="52.948"/>
			</g>
			<g>
				<rect x="170.174" y="64.64" class="st132" width="1.924" height="52.948"/>
			</g>
			<g>
				<rect x="176.792" y="64.64" class="st132" width="1.924" height="52.948"/>
			</g>
			<g>
				<rect x="183.411" y="64.64" class="st45" width="1.924" height="52.948"/>
			</g>
		</g>
	</g>
</g>
<g>
	<polygon class="st133" points="238.516,28.087 241.332,31.055 241.673,30.726 238.943,27.757 238.516,28.087 	"/>
	<polygon class="st134" points="238.516,28.087 241.332,31.055 241.673,30.726 238.943,27.757 238.516,28.087 	"/>
	<polygon class="st135" points="240.052,27.262 241.844,29.406 242.356,28.994 240.479,26.85 240.052,27.262 	"/>
	<polygon class="st135" points="241.417,26.19 243.123,28.417 243.635,28.087 241.929,25.861 241.417,26.19 	"/>
	<polygon class="st135" points="242.867,25.201 244.488,27.51 245,27.18 243.379,24.871 242.867,25.201 	"/>
	<polygon class="st135" points="244.403,24.294 245.854,26.685 246.365,26.355 244.915,23.964 244.403,24.294 	"/>
	<polygon class="st133" points="245.768,23.139 247.731,26.685 248.242,26.438 246.28,22.892 245.768,23.139 	"/>
	<polygon class="st134" points="245.768,23.139 247.731,26.685 248.242,26.438 246.28,22.892 245.768,23.139 	"/>
	<polygon class="st135" points="247.475,22.645 248.754,25.118 249.266,24.871 248.072,22.397 247.475,22.645 	"/>
	<polygon class="st135" points="249.096,21.985 250.205,24.541 250.802,24.294 249.693,21.738 249.096,21.985 	"/>
	<polygon class="st135" points="250.802,21.325 251.74,23.964 252.338,23.717 251.314,21.16 250.802,21.325 	"/>
	<polygon class="st135" points="252.508,20.831 253.276,23.469 253.873,23.304 253.02,20.666 252.508,20.831 	"/>
	<polygon class="st133" points="254.129,20.088 255.153,23.882 255.665,23.799 254.641,19.924 254.129,20.088 	"/>
	<polygon class="st134" points="254.129,20.088 255.153,23.882 255.665,23.799 254.641,19.924 254.129,20.088 	"/>
	<polygon class="st135" points="255.921,19.924 256.518,22.645 257.115,22.562 256.518,19.841 255.921,19.924 	"/>
	<polygon class="st135" points="257.713,19.676 258.054,22.397 258.736,22.315 258.31,19.594 257.713,19.676 	"/>
	<polygon class="st135" points="259.419,19.429 259.76,22.15 260.357,22.15 260.101,19.429 259.419,19.429 	"/>
	<polygon class="st135" points="261.211,19.346 261.381,22.067 261.978,22.067 261.808,19.264 261.211,19.346 	"/>
	<polygon class="st133" points="263.002,22.975 263.599,22.975 263.599,19.016 263.087,19.016 263.002,22.975 	"/>
	<polygon class="st134" points="263.002,22.975 263.599,22.975 263.599,19.016 263.087,19.016 263.002,22.975 	"/>
	<polygon class="st135" points="264.623,22.067 265.22,22.067 265.391,19.346 264.794,19.346 264.623,22.067 	"/>
	<polygon class="st135" points="266.244,22.15 266.841,22.232 267.183,19.511 266.585,19.429 266.244,22.15 	"/>
	<polygon class="st135" points="267.865,22.397 268.462,22.48 268.974,19.759 268.377,19.676 267.865,22.397 	"/>
	<polygon class="st135" points="269.486,22.645 270.083,22.727 270.681,20.088 270.083,19.924 269.486,22.645 	"/>
	<polygon class="st133" points="270.937,23.882 271.449,23.964 272.472,20.171 271.96,20.088 270.937,23.882 	"/>
	<polygon class="st134" points="270.937,23.882 271.449,23.964 272.472,20.171 271.96,20.088 270.937,23.882 	"/>
	<polygon class="st135" points="272.728,23.387 273.24,23.552 274.179,20.913 273.581,20.748 272.728,23.387 	"/>
	<polygon class="st135" points="275.288,21.325 274.264,23.882 274.861,24.129 275.8,21.49 275.288,21.325 	"/>
	<polygon class="st135" points="276.909,21.903 275.8,24.459 276.312,24.706 277.506,22.15 276.909,21.903 	"/>
	<polygon class="st135" points="278.53,22.645 277.25,25.118 277.847,25.366 279.127,22.892 278.53,22.645 	"/>
	<polygon class="st133" points="280.321,23.139 278.274,26.603 278.786,26.85 280.748,23.387 280.321,23.139 	"/>
	<polygon class="st134" points="280.321,23.139 278.274,26.603 278.786,26.85 280.748,23.387 280.321,23.139 	"/>
	<polygon class="st135" points="281.687,24.211 280.151,26.603 280.663,26.85 282.198,24.541 281.687,24.211 	"/>
	<polygon class="st135" points="283.137,25.118 281.516,27.427 282.028,27.757 283.649,25.448 283.137,25.118 	"/>
	<polygon class="st135" points="284.673,26.108 282.881,28.334 283.393,28.664 285.099,26.52 284.673,26.108 	"/>
	<polygon class="st135" points="286.038,27.18 284.161,29.324 284.673,29.654 286.464,27.592 286.038,27.18 	"/>
	<polygon class="st133" points="287.573,28.087 284.758,30.973 285.185,31.385 288,28.417 287.573,28.087 	"/>
	<polygon class="st134" points="287.573,28.087 284.758,30.973 285.185,31.385 288,28.417 287.573,28.087 	"/>
	<path class="st7" d="M278.018,28.252c-0.171-0.082-0.341-0.165-0.512-0.247c-0.085,0-0.171-0.082-0.171-0.082
		c-0.171-0.082-0.341-0.165-0.512-0.247c-11.603-5.525-26.021-3.628-35.662,5.69c12.797,12.369,12.797,12.369,12.797,12.369
		c3.157-3.051,7.593-4.205,11.688-3.381c0.682,0.082,1.28,0.247,1.962,0.495c0.256,0.082,0.512,0.165,0.768,0.33
		c1.365,0.577,2.73,1.402,3.839,2.556c12.797-12.369,12.797-12.369,12.797-12.369C282.881,31.303,280.492,29.654,278.018,28.252
		L278.018,28.252z"/>
	<path class="st6" d="M251.484,27.84c-0.085,0-0.085,0-0.085,0c-0.171,0.082-0.256,0.165-0.427,0.165
		c0,0.082-0.085,0.082-0.171,0.082c-0.085,0.082-0.256,0.165-0.427,0.247c-1.195,0.577-2.389,1.237-3.583,2.061
		c1.792-0.412,3.754-0.742,5.802-0.989c0.682-0.082,0.682-0.082,0.682-0.082c2.986-0.412,6.058-0.577,9.385-0.577
		c6.484,0,12.542,0.742,17.319,1.979c-8.02-5.69-19.026-6.762-28.069-3.051L251.484,27.84z"/>
	<path class="st136" d="M268.718,42.6c9.3-14.348,9.3-14.348,9.3-14.348c-0.171-0.082-0.341-0.165-0.512-0.247
		c-1.877,2.556-1.877,2.556-1.877,2.556c-8.02,12.286-8.02,12.286-8.02,12.286c0.256,0.082,0.512,0.165,0.768,0.33L268.718,42.6z"/>
	<path class="st134" d="M277.335,27.922c-0.171-0.082-0.341-0.165-0.512-0.247c-11.176,14.678-11.176,14.678-11.176,14.678
		c-2.73,3.546-2.73,3.546-2.73,3.546c-0.085-0.082-0.256-0.082-0.341-0.082c-1.792,0-3.242,1.402-3.242,3.133
		c0,1.649,1.45,3.051,3.242,3.051c1.706,0,3.157-1.402,3.157-3.051c0-0.825-0.256-1.484-0.768-2.061
		c2.645-4.04,2.645-4.04,2.645-4.04L277.335,27.922z"/>
</g>
</svg>
