<svg id="Layer_2" data-name="Layer 2" xmlns="http://www.w3.org/2000/svg" viewBox="0 0 400 140">
  <defs>
    <style>
      .cls-1 {
        fill: #2e2e2e;
      }

      .cls-2 {
        fill: #96bcce;
      }

      .cls-3 {
        fill: #5d5f5e;
      }

      .cls-4, .cls-9 {
        fill: #fff;
      }

      .cls-4 {
        opacity: 0.25;
      }

      .cls-5 {
        fill: #757575;
      }

      .cls-6 {
        fill: #00599c;
      }

      .cls-7 {
        fill: #004482;
      }

      .cls-8 {
        fill: #659ad2;
      }
    </style>
  </defs>
  <title>vs_gaming-4</title>
  <g>
    <g>
      <rect class="cls-1" x="138.2" y="31" width="125" height="86" rx="2.16" ry="2.16"/>
      <rect class="cls-2" x="146" y="37" width="110" height="74"/>
      <polygon class="cls-3" points="258.07 74.61 260.95 74.97 260.95 72.03 258.07 72.39 258.07 74.61"/>
      <polygon class="cls-4" points="255.81 82.61 255.81 37 206 37 255.81 82.61"/>
    </g>
    <g>
      <path class="cls-1" d="M276.13,127c-2.72.61-7.34,1.18-15.59,1.18s-14.34-.59-16.66-1.18-3.88-2-3.88-4.14V54c0-2.21,1.48-3.55,4-3.92a133.89,133.89,0,0,1,16.45-1A97.77,97.77,0,0,1,276,50c2.69.42,4,1.8,4,4v68.8C280,125,278.84,126.4,276.13,127Z"/>
      <rect class="cls-2" x="242" y="58" width="36" height="62"/>
      <circle class="cls-5" cx="259.4" cy="52.9" r="0.78"/>
      <circle class="cls-5" cx="247.14" cy="53.51" r="0.62"/>
      <polygon class="cls-4" points="278 88.61 278 58 244.56 58 278 88.61"/>
    </g>
  </g>
  <g>
    <path class="cls-6" d="M165.21,61a5.49,5.49,0,0,0,.79-2.64V28.77a5.49,5.49,0,0,0-.79-2.64l-3.64-.27-27.68,15.5-2.21,7.75,30.11,14.3Z"/>
    <path class="cls-7" d="M137.68,77.82,163.32,63a5.49,5.49,0,0,0,1.9-2L135,43.57,104.79,61a5.49,5.49,0,0,0,1.9,2l25.63,14.8A6,6,0,0,0,137.68,77.82Z"/>
    <path class="cls-8" d="M165.21,26.13a5.5,5.5,0,0,0-1.9-2L137.68,9.33a6,6,0,0,0-5.37,0l-25.63,14.8A6,6,0,0,0,104,28.77v29.6a5.49,5.49,0,0,0,.79,2.64L135,43.57Z"/>
    <path class="cls-9" d="M135,64.24a20.67,20.67,0,1,1,17.9-31L144,38.41a10.33,10.33,0,1,0,0,10.33l8.94,5.18A20.74,20.74,0,0,1,135,64.24Z"/>
    <polygon class="cls-9" points="155.48 42.38 152.71 42.38 152.71 39.62 150.5 39.62 150.5 42.38 147.73 42.38 147.73 44.6 150.5 44.6 150.5 47.37 152.71 47.37 152.71 44.6 155.48 44.6 155.48 42.38"/>
    <polygon class="cls-9" points="164.34 42.38 161.57 42.38 161.57 39.62 159.36 39.62 159.36 42.38 156.59 42.38 156.59 44.6 159.36 44.6 159.36 47.37 161.57 47.37 161.57 44.6 164.34 44.6 164.34 42.38"/>
  </g>
</svg>
