<?xml version="1.0" encoding="utf-8"?>
<!-- Generator: Adobe Illustrator 20.1.0, SVG Export Plug-In . SVG Version: 6.00 Build 0)  -->
<svg version="1.1" id="Layer_1" xmlns="http://www.w3.org/2000/svg" xmlns:xlink="http://www.w3.org/1999/xlink" x="0px" y="0px"
	 viewBox="0 0 200 144" style="enable-background:new 0 0 200 144;" xml:space="preserve">
<style type="text/css">
	.st0{fill:#E4EDF1;}
	.st1{fill:#E3E3E3;}
	.st2{fill:#5E5E5E;}
	.st3{fill:#2E2E2E;}
	.st4{fill:#7CABC2;}
	.st5{fill:#96BCCE;}
	.st6{fill:#2C3E50;}
	.st7{clip-path:url(#SVGID_2_);fill:#447995;}
	.st8{fill:#FFFFFF;}
	
		.st9{fill-rule:evenodd;clip-rule:evenodd;fill:none;stroke:#E3E3E3;stroke-width:1.3089;stroke-linecap:round;stroke-linejoin:round;stroke-miterlimit:10;stroke-dasharray:1.3089,2.6179;}
	.st10{fill:#5D5D5D;}
	.st11{fill:#C7C7C7;}
	.st12{fill:none;stroke:#909090;stroke-width:1.1744;stroke-miterlimit:10;stroke-dasharray:2.3488,3.5233;}
	.st13{fill:#395B71;}
	.st14{fill-rule:evenodd;clip-rule:evenodd;fill:#395B71;}
	.st15{fill-rule:evenodd;clip-rule:evenodd;fill:#2E2E2E;}
	.st16{fill:#2C3E58;}
	.st17{fill:#447995;}
	.st18{fill:none;}
	.st19{fill:#4889A8;}
	.st20{fill:#929090;}
	.st21{fill:#96BBCD;}
	.st22{fill:#3A5C71;}
	.st23{fill:#757575;}
	.st24{fill:#682A7A;}
	.st25{fill:#478AA9;}
	.st26{fill:#672A79;}
	.st27{fill:#334D63;}
	.st28{fill:#5D5F5E;}
	.st29{fill:#FAB516;}
	.st30{fill:#F5891F;}
	.st31{fill:#CB6D29;}
	.st32{fill:#171717;}
	.st33{fill:#CADEE6;}
	.st34{opacity:0.41;fill:#929090;}
	.st35{clip-path:url(#SVGID_4_);}
	.st36{clip-path:url(#SVGID_6_);}
	.st37{fill:#FE8B0C;}
	.st38{fill:#231F20;}
	.st39{fill:#909090;}
	.st40{fill:#2E2E2E;stroke:#8F8F8F;stroke-width:0.7512;stroke-miterlimit:10;}
	.st41{fill:#8F8F8F;}
	.st42{fill:#C6C6C6;}
	.st43{fill:#777677;}
	.st44{fill:#D9DCE1;}
	.st45{clip-path:url(#SVGID_8_);}
	.st46{fill:none;stroke:#909090;stroke-miterlimit:10;stroke-dasharray:2,2;}
	.st47{fill:#ACACAC;}
	.st48{fill-rule:evenodd;clip-rule:evenodd;fill:#7CABC2;}
	.st49{fill-rule:evenodd;clip-rule:evenodd;fill:#478AA9;}
	.st50{clip-path:url(#SVGID_10_);}
	.st51{clip-path:url(#SVGID_12_);}
	.st52{fill:#7DB912;}
	.st53{fill:#B2B9C2;}
	.st54{fill:#B0CDDA;}
	.st55{clip-path:url(#SVGID_14_);fill:#333333;}
	.st56{clip-path:url(#SVGID_14_);fill:none;}
	.st57{clip-path:url(#SVGID_14_);fill:#7DB912;}
	.st58{clip-path:url(#SVGID_14_);fill:#FFFFFF;}
	.st59{clip-path:url(#SVGID_16_);fill:#333333;}
	.st60{clip-path:url(#SVGID_16_);fill:none;}
	.st61{clip-path:url(#SVGID_16_);fill:#395B71;}
	.st62{clip-path:url(#SVGID_16_);fill:#FFFFFF;}
	.st63{clip-path:url(#SVGID_16_);fill:#D1D2D2;}
	.st64{clip-path:url(#SVGID_18_);fill:#333333;}
	.st65{clip-path:url(#SVGID_18_);fill:none;}
	.st66{clip-path:url(#SVGID_18_);fill:#478AA9;}
	.st67{clip-path:url(#SVGID_18_);fill:#FFFFFF;}
	.st68{fill:#F58B20;}
	.st69{fill:#2B2B2B;}
	.st70{fill:#3B77AD;}
	.st71{fill:#F7CD13;}
	.st72{fill:#464646;}
	.st73{fill:#929497;}
	.st74{fill:#A6A8AB;}
	.st75{fill:#2F75BB;}
	.st76{fill:none;stroke:#757575;stroke-width:0.5023;stroke-miterlimit:10;}
	.st77{fill:#3C88C6;}
	.st78{fill:#E4CB58;}
	.st79{fill:#58595B;}
	.st80{fill:#007ACC;}
	.st81{fill:#E4E4E5;}
	.st82{fill:#E73F24;}
	.st83{fill:#F58B23;}
	.st84{fill:#ADADAD;}
	.st85{fill:#959595;}
	.st86{fill-rule:evenodd;clip-rule:evenodd;fill:none;stroke:#E3E3E3;stroke-width:1.1603;stroke-miterlimit:10;}
	.st87{fill-rule:evenodd;clip-rule:evenodd;fill:none;stroke:#4889A8;stroke-width:1.1603;stroke-miterlimit:10;}
	.st88{fill-rule:evenodd;clip-rule:evenodd;fill:none;stroke:#0C8A44;stroke-width:1.1603;stroke-miterlimit:10;}
	.st89{fill:#DB58DB;}
	.st90{fill:#B4079C;}
	.st91{fill:#9A37AF;}
	.st92{fill:#721481;}
	.st93{fill:#73AA24;}
	.st94{fill:#05930C;}
	.st95{fill:#2581BF;}
	.st96{fill:#004E8C;}
	.st97{fill:none;stroke:#909090;stroke-width:0.9199;stroke-miterlimit:10;}
	.st98{fill:none;stroke:#909090;stroke-width:0.9494;stroke-miterlimit:10;}
	.st99{fill:none;stroke:#909090;stroke-width:0.8988;stroke-miterlimit:10;}
	.st100{fill:none;stroke:#909090;stroke-width:0.8481;stroke-miterlimit:10;}
	.st101{fill:none;stroke:#909090;stroke-width:0.7975;stroke-miterlimit:10;}
	.st102{fill:none;stroke:#909090;stroke-width:0.7469;stroke-miterlimit:10;}
	.st103{fill:none;stroke:#909090;stroke-width:0.6963;stroke-miterlimit:10;}
	.st104{fill:none;stroke:#447995;stroke-miterlimit:10;}
	.st105{fill:#FFFFFF;stroke:#96BCCE;stroke-width:0.75;stroke-miterlimit:10;}
	.st106{clip-path:url(#SVGID_20_);}
	.st107{fill:#08BBF1;}
	.st108{fill:#0AA5E2;}
	.st109{fill:#B2D7F0;}
	.st110{fill:#181717;}
	.st111{fill:#F3AF21;}
	.st112{fill:none;stroke:#5D5D5D;stroke-width:0.8345;stroke-miterlimit:10;}
	.st113{fill:none;stroke:#5D5D5D;stroke-width:1.3526;stroke-miterlimit:10;}
	.st114{fill-rule:evenodd;clip-rule:evenodd;fill:#7DB912;}
	.st115{fill:#333333;}
	.st116{fill:none;stroke:#FFFFFF;stroke-width:0.2247;stroke-linecap:round;stroke-linejoin:round;stroke-miterlimit:10;}
	.st117{fill:#737374;}
	.st118{fill:#515050;}
	.st119{fill:none;stroke:#000000;stroke-width:0.4495;stroke-miterlimit:1;}
	.st120{fill:#619BB5;}
	.st121{fill:none;stroke:#395B71;stroke-width:0.234;stroke-miterlimit:10;}
	.st122{fill:#32383D;}
	.st123{fill:#00BCF2;}
	.st124{fill:#2C2737;}
	.st125{fill:#201D29;}
	.st126{fill:#22BAED;}
	.st127{fill:#221F1F;}
	.st128{clip-path:url(#SVGID_22_);}
	.st129{clip-path:url(#SVGID_24_);}
	.st130{fill:#5E615F;}
	.st131{fill:none;stroke:#767676;stroke-width:0.199;stroke-miterlimit:10;}
	.st132{fill:#699F63;}
	.st133{fill-rule:evenodd;clip-rule:evenodd;fill:#333333;}
	.st134{fill-rule:evenodd;clip-rule:evenodd;fill:#699F63;}
	.st135{clip-path:url(#XMLID_3_);}
	.st136{fill:url(#SVGID_25_);}
	.st137{fill:url(#SVGID_26_);}
	.st138{fill:url(#SVGID_27_);}
	.st139{fill:url(#SVGID_28_);}
	.st140{fill:url(#SVGID_29_);}
	.st141{fill:url(#SVGID_30_);}
	.st142{fill:#00890B;}
	.st143{clip-path:url(#SVGID_32_);}
	.st144{fill:#515150;}
	.st145{fill:#457994;}
	.st146{fill:#F16424;}
	.st147{fill:#8B6AB1;}
	.st148{fill:#5C2D91;}
	.st149{clip-path:url(#SVGID_34_);fill:#447995;}
</style>
<rect x="0" class="st0" width="200" height="144"/>
<g>
	<g>
		<rect x="66.532" y="43.645" class="st1" width="124.73" height="66.219"/>
		<g>
			<polygon class="st2" points="155.149,124.863 102.432,124.863 105.52,121.362 152.06,121.362 			"/>
			<path class="st3" d="M153.064,126.819c-2.355,0-46.218,0-48.457,0c-2.239,0-2.278-1.969-2.278-1.969h52.82
				C155.149,124.85,155.419,126.819,153.064,126.819z"/>
			<polygon class="st3" points="140.219,122.598 117.361,122.598 119.215,112.095 138.366,112.095 			"/>
			<path class="st3" d="M190.144,41.668H67.025c-1.573,0-2.849,1.275-2.849,2.849v65.759c0,1.573,1.275,2.849,2.849,2.849h123.119
				c1.573,0,2.849-1.275,2.849-2.849V44.517C192.993,42.943,191.717,41.668,190.144,41.668z M188.677,108.15H68.383V45.379h120.295
				V108.15z"/>
			<polygon class="st2" points="179.234,134.77 79.665,134.77 85.499,128.158 173.4,128.158 			"/>
			<polygon class="st3" points="170.095,132.762 88.805,132.762 91.659,128.93 167.24,128.93 			"/>
			<path class="st3" d="M175.296,137.229c-4.449,0-87.293,0-91.523,0c-4.23,0-4.303-2.484-4.303-2.484h99.763
				C179.234,134.745,179.745,137.229,175.296,137.229z"/>
		</g>
		<rect x="71.257" y="47.511" class="st4" width="114.744" height="57.81"/>
		<polygon class="st5" points="186.001,47.466 151.357,47.466 186.001,79.881 		"/>
		<rect x="71.257" y="47.511" class="st6" width="114.744" height="6.39"/>
		<g>
			<defs>
				<rect id="SVGID_33_" x="71.257" y="47.511" width="114.744" height="6.39"/>
			</defs>
			<clipPath id="SVGID_2_">
				<use xlink:href="#SVGID_33_"  style="overflow:visible;"/>
			</clipPath>
			<polygon class="st7" points="186.001,47.466 151.357,47.466 186.001,79.881 			"/>
		</g>
	</g>
	<g>
		<g>
			<path class="st8" d="M123.202,90.406c-7.317-3.153-10.705-11.671-7.553-18.988c3.153-7.317,11.671-10.705,18.988-7.553
				c7.317,3.153,10.705,11.671,7.553,18.988C139.037,90.171,130.519,93.559,123.202,90.406z M133.598,66.278
				c-5.987-2.58-12.956,0.193-15.536,6.179s0.192,12.956,6.179,15.536c5.987,2.58,12.956-0.193,15.536-6.179
				C142.357,75.827,139.585,68.858,133.598,66.278z"/>
		</g>
		<g>
			<g>
				
					<rect x="129.055" y="63.209" transform="matrix(0.3957 -0.9184 0.9184 0.3957 22.7088 162.2422)" class="st8" width="11.166" height="1.314"/>
			</g>
			<g>
				
					<rect x="118.139" y="88.543" transform="matrix(0.3957 -0.9184 0.9184 0.3957 -7.1542 167.5269)" class="st8" width="11.166" height="1.314"/>
			</g>
			<g>
				
					<rect x="141.19" y="76.408" transform="matrix(0.3957 -0.9184 0.9184 0.3957 10.4197 179.816)" class="st8" width="1.314" height="11.166"/>
			</g>
			<g>
				
					<rect x="115.856" y="65.492" transform="matrix(0.3957 -0.9184 0.9184 0.3957 5.1349 149.953)" class="st8" width="1.314" height="11.166"/>
			</g>
		</g>
	</g>
	<line class="st9" x1="71.824" y1="97.243" x2="112.681" y2="82.76"/>
</g>
<g>
	<circle class="st89" cx="48" cy="48" r="40"/>
	<path class="st90" d="M20.269,19.188C12.71,26.465,8,36.679,8,48c0,22.091,17.909,40,40,40c11.321,0,21.535-4.71,28.812-12.269
		L20.269,19.188z"/>
	<g>
		<path class="st8" d="M44.953,62.758c-2.594,1.219-5.555,1.828-8.883,1.828c-2.375,0-4.531-0.418-6.469-1.254
			s-3.59-1.996-4.957-3.48s-2.422-3.25-3.164-5.297s-1.113-4.281-1.113-6.703c0-2.547,0.395-4.918,1.184-7.113
			s1.918-4.102,3.387-5.719s3.246-2.887,5.332-3.809s4.426-1.383,7.02-1.383c2.859,0,5.414,0.438,7.664,1.313v3.328
			c-2.406-1.203-4.977-1.805-7.711-1.805c-2.172,0-4.102,0.375-5.789,1.125s-3.109,1.793-4.266,3.129s-2.039,2.914-2.648,4.734
			s-0.914,3.809-0.914,5.965c0,1.938,0.273,3.762,0.82,5.473s1.355,3.207,2.426,4.488s2.402,2.297,3.996,3.047
			s3.445,1.125,5.555,1.125c3.234,0,6.078-0.68,8.531-2.039V62.758z"/>
		<path class="st8" d="M54.481,47.531v6.359h-1.688v-6.359h-6.375v-1.703h6.375v-6.375h1.688v6.375h6.375v1.703H54.481z"/>
		<path class="st8" d="M72.625,47.531v6.359h-1.688v-6.359h-6.375v-1.703h6.375v-6.375h1.688v6.375H79v1.703H72.625z"/>
	</g>
</g>
</svg>
