<svg id="Layer_2" data-name="Layer 2" xmlns="http://www.w3.org/2000/svg" viewBox="0 0 400 140"><defs><style>.cls-1{fill:#2e2e2e;}.cls-2{fill:#96bcce;}.cls-3{fill:#5d5f5e;}.cls-4,.cls-8{fill:#fff;}.cls-4{opacity:0.25;}.cls-5{fill:#757575;}.cls-6{fill:#c110b9;}.cls-7{fill:#b4079c;}</style></defs><title>vs_gaming-4</title><rect class="cls-1" x="138.47" y="30.52" width="124.46" height="85.78" rx="2.16" ry="2.16"/><rect class="cls-2" x="145.81" y="36.72" width="109.92" height="73.16"/><polygon class="cls-3" points="258.07 74.61 260.95 74.97 260.95 72.03 258.07 72.39 258.07 74.61"/><polygon class="cls-4" points="255.84 82.33 255.84 36.72 206.03 36.72 255.84 82.33"/><path class="cls-1" d="M275.49,127c-2.69.61-7.27,1.18-15.45,1.18s-14.21-.59-16.51-1.18-3.85-2-3.85-4.14V54c0-2.21,1.47-3.55,3.95-3.92a131.55,131.55,0,0,1,16.3-1,96.07,96.07,0,0,1,15.45,1c2.66.42,3.94,1.8,3.94,4v68.8C279.33,125,278.19,126.4,275.49,127Z"/><rect class="cls-2" x="241.57" y="57.77" width="35.77" height="62.13"/><circle class="cls-5" cx="259.4" cy="52.9" r="0.78"/><circle class="cls-5" cx="247.14" cy="53.51" r="0.62"/><polygon class="cls-4" points="277.34 88.38 277.34 57.77 243.9 57.77 277.34 88.38"/><circle class="cls-6" cx="155.67" cy="46.82" r="35"/><path class="cls-7" d="M131.4,21.61a35,35,0,1,0,49.47,49.47Z"/><path class="cls-8" d="M153,59.73a18.07,18.07,0,0,1-7.77,1.6,14.14,14.14,0,0,1-5.66-1.1,12.6,12.6,0,0,1-4.34-3,13.59,13.59,0,0,1-2.77-4.63,17.09,17.09,0,0,1-1-5.87,18.27,18.27,0,0,1,1-6.22,14.79,14.79,0,0,1,3-5,13.7,13.7,0,0,1,4.67-3.33,15,15,0,0,1,6.14-1.21A18.39,18.39,0,0,1,153,32.06V35a14.88,14.88,0,0,0-6.75-1.58,12.36,12.36,0,0,0-5.07,1,10.5,10.5,0,0,0-3.73,2.74,12.14,12.14,0,0,0-2.32,4.14,16.35,16.35,0,0,0-.8,5.22,15.64,15.64,0,0,0,.72,4.79,11.52,11.52,0,0,0,2.12,3.93,10.07,10.07,0,0,0,3.5,2.67,11.3,11.3,0,0,0,4.86,1A15.15,15.15,0,0,0,153,57.06Z"/><path class="cls-8" d="M161.34,46.41V52h-1.48V46.41h-5.58V44.92h5.58V39.34h1.48v5.58h5.58v1.49Z"/><path class="cls-8" d="M177.21,46.41V52h-1.48V46.41h-5.58V44.92h5.58V39.34h1.48v5.58h5.58v1.49Z"/></svg>