<svg id="Layer_2" data-name="Layer 2" xmlns="http://www.w3.org/2000/svg" viewBox="0 0 400 140"><defs><style>.cls-1{fill:#2e2e2e;}.cls-2{fill:#96bcce;}.cls-3{fill:#5d5f5e;}.cls-4{fill:#fff;opacity:0.25;}.cls-5{fill:#757575;}.cls-6{fill:#e4cb58;}.cls-7{fill:#58595b;}</style></defs><title>vs_gaming-3</title><rect class="cls-1" x="128.09" y="30.52" width="124.46" height="85.78" rx="2.16" ry="2.16"/><rect class="cls-2" x="135.43" y="36.72" width="109.92" height="73.16"/><polygon class="cls-3" points="247.69 74.61 250.57 74.97 250.57 72.03 247.69 72.39 247.69 74.61"/><polygon class="cls-4" points="245.46 82.33 245.46 36.72 195.65 36.72 245.46 82.33"/><path class="cls-1" d="M265.12,127c-2.69.61-7.27,1.18-15.45,1.18s-14.21-.59-16.51-1.18-3.85-2-3.85-4.14V54c0-2.21,1.47-3.55,3.95-3.92a131.55,131.55,0,0,1,16.3-1A96.07,96.07,0,0,1,265,50c2.66.42,3.94,1.8,3.94,4v68.8C269,125,267.81,126.4,265.12,127Z"/><rect class="cls-2" x="231.19" y="57.77" width="35.77" height="62.13"/><circle class="cls-5" cx="249.02" cy="52.9" r="0.78"/><circle class="cls-5" cx="236.76" cy="53.51" r="0.62"/><polygon class="cls-4" points="266.96 88.38 266.96 57.77 233.53 57.77 266.96 88.38"/><rect class="cls-6" x="115.37" y="16.46" width="60.5" height="60.5"/><path class="cls-7" d="M142.67,44.57h5.5V64.34c0,4.94-3.31,8-7.68,8-6.92,0-8.57-5.07-8.57-5.07l4.55-2.78s1.24,2.9,3.49,2.9,2.72-1.54,2.72-4.08S142.73,44.51,142.67,44.57Z"/><path class="cls-7" d="M164.19,51.37l4.08-2.66a7.88,7.88,0,0,0-7.33-4.51c-5.5,0-8.22,3.46-8.22,8s4.28,6.94,7.15,8.15c3.07,1.3,4.61,2.41,4.61,4.26,0,1.36-1.12,2.7-3.55,2.78-3.84.12-5.5-3.52-5.5-3.52l-4.32,2.9s2.36,5.62,9.93,5.62,8.87-5.31,8.87-7.85-.89-6-6.27-8.4S158,52.6,158,51.3,159.1,49,160.88,49s3.31,2.29,3.31,2.29"/></svg>