<?xml version="1.0" encoding="utf-8"?>
<!-- Generator: Adobe Illustrator 20.1.0, SVG Export Plug-In . SVG Version: 6.00 Build 0)  -->
<svg version="1.1" id="Layer_1" xmlns="http://www.w3.org/2000/svg" xmlns:xlink="http://www.w3.org/1999/xlink" x="0px" y="0px"
	 viewBox="0 0 80 80" style="enable-background:new 0 0 80 80;" xml:space="preserve">
<style type="text/css">
	.st0{fill:#3772A4;}
	.st1{fill:#FFFFFF;}
	.st2{fill:#FFDA4B;}
	.st3{display:none;}
	.st4{display:inline;fill:#394D54;}
	.st5{fill:#73AA24;}
	.st6{fill:#05930C;}
	.st7{fill:#2581BF;}
	.st8{fill:#004E8C;}
	.st9{fill:#DB58DB;}
	.st10{fill:#B4079C;}
	.st11{fill:#9A37AF;}
	.st12{fill:#721481;}
	.st13{fill:#E4CB58;}
	.st14{fill:#58595B;}
	.st15{fill:#007ACC;}
</style>
<g transform="translate(0.000000,630.000000) scale(0.100000,-0.100000)">
	<path class="st15" d="M0,5900v-400h400h400v400v400H400H0V5900z M619.463,5936.036c33.688-3.255,55.681-12.703,75.267-32.988
		c7.365-7.873,18.286-22.223,19.175-25.651c0.254-1.016-34.54-24.381-55.619-37.46c-0.762-0.508-3.81,2.793-7.238,7.873
		c-10.286,14.984-21.079,21.46-37.587,22.603c-24.254,1.651-39.873-11.047-39.746-32.254c0-6.222,0.889-9.905,3.429-14.984
		c5.333-11.048,15.238-17.651,46.349-31.111c57.27-24.635,81.778-40.889,97.016-64c17.016-25.778,20.825-66.92,9.27-97.524
		c-12.698-33.27-44.19-55.873-88.508-63.365c-13.714-2.413-46.222-2.032-60.952,0.635c-32.127,5.714-62.603,21.587-81.397,42.413
		c-7.365,8.127-21.714,29.333-20.825,30.857c0.381,0.508,3.683,2.54,7.365,4.698c3.556,2.032,17.016,9.778,29.714,17.143
		l22.984,13.333l4.825-7.111c6.73-10.286,21.46-24.381,30.349-29.08c25.524-13.46,60.571-11.556,77.841,3.937
		c7.365,6.73,10.413,13.714,10.413,24c0,9.27-1.143,13.333-5.968,20.317c-6.222,8.889-18.921,16.381-54.984,32
		c-41.27,17.778-59.048,28.826-75.302,46.349c-9.397,10.159-18.286,26.413-21.968,40c-3.048,11.302-3.81,39.619-1.397,51.048
		C512.633,5907.695,557.217,5938.721,619.463,5936.036z M456.889,5898.476l0.254-32.762h-52.063h-52.064v-147.937v-147.937H316.19
		h-36.825v147.937v147.937h-52.063h-52.063v32.127c0,17.778,0.381,32.635,0.889,33.016c0.381,0.508,63.746,0.762,140.571,0.635
		l139.81-0.381L456.889,5898.476z"/>
</g>
</svg>
