<?xml version="1.0" encoding="utf-8"?>
<!-- Generator: Adobe Illustrator 20.1.0, SVG Export Plug-In . SVG Version: 6.00 Build 0)  -->
<svg version="1.1" id="Layer_1" xmlns="http://www.w3.org/2000/svg" xmlns:xlink="http://www.w3.org/1999/xlink" x="0px" y="0px"
	 viewBox="0 0 80 80" style="enable-background:new 0 0 80 80;" xml:space="preserve">
<style type="text/css">
	.st0{fill:#3772A4;}
	.st1{fill:#FFFFFF;}
	.st2{fill:#FFDA4B;}
	.st3{display:none;}
	.st4{display:inline;fill:#394D54;}
	.st5{fill:#73AA24;}
	.st6{fill:#05930C;}
	.st7{fill:#2581BF;}
	.st8{fill:#004E8C;}
	.st9{fill:#DB58DB;}
	.st10{fill:#B4079C;}
	.st11{fill:#9A37AF;}
	.st12{fill:#721481;}
	.st13{fill:#E4CB58;}
	.st14{fill:#58595B;}
	.st15{fill:#007ACC;}
</style>
<g>
	<g>
		<path class="st0" d="M4,39.396c0.024-0.101,0.063-0.201,0.069-0.304c0.06-1.049,0.07-2.103,0.178-3.146
			c0.353-3.398,1.133-6.662,3.259-9.433c1.647-2.148,3.811-3.446,6.502-3.797c0.377-0.049,0.761-0.069,1.142-0.069
			c8.087-0.004,16.174-0.003,24.262-0.003c0.475,0,0.475-0.001,0.476-0.475c0-0.561-0.019-1.124,0.007-1.684
			c0.017-0.345-0.104-0.427-0.432-0.426c-4.467,0.009-8.934,0.005-13.401,0.004c-1.044,0-2.089-0.009-3.133,0.005
			c-0.283,0.004-0.382-0.077-0.381-0.375c0.009-2.749-0.015-5.498,0.013-8.247c0.013-1.237,0.588-2.267,1.391-3.169
			c1.113-1.25,2.528-2.035,4.064-2.619c1.885-0.718,3.847-1.092,5.841-1.341c2.736-0.342,5.484-0.37,8.228-0.252
			c2.956,0.126,5.879,0.526,8.666,1.61c1.887,0.734,3.603,1.734,4.855,3.391c1.027,1.359,1.503,2.881,1.413,4.612
			c-0.073,1.4-0.018,2.807-0.016,4.21c0.005,2.597,0.022,5.194,0.018,7.79c-0.002,1.532,0.027,3.067-0.064,4.595
			c-0.213,3.598-1.94,6.163-5.276,7.562c-1.506,0.632-3.085,0.903-4.711,0.903c-5.732,0.002-11.464-0.006-17.196,0.003
			c-1.839,0.003-3.59,0.402-5.178,1.366c-2.102,1.276-3.305,3.221-3.97,5.548c-0.332,1.162-0.478,2.354-0.48,3.561
			c-0.005,2.597,0.001,5.194,0.001,7.791c0,0.513,0,0.511-0.522,0.514c-1.868,0.007-3.736,0.06-5.603,0.012
			c-1.901-0.048-3.554-0.807-4.989-2.045c-1.668-1.439-2.719-3.295-3.462-5.342c-0.68-1.871-1.089-3.81-1.263-5.792
			c-0.11-1.255-0.157-2.516-0.237-3.773C4.062,40.439,4.024,40.304,4,40.168C4,39.91,4,39.653,4,39.396z"/>
		<path d="M26.806,12.607c-0.001,1.788,1.409,3.226,3.162,3.225c1.733-0.001,3.163-1.443,3.166-3.194
			c0.003-1.779-1.426-3.23-3.17-3.22C28.206,9.429,26.807,10.841,26.806,12.607z"/>
		<path class="st1" d="M26.806,12.607c0.001-1.766,1.4-3.179,3.158-3.189c1.745-0.01,3.174,1.441,3.17,3.22
			c-0.003,1.751-1.433,3.192-3.166,3.194C28.215,15.833,26.805,14.395,26.806,12.607z"/>
	</g>
	<g>
		<path class="st2" d="M76,40.604c-0.024,0.101-0.063,0.201-0.069,0.304c-0.06,1.049-0.07,2.103-0.178,3.146
			c-0.353,3.398-1.133,6.662-3.259,9.433c-1.647,2.148-3.811,3.446-6.502,3.797c-0.377,0.049-0.761,0.069-1.142,0.069
			c-8.087,0.004-16.174,0.003-24.262,0.003c-0.475,0-0.475,0.001-0.476,0.475c0,0.561,0.019,1.124-0.007,1.684
			c-0.017,0.345,0.104,0.427,0.432,0.426c4.467-0.009,8.934-0.005,13.401-0.004c1.044,0,2.089,0.009,3.133-0.005
			c0.283-0.004,0.382,0.077,0.381,0.375c-0.009,2.749,0.015,5.498-0.013,8.247c-0.013,1.237-0.588,2.267-1.391,3.169
			c-1.113,1.25-2.528,2.035-4.064,2.619c-1.885,0.718-3.847,1.092-5.841,1.341c-2.736,0.342-5.484,0.37-8.228,0.252
			c-2.956-0.126-5.879-0.526-8.666-1.61c-1.887-0.734-3.603-1.734-4.855-3.391c-1.027-1.359-1.503-2.881-1.413-4.612
			c0.073-1.4,0.018-2.807,0.016-4.21c-0.005-2.597-0.022-5.194-0.018-7.79c0.002-1.532-0.027-3.067,0.064-4.595
			c0.213-3.598,1.94-6.163,5.276-7.562c1.506-0.632,3.085-0.903,4.711-0.903c5.732-0.002,11.464,0.006,17.196-0.003
			c1.839-0.003,3.59-0.402,5.178-1.366c2.102-1.276,3.305-3.221,3.97-5.548c0.332-1.162,0.478-2.354,0.48-3.561
			c0.005-2.597-0.001-5.194-0.001-7.791c0-0.513,0-0.511,0.522-0.514c1.868-0.007,3.736-0.06,5.603-0.012
			c1.901,0.048,3.554,0.807,4.989,2.045c1.668,1.439,2.719,3.295,3.462,5.342c0.68,1.871,1.089,3.81,1.263,5.792
			c0.11,1.255,0.157,2.516,0.237,3.773c0.009,0.137,0.046,0.273,0.071,0.409C76,40.09,76,40.347,76,40.604z"/>
		<path d="M53.194,66.986c0.001-1.788-1.409-3.226-3.162-3.225c-1.733,0.001-3.163,1.443-3.166,3.194
			c-0.003,1.779,1.426,3.23,3.17,3.22C51.794,70.165,53.193,68.752,53.194,66.986z"/>
		<path class="st1" d="M53.194,66.986c-0.001,1.766-1.4,3.179-3.158,3.189c-1.745,0.01-3.174-1.441-3.17-3.22
			c0.003-1.751,1.433-3.192,3.166-3.194C51.785,63.76,53.195,65.199,53.194,66.986z"/>
	</g>
</g>
</svg>
