<?xml version="1.0" encoding="utf-8"?>
<!-- Generator: Adobe Illustrator 20.1.0, SVG Export Plug-In . SVG Version: 6.00 Build 0)  -->
<svg version="1.1" id="Layer_1" xmlns="http://www.w3.org/2000/svg" xmlns:xlink="http://www.w3.org/1999/xlink" x="0px" y="0px"
	 viewBox="0 0 80 80" style="enable-background:new 0 0 80 80;" xml:space="preserve">
<style type="text/css">
	.st0{fill:#3772A4;}
	.st1{fill:#FFFFFF;}
	.st2{fill:#FFDA4B;}
	.st3{display:none;}
	.st4{display:inline;fill:#394D54;}
	.st5{fill:#73AA24;}
	.st6{fill:#05930C;}
	.st7{fill:#2581BF;}
	.st8{fill:#004E8C;}
	.st9{fill:#DB58DB;}
	.st10{fill:#B4079C;}
	.st11{fill:#9A37AF;}
	.st12{fill:#721481;}
	.st13{fill:#E4CB58;}
	.st14{fill:#58595B;}
	.st15{fill:#007ACC;}
</style>
<g>
	<circle class="st7" cx="40" cy="40" r="40"/>
	<path class="st8" d="M12.269,11.188C4.71,18.465,0,28.679,0,40c0,22.091,17.909,40,40,40c11.321,0,21.535-4.71,28.812-12.269
		L12.269,11.188z"/>
	<g>
		<path class="st1" d="M28.821,55.845h-3.047L13.54,22.236h3.492l9.516,26.859c0.171,0.5,0.324,1.004,0.457,1.512
			c0.132,0.508,0.238,1.035,0.316,1.582h0.094c0.078-0.438,0.188-0.918,0.328-1.441s0.32-1.09,0.539-1.699l9.914-26.813h3.375
			L28.821,55.845z"/>
		<path class="st1" d="M46.609,55.845V22.236h9.187c1.391,0,2.645,0.188,3.762,0.563s2.07,0.902,2.859,1.582
			s1.395,1.496,1.816,2.449s0.633,2,0.633,3.141c0,0.969-0.133,1.875-0.398,2.719s-0.648,1.613-1.148,2.309s-1.113,1.297-1.84,1.805
			s-1.551,0.91-2.473,1.207v0.094c1.125,0.109,2.148,0.383,3.07,0.82s1.711,1.008,2.367,1.711s1.164,1.527,1.523,2.473
			s0.539,1.98,0.539,3.105c0,1.422-0.258,2.723-0.773,3.902s-1.238,2.195-2.168,3.047s-2.035,1.512-3.316,1.98
			s-2.695,0.703-4.242,0.703H46.609z M49.727,25.095v11.93h4.359c1.141,0,2.172-0.148,3.094-0.445s1.711-0.727,2.367-1.289
			s1.16-1.242,1.512-2.039s0.527-1.695,0.527-2.695c0-3.641-2.266-5.461-6.797-5.461H49.727z M49.727,39.837v13.172h5.789
			c2.484,0,4.395-0.582,5.73-1.746s2.004-2.816,2.004-4.957c0-4.313-2.93-6.469-8.789-6.469H49.727z"/>
	</g>
</g>
</svg>
