<?xml version="1.0" encoding="utf-8"?>
<!-- Generator: Adobe Illustrator 20.1.0, SVG Export Plug-In . SVG Version: 6.00 Build 0)  -->
<svg version="1.1" id="Layer_1" xmlns="http://www.w3.org/2000/svg" xmlns:xlink="http://www.w3.org/1999/xlink" x="0px" y="0px"
	 viewBox="0 0 80 80" style="enable-background:new 0 0 80 80;" xml:space="preserve">
<style type="text/css">
	.st0{fill:#3772A4;}
	.st1{fill:#FFFFFF;}
	.st2{fill:#FFDA4B;}
	.st3{display:none;}
	.st4{display:inline;fill:#394D54;}
	.st5{fill:#73AA24;}
	.st6{fill:#05930C;}
	.st7{fill:#2581BF;}
	.st8{fill:#004E8C;}
	.st9{fill:#DB58DB;}
	.st10{fill:#B4079C;}
	.st11{fill:#9A37AF;}
	.st12{fill:#721481;}
	.st13{fill:#E4CB58;}
	.st14{fill:#58595B;}
	.st15{fill:#007ACC;}
</style>
<g>
	<rect class="st13" width="80" height="80"/>
	<g>
		<path class="st14" d="M36.092,37.167h7.27c0,0,0,19.605,0,26.139S38.985,73.844,33.2,73.844c-9.146,0-11.334-6.698-11.334-6.698
			l6.019-3.676c0,0,1.642,3.839,4.612,3.839s3.596-2.042,3.596-5.391C36.092,58.569,36.17,37.085,36.092,37.167z"/>
		<path class="st14" d="M64.546,46.152l5.394-3.512c0,0-2.423-5.963-9.693-5.963s-10.865,4.574-10.865,10.537
			s5.661,9.18,9.458,10.783c4.065,1.715,6.097,3.186,6.097,5.636c0,1.797-1.487,3.573-4.69,3.676
			c-5.081,0.163-7.27-4.656-7.27-4.656l-5.706,3.839c0,0,3.127,7.433,13.132,7.433s11.725-7.025,11.725-10.374
			s-1.173-7.924-8.286-11.109s-7.504-4.656-7.504-6.371c0-1.715,1.485-3.022,3.83-3.022s4.377,3.022,4.377,3.022"/>
	</g>
</g>
</svg>
