<?xml version="1.0" encoding="utf-8"?>
<!-- Generator: Adobe Illustrator 20.1.0, SVG Export Plug-In . SVG Version: 6.00 Build 0)  -->
<svg version="1.1" id="Layer_1" xmlns="http://www.w3.org/2000/svg" xmlns:xlink="http://www.w3.org/1999/xlink" x="0px" y="0px"
	 viewBox="0 0 80 80" style="enable-background:new 0 0 80 80;" xml:space="preserve">
<style type="text/css">
	.st0{fill:#3772A4;}
	.st1{fill:#FFFFFF;}
	.st2{fill:#FFDA4B;}
	.st3{display:none;}
	.st4{display:inline;fill:#394D54;}
	.st5{fill:#73AA24;}
	.st6{fill:#05930C;}
	.st7{fill:#2581BF;}
	.st8{fill:#004E8C;}
	.st9{fill:#DB58DB;}
	.st10{fill:#B4079C;}
	.st11{fill:#9A37AF;}
	.st12{fill:#721481;}
	.st13{fill:#E4CB58;}
	.st14{fill:#58595B;}
	.st15{fill:#007ACC;}
</style>
<g>
	<circle class="st9" cx="40" cy="40" r="40"/>
	<path class="st10" d="M12.269,11.188C4.71,18.465,0,28.679,0,40c0,22.091,17.909,40,40,40c11.321,0,21.535-4.71,28.812-12.269
		L12.269,11.188z"/>
	<g>
		<path class="st1" d="M36.953,54.758c-2.594,1.219-5.555,1.828-8.883,1.828c-2.375,0-4.531-0.418-6.469-1.254
			s-3.59-1.996-4.957-3.48s-2.422-3.25-3.164-5.297s-1.113-4.281-1.113-6.703c0-2.547,0.395-4.918,1.184-7.113
			s1.918-4.102,3.387-5.719s3.246-2.887,5.332-3.809s4.426-1.383,7.02-1.383c2.859,0,5.414,0.438,7.664,1.313v3.328
			c-2.406-1.203-4.977-1.805-7.711-1.805c-2.172,0-4.102,0.375-5.789,1.125s-3.109,1.793-4.266,3.129s-2.039,2.914-2.648,4.734
			s-0.914,3.809-0.914,5.965c0,1.938,0.273,3.762,0.82,5.473s1.355,3.207,2.426,4.488s2.402,2.297,3.996,3.047
			s3.445,1.125,5.555,1.125c3.234,0,6.078-0.68,8.531-2.039V54.758z"/>
		<path class="st1" d="M46.481,39.531v6.359h-1.688v-6.359h-6.375v-1.703h6.375v-6.375h1.688v6.375h6.375v1.703H46.481z"/>
		<path class="st1" d="M64.625,39.531v6.359h-1.688v-6.359h-6.375v-1.703h6.375v-6.375h1.688v6.375H71v1.703H64.625z"/>
	</g>
</g>
</svg>
