<?xml version="1.0" encoding="utf-8"?>
<!-- Generator: Adobe Illustrator 20.1.0, SVG Export Plug-In . SVG Version: 6.00 Build 0)  -->
<svg version="1.1" id="Layer_1" xmlns="http://www.w3.org/2000/svg" xmlns:xlink="http://www.w3.org/1999/xlink" x="0px" y="0px"
	 viewBox="0 0 80 80" style="enable-background:new 0 0 80 80;" xml:space="preserve">
<style type="text/css">
	.st0{fill:#3772A4;}
	.st1{fill:#FFFFFF;}
	.st2{fill:#FFDA4B;}
	.st3{display:none;}
	.st4{display:inline;fill:#394D54;}
	.st5{fill:#73AA24;}
	.st6{fill:#05930C;}
	.st7{fill:#2581BF;}
	.st8{fill:#004E8C;}
	.st9{fill:#DB58DB;}
	.st10{fill:#B4079C;}
	.st11{fill:#9A37AF;}
	.st12{fill:#721481;}
	.st13{fill:#E4CB58;}
	.st14{fill:#58595B;}
	.st15{fill:#007ACC;}
</style>
<g>
	<circle class="st5" cx="40" cy="40" r="40"/>
	<path class="st6" d="M12.269,11.188C4.71,18.465,0,28.679,0,40c0,22.091,17.909,40,40,40c11.321,0,21.535-4.71,28.812-12.269
		L12.269,11.188z"/>
	<g>
		<path class="st1" d="M37.255,54.603c-2.594,1.219-5.554,1.828-8.882,1.828c-2.375,0-4.532-0.418-6.469-1.254
			c-1.938-0.836-3.59-1.996-4.957-3.48c-1.368-1.484-2.422-3.25-3.164-5.297c-0.742-2.047-1.113-4.281-1.113-6.703
			c0-2.547,0.395-4.918,1.184-7.113c0.789-2.195,1.918-4.102,3.387-5.719c1.468-1.617,3.246-2.887,5.332-3.809
			s4.425-1.383,7.02-1.383c2.859,0,5.414,0.438,7.664,1.313v3.328c-2.406-1.203-4.977-1.805-7.71-1.805
			c-2.172,0-4.102,0.375-5.789,1.125s-3.109,1.793-4.266,3.129c-1.157,1.336-2.039,2.914-2.648,4.734s-0.914,3.809-0.914,5.965
			c0,1.938,0.273,3.762,0.82,5.473c0.547,1.711,1.355,3.207,2.426,4.488c1.07,1.281,2.402,2.297,3.996,3.047
			s3.445,1.125,5.555,1.125c3.234,0,6.078-0.68,8.531-2.039V54.603z"/>
		<path class="st1" d="M66.739,33.908h-6.234l-1.641,7.57h6.633l-0.516,2.156h-6.539l-2.039,9.328h-2.414l2.016-9.328h-6.07
			l-1.992,9.328h-2.414l1.992-9.328h-6.375l0.445-2.156h6.398l1.594-7.57h-6.679l0.469-2.156h6.656l2.016-9.516h2.414l-2.016,9.516
			h6.094l2.039-9.516h2.391l-2.039,9.516h6.305L66.739,33.908z M52.02,33.908l-1.664,7.57h6.117l1.641-7.57H52.02z"/>
	</g>
</g>
</svg>
