<?xml version="1.0" encoding="utf-8"?>
<!-- Generator: Adobe Illustrator 20.1.0, SVG Export Plug-In . SVG Version: 6.00 Build 0)  -->
<svg version="1.1" id="Layer_1" xmlns="http://www.w3.org/2000/svg" xmlns:xlink="http://www.w3.org/1999/xlink" x="0px" y="0px"
	 viewBox="0 0 80 80" style="enable-background:new 0 0 80 80;" xml:space="preserve">
<style type="text/css">
	.st0{fill:#3772A4;}
	.st1{fill:#FFFFFF;}
	.st2{fill:#FFDA4B;}
	.st3{display:none;}
	.st4{display:inline;fill:#394D54;}
	.st5{fill:#73AA24;}
	.st6{fill:#05930C;}
	.st7{fill:#2581BF;}
	.st8{fill:#004E8C;}
	.st9{fill:#DB58DB;}
	.st10{fill:#B4079C;}
	.st11{fill:#9A37AF;}
	.st12{fill:#721481;}
	.st13{fill:#E4CB58;}
	.st14{fill:#58595B;}
	.st15{fill:#007ACC;}
</style>
<g>
	<circle class="st11" cx="40" cy="40" r="40"/>
	<path class="st12" d="M12.269,11.188C4.71,18.465,0,28.679,0,40c0,22.091,17.909,40,40,40c11.321,0,21.535-4.71,28.812-12.269
		L12.269,11.188z"/>
	<g>
		<path class="st1" d="M21.336,25.095v12.656h12.281v2.836H21.336v15.258h-3.117V22.236h16.383v2.859H21.336z"/>
		<path class="st1" d="M63.406,33.908h-6.234l-1.641,7.57h6.633l-0.516,2.156h-6.539l-2.039,9.328h-2.414l2.016-9.328h-6.07
			l-1.992,9.328h-2.414l1.992-9.328h-6.375l0.445-2.156h6.398l1.594-7.57h-6.68l0.469-2.156h6.656l2.016-9.516h2.414l-2.016,9.516
			h6.094l2.039-9.516h2.391l-2.039,9.516h6.305L63.406,33.908z M48.688,33.908l-1.664,7.57h6.117l1.641-7.57H48.688z"/>
	</g>
</g>
</svg>
