<svg xmlns="http://www.w3.org/2000/svg" viewBox="0 0 400 140">
  <defs>
    <style>
      .cls-1 {
        fill: #333;
      }

      .cls-2 {
        fill: #1a1a1a;
      }

      .cls-3 {
        fill: #d4dae2;
      }

      .cls-4 {
        fill: #e6e7e8;
      }

      .cls-5 {
        fill: gray;
      }

      .cls-6 {
        fill: #2e2e2e;
      }

      .cls-7 {
        fill: #999;
      }

      .cls-8 {
        fill: #acacac;
      }

      .cls-9 {
        fill: #5c2d91;
      }

      .cls-10 {
        fill: #633ba3;
      }

      .cls-11 {
        fill: #fff;
      }

      .cls-12 {
        fill: none;
      }

      .cls-13 {
        fill: #6d6e71;
      }

      .cls-14 {
        fill: #1772b8;
      }

      .cls-15 {
        fill: #f1f2f2;
      }
    </style>
  </defs>
  <title>toolsets-net-cross-platform</title>
  <g id="Illustration">
    <g>
      <g>
        <g>
          <g>
            <polygon class="cls-1" points="200.89 99.5 181.89 99.5 182.89 83.5 199.89 83.5 200.89 99.5"/>
            <polygon class="cls-2" points="200.89 98 190.89 98 190.89 85 199.89 85 200.89 98"/>
          </g>
          <g>
            <path class="cls-1" d="M233,87V83L222,54c0-3.31,13.69-17,17-17l12,12h4V19a4,4,0,0,0-4-4H130a4,4,0,0,0-4,4V47.87l4-.19L148,37l10-1c2.23,0,7,11.76,7,14L152,83v4Z"/>
            <path class="cls-3" d="M233,83V55a6,6,0,0,1,6-6h12V19H130V47.68l17.8-.83h.14A4.06,4.06,0,0,1,152,50.9V83Z"/>
            <polygon class="cls-4" points="251 49 251 19 218 19 248 49 251 49"/>
            <rect class="cls-5" x="152" y="106" width="81" height="8"/>
            <rect class="cls-6" x="152" y="108" width="81" height="4"/>
            <rect class="cls-1" x="235" y="51" width="93" height="69" rx="4" ry="4"/>
            <path class="cls-2" d="M335.89,126H227.19c-3.64,0-4.23-4-4.23-4H339.89S338.71,126,335.89,126Z"/>
            <polygon class="cls-5" points="222.95 122 234.89 118 327.89 118 339.89 122 222.95 122"/>
            <rect class="cls-3" x="238" y="54" width="87" height="55"/>
          </g>
          <path class="cls-1" d="M147.85,49,72,52.56a2.06,2.06,0,0,0-2,2V62h7.74c3-.93,6.6-2.09,7.26-1.5,1.29,1.14,11,9.17,11,11l-12,40V115l63.85,3.21a2.06,2.06,0,0,0,2.15-2.06V51A2.06,2.06,0,0,0,147.85,49Z"/>
        </g>
        <polygon class="cls-4" points="324.89 54 324.89 81 297.89 54 324.89 54"/>
        <path class="cls-3" d="M115.77,54.51,74,56.47V62h4a6,6,0,0,1,6,6v43.27l62,2.84v-61Z"/>
        <rect class="cls-1" x="52" y="64" width="30" height="56" rx="4" ry="4"/>
        <rect class="cls-3" x="54" y="72" width="26" height="41"/>
        <path class="cls-7" d="M71.27,69.5H63.73c-.4,0-.73-.45-.73-1s.33-1,.73-1h7.54c.4,0,.73.45.73,1S71.67,69.5,71.27,69.5Z"/>
        <circle class="cls-8" cx="57.89" cy="116" r="1"/>
        <circle class="cls-8" cx="75.89" cy="116" r="1"/>
        <polygon class="cls-8" points="67.89 117 65.89 116.72 65.89 115.41 67.89 115 67.89 117"/>
        <polygon class="cls-8" points="282.89 115 279.89 114.58 279.89 112.61 282.89 112 282.89 115"/>
        <polygon class="cls-4" points="80 72 80 90 62 72 80 72"/>
        <path class="cls-1" d="M217.93,103H163.07a2,2,0,0,1-2.07-2s3.5-3,3.67-3h50.72c2.11,0,4.61,3,4.61,3A2,2,0,0,1,217.93,103Z"/>
        <polygon class="cls-4" points="146 53.09 146 82.04 145.89 83 115.77 54.51 146 53.09"/>
      </g>
      <circle class="cls-9" cx="316" cy="51.5" r="31" transform="translate(56.14 238.53) rotate(-45)"/>
      <path class="cls-10" d="M337.92,29.58a31,31,0,0,1,0,43.84L294.08,29.58A31,31,0,0,1,337.92,29.58Z"/>
      <g>
        <path class="cls-11" d="M289.28,59.79a1.4,1.4,0,0,1-1.41-1.41,1.39,1.39,0,0,1,.4-1,1.43,1.43,0,0,1,1.55-.3,1.45,1.45,0,0,1,.45.29,1.41,1.41,0,0,1,.42,1,1.3,1.3,0,0,1-.12.55,1.51,1.51,0,0,1-.31.45,1.42,1.42,0,0,1-.45.3A1.39,1.39,0,0,1,289.28,59.79Z"/>
        <path class="cls-11" d="M308.94,59.5,297.28,42.64l-.43-.66a4.36,4.36,0,0,1-.34-.66h-.07c0,.18,0,.42.05.73s0,.7,0,1.17V59.5h-1.95v-21h2.15l11.47,16.66.48.74.39.64h.07q-.06-.48-.09-1.08c0-.4,0-.84,0-1.33V38.49h2v21Z"/>
        <path class="cls-11" d="M315.66,59.5v-21H325.9v1.79h-8.29V48h7.67v1.76h-7.67v8h8.76V59.5Z"/>
        <path class="cls-11" d="M336.06,40.28V59.5h-1.95V40.28h-6V38.49h14.06v1.79Z"/>
      </g>
      <rect class="cls-12" x="284" y="19.5" width="64" height="64"/>
      <g>
        <rect class="cls-13" x="150" y="25" width="2" height="2"/>
        <rect class="cls-14" x="153" y="25" width="3" height="2"/>
        <rect class="cls-13" x="158" y="25" width="30" height="2"/>
        <rect class="cls-13" x="150" y="29" width="2" height="2"/>
        <rect class="cls-14" x="153" y="29" width="3" height="2"/>
        <rect class="cls-14" x="223" y="45" width="10" height="2"/>
        <rect class="cls-13" x="158" y="29" width="18" height="2"/>
        <rect class="cls-13" x="150" y="33" width="2" height="2"/>
        <rect class="cls-14" x="153" y="33" width="3" height="2"/>
        <rect class="cls-13" x="158" y="33" width="20" height="2"/>
        <rect class="cls-13" x="150" y="37" width="2" height="2"/>
        <rect class="cls-15" x="154" y="37" width="36" height="2"/>
        <rect class="cls-15" x="154" y="41" width="36" height="2"/>
        <rect class="cls-15" x="192" y="37" width="30" height="2"/>
        <rect class="cls-15" x="154" y="45" width="24" height="2"/>
        <rect class="cls-10" x="180" y="45" width="41" height="2"/>
        <rect class="cls-10" x="191" y="49" width="41" height="2"/>
        <rect class="cls-15" x="154" y="49" width="34.9" height="2"/>
        <rect class="cls-13" x="154" y="55" width="9" height="2"/>
        <rect class="cls-13" x="154" y="59" width="20" height="2"/>
        <rect class="cls-10" x="154" y="63" width="36" height="2"/>
        <rect class="cls-10" x="154" y="67" width="36" height="2"/>
        <rect class="cls-10" x="192" y="63" width="30" height="2"/>
        <rect class="cls-13" x="154" y="71" width="24" height="2"/>
        <rect class="cls-13" x="180" y="71" width="41" height="2"/>
        <rect class="cls-13" x="154.1" y="75" width="34.9" height="2"/>
      </g>
    </g>
  </g>
</svg>
