<?xml version="1.0" encoding="utf-8"?>
<!-- Generator: Adobe Illustrator 20.1.0, SVG Export Plug-In . SVG Version: 6.00 Build 0)  -->
<svg version="1.1" id="Layer_1" xmlns="http://www.w3.org/2000/svg" xmlns:xlink="http://www.w3.org/1999/xlink" x="0px" y="0px"
	 viewBox="0 0 200 144" style="enable-background:new 0 0 200 144;" xml:space="preserve">
<style type="text/css">
	.st0{fill:#E4EDF1;}
	.st1{fill:#E3E3E3;}
	.st2{fill:#5E5E5E;}
	.st3{fill:#2E2E2E;}
	.st4{fill:#7CABC2;}
	.st5{fill:#96BCCE;}
	.st6{fill:#2C3E50;}
	.st7{clip-path:url(#SVGID_2_);fill:#447995;}
	.st8{fill:#FFFFFF;}
	
		.st9{fill-rule:evenodd;clip-rule:evenodd;fill:none;stroke:#E3E3E3;stroke-width:1.3089;stroke-linecap:round;stroke-linejoin:round;stroke-miterlimit:10;stroke-dasharray:1.3089,2.6179;}
	.st10{fill:#5D5D5D;}
	.st11{fill:#C7C7C7;}
	.st12{fill:none;stroke:#909090;stroke-width:1.1744;stroke-miterlimit:10;stroke-dasharray:2.3488,3.5233;}
	.st13{fill:#395B71;}
	.st14{fill-rule:evenodd;clip-rule:evenodd;fill:#395B71;}
	.st15{fill-rule:evenodd;clip-rule:evenodd;fill:#2E2E2E;}
	.st16{fill:#2C3E58;}
	.st17{fill:#447995;}
	.st18{fill:none;}
	.st19{fill:#4889A8;}
	.st20{fill:#929090;}
	.st21{fill:#96BBCD;}
	.st22{fill:#3A5C71;}
	.st23{fill:#757575;}
	.st24{fill:#682A7A;}
	.st25{fill:#478AA9;}
	.st26{fill:#672A79;}
	.st27{fill:#334D63;}
	.st28{fill:#5D5F5E;}
	.st29{fill:#FAB516;}
	.st30{fill:#F5891F;}
	.st31{fill:#CB6D29;}
	.st32{fill:#171717;}
	.st33{fill:#CADEE6;}
	.st34{opacity:0.41;fill:#929090;}
	.st35{clip-path:url(#SVGID_4_);}
	.st36{clip-path:url(#SVGID_6_);}
	.st37{fill:#FE8B0C;}
	.st38{fill:#231F20;}
	.st39{fill:#909090;}
	.st40{fill:#2E2E2E;stroke:#8F8F8F;stroke-width:0.7512;stroke-miterlimit:10;}
	.st41{fill:#8F8F8F;}
	.st42{fill:#C6C6C6;}
	.st43{fill:#777677;}
	.st44{fill:#D9DCE1;}
	.st45{clip-path:url(#SVGID_8_);}
	.st46{fill:none;stroke:#909090;stroke-miterlimit:10;stroke-dasharray:2,2;}
	.st47{fill:#ACACAC;}
	.st48{fill-rule:evenodd;clip-rule:evenodd;fill:#7CABC2;}
	.st49{fill-rule:evenodd;clip-rule:evenodd;fill:#478AA9;}
	.st50{clip-path:url(#SVGID_10_);}
	.st51{clip-path:url(#SVGID_12_);}
	.st52{fill:#7DB912;}
	.st53{fill:#B2B9C2;}
	.st54{fill:#B0CDDA;}
	.st55{clip-path:url(#SVGID_14_);fill:#333333;}
	.st56{clip-path:url(#SVGID_14_);fill:none;}
	.st57{clip-path:url(#SVGID_14_);fill:#7DB912;}
	.st58{clip-path:url(#SVGID_14_);fill:#FFFFFF;}
	.st59{clip-path:url(#SVGID_16_);fill:#333333;}
	.st60{clip-path:url(#SVGID_16_);fill:none;}
	.st61{clip-path:url(#SVGID_16_);fill:#395B71;}
	.st62{clip-path:url(#SVGID_16_);fill:#FFFFFF;}
	.st63{clip-path:url(#SVGID_16_);fill:#D1D2D2;}
	.st64{clip-path:url(#SVGID_18_);fill:#333333;}
	.st65{clip-path:url(#SVGID_18_);fill:none;}
	.st66{clip-path:url(#SVGID_18_);fill:#478AA9;}
	.st67{clip-path:url(#SVGID_18_);fill:#FFFFFF;}
	.st68{fill:#F58B20;}
	.st69{fill:#2B2B2B;}
	.st70{fill:#3B77AD;}
	.st71{fill:#F7CD13;}
	.st72{fill:#464646;}
	.st73{fill:#929497;}
	.st74{fill:#A6A8AB;}
	.st75{fill:#2F75BB;}
	.st76{fill:none;stroke:#757575;stroke-width:0.5023;stroke-miterlimit:10;}
	.st77{fill:#3C88C6;}
	.st78{fill:#E4CB58;}
	.st79{fill:#58595B;}
	.st80{fill:#007ACC;}
	.st81{fill:#E4E4E5;}
	.st82{fill:#E73F24;}
	.st83{fill:#F58B23;}
	.st84{fill:#ADADAD;}
	.st85{fill:#959595;}
	.st86{fill-rule:evenodd;clip-rule:evenodd;fill:none;stroke:#E3E3E3;stroke-width:1.1603;stroke-miterlimit:10;}
	.st87{fill-rule:evenodd;clip-rule:evenodd;fill:none;stroke:#4889A8;stroke-width:1.1603;stroke-miterlimit:10;}
	.st88{fill-rule:evenodd;clip-rule:evenodd;fill:none;stroke:#0C8A44;stroke-width:1.1603;stroke-miterlimit:10;}
	.st89{fill:#DB58DB;}
	.st90{fill:#B4079C;}
	.st91{fill:#9A37AF;}
	.st92{fill:#721481;}
	.st93{fill:#73AA24;}
	.st94{fill:#05930C;}
	.st95{fill:#2581BF;}
	.st96{fill:#004E8C;}
	.st97{fill:none;stroke:#909090;stroke-width:0.9199;stroke-miterlimit:10;}
	.st98{fill:none;stroke:#909090;stroke-width:0.9494;stroke-miterlimit:10;}
	.st99{fill:none;stroke:#909090;stroke-width:0.8988;stroke-miterlimit:10;}
	.st100{fill:none;stroke:#909090;stroke-width:0.8481;stroke-miterlimit:10;}
	.st101{fill:none;stroke:#909090;stroke-width:0.7975;stroke-miterlimit:10;}
	.st102{fill:none;stroke:#909090;stroke-width:0.7469;stroke-miterlimit:10;}
	.st103{fill:none;stroke:#909090;stroke-width:0.6963;stroke-miterlimit:10;}
	.st104{fill:none;stroke:#447995;stroke-miterlimit:10;}
	.st105{fill:#FFFFFF;stroke:#96BCCE;stroke-width:0.75;stroke-miterlimit:10;}
	.st106{clip-path:url(#SVGID_20_);}
	.st107{fill:#08BBF1;}
	.st108{fill:#0AA5E2;}
	.st109{fill:#B2D7F0;}
	.st110{fill:#181717;}
	.st111{fill:#F3AF21;}
	.st112{fill:none;stroke:#5D5D5D;stroke-width:0.8345;stroke-miterlimit:10;}
	.st113{fill:none;stroke:#5D5D5D;stroke-width:1.3526;stroke-miterlimit:10;}
	.st114{fill-rule:evenodd;clip-rule:evenodd;fill:#7DB912;}
	.st115{fill:#333333;}
	.st116{fill:none;stroke:#FFFFFF;stroke-width:0.2247;stroke-linecap:round;stroke-linejoin:round;stroke-miterlimit:10;}
	.st117{fill:#737374;}
	.st118{fill:#515050;}
	.st119{fill:none;stroke:#000000;stroke-width:0.4495;stroke-miterlimit:1;}
	.st120{fill:#619BB5;}
	.st121{fill:none;stroke:#395B71;stroke-width:0.234;stroke-miterlimit:10;}
	.st122{fill:#32383D;}
	.st123{fill:#00BCF2;}
	.st124{fill:#2C2737;}
	.st125{fill:#201D29;}
	.st126{fill:#22BAED;}
	.st127{fill:#221F1F;}
	.st128{clip-path:url(#SVGID_22_);}
	.st129{clip-path:url(#SVGID_24_);}
	.st130{fill:#5E615F;}
	.st131{fill:none;stroke:#767676;stroke-width:0.199;stroke-miterlimit:10;}
	.st132{fill:#699F63;}
	.st133{fill-rule:evenodd;clip-rule:evenodd;fill:#333333;}
	.st134{fill-rule:evenodd;clip-rule:evenodd;fill:#699F63;}
	.st135{clip-path:url(#XMLID_3_);}
	.st136{fill:url(#SVGID_25_);}
	.st137{fill:url(#SVGID_26_);}
	.st138{fill:url(#SVGID_27_);}
	.st139{fill:url(#SVGID_28_);}
	.st140{fill:url(#SVGID_29_);}
	.st141{fill:url(#SVGID_30_);}
	.st142{fill:#00890B;}
	.st143{clip-path:url(#SVGID_32_);}
	.st144{fill:#515150;}
	.st145{fill:#457994;}
	.st146{fill:#F16424;}
	.st147{fill:#8B6AB1;}
	.st148{fill:#5C2D91;}
	.st149{clip-path:url(#SVGID_34_);fill:#447995;}
</style>
<rect class="st0" width="200" height="144"/>
<g>
	<circle class="st89" cx="56" cy="72" r="40"/>
	<path class="st90" d="M28.269,43.188C20.71,50.465,16,60.679,16,72c0,22.091,17.909,40,40,40c11.321,0,21.535-4.71,28.812-12.269
		L28.269,43.188z"/>
	<g>
		<path class="st8" d="M52.953,86.758c-2.594,1.219-5.555,1.828-8.883,1.828c-2.375,0-4.531-0.418-6.469-1.254
			s-3.59-1.996-4.957-3.48s-2.422-3.25-3.164-5.297s-1.113-4.281-1.113-6.703c0-2.547,0.395-4.918,1.184-7.113
			s1.918-4.102,3.387-5.719s3.246-2.887,5.332-3.809s4.426-1.383,7.02-1.383c2.859,0,5.414,0.438,7.664,1.313v3.328
			c-2.406-1.203-4.977-1.805-7.711-1.805c-2.172,0-4.102,0.375-5.789,1.125s-3.109,1.793-4.266,3.129s-2.039,2.914-2.648,4.734
			s-0.914,3.809-0.914,5.965c0,1.938,0.273,3.762,0.82,5.473s1.355,3.207,2.426,4.488s2.402,2.297,3.996,3.047
			s3.445,1.125,5.555,1.125c3.234,0,6.078-0.68,8.531-2.039V86.758z"/>
		<path class="st8" d="M62.481,71.531v6.359h-1.688v-6.359h-6.375v-1.703h6.375v-6.375h1.688v6.375h6.375v1.703H62.481z"/>
		<path class="st8" d="M80.625,71.531v6.359h-1.688v-6.359h-6.375v-1.703h6.375v-6.375h1.688v6.375H87v1.703H80.625z"/>
	</g>
</g>
<g>
	<path class="st115" d="M165.36,90.853c-2.074,0.059-3.497,0-3.438,3.438c0.082,4.741,0.237,8.357-1.008,15.766
		c-1.245,7.409,0.295,10.442,5.038,10.906c5.453,0.533,7.776-3.317,12.447-6.283c3.734-2.371,8.002-5.038,10.076-6.164
		c2.074-1.126,2.252-3.438-1.363-6.164c-3.076-2.32-4.919-3.556-5.038-7.172c-0.119-3.616-1.719-4.445-3.319-2.074
		c-1.6,2.371-4.356,4.882-8.002,4.09c-2.726-0.593-3.26-2.134-3.201-3.912C167.612,91.505,166.793,90.812,165.36,90.853z"/>
	<path class="st115" d="M159.611,104.663l-1.482,11.499c0,0-5.394-0.415-8.831-0.415s-9.424,0.356-9.424,0.356l-0.296-5.038
		c0,0,5.69,1.126,11.321-1.008C156.529,107.923,159.611,104.663,159.611,104.663z"/>
	<path class="st115" d="M126.182,91.505c0,0,6.608,9.981,8.061,11.854c2.252,2.904,5.157-1.008,1.304-4.208
		C130.398,94.874,126.182,91.505,126.182,91.505z"/>
	<path class="st115" d="M107.215,97.373c4.539-1.475,5.334-0.889,9.306-5.986s5.571-2.193,8.179,1.304s9.898,14.047,11.795,16.833
		c1.897,2.786,1.837,6.994-0.652,8.95c-2.489,1.956-4.742,3.853-10.669,1.245c-5.927-2.608-13.158-3.734-15.944-4.386
		s-4.564-1.363-4.09-5.334c0.474-3.971,0.652-6.283,0.296-8.535C105.082,99.21,104.844,98.143,107.215,97.373z"/>
	
		<ellipse transform="matrix(0.909 -0.4169 0.4169 0.909 -5.3864 62.9774)" class="st115" cx="141.503" cy="43.822" rx="0.978" ry="0.445"/>
	<path class="st115" d="M168.679,89.49c-0.105,0.077-0.187,0.134-0.27,0.192c0.485,0.511,0.868,1.412,0.685,3.009
		c-0.25,2.182,1.363,3.378,3.438,3.023c3.205-0.549,5.084-3.906,5.668-5.127C174.821,88.319,169.79,88.671,168.679,89.49z"/>
	<path class="st115" d="M153.209,44.977c-0.538-0.223-1.046-0.44-1.532-0.65c2.621-1.414,2.777-4.296,0.761-5.751
		c-1.813-1.31-3.497,0.178-3.675,1.66c-0.109,0.908-0.061,1.993,0.06,2.875c-1.85-0.75-3.415-1.227-5.098-1.156
		c-0.899,0.037-2.093,0.53-3.289,1.218c0.228-4.107-0.94-5.456-2.934-4.715c-2.006,0.745-1.567,4.035,0.82,6.127
		c-0.835,0.638-1.568,1.301-2.065,1.874c-1.541,1.778-2.007,2.842,0.83,5.927c3.378,3.675,6.698,4.919,11.202,2.489
		c5.094-2.748,7.468-4.152,7.587-6.342C155.995,46.341,154.679,45.586,153.209,44.977z M151.469,39.188
		c0.2-0.169,0.645,0.027,0.994,0.439c0.349,0.412,0.471,0.883,0.271,1.053c-0.2,0.169-0.645-0.027-0.994-0.439
		C151.391,39.829,151.27,39.358,151.469,39.188z M145.106,43.377c0.074-0.234,0.552-0.291,1.067-0.128s0.872,0.486,0.797,0.72
		c-0.074,0.234-0.552,0.291-1.067,0.128C145.388,43.934,145.031,43.611,145.106,43.377z M138.607,38.981
		c0.239-0.106,0.611,0.208,0.83,0.702s0.202,0.98-0.038,1.086c-0.239,0.106-0.611-0.208-0.83-0.702
		C138.351,39.573,138.368,39.087,138.607,38.981z M153.269,48.771c-2.726,1.719-8.002,4.742-10.728,4.445s-4.86-1.304-6.223-2.608
		c-1.071-1.024-1.008-1.778,0.178-0.83c1.185,0.948,2.964,1.956,5.927,2.193c2.964,0.237,7.688-2.821,10.432-4.149
		C154.691,46.933,155.995,47.052,153.269,48.771z"/>
	<path class="st115" d="M170.457,59.084c-7.053-9.068-6.638-14.403-7.172-21.278c-0.533-6.875-3.114-18.452-18.374-17.366
		c-14.166,1.008-12.388,15.114-11.913,21.693c0.474,6.579,1.482,12.032-3.082,17.485s-9.957,15.114-11.736,19.796
		c-2.13,5.61-1.482,9.306-1.482,9.306s1.126-1.541,3.675-1.66c0.608-0.028,1.154,0.053,1.635,0.191
		c-2.059-5.688,2.371-14.632,3.878-16.55c0.652-0.83,1.008-1.304,0.474-0.119c-1.901,4.225-5.097,10.866-3.053,17.24
		c0.712,0.437,1.097,0.896,1.097,0.896s-1.067-9.602,5.394-18.789c1.668-2.372,4.86-3.201,4.86-3.201s-5.631-0.948-0.533-7.172
		c2.367-2.89,1.482-7.231,1.482-7.231s-1.778-1.008-1.778-3.556s2.371-4.09,2.371-4.09s-1.897-2.904-0.889-6.816
		c1.008-3.912,3.912-4.03,5.927-1.482c2.015,2.549,0.948,4.564,0.948,4.564h4.149c0,0-0.474-2.549,0.296-3.971
		c0.771-1.423,2.074-2.964,4.445-3.082c2.371-0.119,5.334,2.015,5.394,5.453c0.059,3.438-0.948,5.334-0.948,5.334
		s2.489,1.482,1.482,4.267c-1.008,2.786-0.652,3.201-0.296,4.09c0.356,0.889,2.845,6.342,7.29,16.714
		c4.445,10.372,3.023,19.263,3.023,19.263s0.564,0.018,1.11,0.422c0.043-0.059,0.085-0.119,0.135-0.185
		c0.192-0.256,1.037-0.718,2.256-1.007c6.046-10.838-0.945-17.876-3.234-19.56c-0.98-0.721-0.406-0.38,0.089-0.119
		c6.765,3.573,7.907,11.659,4.559,19.457c1.965-0.161,4.45,0.244,6.804,2.16c0.672,0.064,2.143,0.094,2.506-0.813
		C184.422,81.426,177.51,68.152,170.457,59.084z M153.921,28.085c-1.067,0.711-1.689-0.711-1.689-1.156
		c0-1.61,1.423-2.4,2.312-1.334C155.432,26.663,154.987,27.374,153.921,28.085z M163.108,53.631
		c-1.245,1.245-3.111,0.535-3.912-2.134c-0.356-1.185,0-1.778,1.482-1.008C162.159,51.26,164.352,52.386,163.108,53.631z"/>
</g>
</svg>
