<?xml version="1.0" encoding="utf-8"?>
<!-- Generator: Adobe Illustrator 20.1.0, SVG Export Plug-In . SVG Version: 6.00 Build 0)  -->
<svg version="1.1" id="Layer_1" xmlns="http://www.w3.org/2000/svg" xmlns:xlink="http://www.w3.org/1999/xlink" x="0px" y="0px"
	 viewBox="0 0 200 144" style="enable-background:new 0 0 200 144;" xml:space="preserve">
<style type="text/css">
	.st0{fill:#E4EDF1;}
	.st1{fill:#E3E3E3;}
	.st2{fill:#5E5E5E;}
	.st3{fill:#2E2E2E;}
	.st4{fill:#7CABC2;}
	.st5{fill:#96BCCE;}
	.st6{fill:#2C3E50;}
	.st7{clip-path:url(#SVGID_2_);fill:#447995;}
	.st8{fill:#FFFFFF;}
	
		.st9{fill-rule:evenodd;clip-rule:evenodd;fill:none;stroke:#E3E3E3;stroke-width:1.3089;stroke-linecap:round;stroke-linejoin:round;stroke-miterlimit:10;stroke-dasharray:1.3089,2.6179;}
	.st10{fill:#5D5D5D;}
	.st11{fill:#C7C7C7;}
	.st12{fill:none;stroke:#909090;stroke-width:1.1744;stroke-miterlimit:10;stroke-dasharray:2.3488,3.5233;}
	.st13{fill:#395B71;}
	.st14{fill-rule:evenodd;clip-rule:evenodd;fill:#395B71;}
	.st15{fill-rule:evenodd;clip-rule:evenodd;fill:#2E2E2E;}
	.st16{fill:#2C3E58;}
	.st17{fill:#447995;}
	.st18{fill:none;}
	.st19{fill:#4889A8;}
	.st20{fill:#929090;}
	.st21{fill:#96BBCD;}
	.st22{fill:#3A5C71;}
	.st23{fill:#757575;}
	.st24{fill:#682A7A;}
	.st25{fill:#478AA9;}
	.st26{fill:#672A79;}
	.st27{fill:#334D63;}
	.st28{fill:#5D5F5E;}
	.st29{fill:#FAB516;}
	.st30{fill:#F5891F;}
	.st31{fill:#CB6D29;}
	.st32{fill:#171717;}
	.st33{fill:#CADEE6;}
	.st34{opacity:0.41;fill:#929090;}
	.st35{clip-path:url(#SVGID_4_);}
	.st36{clip-path:url(#SVGID_6_);}
	.st37{fill:#FE8B0C;}
	.st38{fill:#231F20;}
	.st39{fill:#909090;}
	.st40{fill:#2E2E2E;stroke:#8F8F8F;stroke-width:0.7512;stroke-miterlimit:10;}
	.st41{fill:#8F8F8F;}
	.st42{fill:#C6C6C6;}
	.st43{fill:#777677;}
	.st44{fill:#D9DCE1;}
	.st45{clip-path:url(#SVGID_8_);}
	.st46{fill:none;stroke:#909090;stroke-miterlimit:10;stroke-dasharray:2,2;}
	.st47{fill:#ACACAC;}
	.st48{fill-rule:evenodd;clip-rule:evenodd;fill:#7CABC2;}
	.st49{fill-rule:evenodd;clip-rule:evenodd;fill:#478AA9;}
	.st50{clip-path:url(#SVGID_10_);}
	.st51{clip-path:url(#SVGID_12_);}
	.st52{fill:#7DB912;}
	.st53{fill:#B2B9C2;}
	.st54{fill:#B0CDDA;}
	.st55{clip-path:url(#SVGID_14_);fill:#333333;}
	.st56{clip-path:url(#SVGID_14_);fill:none;}
	.st57{clip-path:url(#SVGID_14_);fill:#7DB912;}
	.st58{clip-path:url(#SVGID_14_);fill:#FFFFFF;}
	.st59{clip-path:url(#SVGID_16_);fill:#333333;}
	.st60{clip-path:url(#SVGID_16_);fill:none;}
	.st61{clip-path:url(#SVGID_16_);fill:#395B71;}
	.st62{clip-path:url(#SVGID_16_);fill:#FFFFFF;}
	.st63{clip-path:url(#SVGID_16_);fill:#D1D2D2;}
	.st64{clip-path:url(#SVGID_18_);fill:#333333;}
	.st65{clip-path:url(#SVGID_18_);fill:none;}
	.st66{clip-path:url(#SVGID_18_);fill:#478AA9;}
	.st67{clip-path:url(#SVGID_18_);fill:#FFFFFF;}
	.st68{fill:#F58B20;}
	.st69{fill:#2B2B2B;}
	.st70{fill:#3B77AD;}
	.st71{fill:#F7CD13;}
	.st72{fill:#464646;}
	.st73{fill:#929497;}
	.st74{fill:#A6A8AB;}
	.st75{fill:#2F75BB;}
	.st76{fill:none;stroke:#757575;stroke-width:0.5023;stroke-miterlimit:10;}
	.st77{fill:#3C88C6;}
	.st78{fill:#E4CB58;}
	.st79{fill:#58595B;}
	.st80{fill:#007ACC;}
	.st81{fill:#E4E4E5;}
	.st82{fill:#E73F24;}
	.st83{fill:#F58B23;}
	.st84{fill:#ADADAD;}
	.st85{fill:#959595;}
	.st86{fill-rule:evenodd;clip-rule:evenodd;fill:none;stroke:#E3E3E3;stroke-width:1.1603;stroke-miterlimit:10;}
	.st87{fill-rule:evenodd;clip-rule:evenodd;fill:none;stroke:#4889A8;stroke-width:1.1603;stroke-miterlimit:10;}
	.st88{fill-rule:evenodd;clip-rule:evenodd;fill:none;stroke:#0C8A44;stroke-width:1.1603;stroke-miterlimit:10;}
	.st89{fill:#DB58DB;}
	.st90{fill:#B4079C;}
	.st91{fill:#9A37AF;}
	.st92{fill:#721481;}
	.st93{fill:#73AA24;}
	.st94{fill:#05930C;}
	.st95{fill:#2581BF;}
	.st96{fill:#004E8C;}
	.st97{fill:none;stroke:#909090;stroke-width:0.9199;stroke-miterlimit:10;}
	.st98{fill:none;stroke:#909090;stroke-width:0.9494;stroke-miterlimit:10;}
	.st99{fill:none;stroke:#909090;stroke-width:0.8988;stroke-miterlimit:10;}
	.st100{fill:none;stroke:#909090;stroke-width:0.8481;stroke-miterlimit:10;}
	.st101{fill:none;stroke:#909090;stroke-width:0.7975;stroke-miterlimit:10;}
	.st102{fill:none;stroke:#909090;stroke-width:0.7469;stroke-miterlimit:10;}
	.st103{fill:none;stroke:#909090;stroke-width:0.6963;stroke-miterlimit:10;}
	.st104{fill:none;stroke:#447995;stroke-miterlimit:10;}
	.st105{fill:#FFFFFF;stroke:#96BCCE;stroke-width:0.75;stroke-miterlimit:10;}
	.st106{clip-path:url(#SVGID_20_);}
	.st107{fill:#08BBF1;}
	.st108{fill:#0AA5E2;}
	.st109{fill:#B2D7F0;}
	.st110{fill:#181717;}
	.st111{fill:#F3AF21;}
	.st112{fill:none;stroke:#5D5D5D;stroke-width:0.8345;stroke-miterlimit:10;}
	.st113{fill:none;stroke:#5D5D5D;stroke-width:1.3526;stroke-miterlimit:10;}
	.st114{fill-rule:evenodd;clip-rule:evenodd;fill:#7DB912;}
	.st115{fill:#333333;}
	.st116{fill:none;stroke:#FFFFFF;stroke-width:0.2247;stroke-linecap:round;stroke-linejoin:round;stroke-miterlimit:10;}
	.st117{fill:#737374;}
	.st118{fill:#515050;}
	.st119{fill:none;stroke:#000000;stroke-width:0.4495;stroke-miterlimit:1;}
	.st120{fill:#619BB5;}
	.st121{fill:none;stroke:#395B71;stroke-width:0.234;stroke-miterlimit:10;}
	.st122{fill:#32383D;}
	.st123{fill:#00BCF2;}
	.st124{fill:#2C2737;}
	.st125{fill:#201D29;}
	.st126{fill:#22BAED;}
	.st127{fill:#221F1F;}
	.st128{clip-path:url(#SVGID_22_);}
	.st129{clip-path:url(#SVGID_24_);}
	.st130{fill:#5E615F;}
	.st131{fill:none;stroke:#767676;stroke-width:0.199;stroke-miterlimit:10;}
	.st132{fill:#699F63;}
	.st133{fill-rule:evenodd;clip-rule:evenodd;fill:#333333;}
	.st134{fill-rule:evenodd;clip-rule:evenodd;fill:#699F63;}
	.st135{clip-path:url(#XMLID_3_);}
	.st136{fill:url(#SVGID_25_);}
	.st137{fill:url(#SVGID_26_);}
	.st138{fill:url(#SVGID_27_);}
	.st139{fill:url(#SVGID_28_);}
	.st140{fill:url(#SVGID_29_);}
	.st141{fill:url(#SVGID_30_);}
	.st142{fill:#00890B;}
	.st143{clip-path:url(#SVGID_32_);}
	.st144{fill:#515150;}
	.st145{fill:#457994;}
	.st146{fill:#F16424;}
	.st147{fill:#8B6AB1;}
	.st148{fill:#5C2D91;}
	.st149{clip-path:url(#SVGID_34_);fill:#447995;}
</style>
<rect class="st0" width="200" height="144"/>
<g>
	<g>
		<path class="st39" d="M79.561,29.747V14.123c0-1.616,1.541-2.929,3.437-2.929h38.549c1.895,0,3.437,1.314,3.437,2.929v15.623
			h8.592V14.123c0-5.654-5.396-10.253-12.029-10.253H82.998c-6.633,0-12.029,4.599-12.029,10.253v15.623H79.561z"/>
		<path class="st6" d="M140.737,24.652H119.54c-1.265,0-2.29,1.025-2.29,2.29v7.106c0,1.265,1.025,2.29,2.29,2.29h21.196
			c1.265,0,2.29-1.025,2.29-2.29v-7.106C143.026,25.678,142.001,24.652,140.737,24.652z"/>
		<path class="st6" d="M86.436,24.652H65.24c-1.265,0-2.29,1.025-2.29,2.29v7.106c0,1.265,1.025,2.29,2.29,2.29h21.196
			c1.265,0,2.29-1.025,2.29-2.29v-7.106C88.726,25.678,87.7,24.652,86.436,24.652z"/>
	</g>
	<g>
		<path class="st120" d="M176.634,136H24.617c-8.487,0-15.366-6.88-15.366-15.366V44.48c0-8.487,6.88-15.366,15.366-15.366h152.017
			c8.487,0,15.366,6.88,15.366,15.366v76.154C192,129.12,185.12,136,176.634,136z"/>
		<path class="st17" d="M192,46.955v-4.843c0-7.179-6.828-12.999-15.251-12.999H24.501c-8.423,0-15.251,5.82-15.251,12.999v4.843
			H192z"/>
		<g>
			<path class="st11" d="M57.195,74.886H44.228c-1.826,0-3.371-1.15-3.618-2.692l-2.113-13.21c-0.022-0.139-0.033-0.28-0.033-0.421
				v-13.52c0-1.719,1.635-3.112,3.652-3.112h17.184c2.017,0,3.652,1.394,3.652,3.112v13.882c0,0.144-0.012,0.288-0.035,0.43
				l-2.103,12.849C60.56,73.741,59.017,74.886,57.195,74.886z"/>
			<g>
				<path class="st27" d="M54.358,64.321h-7.589c-1.457,0-2.64-1.01-2.64-2.251V46.812c0-1.242,1.184-2.251,2.64-2.251h7.589
					c1.457,0,2.641,1.009,2.641,2.251v15.257C56.999,63.311,55.815,64.321,54.358,64.321z M46.769,46.622
					c-0.123,0-0.223,0.085-0.223,0.19v15.257c0,0.105,0.1,0.191,0.223,0.191h7.589c0.123,0,0.224-0.086,0.224-0.191V46.812
					c0-0.105-0.101-0.19-0.224-0.19H46.769z"/>
			</g>
			<rect x="46.625" y="59.09" class="st23" width="8.162" height="12.134"/>
			<rect x="46.625" y="46.622" class="st23" width="8.162" height="10.443"/>
		</g>
		<g>
			<path class="st11" d="M161.329,74.886h-12.967c-1.826,0-3.371-1.15-3.618-2.692l-2.113-13.21
				c-0.022-0.139-0.033-0.28-0.033-0.421v-13.52c0-1.719,1.635-3.112,3.652-3.112h17.184c2.017,0,3.652,1.394,3.652,3.112v13.882
				c0,0.144-0.012,0.288-0.035,0.43l-2.103,12.849C164.693,73.741,163.15,74.886,161.329,74.886z"/>
			<g>
				<path class="st27" d="M158.492,64.321h-7.589c-1.457,0-2.64-1.01-2.64-2.251V46.812c0-1.242,1.184-2.251,2.64-2.251h7.589
					c1.457,0,2.641,1.009,2.641,2.251v15.257C161.133,63.311,159.948,64.321,158.492,64.321z M150.902,46.622
					c-0.123,0-0.223,0.085-0.223,0.19v15.257c0,0.105,0.1,0.191,0.223,0.191h7.589c0.123,0,0.224-0.086,0.224-0.191V46.812
					c0-0.105-0.101-0.19-0.224-0.19H150.902z"/>
			</g>
			<rect x="150.759" y="59.09" class="st23" width="8.162" height="12.134"/>
			<rect x="150.759" y="46.622" class="st23" width="8.162" height="10.443"/>
		</g>
		<path class="st17" d="M9.251,118.36v4.641c0,7.179,6.828,12.999,15.251,12.999h152.248c8.423,0,15.251-5.82,15.251-12.999v-4.641
			H9.251z"/>
	</g>
</g>
<path class="st115" d="M117.16,51.781l-23.528,23.87l-15.51-12.139L72,66.685v30.32l6.923,3.077l14.592-11.514l23.101,23.566
	L132,105.98V58.031L117.16,51.781z M78.41,91.093V73.159l8.814,8.992L78.41,91.093z M101.791,82.037l14.824-11.698v23.3
	L101.791,82.037z"/>
</svg>
