<svg id="Layer_1" data-name="Layer 1" xmlns="http://www.w3.org/2000/svg" viewBox="0 0 400 140"><defs><style>.cls-1{fill:#b4079c;}.cls-2{fill:#fff;}.cls-3{fill:#444;}</style></defs><title>vs_tools-2</title><polygon class="cls-1" points="229.02 103 202.02 56 229.02 9 283.02 9 310.02 56 283.02 103 229.02 103"/><polygon class="cls-2" points="115.75 127.05 84 72.05 115.75 17.05 179.25 17.05 211 72.05 179.25 127.05 115.75 127.05"/><path class="cls-2" d="M256.74,72.41a20.33,20.33,0,0,1-8.75,1.8A15.92,15.92,0,0,1,241.63,73a14.18,14.18,0,0,1-4.88-3.43,15.29,15.29,0,0,1-3.12-5.21,19.23,19.23,0,0,1-1.1-6.6,20.56,20.56,0,0,1,1.17-7A16.64,16.64,0,0,1,237,45.11a15.41,15.41,0,0,1,5.25-3.75A16.92,16.92,0,0,1,249.2,40a20.69,20.69,0,0,1,7.55,1.29v3.28a16.74,16.74,0,0,0-7.59-1.78,13.9,13.9,0,0,0-5.7,1.11,11.82,11.82,0,0,0-4.2,3.08,13.66,13.66,0,0,0-2.61,4.66,18.4,18.4,0,0,0-.9,5.87,17.6,17.6,0,0,0,.81,5.39,13,13,0,0,0,2.39,4.42,11.34,11.34,0,0,0,3.93,3,12.71,12.71,0,0,0,5.47,1.11,17,17,0,0,0,8.4-2Z"/><path class="cls-2" d="M266.13,57.42v6.26h-1.66V57.42h-6.28V55.75h6.28V49.47h1.66v6.28h6.28v1.68Z"/><path class="cls-2" d="M284,57.42v6.26h-1.66V57.42h-6.28V55.75h6.28V49.47H284v6.28h6.28v1.68Z"/><path class="cls-3" d="M162.22,83.47c-1.61,0-2.71,0-2.66,2.66a55.11,55.11,0,0,1-.78,12.22c-1,5.74.23,8.09,3.9,8.45,4.23.41,6-2.57,9.65-4.87,2.89-1.84,6.2-3.9,7.81-4.78s1.75-2.66-1.06-4.78c-2.38-1.8-3.81-2.76-3.9-5.56s-1.33-3.45-2.57-1.61-3.38,3.78-6.2,3.17c-2.11-.46-2.53-1.65-2.48-3S163.33,83.44,162.22,83.47Z"/><path class="cls-3" d="M157.76,94.18l-1.15,8.91s-4.18-.32-6.84-.32-7.3.28-7.3.28l-.23-3.9a17.83,17.83,0,0,0,8.77-.78A19.42,19.42,0,0,0,157.76,94.18Z"/><path class="cls-3" d="M131.86,84s5.12,7.74,6.25,9.19c1.75,2.25,4-.78,1-3.26C135.12,86.59,131.86,84,131.86,84Z"/><path class="cls-3" d="M117.16,88.53c3.52-1.14,4.13-.69,7.21-4.64s4.32-1.7,6.34,1,7.67,10.89,9.14,13,1.42,5.42-.51,6.94-3.67,3-8.27,1-10.2-2.89-12.36-3.4-3.54-1.06-3.17-4.13a24,24,0,0,0,.23-6.61C115.5,89.95,115.32,89.12,117.16,88.53Z"/><ellipse class="cls-3" cx="143.73" cy="47.02" rx="0.76" ry="0.34" transform="translate(-6.52 64.2) rotate(-24.64)"/><path class="cls-3" d="M164.79,82.42l-.21.15a2.76,2.76,0,0,1,.53,2.33c-.19,1.69,1.06,2.62,2.66,2.34,2.48-.43,3.94-3,4.39-4C169.55,81.51,165.65,81.78,164.79,82.42Z"/><path class="cls-3" d="M152.8,47.92l-1.19-.5c2-1.1,2.15-3.33.59-4.46a1.77,1.77,0,0,0-2.85,1.29,9.31,9.31,0,0,0,0,2.23,9.34,9.34,0,0,0-4-.9,6.28,6.28,0,0,0-2.55.94c.18-3.18-.73-4.23-2.27-3.65s-1.21,3.13.64,4.75a11.17,11.17,0,0,0-1.6,1.45c-1.19,1.38-1.56,2.2.64,4.59,2.62,2.85,5.19,3.81,8.68,1.93,3.95-2.13,5.79-3.22,5.88-4.92S153.94,48.39,152.8,47.92Zm-1.35-4.49c.15-.13.5,0,.77.34s.36.68.21.82-.5,0-.77-.34S151.3,43.56,151.45,43.43Zm-4.93,3.25c.06-.18.43-.23.83-.1s.68.38.62.56-.43.23-.83.1S146.46,46.86,146.52,46.68Zm-5-3.41c.19-.08.47.16.64.54s.16.76,0,.84-.47-.16-.64-.54S141.3,43.35,141.49,43.27Zm11.36,7.59c-2.11,1.33-6.2,3.67-8.31,3.45a8.22,8.22,0,0,1-4.82-2c-.83-.79-.78-1.38.14-.64a8,8,0,0,0,4.59,1.7c2.3.18,6-2.19,8.08-3.22C154,49.43,155,49.53,152.85,50.86Z"/><path class="cls-3" d="M166.17,58.85c-5.47-7-5.14-11.16-5.56-16.49s-2.41-14.3-14.24-13.46c-11,.78-9.6,11.71-9.23,16.81s1.15,9.32-2.39,13.55a68.27,68.27,0,0,0-9.1,15.34,15,15,0,0,0-1.15,7.21,3.79,3.79,0,0,1,2.85-1.29,3.91,3.91,0,0,1,1.27.15c-1.6-4.41,1.84-11.34,3-12.83.51-.64.78-1,.37-.09-1.47,3.27-4,8.42-2.37,13.36a3.75,3.75,0,0,1,.85.69,23.15,23.15,0,0,1,4.18-14.56,7.43,7.43,0,0,1,3.77-2.48s-4.36-.73-.41-5.56c1.83-2.24,1.15-5.6,1.15-5.6a3.16,3.16,0,0,1-1.38-2.76,4.2,4.2,0,0,1,1.84-3.17,7.06,7.06,0,0,1-.69-5.28c.78-3,3-3.12,4.59-1.15a3.34,3.34,0,0,1,.73,3.54h3.22a5.82,5.82,0,0,1,.23-3.08,4.08,4.08,0,0,1,3.45-2.39,4.25,4.25,0,0,1,4.18,4.23,9.13,9.13,0,0,1-.73,4.13A2.77,2.77,0,0,1,155.74,51c-.78,2.16-.51,2.48-.23,3.17s2.2,4.92,5.65,13A29.62,29.62,0,0,1,163.51,82a1.69,1.69,0,0,1,.86.33l.1-.14a3.79,3.79,0,0,1,1.75-.78c4.69-8.4-.73-13.85-2.51-15.16-.76-.56-.31-.29.07-.09,5.24,2.77,6.13,9,3.53,15.08A7.27,7.27,0,0,1,172.59,83c.52,0,1.66.07,1.94-.63C177,76.17,171.64,65.88,166.17,58.85Zm-12.82-24c-.83.55-1.31-.55-1.31-.9,0-1.25,1.1-1.86,1.79-1S154.18,34.28,153.35,34.83Zm7.12,19.8c-1,1-2.41.41-3-1.65-.28-.92,0-1.38,1.15-.78S161.44,53.66,160.47,54.63Z"/></svg>