<svg xmlns="http://www.w3.org/2000/svg" viewBox="0 0 400 140">
  <defs>
    <style>
      .cls-1 {
        fill: #00599c;
      }

      .cls-2 {
        fill: #004482;
      }

      .cls-3 {
        fill: #659ad2;
      }

      .cls-4 {
        fill: #fff;
      }

      .cls-5 {
        fill: #444;
      }
    </style>
  </defs>
  <title>vs_tools-2</title>
  <g id="Screenshot">
    <g>
      <path class="cls-1" d="M298.94,93.35A7.35,7.35,0,0,0,300,89.81V50.19a7.35,7.35,0,0,0-1.06-3.54l-4.87-.36L257,67l-3,10.38,40.31,19.15Z"/>
      <path class="cls-2" d="M262.09,115.84,296.41,96a7.35,7.35,0,0,0,2.54-2.68L258.5,70,218.06,93.35A7.35,7.35,0,0,0,220.59,96l34.31,19.81A8,8,0,0,0,262.09,115.84Z"/>
      <path class="cls-3" d="M298.94,46.65A7.36,7.36,0,0,0,296.41,44L262.09,24.15a8,8,0,0,0-7.19,0L220.59,44A8,8,0,0,0,217,50.19V89.81a7.35,7.35,0,0,0,1.06,3.54L258.5,70Z"/>
      <path class="cls-4" d="M258.5,97.67a27.67,27.67,0,1,1,24-41.51l-12,6.93a13.83,13.83,0,1,0,0,13.83l12,6.93A27.77,27.77,0,0,1,258.5,97.67Z"/>
      <polygon class="cls-4" points="285.92 68.41 282.21 68.41 282.21 64.71 279.25 64.71 279.25 68.41 275.55 68.41 275.55 71.38 279.25 71.38 279.25 75.08 282.21 75.08 282.21 71.38 285.92 71.38 285.92 68.41"/>
      <polygon class="cls-4" points="297.78 68.41 294.07 68.41 294.07 64.71 291.11 64.71 291.11 68.41 287.4 68.41 287.4 71.38 291.11 71.38 291.11 75.08 294.07 75.08 294.07 71.38 297.78 71.38 297.78 68.41"/>
    </g>
  </g>
  <g id="Illustration">
    <polygon class="cls-4" points="117.08 127.05 85.33 72.05 117.08 17.05 180.58 17.05 212.33 72.05 180.58 127.05 117.08 127.05"/>
    <g>
      <path class="cls-5" d="M163.55,83.47c-1.61,0-2.71,0-2.66,2.66a55.11,55.11,0,0,1-.78,12.22c-1,5.74.23,8.09,3.9,8.45,4.23.41,6-2.57,9.65-4.87,2.89-1.84,6.2-3.9,7.81-4.78s1.75-2.66-1.06-4.78c-2.38-1.8-3.81-2.76-3.9-5.56s-1.33-3.45-2.57-1.61-3.38,3.78-6.2,3.17c-2.11-.46-2.53-1.65-2.48-3S164.66,83.44,163.55,83.47Z"/>
      <path class="cls-5" d="M159.1,94.18l-1.15,8.91s-4.18-.32-6.84-.32-7.3.28-7.3.28l-.23-3.9a17.83,17.83,0,0,0,8.77-.78A19.42,19.42,0,0,0,159.1,94.18Z"/>
      <path class="cls-5" d="M133.19,84s5.12,7.74,6.25,9.19c1.75,2.25,4-.78,1-3.26C136.46,86.59,133.19,84,133.19,84Z"/>
      <path class="cls-5" d="M118.49,88.53c3.52-1.14,4.13-.69,7.21-4.64s4.32-1.7,6.34,1,7.67,10.89,9.14,13,1.42,5.42-.51,6.94-3.67,3-8.27,1-10.2-2.89-12.36-3.4-3.54-1.06-3.17-4.13a24,24,0,0,0,.23-6.61C116.84,89.95,116.65,89.12,118.49,88.53Z"/>
      <ellipse class="cls-5" cx="145.06" cy="47.02" rx="0.76" ry="0.34" transform="translate(-6.4 64.75) rotate(-24.64)"/>
      <path class="cls-5" d="M166.12,82.42l-.21.15a2.76,2.76,0,0,1,.53,2.33c-.19,1.69,1.06,2.62,2.66,2.34,2.48-.43,3.94-3,4.39-4C170.88,81.51,167,81.78,166.12,82.42Z"/>
      <path class="cls-5" d="M154.14,47.92l-1.19-.5c2-1.1,2.15-3.33.59-4.46a1.77,1.77,0,0,0-2.85,1.29,9.31,9.31,0,0,0,0,2.23,9.34,9.34,0,0,0-4-.9,6.28,6.28,0,0,0-2.55.94c.18-3.18-.73-4.23-2.27-3.65s-1.21,3.13.64,4.75a11.17,11.17,0,0,0-1.6,1.45c-1.19,1.38-1.56,2.2.64,4.59,2.62,2.85,5.19,3.81,8.68,1.93,3.95-2.13,5.79-3.22,5.88-4.92S155.27,48.39,154.14,47.92Zm-1.35-4.49c.15-.13.5,0,.77.34s.36.68.21.82-.5,0-.77-.34S152.63,43.56,152.79,43.43Zm-4.93,3.25c.06-.18.43-.23.83-.1s.68.38.62.56-.43.23-.83.1S147.8,46.86,147.85,46.68Zm-5-3.41c.19-.08.47.16.64.54s.16.76,0,.84-.47-.16-.64-.54S142.63,43.35,142.82,43.27Zm11.36,7.59c-2.11,1.33-6.2,3.67-8.31,3.45a8.22,8.22,0,0,1-4.82-2c-.83-.79-.78-1.38.14-.64a8,8,0,0,0,4.59,1.7c2.3.18,6-2.19,8.08-3.22C155.28,49.43,156.29,49.53,154.18,50.86Z"/>
      <path class="cls-5" d="M167.5,58.85c-5.47-7-5.14-11.16-5.56-16.49s-2.41-14.3-14.24-13.46c-11,.78-9.6,11.71-9.23,16.81s1.15,9.32-2.39,13.55A68.27,68.27,0,0,0,127,74.61a15,15,0,0,0-1.15,7.21,3.79,3.79,0,0,1,2.85-1.29,3.91,3.91,0,0,1,1.27.15c-1.6-4.41,1.84-11.34,3-12.83.51-.64.78-1,.37-.09-1.47,3.27-4,8.42-2.37,13.36a3.75,3.75,0,0,1,.85.69A23.15,23.15,0,0,1,136,67.26a7.43,7.43,0,0,1,3.77-2.48s-4.36-.73-.41-5.56c1.83-2.24,1.15-5.6,1.15-5.6a3.16,3.16,0,0,1-1.38-2.76A4.2,4.2,0,0,1,141,47.69a7.06,7.06,0,0,1-.69-5.28c.78-3,3-3.12,4.59-1.15a3.34,3.34,0,0,1,.73,3.54h3.22a5.82,5.82,0,0,1,.23-3.08,4.08,4.08,0,0,1,3.45-2.39,4.25,4.25,0,0,1,4.18,4.23,9.13,9.13,0,0,1-.73,4.13A2.77,2.77,0,0,1,157.08,51c-.78,2.16-.51,2.48-.23,3.17s2.2,4.92,5.65,13A29.62,29.62,0,0,1,164.84,82a1.69,1.69,0,0,1,.86.33l.1-.14a3.79,3.79,0,0,1,1.75-.78c4.69-8.4-.73-13.85-2.51-15.16-.76-.56-.31-.29.07-.09,5.24,2.77,6.13,9,3.53,15.08A7.27,7.27,0,0,1,173.92,83c.52,0,1.66.07,1.94-.63C178.33,76.17,173,65.88,167.5,58.85Zm-12.82-24c-.83.55-1.31-.55-1.31-.9,0-1.25,1.1-1.86,1.79-1S155.51,34.28,154.69,34.83Zm7.12,19.8c-1,1-2.41.41-3-1.65-.28-.92,0-1.38,1.15-.78S162.77,53.66,161.81,54.63Z"/>
    </g>
  </g>
</svg>
