<svg id="Layer_1" data-name="Layer 1" xmlns="http://www.w3.org/2000/svg" viewBox="0 0 400 140">
  <defs>
    <style>
      .cls-1 {
        fill: #2f75bb;
      }

      .cls-2 {
        fill: #549dd5;
      }

      .cls-3 {
        fill: #5e5e5e;
      }

      .cls-4 {
        fill: #2e2e2e;
      }

      .cls-5 {
        fill: #221f1f;
      }

      .cls-6 {
        fill: #fff;
      }

      .cls-7 {
        fill: #00599c;
      }

      .cls-8 {
        fill: #004482;
      }

      .cls-9 {
        fill: #659ad2;
      }
    </style>
  </defs>
  <title>vs_windows-3</title>
  <path class="cls-1" d="M163.12,20.5a7.69,7.69,0,0,1,.9,1.24,6.94,6.94,0,0,1,1,3.39V51.86a7.36,7.36,0,0,1-3.43,5.93L140,70.25V103.5H292v-83Z"/>
  <g>
    <polygon class="cls-2" points="291 63.38 291 18 245.62 18 291 63.38"/>
    <polygon class="cls-3" points="249.3 121 183.82 121 187.65 117 245.46 117 249.3 121"/>
    <path class="cls-4" d="M246.71,123H186.52c-2.78.42-2.83-2-2.83-2H249.3S249.63,123.42,246.71,123Z"/>
    <polygon class="cls-4" points="230.7 118 202.41 118 204.7 105 228.41 105 230.7 118"/>
    <path class="cls-5" d="M292.46,18H159.52l2.06,1.19A7,7,0,0,1,164,21.74a8,8,0,0,1,.59,1.26H291v77H142V69.09l-3.58,2.07a6.56,6.56,0,0,1-2.42.77v31.53a3.53,3.53,0,0,0,3.54,3.54H292.46a3.53,3.53,0,0,0,3.54-3.54V21.54A3.53,3.53,0,0,0,292.46,18Z"/>
    <polygon class="cls-3" points="279.21 133 155.54 133 162.79 125 271.97 125 279.21 133"/>
    <polygon class="cls-4" points="267.86 131 166.89 131 170.44 126 264.31 126 267.86 131"/>
    <path class="cls-4" d="M274.32,136H160.64c-5.25,0-5.34-3-5.34-3H279.21S279.85,136,274.32,136Z"/>
    <polygon class="cls-6" points="210 60 210 42.39 192 44.8 192 60 210 60"/>
    <polygon class="cls-6" points="212 60 236 60 236 38.95 212 42.11 212 60"/>
    <polygon class="cls-6" points="212 62 212 80.12 236 83.43 236 62 212 62"/>
    <polygon class="cls-6" points="210 62 192 62 192.12 77.31 210 79.82 210 62"/>
  </g>
  <g>
    <path class="cls-7" d="M162.29,54.25a5,5,0,0,0,.71-2.39V25.13a5,5,0,0,0-.71-2.39L159,22.49l-25,14-2,7,27.2,12.92Z"/>
    <path class="cls-8" d="M137.42,69.42l23.15-13.37a5,5,0,0,0,1.71-1.81L135,38.49,107.71,54.25a5,5,0,0,0,1.71,1.81l23.15,13.37A5.38,5.38,0,0,0,137.42,69.42Z"/>
    <path class="cls-9" d="M162.29,22.74a5,5,0,0,0-1.71-1.81L137.42,7.56a5.38,5.38,0,0,0-4.85,0L109.42,20.93a5.38,5.38,0,0,0-2.42,4.2V51.86a5,5,0,0,0,.71,2.39L135,38.49Z"/>
    <path class="cls-6" d="M135,57.16a18.67,18.67,0,1,1,16.17-28l-8.08,4.67a9.33,9.33,0,1,0,0,9.33l8.08,4.67A18.73,18.73,0,0,1,135,57.16Z"/>
    <polygon class="cls-6" points="153.5 37.42 151 37.42 151 34.92 149 34.92 149 37.42 146.5 37.42 146.5 39.42 149 39.42 149 41.92 151 41.92 151 39.42 153.5 39.42 153.5 37.42"/>
    <polygon class="cls-6" points="161.5 37.42 159 37.42 159 34.92 157 34.92 157 37.42 154.5 37.42 154.5 39.42 157 39.42 157 41.92 159 41.92 159 39.42 161.5 39.42 161.5 37.42"/>
  </g>
</svg>
