<svg id="Layer_1" data-name="Layer 1" xmlns="http://www.w3.org/2000/svg" viewBox="0 0 400 140"><defs><style>.cls-1{fill:#2f75bb;}.cls-2{fill:#549dd5;}.cls-3{fill:#5e5e5e;}.cls-4{fill:#2e2e2e;}.cls-5{fill:#221f1f;}.cls-6{fill:#fff;}.cls-7{fill:#c110b9;}.cls-8{fill:#b4079c;}</style></defs><title>vs_windows-3</title><rect class="cls-1" x="140" y="20.5" width="152" height="83"/><polygon class="cls-2" points="291 63.38 291 18 245.62 18 291 63.38"/><polygon class="cls-3" points="249.3 121 183.82 121 187.65 117 245.46 117 249.3 121"/><path class="cls-4" d="M246.71,123H186.52c-2.78.42-2.83-2-2.83-2H249.3S249.63,123.42,246.71,123Z"/><polygon class="cls-4" points="230.7 118 202.41 118 204.7 105 228.41 105 230.7 118"/><path class="cls-5" d="M292.46,18H139.54A3.54,3.54,0,0,0,136,21.54v81.92a3.54,3.54,0,0,0,3.54,3.54H292.46a3.54,3.54,0,0,0,3.54-3.54V21.54A3.54,3.54,0,0,0,292.46,18ZM291,100H142V23H291Z"/><polygon class="cls-3" points="279.21 133 155.54 133 162.79 125 271.97 125 279.21 133"/><polygon class="cls-4" points="267.86 131 166.89 131 170.44 126 264.31 126 267.86 131"/><path class="cls-4" d="M274.32,136H160.64c-5.25,0-5.34-3-5.34-3H279.21S279.85,136,274.32,136Z"/><polygon class="cls-6" points="210 60 210 42.39 192 44.8 192 60 210 60"/><polygon class="cls-6" points="212 60 236 60 236 38.95 212 42.11 212 60"/><polygon class="cls-6" points="212 62 212 80.12 236 83.43 236 62 212 62"/><polygon class="cls-6" points="210 62 192 62 192.12 77.31 210 79.82 210 62"/><circle class="cls-7" cx="138.7" cy="38.65" r="35"/><path class="cls-8" d="M114.43,13.44a35,35,0,1,0,49.47,49.47Z"/><path class="cls-6" d="M136,51.56a18.07,18.07,0,0,1-7.77,1.6,14.14,14.14,0,0,1-5.66-1.1,12.6,12.6,0,0,1-4.34-3,13.59,13.59,0,0,1-2.77-4.63,17.09,17.09,0,0,1-1-5.87,18.27,18.27,0,0,1,1-6.22,14.79,14.79,0,0,1,3-5A13.7,13.7,0,0,1,123.18,24a15,15,0,0,1,6.14-1.21A18.39,18.39,0,0,1,136,23.89v2.91a14.88,14.88,0,0,0-6.75-1.58,12.36,12.36,0,0,0-5.07,1,10.5,10.5,0,0,0-3.73,2.74,12.14,12.14,0,0,0-2.32,4.14,16.35,16.35,0,0,0-.8,5.22,15.64,15.64,0,0,0,.72,4.79A11.52,11.52,0,0,0,120.21,47a10.07,10.07,0,0,0,3.5,2.67,11.3,11.3,0,0,0,4.86,1A15.15,15.15,0,0,0,136,48.89Z"/><path class="cls-6" d="M144.37,38.24V43.8h-1.48V38.24h-5.58V36.75h5.58V31.17h1.48v5.58h5.58v1.49Z"/><path class="cls-6" d="M160.25,38.24V43.8h-1.48V38.24h-5.58V36.75h5.58V31.17h1.48v5.58h5.58v1.49Z"/></svg>