<?xml version="1.0" encoding="utf-8"?>
<!-- Generator: Adobe Illustrator 20.1.0, SVG Export Plug-In . SVG Version: 6.00 Build 0)  -->
<svg version="1.1" id="Layer_1" xmlns="http://www.w3.org/2000/svg" xmlns:xlink="http://www.w3.org/1999/xlink" x="0px" y="0px"
	 viewBox="0 0 200 144" style="enable-background:new 0 0 200 144;" xml:space="preserve">
<style type="text/css">
	.st0{fill:#E4EDF1;}
	.st1{fill:#E3E3E3;}
	.st2{fill:#5E5E5E;}
	.st3{fill:#2E2E2E;}
	.st4{fill:#7CABC2;}
	.st5{fill:#96BCCE;}
	.st6{fill:#2C3E50;}
	.st7{clip-path:url(#SVGID_2_);fill:#447995;}
	.st8{fill:#FFFFFF;}
	
		.st9{fill-rule:evenodd;clip-rule:evenodd;fill:none;stroke:#E3E3E3;stroke-width:1.3089;stroke-linecap:round;stroke-linejoin:round;stroke-miterlimit:10;stroke-dasharray:1.3089,2.6179;}
	.st10{fill:#5D5D5D;}
	.st11{fill:#C7C7C7;}
	.st12{fill:none;stroke:#909090;stroke-width:1.1744;stroke-miterlimit:10;stroke-dasharray:2.3488,3.5233;}
	.st13{fill:#395B71;}
	.st14{fill-rule:evenodd;clip-rule:evenodd;fill:#395B71;}
	.st15{fill-rule:evenodd;clip-rule:evenodd;fill:#2E2E2E;}
	.st16{fill:#2C3E58;}
	.st17{fill:#447995;}
	.st18{fill:none;}
	.st19{fill:#4889A8;}
	.st20{fill:#929090;}
	.st21{fill:#96BBCD;}
	.st22{fill:#3A5C71;}
	.st23{fill:#757575;}
	.st24{fill:#682A7A;}
	.st25{fill:#478AA9;}
	.st26{fill:#672A79;}
	.st27{fill:#334D63;}
	.st28{fill:#5D5F5E;}
	.st29{fill:#FAB516;}
	.st30{fill:#F5891F;}
	.st31{fill:#CB6D29;}
	.st32{fill:#171717;}
	.st33{fill:#CADEE6;}
	.st34{opacity:0.41;fill:#929090;}
	.st35{clip-path:url(#SVGID_4_);}
	.st36{clip-path:url(#SVGID_6_);}
	.st37{fill:#FE8B0C;}
	.st38{fill:#231F20;}
	.st39{fill:#909090;}
	.st40{fill:#2E2E2E;stroke:#8F8F8F;stroke-width:0.7512;stroke-miterlimit:10;}
	.st41{fill:#8F8F8F;}
	.st42{fill:#C6C6C6;}
	.st43{fill:#777677;}
	.st44{fill:#D9DCE1;}
	.st45{clip-path:url(#SVGID_8_);}
	.st46{fill:none;stroke:#909090;stroke-miterlimit:10;stroke-dasharray:2,2;}
	.st47{fill:#ACACAC;}
	.st48{fill-rule:evenodd;clip-rule:evenodd;fill:#7CABC2;}
	.st49{fill-rule:evenodd;clip-rule:evenodd;fill:#478AA9;}
	.st50{clip-path:url(#SVGID_10_);}
	.st51{clip-path:url(#SVGID_12_);}
	.st52{fill:#7DB912;}
	.st53{fill:#B2B9C2;}
	.st54{fill:#B0CDDA;}
	.st55{clip-path:url(#SVGID_14_);fill:#333333;}
	.st56{clip-path:url(#SVGID_14_);fill:none;}
	.st57{clip-path:url(#SVGID_14_);fill:#7DB912;}
	.st58{clip-path:url(#SVGID_14_);fill:#FFFFFF;}
	.st59{clip-path:url(#SVGID_16_);fill:#333333;}
	.st60{clip-path:url(#SVGID_16_);fill:none;}
	.st61{clip-path:url(#SVGID_16_);fill:#395B71;}
	.st62{clip-path:url(#SVGID_16_);fill:#FFFFFF;}
	.st63{clip-path:url(#SVGID_16_);fill:#D1D2D2;}
	.st64{clip-path:url(#SVGID_18_);fill:#333333;}
	.st65{clip-path:url(#SVGID_18_);fill:none;}
	.st66{clip-path:url(#SVGID_18_);fill:#478AA9;}
	.st67{clip-path:url(#SVGID_18_);fill:#FFFFFF;}
	.st68{fill:#F58B20;}
	.st69{fill:#2B2B2B;}
	.st70{fill:#3B77AD;}
	.st71{fill:#F7CD13;}
	.st72{fill:#464646;}
	.st73{fill:#929497;}
	.st74{fill:#A6A8AB;}
	.st75{fill:#2F75BB;}
	.st76{fill:none;stroke:#757575;stroke-width:0.5023;stroke-miterlimit:10;}
	.st77{fill:#3C88C6;}
	.st78{fill:#E4CB58;}
	.st79{fill:#58595B;}
	.st80{fill:#007ACC;}
	.st81{fill:#E4E4E5;}
	.st82{fill:#E73F24;}
	.st83{fill:#F58B23;}
	.st84{fill:#ADADAD;}
	.st85{fill:#959595;}
	.st86{fill-rule:evenodd;clip-rule:evenodd;fill:none;stroke:#E3E3E3;stroke-width:1.1603;stroke-miterlimit:10;}
	.st87{fill-rule:evenodd;clip-rule:evenodd;fill:none;stroke:#4889A8;stroke-width:1.1603;stroke-miterlimit:10;}
	.st88{fill-rule:evenodd;clip-rule:evenodd;fill:none;stroke:#0C8A44;stroke-width:1.1603;stroke-miterlimit:10;}
	.st89{fill:#DB58DB;}
	.st90{fill:#B4079C;}
	.st91{fill:#9A37AF;}
	.st92{fill:#721481;}
	.st93{fill:#73AA24;}
	.st94{fill:#05930C;}
	.st95{fill:#2581BF;}
	.st96{fill:#004E8C;}
	.st97{fill:none;stroke:#909090;stroke-width:0.9199;stroke-miterlimit:10;}
	.st98{fill:none;stroke:#909090;stroke-width:0.9494;stroke-miterlimit:10;}
	.st99{fill:none;stroke:#909090;stroke-width:0.8988;stroke-miterlimit:10;}
	.st100{fill:none;stroke:#909090;stroke-width:0.8481;stroke-miterlimit:10;}
	.st101{fill:none;stroke:#909090;stroke-width:0.7975;stroke-miterlimit:10;}
	.st102{fill:none;stroke:#909090;stroke-width:0.7469;stroke-miterlimit:10;}
	.st103{fill:none;stroke:#909090;stroke-width:0.6963;stroke-miterlimit:10;}
	.st104{fill:none;stroke:#447995;stroke-miterlimit:10;}
	.st105{fill:#FFFFFF;stroke:#96BCCE;stroke-width:0.75;stroke-miterlimit:10;}
	.st106{clip-path:url(#SVGID_20_);}
	.st107{fill:#08BBF1;}
	.st108{fill:#0AA5E2;}
	.st109{fill:#B2D7F0;}
	.st110{fill:#181717;}
	.st111{fill:#F3AF21;}
	.st112{fill:none;stroke:#5D5D5D;stroke-width:0.8345;stroke-miterlimit:10;}
	.st113{fill:none;stroke:#5D5D5D;stroke-width:1.3526;stroke-miterlimit:10;}
	.st114{fill-rule:evenodd;clip-rule:evenodd;fill:#7DB912;}
	.st115{fill:#333333;}
	.st116{fill:none;stroke:#FFFFFF;stroke-width:0.2247;stroke-linecap:round;stroke-linejoin:round;stroke-miterlimit:10;}
	.st117{fill:#737374;}
	.st118{fill:#515050;}
	.st119{fill:none;stroke:#000000;stroke-width:0.4495;stroke-miterlimit:1;}
	.st120{fill:#619BB5;}
	.st121{fill:none;stroke:#395B71;stroke-width:0.234;stroke-miterlimit:10;}
	.st122{fill:#32383D;}
	.st123{fill:#00BCF2;}
	.st124{fill:#2C2737;}
	.st125{fill:#201D29;}
	.st126{fill:#22BAED;}
	.st127{fill:#221F1F;}
	.st128{clip-path:url(#SVGID_22_);}
	.st129{clip-path:url(#SVGID_24_);}
	.st130{fill:#5E615F;}
	.st131{fill:none;stroke:#767676;stroke-width:0.199;stroke-miterlimit:10;}
	.st132{fill:#699F63;}
	.st133{fill-rule:evenodd;clip-rule:evenodd;fill:#333333;}
	.st134{fill-rule:evenodd;clip-rule:evenodd;fill:#699F63;}
	.st135{clip-path:url(#XMLID_3_);}
	.st136{fill:url(#SVGID_25_);}
	.st137{fill:url(#SVGID_26_);}
	.st138{fill:url(#SVGID_27_);}
	.st139{fill:url(#SVGID_28_);}
	.st140{fill:url(#SVGID_29_);}
	.st141{fill:url(#SVGID_30_);}
	.st142{fill:#00890B;}
	.st143{clip-path:url(#SVGID_32_);}
	.st144{fill:#515150;}
	.st145{fill:#457994;}
	.st146{fill:#F16424;}
	.st147{fill:#8B6AB1;}
	.st148{fill:#5C2D91;}
	.st149{clip-path:url(#SVGID_34_);fill:#447995;}
</style>
<rect x="0" class="st0" width="200" height="144"/>
<path class="st123" d="M129.931,93.765c0,6.492-5.271,11.756-11.772,11.756c-4.827,0-8.97-2.903-10.787-7.054H38.106
	c-16.904,0-30.608-13.685-30.608-30.566c0-16.882,13.704-30.567,30.608-30.567h2.749c-0.017,0.042-0.03,0.085-0.047,0.127l0,0
	c0.017-0.042,0.03-0.085,0.047-0.127c5.59-13.784,19.115-23.512,34.923-23.512c13.484,0,25.301,7.08,31.955,17.716
	c-3.223,0.728-6.319,1.783-9.254,3.135c-5.148-6.938-13.39-11.446-22.7-11.446c-10.456,0-19.579,5.677-24.464,14.107
	c-0.456,0.786-0.871,1.598-1.25,2.431c-1,2.191-1.731,4.53-2.142,6.98h-9.512h-0.085h-0.218v-0.006
	c-11.703,0-21.19,9.474-21.19,21.162c0,11.687,9.487,21.161,21.19,21.161v0.001h69.266c1.818-4.151,5.96-7.055,10.787-7.055
	C124.66,82.008,129.931,87.272,129.931,93.765z M156.128,58.589c-6.934-13.937-21.328-23.52-37.969-23.52
	c-20.224,0-37.128,14.15-41.354,33.074c-9.837,0.945-18.407,6.207-23.795,13.865h50.458c3.452-4.296,8.746-7.053,14.691-7.053
	c10.403,0,18.836,8.421,18.836,18.81c0,10.389-8.433,18.81-18.836,18.81c-5.945,0-11.239-2.758-14.691-7.054H47.364
	c2.249,15.994,15.999,28.301,32.633,28.301c0.046,0,0.091-0.003,0.136-0.003v0.003h75.545v-0.003
	c0.051,0.001,0.101,0.003,0.152,0.003c20.805,0,37.672-16.843,37.672-37.62C193.503,75.525,176.796,58.75,156.128,58.589z"/>
</svg>
