<?xml version="1.0" encoding="utf-8"?>
<!-- Generator: Adobe Illustrator 20.1.0, SVG Export Plug-In . SVG Version: 6.00 Build 0)  -->
<svg version="1.1" id="Layer_1" xmlns="http://www.w3.org/2000/svg" xmlns:xlink="http://www.w3.org/1999/xlink" x="0px" y="0px"
	 viewBox="0 0 200 144" style="enable-background:new 0 0 200 144;" xml:space="preserve">
<style type="text/css">
	.st0{fill:#E4EDF1;}
	.st1{fill:#E3E3E3;}
	.st2{fill:#5E5E5E;}
	.st3{fill:#2E2E2E;}
	.st4{fill:#7CABC2;}
	.st5{fill:#96BCCE;}
	.st6{fill:#2C3E50;}
	.st7{clip-path:url(#SVGID_2_);fill:#447995;}
	.st8{fill:#FFFFFF;}
	
		.st9{fill-rule:evenodd;clip-rule:evenodd;fill:none;stroke:#E3E3E3;stroke-width:1.3089;stroke-linecap:round;stroke-linejoin:round;stroke-miterlimit:10;stroke-dasharray:1.3089,2.6179;}
	.st10{fill:#5D5D5D;}
	.st11{fill:#C7C7C7;}
	.st12{fill:none;stroke:#909090;stroke-width:1.1744;stroke-miterlimit:10;stroke-dasharray:2.3488,3.5233;}
	.st13{fill:#395B71;}
	.st14{fill-rule:evenodd;clip-rule:evenodd;fill:#395B71;}
	.st15{fill-rule:evenodd;clip-rule:evenodd;fill:#2E2E2E;}
	.st16{fill:#2C3E58;}
	.st17{fill:#447995;}
	.st18{fill:none;}
	.st19{fill:#4889A8;}
	.st20{fill:#929090;}
	.st21{fill:#96BBCD;}
	.st22{fill:#3A5C71;}
	.st23{fill:#757575;}
	.st24{fill:#682A7A;}
	.st25{fill:#478AA9;}
	.st26{fill:#672A79;}
	.st27{fill:#334D63;}
	.st28{fill:#5D5F5E;}
	.st29{fill:#FAB516;}
	.st30{fill:#F5891F;}
	.st31{fill:#CB6D29;}
	.st32{fill:#171717;}
	.st33{fill:#CADEE6;}
	.st34{opacity:0.41;fill:#929090;}
	.st35{clip-path:url(#SVGID_4_);}
	.st36{clip-path:url(#SVGID_6_);}
	.st37{fill:#FE8B0C;}
	.st38{fill:#231F20;}
	.st39{fill:#909090;}
	.st40{fill:#2E2E2E;stroke:#8F8F8F;stroke-width:0.7512;stroke-miterlimit:10;}
	.st41{fill:#8F8F8F;}
	.st42{fill:#C6C6C6;}
	.st43{fill:#777677;}
	.st44{fill:#D9DCE1;}
	.st45{clip-path:url(#SVGID_8_);}
	.st46{fill:none;stroke:#909090;stroke-miterlimit:10;stroke-dasharray:2,2;}
	.st47{fill:#ACACAC;}
	.st48{fill-rule:evenodd;clip-rule:evenodd;fill:#7CABC2;}
	.st49{fill-rule:evenodd;clip-rule:evenodd;fill:#478AA9;}
	.st50{clip-path:url(#SVGID_10_);}
	.st51{clip-path:url(#SVGID_12_);}
	.st52{fill:#7DB912;}
	.st53{fill:#B2B9C2;}
	.st54{fill:#B0CDDA;}
	.st55{clip-path:url(#SVGID_14_);fill:#333333;}
	.st56{clip-path:url(#SVGID_14_);fill:none;}
	.st57{clip-path:url(#SVGID_14_);fill:#7DB912;}
	.st58{clip-path:url(#SVGID_14_);fill:#FFFFFF;}
	.st59{clip-path:url(#SVGID_16_);fill:#333333;}
	.st60{clip-path:url(#SVGID_16_);fill:none;}
	.st61{clip-path:url(#SVGID_16_);fill:#395B71;}
	.st62{clip-path:url(#SVGID_16_);fill:#FFFFFF;}
	.st63{clip-path:url(#SVGID_16_);fill:#D1D2D2;}
	.st64{clip-path:url(#SVGID_18_);fill:#333333;}
	.st65{clip-path:url(#SVGID_18_);fill:none;}
	.st66{clip-path:url(#SVGID_18_);fill:#478AA9;}
	.st67{clip-path:url(#SVGID_18_);fill:#FFFFFF;}
	.st68{fill:#F58B20;}
	.st69{fill:#2B2B2B;}
	.st70{fill:#3B77AD;}
	.st71{fill:#F7CD13;}
	.st72{fill:#464646;}
	.st73{fill:#929497;}
	.st74{fill:#A6A8AB;}
	.st75{fill:#2F75BB;}
	.st76{fill:none;stroke:#757575;stroke-width:0.5023;stroke-miterlimit:10;}
	.st77{fill:#3C88C6;}
	.st78{fill:#E4CB58;}
	.st79{fill:#58595B;}
	.st80{fill:#007ACC;}
	.st81{fill:#E4E4E5;}
	.st82{fill:#E73F24;}
	.st83{fill:#F58B23;}
	.st84{fill:#ADADAD;}
	.st85{fill:#959595;}
	.st86{fill-rule:evenodd;clip-rule:evenodd;fill:none;stroke:#E3E3E3;stroke-width:1.1603;stroke-miterlimit:10;}
	.st87{fill-rule:evenodd;clip-rule:evenodd;fill:none;stroke:#4889A8;stroke-width:1.1603;stroke-miterlimit:10;}
	.st88{fill-rule:evenodd;clip-rule:evenodd;fill:none;stroke:#0C8A44;stroke-width:1.1603;stroke-miterlimit:10;}
	.st89{fill:#DB58DB;}
	.st90{fill:#B4079C;}
	.st91{fill:#9A37AF;}
	.st92{fill:#721481;}
	.st93{fill:#73AA24;}
	.st94{fill:#05930C;}
	.st95{fill:#2581BF;}
	.st96{fill:#004E8C;}
	.st97{fill:none;stroke:#909090;stroke-width:0.9199;stroke-miterlimit:10;}
	.st98{fill:none;stroke:#909090;stroke-width:0.9494;stroke-miterlimit:10;}
	.st99{fill:none;stroke:#909090;stroke-width:0.8988;stroke-miterlimit:10;}
	.st100{fill:none;stroke:#909090;stroke-width:0.8481;stroke-miterlimit:10;}
	.st101{fill:none;stroke:#909090;stroke-width:0.7975;stroke-miterlimit:10;}
	.st102{fill:none;stroke:#909090;stroke-width:0.7469;stroke-miterlimit:10;}
	.st103{fill:none;stroke:#909090;stroke-width:0.6963;stroke-miterlimit:10;}
	.st104{fill:none;stroke:#447995;stroke-miterlimit:10;}
	.st105{fill:#FFFFFF;stroke:#96BCCE;stroke-width:0.75;stroke-miterlimit:10;}
	.st106{clip-path:url(#SVGID_20_);}
	.st107{fill:#08BBF1;}
	.st108{fill:#0AA5E2;}
	.st109{fill:#B2D7F0;}
	.st110{fill:#181717;}
	.st111{fill:#F3AF21;}
	.st112{fill:none;stroke:#5D5D5D;stroke-width:0.8345;stroke-miterlimit:10;}
	.st113{fill:none;stroke:#5D5D5D;stroke-width:1.3526;stroke-miterlimit:10;}
	.st114{fill-rule:evenodd;clip-rule:evenodd;fill:#7DB912;}
	.st115{fill:#333333;}
	.st116{fill:none;stroke:#FFFFFF;stroke-width:0.2247;stroke-linecap:round;stroke-linejoin:round;stroke-miterlimit:10;}
	.st117{fill:#737374;}
	.st118{fill:#515050;}
	.st119{fill:none;stroke:#000000;stroke-width:0.4495;stroke-miterlimit:1;}
	.st120{fill:#619BB5;}
	.st121{fill:none;stroke:#395B71;stroke-width:0.234;stroke-miterlimit:10;}
	.st122{fill:#32383D;}
	.st123{fill:#00BCF2;}
	.st124{fill:#2C2737;}
	.st125{fill:#201D29;}
	.st126{fill:#22BAED;}
	.st127{fill:#221F1F;}
	.st128{clip-path:url(#SVGID_22_);}
	.st129{clip-path:url(#SVGID_24_);}
	.st130{fill:#5E615F;}
	.st131{fill:none;stroke:#767676;stroke-width:0.199;stroke-miterlimit:10;}
	.st132{fill:#699F63;}
	.st133{fill-rule:evenodd;clip-rule:evenodd;fill:#333333;}
	.st134{fill-rule:evenodd;clip-rule:evenodd;fill:#699F63;}
	.st135{clip-path:url(#XMLID_3_);}
	.st136{fill:url(#SVGID_25_);}
	.st137{fill:url(#SVGID_26_);}
	.st138{fill:url(#SVGID_27_);}
	.st139{fill:url(#SVGID_28_);}
	.st140{fill:url(#SVGID_29_);}
	.st141{fill:url(#SVGID_30_);}
	.st142{fill:#00890B;}
	.st143{clip-path:url(#SVGID_32_);}
	.st144{fill:#515150;}
	.st145{fill:#457994;}
	.st146{fill:#F16424;}
	.st147{fill:#8B6AB1;}
	.st148{fill:#5C2D91;}
	.st149{clip-path:url(#SVGID_34_);fill:#447995;}
</style>
<rect x="0" class="st0" width="200" height="144"/>
<g>
	<path class="st132" d="M100.154,122.548c-0.574,0-1.146-0.15-1.648-0.441l-5.246-3.104c-0.783-0.438-0.401-0.594-0.142-0.684
		c1.045-0.363,1.257-0.446,2.372-1.079c0.116-0.065,0.27-0.04,0.39,0.03l4.031,2.393c0.146,0.081,0.352,0.081,0.487,0l15.714-9.07
		c0.146-0.084,0.24-0.252,0.24-0.425V92.034c0-0.177-0.094-0.343-0.244-0.433l-15.707-9.062c-0.145-0.085-0.338-0.085-0.484,0
		l-15.703,9.064c-0.153,0.087-0.249,0.258-0.249,0.43v18.134c0,0.174,0.096,0.338,0.248,0.42l4.305,2.487
		c2.336,1.168,3.766-0.207,3.766-1.589V93.582c0-0.253,0.204-0.453,0.457-0.453h1.993c0.249,0,0.455,0.2,0.455,0.453v17.904
		c0,3.117-1.698,4.905-4.653,4.905c-0.908,0-1.623,0-3.62-0.984l-4.121-2.372c-1.018-0.588-1.648-1.688-1.648-2.867V92.034
		c0-1.178,0.63-2.278,1.648-2.864l15.714-9.08c0.994-0.562,2.316-0.562,3.302,0l15.712,9.08c1.018,0.588,1.65,1.686,1.65,2.864
		v18.134c0,1.178-0.633,2.274-1.65,2.867l-15.712,9.072C101.306,122.398,100.736,122.548,100.154,122.548z"/>
	<path class="st132" d="M105.008,110.055c-6.876,0-8.317-3.156-8.317-5.804c0-0.252,0.202-0.453,0.454-0.453h2.032
		c0.227,0,0.416,0.163,0.451,0.385c0.307,2.068,1.221,3.112,5.38,3.112c3.31,0,4.72-0.749,4.72-2.505
		c0-1.013-0.399-1.764-5.544-2.268c-4.299-0.425-6.959-1.375-6.959-4.815c0-3.171,2.672-5.061,7.153-5.061
		c5.034,0,7.525,1.747,7.84,5.496c0.012,0.129-0.034,0.253-0.12,0.35c-0.086,0.09-0.206,0.145-0.333,0.145h-2.039
		c-0.211,0-0.398-0.15-0.441-0.355c-0.489-2.176-1.679-2.872-4.907-2.872c-3.614,0-4.035,1.259-4.035,2.202
		c0,1.143,0.496,1.476,5.376,2.122c4.829,0.638,7.123,1.542,7.123,4.936C112.842,108.094,109.987,110.055,105.008,110.055z"/>
</g>
<g>
	<path class="st132" d="M127.666,91.037c0,1.666-1.362,3.028-3.028,3.028c-1.651,0-3.028-1.346-3.028-3.028
		c0-1.714,1.41-3.029,3.028-3.029C126.272,88.008,127.666,89.322,127.666,91.037z M122.098,91.028c0,1.41,1.138,2.548,2.531,2.548
		c1.411,0,2.548-1.162,2.548-2.548c0-1.41-1.153-2.531-2.548-2.531C123.252,88.497,122.098,89.602,122.098,91.028z M123.5,89.338
		h1.17c0.401,0,1.186,0,1.186,0.898c0,0.625-0.401,0.753-0.642,0.833c0.466,0.032,0.497,0.337,0.561,0.769
		c0.033,0.272,0.081,0.737,0.176,0.897h-0.72c-0.017-0.16-0.129-1.026-0.129-1.073c-0.047-0.193-0.112-0.288-0.352-0.288h-0.592
		v1.361H123.5V89.338z M124.142,90.828h0.528c0.432,0,0.513-0.304,0.513-0.48c0-0.465-0.321-0.465-0.497-0.465h-0.544V90.828z"/>
</g>
<path class="st133" d="M51.494,51.6c0-0.724-0.381-1.39-1.006-1.748l-16.66-9.588c-0.282-0.166-0.598-0.252-0.917-0.265
	c-0.029,0-0.149,0-0.172,0c-0.318,0.013-0.634,0.099-0.92,0.265l-16.66,9.588c-0.621,0.359-1.007,1.024-1.007,1.748l0.037,25.817
	c0,0.359,0.187,0.693,0.502,0.869c0.309,0.185,0.691,0.185,0.999,0l9.901-5.669c0.626-0.372,1.007-1.028,1.007-1.746V58.809
	c0-0.719,0.381-1.384,1.005-1.742l4.216-2.428c0.314-0.181,0.658-0.27,1.009-0.27c0.343,0,0.695,0.089,1.001,0.27l4.214,2.428
	c0.624,0.357,1.006,1.023,1.006,1.742V70.87c0,0.718,0.386,1.378,1.009,1.746l9.898,5.669c0.311,0.185,0.698,0.185,1.006,0
	c0.307-0.176,0.5-0.51,0.5-0.869L51.494,51.6z"/>
<path class="st133" d="M131.655,16.11c-0.312-0.173-0.692-0.17-1,0.011c-0.307,0.181-0.497,0.511-0.497,0.868v25.567
	c0,0.251-0.134,0.484-0.352,0.61c-0.218,0.126-0.487,0.126-0.705,0l-4.173-2.404c-0.622-0.359-1.388-0.358-2.011,0.001
	l-16.666,9.618c-0.623,0.36-1.007,1.024-1.007,1.743v19.241c0,0.719,0.384,1.383,1.006,1.743l16.665,9.625
	c0.623,0.36,1.39,0.36,2.013,0l16.668-9.625c0.622-0.36,1.006-1.024,1.006-1.743V23.402c0-0.729-0.395-1.402-1.032-1.758
	L131.655,16.11z M130.109,65.042c0,0.179-0.096,0.346-0.252,0.435l-5.722,3.298c-0.155,0.089-0.347,0.089-0.502,0l-5.722-3.298
	c-0.156-0.089-0.252-0.256-0.252-0.435v-6.607c0-0.179,0.096-0.346,0.251-0.436l5.722-3.305c0.156-0.09,0.348-0.09,0.504,0
	l5.722,3.305c0.155,0.09,0.251,0.256,0.251,0.436V65.042z"/>
<g>
	<path class="st133" d="M187.151,58.262c0.62-0.36,1.001-1.023,1.001-1.74v-4.663c0-0.717-0.382-1.38-1.002-1.741l-16.559-9.614
		c-0.623-0.362-1.392-0.363-2.017-0.003l-16.66,9.618c-0.622,0.36-1.006,1.024-1.006,1.743v19.235c0,0.724,0.388,1.391,1.017,1.748
		l16.557,9.434c0.611,0.348,1.359,0.352,1.973,0.011l10.014-5.566c0.318-0.177,0.515-0.51,0.517-0.873
		c0.003-0.363-0.19-0.699-0.505-0.879l-16.766-9.623c-0.313-0.179-0.506-0.513-0.506-0.873v-6.028c0-0.359,0.192-0.692,0.504-0.872
		l5.218-3.008c0.311-0.179,0.694-0.179,1.005,0l5.221,3.008c0.312,0.179,0.504,0.512,0.504,0.872v4.743
		c0,0.36,0.193,0.693,0.504,0.872c0.312,0.18,0.696,0.179,1.007-0.002L187.151,58.262z"/>
	<path class="st134" d="M169.337,57.361c0.119-0.069,0.267-0.069,0.386,0l3.198,1.845c0.119,0.069,0.193,0.196,0.193,0.335v3.693
		c0,0.138-0.074,0.265-0.193,0.335l-3.198,1.845c-0.119,0.069-0.267,0.069-0.386,0l-3.195-1.845
		c-0.119-0.069-0.193-0.196-0.193-0.335v-3.693c0-0.138,0.074-0.265,0.193-0.335L169.337,57.361z"/>
</g>
<g>
	<defs>
		<path id="XMLID_143_" d="M79.373,40.602c-0.619-0.357-1.382-0.357-2.001,0l-16.573,9.564c-0.62,0.357-1.001,1.018-1.001,1.734
			v19.142c0,0.715,0.381,1.376,1.001,1.734l16.573,9.571c0.62,0.358,1.383,0.358,2.002,0l16.569-9.571c0.619-0.358,1-1.019,1-1.734
			V51.899c0-0.715-0.381-1.376-1.001-1.733L79.373,40.602z"/>
	</defs>
	<linearGradient id="XMLID_2_" gradientUnits="userSpaceOnUse" x1="85.1084" y1="47.7243" x2="70.1361" y2="78.2677">
		<stop  offset="0" style="stop-color:#41873F"/>
		<stop  offset="0.3288" style="stop-color:#418B3D"/>
		<stop  offset="0.6352" style="stop-color:#419637"/>
		<stop  offset="0.9319" style="stop-color:#3FA92D"/>
		<stop  offset="1" style="stop-color:#3FAE2A"/>
	</linearGradient>
	<use xlink:href="#XMLID_143_"  style="overflow:visible;fill-rule:evenodd;clip-rule:evenodd;fill:url(#XMLID_2_);"/>
	<clipPath id="XMLID_3_">
		<use xlink:href="#XMLID_143_"  style="overflow:visible;"/>
	</clipPath>
	<g class="st135">
		<path class="st18" d="M77.337,40.602L60.4,50.166c-0.62,0.357-1.4,1.018-1.4,1.734v19.142c0,0.473,0.532,0.92,0.846,1.274
			l18.824-31.92C78.169,40.271,77.792,40.339,77.337,40.602z"/>
		<path class="st18" d="M78.927,82.54c0.161-0.045,0.319-0.108,0.467-0.194l17.577-9.571C97.59,72.417,99,71.756,99,71.041V51.899
			c0-0.526-1.222-1.022-1.593-1.39L78.927,82.54z"/>
		<linearGradient id="SVGID_2_" gradientUnits="userSpaceOnUse" x1="75.8477" y1="63.709" x2="117.8587" y2="32.669">
			<stop  offset="0.1376" style="stop-color:#41873F"/>
			<stop  offset="0.4032" style="stop-color:#54A044"/>
			<stop  offset="0.7136" style="stop-color:#66B848"/>
			<stop  offset="0.9081" style="stop-color:#6CC04A"/>
		</linearGradient>
		<path style="fill:url(#SVGID_2_);" d="M95.974,50.166l-16.619-9.564c-0.164-0.095-0.34-0.163-0.52-0.207l-18.66,31.92
			c0.161,0.181,0.349,0.339,0.559,0.46l16.647,9.571c0.472,0.272,1.032,0.336,1.546,0.194L96.42,50.509
			C96.287,50.377,96.138,50.26,95.974,50.166z"/>
	</g>
	<g class="st135">
		<path class="st18" d="M99,71.041V51.899c0-0.715-1.419-1.376-2.038-1.733l-17.113-9.564c-0.191-0.11-0.645-0.182-0.857-0.225
			l19.082,31.124C98.113,71.352,99,71.199,99,71.041z"/>
		<path class="st18" d="M60.4,50.166c-0.62,0.357-1.4,1.018-1.4,1.734v19.142c0,0.715,0.786,1.376,1.405,1.734l16.812,9.571
			c0.391,0.226,0.927,0.308,1.363,0.249L60.624,50.108L60.4,50.166z"/>
		<linearGradient id="SVGID_4_" gradientUnits="userSpaceOnUse" x1="59.2114" y1="37.1514" x2="97.5289" y2="37.1514">
			<stop  offset="0.0919" style="stop-color:#6CC04A"/>
			<stop  offset="0.2864" style="stop-color:#66B848"/>
			<stop  offset="0.5968" style="stop-color:#54A044"/>
			<stop  offset="0.8624" style="stop-color:#41873F"/>
		</linearGradient>
		<polygon style="fill:url(#SVGID_4_);" points="76.819,37.086 76.591,37.217 76.895,37.217 		"/>
		<linearGradient id="SVGID_6_" gradientUnits="userSpaceOnUse" x1="59.2114" y1="61.4662" x2="97.5289" y2="61.4662">
			<stop  offset="0.0919" style="stop-color:#6CC04A"/>
			<stop  offset="0.2864" style="stop-color:#66B848"/>
			<stop  offset="0.5968" style="stop-color:#54A044"/>
			<stop  offset="0.8624" style="stop-color:#41873F"/>
		</linearGradient>
		<path style="fill:url(#SVGID_6_);" d="M95.984,72.775c0.483-0.279,0.843-0.744,0.98-1.274L78.745,40.378
			c-0.476-0.095-0.98-0.023-1.408,0.225L60.83,50.108l17.833,32.487c0.255-0.035,0.504-0.117,0.732-0.249L95.984,72.775z"/>
		<linearGradient id="SVGID_8_" gradientUnits="userSpaceOnUse" x1="59.2114" y1="72.4051" x2="97.5289" y2="72.4051">
			<stop  offset="0.0919" style="stop-color:#6CC04A"/>
			<stop  offset="0.2864" style="stop-color:#66B848"/>
			<stop  offset="0.5968" style="stop-color:#54A044"/>
			<stop  offset="0.8624" style="stop-color:#41873F"/>
		</linearGradient>
		<polygon style="fill:url(#SVGID_8_);" points="97.529,72.467 97.419,72.279 97.419,72.531 		"/>
		<linearGradient id="SVGID_10_" gradientUnits="userSpaceOnUse" x1="57.572" y1="77.3492" x2="99.1191" y2="77.3492">
			<stop  offset="0.0919" style="stop-color:#6CC04A"/>
			<stop  offset="0.2864" style="stop-color:#66B848"/>
			<stop  offset="0.5968" style="stop-color:#54A044"/>
			<stop  offset="0.8624" style="stop-color:#41873F"/>
		</linearGradient>
		<path style="fill:url(#SVGID_10_);" d="M95.984,72.775l-16.59,9.571c-0.228,0.132-0.477,0.214-0.732,0.249l1.121,0.602L99,72.531
			v-0.251l-1.246-0.778C97.618,72.031,96.467,72.496,95.984,72.775z"/>
		<linearGradient id="SVGID_12_" gradientUnits="userSpaceOnUse" x1="103.9018" y1="46.8188" x2="80.27" y2="95.0276">
			<stop  offset="0" style="stop-color:#41873F"/>
			<stop  offset="0.3288" style="stop-color:#418B3D"/>
			<stop  offset="0.6352" style="stop-color:#419637"/>
			<stop  offset="0.9319" style="stop-color:#3FA92D"/>
			<stop  offset="1" style="stop-color:#3FAE2A"/>
		</linearGradient>
		<path style="fill:url(#SVGID_12_);" d="M95.984,72.775l-16.59,9.571c-0.228,0.132-0.477,0.214-0.732,0.249l1.121,0.602L99,72.531
			v-0.251l-1.246-0.778C97.618,72.031,96.467,72.496,95.984,72.775z"/>
	</g>
</g>
</svg>
