<?xml version="1.0" encoding="utf-8"?>
<!-- Generator: Adobe Illustrator 20.1.0, SVG Export Plug-In . SVG Version: 6.00 Build 0)  -->
<svg version="1.1" id="Layer_1" xmlns="http://www.w3.org/2000/svg" xmlns:xlink="http://www.w3.org/1999/xlink" x="0px" y="0px"
	 viewBox="0 0 200 144" style="enable-background:new 0 0 200 144;" xml:space="preserve">
<style type="text/css">
	.st0{fill:#E4EDF1;}
	.st1{fill:#E3E3E3;}
	.st2{fill:#5E5E5E;}
	.st3{fill:#2E2E2E;}
	.st4{fill:#7CABC2;}
	.st5{fill:#96BCCE;}
	.st6{fill:#2C3E50;}
	.st7{clip-path:url(#SVGID_2_);fill:#447995;}
	.st8{fill:#FFFFFF;}
	
		.st9{fill-rule:evenodd;clip-rule:evenodd;fill:none;stroke:#E3E3E3;stroke-width:1.3089;stroke-linecap:round;stroke-linejoin:round;stroke-miterlimit:10;stroke-dasharray:1.3089,2.6179;}
	.st10{fill:#5D5D5D;}
	.st11{fill:#C7C7C7;}
	.st12{fill:none;stroke:#909090;stroke-width:1.1744;stroke-miterlimit:10;stroke-dasharray:2.3488,3.5233;}
	.st13{fill:#395B71;}
	.st14{fill-rule:evenodd;clip-rule:evenodd;fill:#395B71;}
	.st15{fill-rule:evenodd;clip-rule:evenodd;fill:#2E2E2E;}
	.st16{fill:#2C3E58;}
	.st17{fill:#447995;}
	.st18{fill:none;}
	.st19{fill:#4889A8;}
	.st20{fill:#929090;}
	.st21{fill:#96BBCD;}
	.st22{fill:#3A5C71;}
	.st23{fill:#757575;}
	.st24{fill:#682A7A;}
	.st25{fill:#478AA9;}
	.st26{fill:#672A79;}
	.st27{fill:#334D63;}
	.st28{fill:#5D5F5E;}
	.st29{fill:#FAB516;}
	.st30{fill:#F5891F;}
	.st31{fill:#CB6D29;}
	.st32{fill:#171717;}
	.st33{fill:#CADEE6;}
	.st34{opacity:0.41;fill:#929090;}
	.st35{clip-path:url(#SVGID_4_);}
	.st36{clip-path:url(#SVGID_6_);}
	.st37{fill:#FE8B0C;}
	.st38{fill:#231F20;}
	.st39{fill:#909090;}
	.st40{fill:#2E2E2E;stroke:#8F8F8F;stroke-width:0.7512;stroke-miterlimit:10;}
	.st41{fill:#8F8F8F;}
	.st42{fill:#C6C6C6;}
	.st43{fill:#777677;}
	.st44{fill:#D9DCE1;}
	.st45{clip-path:url(#SVGID_8_);}
	.st46{fill:none;stroke:#909090;stroke-miterlimit:10;stroke-dasharray:2,2;}
	.st47{fill:#ACACAC;}
	.st48{fill-rule:evenodd;clip-rule:evenodd;fill:#7CABC2;}
	.st49{fill-rule:evenodd;clip-rule:evenodd;fill:#478AA9;}
	.st50{clip-path:url(#SVGID_10_);}
	.st51{clip-path:url(#SVGID_12_);}
	.st52{fill:#7DB912;}
	.st53{fill:#B2B9C2;}
	.st54{fill:#B0CDDA;}
	.st55{clip-path:url(#SVGID_14_);fill:#333333;}
	.st56{clip-path:url(#SVGID_14_);fill:none;}
	.st57{clip-path:url(#SVGID_14_);fill:#7DB912;}
	.st58{clip-path:url(#SVGID_14_);fill:#FFFFFF;}
	.st59{clip-path:url(#SVGID_16_);fill:#333333;}
	.st60{clip-path:url(#SVGID_16_);fill:none;}
	.st61{clip-path:url(#SVGID_16_);fill:#395B71;}
	.st62{clip-path:url(#SVGID_16_);fill:#FFFFFF;}
	.st63{clip-path:url(#SVGID_16_);fill:#D1D2D2;}
	.st64{clip-path:url(#SVGID_18_);fill:#333333;}
	.st65{clip-path:url(#SVGID_18_);fill:none;}
	.st66{clip-path:url(#SVGID_18_);fill:#478AA9;}
	.st67{clip-path:url(#SVGID_18_);fill:#FFFFFF;}
	.st68{fill:#F58B20;}
	.st69{fill:#2B2B2B;}
	.st70{fill:#3B77AD;}
	.st71{fill:#F7CD13;}
	.st72{fill:#464646;}
	.st73{fill:#929497;}
	.st74{fill:#A6A8AB;}
	.st75{fill:#2F75BB;}
	.st76{fill:none;stroke:#757575;stroke-width:0.5023;stroke-miterlimit:10;}
	.st77{fill:#3C88C6;}
	.st78{fill:#E4CB58;}
	.st79{fill:#58595B;}
	.st80{fill:#007ACC;}
	.st81{fill:#E4E4E5;}
	.st82{fill:#E73F24;}
	.st83{fill:#F58B23;}
	.st84{fill:#ADADAD;}
	.st85{fill:#959595;}
	.st86{fill-rule:evenodd;clip-rule:evenodd;fill:none;stroke:#E3E3E3;stroke-width:1.1603;stroke-miterlimit:10;}
	.st87{fill-rule:evenodd;clip-rule:evenodd;fill:none;stroke:#4889A8;stroke-width:1.1603;stroke-miterlimit:10;}
	.st88{fill-rule:evenodd;clip-rule:evenodd;fill:none;stroke:#0C8A44;stroke-width:1.1603;stroke-miterlimit:10;}
	.st89{fill:#DB58DB;}
	.st90{fill:#B4079C;}
	.st91{fill:#9A37AF;}
	.st92{fill:#721481;}
	.st93{fill:#73AA24;}
	.st94{fill:#05930C;}
	.st95{fill:#2581BF;}
	.st96{fill:#004E8C;}
	.st97{fill:none;stroke:#909090;stroke-width:0.9199;stroke-miterlimit:10;}
	.st98{fill:none;stroke:#909090;stroke-width:0.9494;stroke-miterlimit:10;}
	.st99{fill:none;stroke:#909090;stroke-width:0.8988;stroke-miterlimit:10;}
	.st100{fill:none;stroke:#909090;stroke-width:0.8481;stroke-miterlimit:10;}
	.st101{fill:none;stroke:#909090;stroke-width:0.7975;stroke-miterlimit:10;}
	.st102{fill:none;stroke:#909090;stroke-width:0.7469;stroke-miterlimit:10;}
	.st103{fill:none;stroke:#909090;stroke-width:0.6963;stroke-miterlimit:10;}
	.st104{fill:none;stroke:#447995;stroke-miterlimit:10;}
	.st105{fill:#FFFFFF;stroke:#96BCCE;stroke-width:0.75;stroke-miterlimit:10;}
	.st106{clip-path:url(#SVGID_20_);}
	.st107{fill:#08BBF1;}
	.st108{fill:#0AA5E2;}
	.st109{fill:#B2D7F0;}
	.st110{fill:#181717;}
	.st111{fill:#F3AF21;}
	.st112{fill:none;stroke:#5D5D5D;stroke-width:0.8345;stroke-miterlimit:10;}
	.st113{fill:none;stroke:#5D5D5D;stroke-width:1.3526;stroke-miterlimit:10;}
	.st114{fill-rule:evenodd;clip-rule:evenodd;fill:#7DB912;}
	.st115{fill:#333333;}
	.st116{fill:none;stroke:#FFFFFF;stroke-width:0.2247;stroke-linecap:round;stroke-linejoin:round;stroke-miterlimit:10;}
	.st117{fill:#737374;}
	.st118{fill:#515050;}
	.st119{fill:none;stroke:#000000;stroke-width:0.4495;stroke-miterlimit:1;}
	.st120{fill:#619BB5;}
	.st121{fill:none;stroke:#395B71;stroke-width:0.234;stroke-miterlimit:10;}
	.st122{fill:#32383D;}
	.st123{fill:#00BCF2;}
	.st124{fill:#2C2737;}
	.st125{fill:#201D29;}
	.st126{fill:#22BAED;}
	.st127{fill:#221F1F;}
	.st128{clip-path:url(#SVGID_22_);}
	.st129{clip-path:url(#SVGID_24_);}
	.st130{fill:#5E615F;}
	.st131{fill:none;stroke:#767676;stroke-width:0.199;stroke-miterlimit:10;}
	.st132{fill:#699F63;}
	.st133{fill-rule:evenodd;clip-rule:evenodd;fill:#333333;}
	.st134{fill-rule:evenodd;clip-rule:evenodd;fill:#699F63;}
	.st135{clip-path:url(#XMLID_3_);}
	.st136{fill:url(#SVGID_25_);}
	.st137{fill:url(#SVGID_26_);}
	.st138{fill:url(#SVGID_27_);}
	.st139{fill:url(#SVGID_28_);}
	.st140{fill:url(#SVGID_29_);}
	.st141{fill:url(#SVGID_30_);}
	.st142{fill:#00890B;}
	.st143{clip-path:url(#SVGID_32_);}
	.st144{fill:#515150;}
	.st145{fill:#457994;}
	.st146{fill:#F16424;}
	.st147{fill:#8B6AB1;}
	.st148{fill:#5C2D91;}
	.st149{clip-path:url(#SVGID_34_);fill:#447995;}
</style>
<rect x="0" y="-0.25" class="st0" width="200" height="144"/>
<rect x="16.25" y="83.75" class="st10" width="96" height="48"/>
<g>
	<path class="st27" d="M158.775,41.696L176.03,60.64c5.031-4.738,8.177-11.455,8.177-18.912c0-8.577-4.158-16.18-10.567-20.911
		L158.775,41.696z"/>
	<path class="st142" d="M159.72,38.9l13.226-18.576c-1.662-1.145-3.464-2.099-5.375-2.836L159.72,38.9z"/>
	<path class="st27" d="M157.98,42.088l-24.047-9.562c-1.084,2.861-1.683,5.961-1.683,9.202c0,14.348,11.631,25.979,25.979,25.979
		c6.585,0,12.593-2.455,17.172-6.493L157.98,42.088z"/>
	<path class="st13" d="M157.979,41.171l8.791-23.977c-2.676-0.932-5.548-1.444-8.542-1.444c-10.805,0-20.067,6.598-23.983,15.984
		L157.979,41.171z"/>
</g>
<g>
	<rect x="16.25" y="15.75" class="st17" width="68.257" height="6.891"/>
	<rect x="16.25" y="15.75" class="st27" width="42.013" height="6.891"/>
	<rect x="16.25" y="15.75" class="st142" width="17.72" height="6.891"/>
	<rect x="16.25" y="24.69" class="st17" width="78.501" height="6.891"/>
	<rect x="16.25" y="24.69" class="st27" width="48.16" height="6.891"/>
	<rect x="16.25" y="24.69" class="st142" width="20.514" height="6.891"/>
	<rect x="16.25" y="33.63" class="st17" width="83.902" height="6.891"/>
	<rect x="16.25" y="33.63" class="st27" width="68.63" height="6.891"/>
	<rect x="16.25" y="33.63" class="st142" width="46.483" height="6.891"/>
	<rect x="16.25" y="42.57" class="st17" width="79.432" height="6.891"/>
	<rect x="16.25" y="42.57" class="st27" width="45.552" height="6.891"/>
	<rect x="16.25" y="42.57" class="st142" width="17.348" height="6.891"/>
	<rect x="16.25" y="51.511" class="st17" width="96" height="6.891"/>
	<rect x="16.25" y="51.511" class="st27" width="82.04" height="6.891"/>
	<rect x="16.25" y="51.511" class="st142" width="46.483" height="6.891"/>
</g>
<g>
	<rect x="128.25" y="83.75" class="st25" width="43.381" height="21.18"/>
	
		<rect x="172.749" y="83.75" transform="matrix(-1 -1.224647e-16 1.224647e-16 -1 356.9988 177.6905)" class="st142" width="11.501" height="10.191"/>
	<rect x="128.25" y="105.931" class="st25" width="19.75" height="12.223"/>
	<rect x="149.281" y="105.931" class="st142" width="22.35" height="12.223"/>
	<rect x="128.25" y="119.341" class="st25" width="30.576" height="12.409"/>
	<rect x="160.177" y="119.341" class="st17" width="24.073" height="12.409"/>
	
		<rect x="172.749" y="105.861" transform="matrix(-1 -1.224647e-16 1.224647e-16 -1 356.9988 224.0143)" class="st17" width="11.501" height="12.293"/>
	
		<rect x="172.749" y="95.058" transform="matrix(-1 -1.224647e-16 1.224647e-16 -1 356.9988 199.8711)" class="st17" width="11.501" height="9.755"/>
</g>
<g>
	<g>
		<polygon class="st39" points="63.879,115.077 42.627,101.324 35.487,88.547 17.696,100.66 16.446,98.826 36.241,85.349 
			44.295,99.761 63.826,112.399 77.077,103.045 87.751,102.65 103.074,86.52 111.455,89.068 110.937,91.226 103.8,88.976 
			88.736,104.834 77.819,105.238 		"/>
	</g>
	<g>
		<polygon class="st52" points="64.346,126.445 43.405,109.245 33.023,96.64 17.892,113.284 16.25,111.792 33.106,93.25 
			45.048,107.751 64.159,123.422 78.813,107.996 95.33,101.551 107.227,93.756 112.25,95.465 111.742,97.624 107.645,96.134 
			96.244,103.576 80.081,109.883 		"/>
	</g>
</g>
</svg>
