<?xml version="1.0" encoding="utf-8"?>
<!-- Generator: Adobe Illustrator 20.1.0, SVG Export Plug-In . SVG Version: 6.00 Build 0)  -->
<svg version="1.1" id="Layer_1" xmlns="http://www.w3.org/2000/svg" xmlns:xlink="http://www.w3.org/1999/xlink" x="0px" y="0px"
	 viewBox="0 0 200 144" style="enable-background:new 0 0 200 144;" xml:space="preserve">
<style type="text/css">
	.st0{fill:#E4EDF1;}
	.st1{fill:#E3E3E3;}
	.st2{fill:#5E5E5E;}
	.st3{fill:#2E2E2E;}
	.st4{fill:#7CABC2;}
	.st5{fill:#96BCCE;}
	.st6{fill:#2C3E50;}
	.st7{clip-path:url(#SVGID_2_);fill:#447995;}
	.st8{fill:#FFFFFF;}
	
		.st9{fill-rule:evenodd;clip-rule:evenodd;fill:none;stroke:#E3E3E3;stroke-width:1.3089;stroke-linecap:round;stroke-linejoin:round;stroke-miterlimit:10;stroke-dasharray:1.3089,2.6179;}
	.st10{fill:#5D5D5D;}
	.st11{fill:#C7C7C7;}
	.st12{fill:none;stroke:#909090;stroke-width:1.1744;stroke-miterlimit:10;stroke-dasharray:2.3488,3.5233;}
	.st13{fill:#395B71;}
	.st14{fill-rule:evenodd;clip-rule:evenodd;fill:#395B71;}
	.st15{fill-rule:evenodd;clip-rule:evenodd;fill:#2E2E2E;}
	.st16{fill:#2C3E58;}
	.st17{fill:#447995;}
	.st18{fill:none;}
	.st19{fill:#4889A8;}
	.st20{fill:#929090;}
	.st21{fill:#96BBCD;}
	.st22{fill:#3A5C71;}
	.st23{fill:#757575;}
	.st24{fill:#682A7A;}
	.st25{fill:#478AA9;}
	.st26{fill:#672A79;}
	.st27{fill:#334D63;}
	.st28{fill:#5D5F5E;}
	.st29{fill:#FAB516;}
	.st30{fill:#F5891F;}
	.st31{fill:#CB6D29;}
	.st32{fill:#171717;}
	.st33{fill:#CADEE6;}
	.st34{opacity:0.41;fill:#929090;}
	.st35{clip-path:url(#SVGID_4_);}
	.st36{clip-path:url(#SVGID_6_);}
	.st37{fill:#FE8B0C;}
	.st38{fill:#231F20;}
	.st39{fill:#909090;}
	.st40{fill:#2E2E2E;stroke:#8F8F8F;stroke-width:0.7512;stroke-miterlimit:10;}
	.st41{fill:#8F8F8F;}
	.st42{fill:#C6C6C6;}
	.st43{fill:#777677;}
	.st44{fill:#D9DCE1;}
	.st45{clip-path:url(#SVGID_8_);}
	.st46{fill:none;stroke:#909090;stroke-miterlimit:10;stroke-dasharray:2,2;}
	.st47{fill:#ACACAC;}
	.st48{fill-rule:evenodd;clip-rule:evenodd;fill:#7CABC2;}
	.st49{fill-rule:evenodd;clip-rule:evenodd;fill:#478AA9;}
	.st50{clip-path:url(#SVGID_10_);}
	.st51{clip-path:url(#SVGID_12_);}
	.st52{fill:#7DB912;}
	.st53{fill:#B2B9C2;}
	.st54{fill:#B0CDDA;}
	.st55{clip-path:url(#SVGID_14_);fill:#333333;}
	.st56{clip-path:url(#SVGID_14_);fill:none;}
	.st57{clip-path:url(#SVGID_14_);fill:#7DB912;}
	.st58{clip-path:url(#SVGID_14_);fill:#FFFFFF;}
	.st59{clip-path:url(#SVGID_16_);fill:#333333;}
	.st60{clip-path:url(#SVGID_16_);fill:none;}
	.st61{clip-path:url(#SVGID_16_);fill:#395B71;}
	.st62{clip-path:url(#SVGID_16_);fill:#FFFFFF;}
	.st63{clip-path:url(#SVGID_16_);fill:#D1D2D2;}
	.st64{clip-path:url(#SVGID_18_);fill:#333333;}
	.st65{clip-path:url(#SVGID_18_);fill:none;}
	.st66{clip-path:url(#SVGID_18_);fill:#478AA9;}
	.st67{clip-path:url(#SVGID_18_);fill:#FFFFFF;}
	.st68{fill:#F58B20;}
	.st69{fill:#2B2B2B;}
	.st70{fill:#3B77AD;}
	.st71{fill:#F7CD13;}
	.st72{fill:#464646;}
	.st73{fill:#929497;}
	.st74{fill:#A6A8AB;}
	.st75{fill:#2F75BB;}
	.st76{fill:none;stroke:#757575;stroke-width:0.5023;stroke-miterlimit:10;}
	.st77{fill:#3C88C6;}
	.st78{fill:#E4CB58;}
	.st79{fill:#58595B;}
	.st80{fill:#007ACC;}
	.st81{fill:#E4E4E5;}
	.st82{fill:#E73F24;}
	.st83{fill:#F58B23;}
	.st84{fill:#ADADAD;}
	.st85{fill:#959595;}
	.st86{fill-rule:evenodd;clip-rule:evenodd;fill:none;stroke:#E3E3E3;stroke-width:1.1603;stroke-miterlimit:10;}
	.st87{fill-rule:evenodd;clip-rule:evenodd;fill:none;stroke:#4889A8;stroke-width:1.1603;stroke-miterlimit:10;}
	.st88{fill-rule:evenodd;clip-rule:evenodd;fill:none;stroke:#0C8A44;stroke-width:1.1603;stroke-miterlimit:10;}
	.st89{fill:#DB58DB;}
	.st90{fill:#B4079C;}
	.st91{fill:#9A37AF;}
	.st92{fill:#721481;}
	.st93{fill:#73AA24;}
	.st94{fill:#05930C;}
	.st95{fill:#2581BF;}
	.st96{fill:#004E8C;}
	.st97{fill:none;stroke:#909090;stroke-width:0.9199;stroke-miterlimit:10;}
	.st98{fill:none;stroke:#909090;stroke-width:0.9494;stroke-miterlimit:10;}
	.st99{fill:none;stroke:#909090;stroke-width:0.8988;stroke-miterlimit:10;}
	.st100{fill:none;stroke:#909090;stroke-width:0.8481;stroke-miterlimit:10;}
	.st101{fill:none;stroke:#909090;stroke-width:0.7975;stroke-miterlimit:10;}
	.st102{fill:none;stroke:#909090;stroke-width:0.7469;stroke-miterlimit:10;}
	.st103{fill:none;stroke:#909090;stroke-width:0.6963;stroke-miterlimit:10;}
	.st104{fill:none;stroke:#447995;stroke-miterlimit:10;}
	.st105{fill:#FFFFFF;stroke:#96BCCE;stroke-width:0.75;stroke-miterlimit:10;}
	.st106{clip-path:url(#SVGID_20_);}
	.st107{fill:#08BBF1;}
	.st108{fill:#0AA5E2;}
	.st109{fill:#B2D7F0;}
	.st110{fill:#181717;}
	.st111{fill:#F3AF21;}
	.st112{fill:none;stroke:#5D5D5D;stroke-width:0.8345;stroke-miterlimit:10;}
	.st113{fill:none;stroke:#5D5D5D;stroke-width:1.3526;stroke-miterlimit:10;}
	.st114{fill-rule:evenodd;clip-rule:evenodd;fill:#7DB912;}
	.st115{fill:#333333;}
	.st116{fill:none;stroke:#FFFFFF;stroke-width:0.2247;stroke-linecap:round;stroke-linejoin:round;stroke-miterlimit:10;}
	.st117{fill:#737374;}
	.st118{fill:#515050;}
	.st119{fill:none;stroke:#000000;stroke-width:0.4495;stroke-miterlimit:1;}
	.st120{fill:#619BB5;}
	.st121{fill:none;stroke:#395B71;stroke-width:0.234;stroke-miterlimit:10;}
	.st122{fill:#32383D;}
	.st123{fill:#00BCF2;}
	.st124{fill:#2C2737;}
	.st125{fill:#201D29;}
	.st126{fill:#22BAED;}
	.st127{fill:#221F1F;}
	.st128{clip-path:url(#SVGID_22_);}
	.st129{clip-path:url(#SVGID_24_);}
	.st130{fill:#5E615F;}
	.st131{fill:none;stroke:#767676;stroke-width:0.199;stroke-miterlimit:10;}
	.st132{fill:#699F63;}
	.st133{fill-rule:evenodd;clip-rule:evenodd;fill:#333333;}
	.st134{fill-rule:evenodd;clip-rule:evenodd;fill:#699F63;}
	.st135{clip-path:url(#XMLID_3_);}
	.st136{fill:url(#SVGID_25_);}
	.st137{fill:url(#SVGID_26_);}
	.st138{fill:url(#SVGID_27_);}
	.st139{fill:url(#SVGID_28_);}
	.st140{fill:url(#SVGID_29_);}
	.st141{fill:url(#SVGID_30_);}
	.st142{fill:#00890B;}
	.st143{clip-path:url(#SVGID_32_);}
	.st144{fill:#515150;}
	.st145{fill:#457994;}
	.st146{fill:#F16424;}
	.st147{fill:#8B6AB1;}
	.st148{fill:#5C2D91;}
	.st149{clip-path:url(#SVGID_34_);fill:#447995;}
</style>
<rect x="0" class="st0" width="200" height="144"/>
<g>
	<g>
		<rect x="14.601" y="9.732" class="st120" width="171.947" height="92.853"/>
		<polygon class="st5" points="186.547,73.998 186.547,8.261 118.065,8.261 		"/>
		<g>
			<polygon class="st10" points="136.832,122.87 63.805,122.87 68.084,118.02 132.553,118.02 			"/>
			<path class="st3" d="M133.944,125.58c-3.263,0-64.023,0-67.126,0c-3.102,0-3.156-2.728-3.156-2.728h73.17
				C136.832,122.852,137.206,125.58,133.944,125.58z"/>
			<polygon class="st3" points="116.15,119.732 84.486,119.732 87.054,105.183 113.583,105.183 			"/>
			<path class="st3" d="M188.054,7.624H14.758c-2.18,0-3.946,1.767-3.946,3.946v91.093c0,2.179,1.767,3.946,3.946,3.946h173.296
				c2.179,0,3.946-1.767,3.946-3.946V11.57C192,9.391,190.233,7.624,188.054,7.624z M186.022,99.719H16.639V12.764h169.384V99.719z"
				/>
			<polygon class="st10" points="170.196,136.593 32.268,136.593 40.349,127.434 162.114,127.434 			"/>
			<polygon class="st3" points="157.535,133.812 44.928,133.812 48.882,128.504 153.581,128.504 			"/>
			<path class="st3" d="M164.741,140c-6.162,0-120.923,0-126.782,0s-5.96-3.441-5.96-3.441h138.198
				C170.196,136.559,170.903,140,164.741,140z"/>
		</g>
	</g>
	<g>
		<path class="st8" d="M85.537,71.99c-2.647,1.244-5.671,1.865-9.067,1.865c-2.425,0-4.626-0.427-6.604-1.279
			c-1.979-0.854-3.665-2.038-5.061-3.553c-1.396-1.516-2.473-3.318-3.23-5.408c-0.758-2.089-1.137-4.37-1.137-6.842
			c0-2.601,0.403-5.021,1.209-7.262c0.805-2.241,1.958-4.188,3.457-5.838c1.499-1.651,3.313-2.947,5.443-3.889
			c2.129-0.94,4.518-1.411,7.166-1.411c2.918,0,5.526,0.446,7.823,1.34v3.397c-2.456-1.229-5.08-1.842-7.872-1.842
			c-2.217,0-4.187,0.383-5.909,1.148s-3.174,1.83-4.354,3.193c-1.181,1.364-2.082,2.976-2.703,4.833
			c-0.623,1.858-0.934,3.888-0.934,6.089c0,1.979,0.279,3.841,0.838,5.587c0.558,1.747,1.383,3.274,2.476,4.582
			s2.452,2.345,4.079,3.11s3.518,1.148,5.671,1.148c3.302,0,6.205-0.693,8.709-2.082V71.99z"/>
		<path class="st8" d="M102.023,60.29v9.737h-2.584V60.29h-9.762v-2.608h9.762V47.92h2.584v9.762h9.762v2.608H102.023z"/>
		<path class="st8" d="M130.688,60.29v9.737h-2.584V60.29h-9.762v-2.608h9.762V47.92h2.584v9.762h9.762v2.608H130.688z"/>
	</g>
</g>
</svg>
