<?xml version="1.0" encoding="utf-8"?>
<!-- Generator: Adobe Illustrator 20.1.0, SVG Export Plug-In . SVG Version: 6.00 Build 0)  -->
<svg version="1.1" id="Layer_1" xmlns="http://www.w3.org/2000/svg" xmlns:xlink="http://www.w3.org/1999/xlink" x="0px" y="0px"
	 viewBox="0 0 200 144" style="enable-background:new 0 0 200 144;" xml:space="preserve">
<style type="text/css">
	.st0{fill:#E4EDF1;}
	.st1{fill:#E3E3E3;}
	.st2{fill:#5E5E5E;}
	.st3{fill:#2E2E2E;}
	.st4{fill:#7CABC2;}
	.st5{fill:#96BCCE;}
	.st6{fill:#2C3E50;}
	.st7{clip-path:url(#SVGID_2_);fill:#447995;}
	.st8{fill:#FFFFFF;}
	
		.st9{fill-rule:evenodd;clip-rule:evenodd;fill:none;stroke:#E3E3E3;stroke-width:1.3089;stroke-linecap:round;stroke-linejoin:round;stroke-miterlimit:10;stroke-dasharray:1.3089,2.6179;}
	.st10{fill:#5D5D5D;}
	.st11{fill:#C7C7C7;}
	.st12{fill:none;stroke:#909090;stroke-width:1.1744;stroke-miterlimit:10;stroke-dasharray:2.3488,3.5233;}
	.st13{fill:#395B71;}
	.st14{fill-rule:evenodd;clip-rule:evenodd;fill:#395B71;}
	.st15{fill-rule:evenodd;clip-rule:evenodd;fill:#2E2E2E;}
	.st16{fill:#2C3E58;}
	.st17{fill:#447995;}
	.st18{fill:none;}
	.st19{fill:#4889A8;}
	.st20{fill:#929090;}
	.st21{fill:#96BBCD;}
	.st22{fill:#3A5C71;}
	.st23{fill:#757575;}
	.st24{fill:#682A7A;}
	.st25{fill:#478AA9;}
	.st26{fill:#672A79;}
	.st27{fill:#334D63;}
	.st28{fill:#5D5F5E;}
	.st29{fill:#FAB516;}
	.st30{fill:#F5891F;}
	.st31{fill:#CB6D29;}
	.st32{fill:#171717;}
	.st33{fill:#CADEE6;}
	.st34{opacity:0.41;fill:#929090;}
	.st35{clip-path:url(#SVGID_4_);}
	.st36{clip-path:url(#SVGID_6_);}
	.st37{fill:#FE8B0C;}
	.st38{fill:#231F20;}
	.st39{fill:#909090;}
	.st40{fill:#2E2E2E;stroke:#8F8F8F;stroke-width:0.7512;stroke-miterlimit:10;}
	.st41{fill:#8F8F8F;}
	.st42{fill:#C6C6C6;}
	.st43{fill:#777677;}
	.st44{fill:#D9DCE1;}
	.st45{clip-path:url(#SVGID_8_);}
	.st46{fill:none;stroke:#909090;stroke-miterlimit:10;stroke-dasharray:2,2;}
	.st47{fill:#ACACAC;}
	.st48{fill-rule:evenodd;clip-rule:evenodd;fill:#7CABC2;}
	.st49{fill-rule:evenodd;clip-rule:evenodd;fill:#478AA9;}
	.st50{clip-path:url(#SVGID_10_);}
	.st51{clip-path:url(#SVGID_12_);}
	.st52{fill:#7DB912;}
	.st53{fill:#B2B9C2;}
	.st54{fill:#B0CDDA;}
	.st55{clip-path:url(#SVGID_14_);fill:#333333;}
	.st56{clip-path:url(#SVGID_14_);fill:none;}
	.st57{clip-path:url(#SVGID_14_);fill:#7DB912;}
	.st58{clip-path:url(#SVGID_14_);fill:#FFFFFF;}
	.st59{clip-path:url(#SVGID_16_);fill:#333333;}
	.st60{clip-path:url(#SVGID_16_);fill:none;}
	.st61{clip-path:url(#SVGID_16_);fill:#395B71;}
	.st62{clip-path:url(#SVGID_16_);fill:#FFFFFF;}
	.st63{clip-path:url(#SVGID_16_);fill:#D1D2D2;}
	.st64{clip-path:url(#SVGID_18_);fill:#333333;}
	.st65{clip-path:url(#SVGID_18_);fill:none;}
	.st66{clip-path:url(#SVGID_18_);fill:#478AA9;}
	.st67{clip-path:url(#SVGID_18_);fill:#FFFFFF;}
	.st68{fill:#F58B20;}
	.st69{fill:#2B2B2B;}
	.st70{fill:#3B77AD;}
	.st71{fill:#F7CD13;}
	.st72{fill:#464646;}
	.st73{fill:#929497;}
	.st74{fill:#A6A8AB;}
	.st75{fill:#2F75BB;}
	.st76{fill:none;stroke:#757575;stroke-width:0.5023;stroke-miterlimit:10;}
	.st77{fill:#3C88C6;}
	.st78{fill:#E4CB58;}
	.st79{fill:#58595B;}
	.st80{fill:#007ACC;}
	.st81{fill:#E4E4E5;}
	.st82{fill:#E73F24;}
	.st83{fill:#F58B23;}
	.st84{fill:#ADADAD;}
	.st85{fill:#959595;}
	.st86{fill-rule:evenodd;clip-rule:evenodd;fill:none;stroke:#E3E3E3;stroke-width:1.1603;stroke-miterlimit:10;}
	.st87{fill-rule:evenodd;clip-rule:evenodd;fill:none;stroke:#4889A8;stroke-width:1.1603;stroke-miterlimit:10;}
	.st88{fill-rule:evenodd;clip-rule:evenodd;fill:none;stroke:#0C8A44;stroke-width:1.1603;stroke-miterlimit:10;}
	.st89{fill:#DB58DB;}
	.st90{fill:#B4079C;}
	.st91{fill:#9A37AF;}
	.st92{fill:#721481;}
	.st93{fill:#73AA24;}
	.st94{fill:#05930C;}
	.st95{fill:#2581BF;}
	.st96{fill:#004E8C;}
	.st97{fill:none;stroke:#909090;stroke-width:0.9199;stroke-miterlimit:10;}
	.st98{fill:none;stroke:#909090;stroke-width:0.9494;stroke-miterlimit:10;}
	.st99{fill:none;stroke:#909090;stroke-width:0.8988;stroke-miterlimit:10;}
	.st100{fill:none;stroke:#909090;stroke-width:0.8481;stroke-miterlimit:10;}
	.st101{fill:none;stroke:#909090;stroke-width:0.7975;stroke-miterlimit:10;}
	.st102{fill:none;stroke:#909090;stroke-width:0.7469;stroke-miterlimit:10;}
	.st103{fill:none;stroke:#909090;stroke-width:0.6963;stroke-miterlimit:10;}
	.st104{fill:none;stroke:#447995;stroke-miterlimit:10;}
	.st105{fill:#FFFFFF;stroke:#96BCCE;stroke-width:0.75;stroke-miterlimit:10;}
	.st106{clip-path:url(#SVGID_20_);}
	.st107{fill:#08BBF1;}
	.st108{fill:#0AA5E2;}
	.st109{fill:#B2D7F0;}
	.st110{fill:#181717;}
	.st111{fill:#F3AF21;}
	.st112{fill:none;stroke:#5D5D5D;stroke-width:0.8345;stroke-miterlimit:10;}
	.st113{fill:none;stroke:#5D5D5D;stroke-width:1.3526;stroke-miterlimit:10;}
	.st114{fill-rule:evenodd;clip-rule:evenodd;fill:#7DB912;}
	.st115{fill:#333333;}
	.st116{fill:none;stroke:#FFFFFF;stroke-width:0.2247;stroke-linecap:round;stroke-linejoin:round;stroke-miterlimit:10;}
	.st117{fill:#737374;}
	.st118{fill:#515050;}
	.st119{fill:none;stroke:#000000;stroke-width:0.4495;stroke-miterlimit:1;}
	.st120{fill:#619BB5;}
	.st121{fill:none;stroke:#395B71;stroke-width:0.234;stroke-miterlimit:10;}
	.st122{fill:#32383D;}
	.st123{fill:#00BCF2;}
	.st124{fill:#2C2737;}
	.st125{fill:#201D29;}
	.st126{fill:#22BAED;}
	.st127{fill:#221F1F;}
	.st128{clip-path:url(#SVGID_22_);}
	.st129{clip-path:url(#SVGID_24_);}
	.st130{fill:#5E615F;}
	.st131{fill:none;stroke:#767676;stroke-width:0.199;stroke-miterlimit:10;}
	.st132{fill:#699F63;}
	.st133{fill-rule:evenodd;clip-rule:evenodd;fill:#333333;}
	.st134{fill-rule:evenodd;clip-rule:evenodd;fill:#699F63;}
	.st135{clip-path:url(#XMLID_3_);}
	.st136{fill:url(#SVGID_25_);}
	.st137{fill:url(#SVGID_26_);}
	.st138{fill:url(#SVGID_27_);}
	.st139{fill:url(#SVGID_28_);}
	.st140{fill:url(#SVGID_29_);}
	.st141{fill:url(#SVGID_30_);}
	.st142{fill:#00890B;}
	.st143{clip-path:url(#SVGID_32_);}
	.st144{fill:#515150;}
	.st145{fill:#457994;}
	.st146{fill:#F16424;}
	.st147{fill:#8B6AB1;}
	.st148{fill:#5C2D91;}
	.st149{clip-path:url(#SVGID_34_);fill:#447995;}
</style>
<rect class="st0" width="200" height="144"/>
<g>
	<rect x="36.68" y="9.682" class="st120" width="134.971" height="74.068"/>
	<polygon class="st5" points="171.65,48.88 171.65,8.508 131.279,8.508 	"/>
	<polygon class="st2" points="134.183,99.931 75.93,99.931 79.343,96.062 130.769,96.062 	"/>
	<path class="st3" d="M131.879,102.092c-2.603,0-51.071,0-53.546,0c-2.475,0-2.517-2.176-2.517-2.176h58.367
		C134.183,99.916,134.481,102.092,131.879,102.092z"/>
	<polygon class="st3" points="117.685,97.427 92.427,97.427 94.475,85.822 115.637,85.822 	"/>
	<path class="st127" d="M172.852,8H36.805c-1.739,0-3.148,1.409-3.148,3.148v72.664c0,1.738,1.409,3.148,3.148,3.148h136.047
		c1.739,0,3.148-1.409,3.148-3.148V11.148C176,9.409,174.591,8,172.852,8z M171.232,81.463H38.306V12.1h132.926V81.463z"/>
	<polygon class="st2" points="160.797,110.878 50.773,110.878 57.219,103.571 154.35,103.571 	"/>
	<polygon class="st3" points="150.698,108.659 60.872,108.659 64.026,104.425 147.544,104.425 	"/>
	<path class="st3" d="M156.445,113.595c-4.916,0-96.459,0-101.133,0s-4.754-2.744-4.754-2.744h110.239
		C160.797,110.851,161.361,113.595,156.445,113.595z"/>
	<polygon class="st8" points="99.286,45.753 99.286,30.088 82.968,32.227 82.968,45.753 	"/>
	<polygon class="st8" points="101.213,45.753 122.63,45.753 122.63,27.029 101.213,29.836 	"/>
	<polygon class="st8" points="101.213,47.514 101.213,63.632 122.63,66.578 122.63,47.514 	"/>
	<polygon class="st8" points="99.286,47.514 82.974,47.514 83.081,61.139 99.286,63.367 	"/>
</g>
<g>
	<path class="st127" d="M185.442,118.08V61.333c0-1.231-0.998-2.23-2.23-2.23h-78.696c-1.231,0-2.23,0.998-2.23,2.23v56.747H185.442
		z"/>
	<path class="st127" d="M192.262,124.382c-2.492,0-93.189,0-96.403,0c-3.213,0-3.738-3.32-3.738-3.32H196
		C196,121.062,194.754,124.382,192.262,124.382z"/>
	<rect x="140.025" y="58.333" class="st130" width="1.312" height="1.197"/>
	<rect x="139.477" y="109.147" class="st130" width="2.408" height="2.197"/>
	<g>
		<rect x="106.066" y="63.323" class="st120" width="74.538" height="46.239"/>
		<polygon class="st5" points="180.577,63.323 151.999,63.323 180.577,90.064 		"/>
	</g>
	<polygon class="st47" points="92.121,121.062 102.286,117.422 185.442,117.422 196,121.062 	"/>
	<polygon class="st2" points="104.103,119.451 106.953,118.135 180.416,118.135 183.486,119.451 	"/>
	<polygon class="st8" points="137.254,82.446 137.254,70.619 124.934,72.234 124.934,82.446 	"/>
	<polygon class="st8" points="138.708,82.446 154.878,82.446 154.878,68.31 138.708,70.429 	"/>
	<polygon class="st8" points="138.708,83.775 138.708,95.944 154.878,98.168 154.878,83.775 	"/>
	<polygon class="st8" points="137.254,83.775 124.939,83.775 125.019,94.062 137.254,95.744 	"/>
</g>
<g>
	<path class="st127" d="M9.719,89.605l66.762,3.123c1.028,0.048,1.887-0.772,1.887-1.801V33.803c0-1.029-0.859-1.849-1.887-1.801
		L9.719,35.125C8.757,35.17,8,35.963,8,36.926v50.878C8,88.767,8.757,89.56,9.719,89.605z"/>
	<polygon class="st120" points="12.115,84.793 73.018,87.262 73.018,37.058 12.115,39.527 	"/>
	<polygon class="st5" points="73.018,59.91 73.018,37.058 51.056,37.948 	"/>
	<polygon class="st8" points="39.261,61.044 39.261,48.952 26.665,50.603 26.665,61.044 	"/>
	<polygon class="st8" points="40.748,61.044 57.28,61.044 57.28,46.591 40.748,48.757 	"/>
	<polygon class="st8" points="40.748,62.403 40.748,74.844 57.28,77.118 57.28,62.403 	"/>
	<polygon class="st8" points="39.261,62.403 26.67,62.403 26.752,72.92 39.261,74.64 	"/>
</g>
<g>
	<path class="st3" d="M110.029,138.136H88.052c-1.088,0-1.971-0.882-1.971-1.971V89.971c0-1.088,0.882-1.971,1.971-1.971h21.977
		c1.088,0,1.971,0.882,1.971,1.971v46.195C112,137.254,111.118,138.136,110.029,138.136z"/>
	<path class="st3" d="M86.082,131.551v5.346c0,0.684,0.555,1.239,1.239,1.239h23.44c0.684,0,1.239-0.555,1.239-1.239v-5.346H86.082z
		"/>
	<rect x="87.923" y="94.019" class="st120" width="22.023" height="36.54"/>
	<g>
		<path class="st131" d="M102.228,91.045h-6.586c-0.352,0-0.637-0.285-0.637-0.637s0.285-0.637,0.637-0.637h6.586
			c0.352,0,0.637,0.285,0.637,0.637S102.58,91.045,102.228,91.045z"/>
	</g>
	<circle class="st47" cx="90.968" cy="134.313" r="0.708"/>
	<circle class="st47" cx="103.804" cy="132.02" r="0.708"/>
	<polygon class="st47" points="99.678,135.021 98.227,134.844 98.227,133.675 99.678,133.534 	"/>
	<polygon class="st5" points="109.946,113.706 109.946,94.019 90.26,94.019 	"/>
	<polygon class="st8" points="97.73,108.112 97.73,102.742 92.136,103.475 92.136,108.112 	"/>
	<polygon class="st8" points="98.391,108.112 105.733,108.112 105.733,101.693 98.391,102.655 	"/>
	<polygon class="st8" points="98.391,108.716 98.391,114.241 105.733,115.251 105.733,108.716 	"/>
	<polygon class="st8" points="97.73,108.716 92.138,108.716 92.175,113.386 97.73,114.151 	"/>
</g>
</svg>
