<?xml version="1.0" encoding="utf-8"?>
<!-- Generator: Adobe Illustrator 20.1.0, SVG Export Plug-In . SVG Version: 6.00 Build 0)  -->
<svg version="1.1" id="Layer_1" xmlns="http://www.w3.org/2000/svg" xmlns:xlink="http://www.w3.org/1999/xlink" x="0px" y="0px"
	 viewBox="0 0 200 144" style="enable-background:new 0 0 200 144;" xml:space="preserve">
<style type="text/css">
	.st0{fill:#E4EDF1;}
	.st1{fill:#E3E3E3;}
	.st2{fill:#5E5E5E;}
	.st3{fill:#2E2E2E;}
	.st4{fill:#7CABC2;}
	.st5{fill:#96BCCE;}
	.st6{fill:#2C3E50;}
	.st7{clip-path:url(#SVGID_2_);fill:#447995;}
	.st8{fill:#FFFFFF;}
	
		.st9{fill-rule:evenodd;clip-rule:evenodd;fill:none;stroke:#E3E3E3;stroke-width:1.3089;stroke-linecap:round;stroke-linejoin:round;stroke-miterlimit:10;stroke-dasharray:1.3089,2.6179;}
	.st10{fill:#5D5D5D;}
	.st11{fill:#C7C7C7;}
	.st12{fill:none;stroke:#909090;stroke-width:1.1744;stroke-miterlimit:10;stroke-dasharray:2.3488,3.5233;}
	.st13{fill:#395B71;}
	.st14{fill-rule:evenodd;clip-rule:evenodd;fill:#395B71;}
	.st15{fill-rule:evenodd;clip-rule:evenodd;fill:#2E2E2E;}
	.st16{fill:#2C3E58;}
	.st17{fill:#447995;}
	.st18{fill:none;}
	.st19{fill:#4889A8;}
	.st20{fill:#929090;}
	.st21{fill:#96BBCD;}
	.st22{fill:#3A5C71;}
	.st23{fill:#757575;}
	.st24{fill:#682A7A;}
	.st25{fill:#478AA9;}
	.st26{fill:#672A79;}
	.st27{fill:#334D63;}
	.st28{fill:#5D5F5E;}
	.st29{fill:#FAB516;}
	.st30{fill:#F5891F;}
	.st31{fill:#CB6D29;}
	.st32{fill:#171717;}
	.st33{fill:#CADEE6;}
	.st34{opacity:0.41;fill:#929090;}
	.st35{clip-path:url(#SVGID_4_);}
	.st36{clip-path:url(#SVGID_6_);}
	.st37{fill:#FE8B0C;}
	.st38{fill:#231F20;}
	.st39{fill:#909090;}
	.st40{fill:#2E2E2E;stroke:#8F8F8F;stroke-width:0.7512;stroke-miterlimit:10;}
	.st41{fill:#8F8F8F;}
	.st42{fill:#C6C6C6;}
	.st43{fill:#777677;}
	.st44{fill:#D9DCE1;}
	.st45{clip-path:url(#SVGID_8_);}
	.st46{fill:none;stroke:#909090;stroke-miterlimit:10;stroke-dasharray:2,2;}
	.st47{fill:#ACACAC;}
	.st48{fill-rule:evenodd;clip-rule:evenodd;fill:#7CABC2;}
	.st49{fill-rule:evenodd;clip-rule:evenodd;fill:#478AA9;}
	.st50{clip-path:url(#SVGID_10_);}
	.st51{clip-path:url(#SVGID_12_);}
	.st52{fill:#7DB912;}
	.st53{fill:#B2B9C2;}
	.st54{fill:#B0CDDA;}
	.st55{clip-path:url(#SVGID_14_);fill:#333333;}
	.st56{clip-path:url(#SVGID_14_);fill:none;}
	.st57{clip-path:url(#SVGID_14_);fill:#7DB912;}
	.st58{clip-path:url(#SVGID_14_);fill:#FFFFFF;}
	.st59{clip-path:url(#SVGID_16_);fill:#333333;}
	.st60{clip-path:url(#SVGID_16_);fill:none;}
	.st61{clip-path:url(#SVGID_16_);fill:#395B71;}
	.st62{clip-path:url(#SVGID_16_);fill:#FFFFFF;}
	.st63{clip-path:url(#SVGID_16_);fill:#D1D2D2;}
	.st64{clip-path:url(#SVGID_18_);fill:#333333;}
	.st65{clip-path:url(#SVGID_18_);fill:none;}
	.st66{clip-path:url(#SVGID_18_);fill:#478AA9;}
	.st67{clip-path:url(#SVGID_18_);fill:#FFFFFF;}
	.st68{fill:#F58B20;}
	.st69{fill:#2B2B2B;}
	.st70{fill:#3B77AD;}
	.st71{fill:#F7CD13;}
	.st72{fill:#464646;}
	.st73{fill:#929497;}
	.st74{fill:#A6A8AB;}
	.st75{fill:#2F75BB;}
	.st76{fill:none;stroke:#757575;stroke-width:0.5023;stroke-miterlimit:10;}
	.st77{fill:#3C88C6;}
	.st78{fill:#E4CB58;}
	.st79{fill:#58595B;}
	.st80{fill:#007ACC;}
	.st81{fill:#E4E4E5;}
	.st82{fill:#E73F24;}
	.st83{fill:#F58B23;}
	.st84{fill:#ADADAD;}
	.st85{fill:#959595;}
	.st86{fill-rule:evenodd;clip-rule:evenodd;fill:none;stroke:#E3E3E3;stroke-width:1.1603;stroke-miterlimit:10;}
	.st87{fill-rule:evenodd;clip-rule:evenodd;fill:none;stroke:#4889A8;stroke-width:1.1603;stroke-miterlimit:10;}
	.st88{fill-rule:evenodd;clip-rule:evenodd;fill:none;stroke:#0C8A44;stroke-width:1.1603;stroke-miterlimit:10;}
	.st89{fill:#DB58DB;}
	.st90{fill:#B4079C;}
	.st91{fill:#9A37AF;}
	.st92{fill:#721481;}
	.st93{fill:#73AA24;}
	.st94{fill:#05930C;}
	.st95{fill:#2581BF;}
	.st96{fill:#004E8C;}
	.st97{fill:none;stroke:#909090;stroke-width:0.9199;stroke-miterlimit:10;}
	.st98{fill:none;stroke:#909090;stroke-width:0.9494;stroke-miterlimit:10;}
	.st99{fill:none;stroke:#909090;stroke-width:0.8988;stroke-miterlimit:10;}
	.st100{fill:none;stroke:#909090;stroke-width:0.8481;stroke-miterlimit:10;}
	.st101{fill:none;stroke:#909090;stroke-width:0.7975;stroke-miterlimit:10;}
	.st102{fill:none;stroke:#909090;stroke-width:0.7469;stroke-miterlimit:10;}
	.st103{fill:none;stroke:#909090;stroke-width:0.6963;stroke-miterlimit:10;}
	.st104{fill:none;stroke:#447995;stroke-miterlimit:10;}
	.st105{fill:#FFFFFF;stroke:#96BCCE;stroke-width:0.75;stroke-miterlimit:10;}
	.st106{clip-path:url(#SVGID_20_);}
	.st107{fill:#08BBF1;}
	.st108{fill:#0AA5E2;}
	.st109{fill:#B2D7F0;}
	.st110{fill:#181717;}
	.st111{fill:#F3AF21;}
	.st112{fill:none;stroke:#5D5D5D;stroke-width:0.8345;stroke-miterlimit:10;}
	.st113{fill:none;stroke:#5D5D5D;stroke-width:1.3526;stroke-miterlimit:10;}
	.st114{fill-rule:evenodd;clip-rule:evenodd;fill:#7DB912;}
	.st115{fill:#333333;}
	.st116{fill:none;stroke:#FFFFFF;stroke-width:0.2247;stroke-linecap:round;stroke-linejoin:round;stroke-miterlimit:10;}
	.st117{fill:#737374;}
	.st118{fill:#515050;}
	.st119{fill:none;stroke:#000000;stroke-width:0.4495;stroke-miterlimit:1;}
	.st120{fill:#619BB5;}
	.st121{fill:none;stroke:#395B71;stroke-width:0.234;stroke-miterlimit:10;}
	.st122{fill:#32383D;}
	.st123{fill:#00BCF2;}
	.st124{fill:#2C2737;}
	.st125{fill:#201D29;}
	.st126{fill:#22BAED;}
	.st127{fill:#221F1F;}
	.st128{clip-path:url(#SVGID_22_);}
	.st129{clip-path:url(#SVGID_24_);}
	.st130{fill:#5E615F;}
	.st131{fill:none;stroke:#767676;stroke-width:0.199;stroke-miterlimit:10;}
	.st132{fill:#699F63;}
	.st133{fill-rule:evenodd;clip-rule:evenodd;fill:#333333;}
	.st134{fill-rule:evenodd;clip-rule:evenodd;fill:#699F63;}
	.st135{clip-path:url(#XMLID_3_);}
	.st136{fill:url(#SVGID_25_);}
	.st137{fill:url(#SVGID_26_);}
	.st138{fill:url(#SVGID_27_);}
	.st139{fill:url(#SVGID_28_);}
	.st140{fill:url(#SVGID_29_);}
	.st141{fill:url(#SVGID_30_);}
	.st142{fill:#00890B;}
	.st143{clip-path:url(#SVGID_32_);}
	.st144{fill:#515150;}
	.st145{fill:#457994;}
	.st146{fill:#F16424;}
	.st147{fill:#8B6AB1;}
	.st148{fill:#5C2D91;}
	.st149{clip-path:url(#SVGID_34_);fill:#447995;}
</style>
<rect x="0" class="st0" width="200" height="144"/>
<g>
	<path class="st70" d="M89.026,26.196c0-7.854-10.373-12.744-24.154-12.744s-24.599,3.853-24.599,11.558c0,6.52,0,11.262,0,11.262
		h24.451v3.556c0,0-30.082,0-35.268,0c-5.186,0-16.004,3.26-16.004,24.006c0,20.746,9.336,25.192,14.374,25.192
		c5.038,0,8.743,0,8.743,0c-0.148-0.148,0-6.372,0-13.04c0-6.668,6.668-13.929,14.522-13.929s14.522,0,24.747,0
		S89.47,55.685,89.47,47.535C89.47,39.385,89.026,32.717,89.026,26.196z M50.794,29.901c-2.455,0-4.446-1.99-4.446-4.446
		s1.99-4.446,4.446-4.446c2.455,0,4.446,1.99,4.446,4.446S53.249,29.901,50.794,29.901z"/>
	<path class="st71" d="M40.569,101.623c0,7.854,10.373,12.744,24.154,12.744s24.599-3.853,24.599-11.558c0-6.52,0-11.262,0-11.262
		H64.872V87.99c0,0,30.082,0,35.268,0c5.186,0,16.004-3.26,16.004-24.006c0-20.746-9.336-25.192-14.374-25.192
		c-5.038,0-8.743,0-8.743,0c0.148,0.148,0,6.372,0,13.04s-6.668,13.929-14.522,13.929s-14.522,0-24.747,0
		s-13.633,6.372-13.633,14.522C40.125,88.434,40.569,95.103,40.569,101.623z M78.801,97.918c2.455,0,4.446,1.99,4.446,4.446
		s-1.99,4.446-4.446,4.446c-2.455,0-4.446-1.99-4.446-4.446S76.346,97.918,78.801,97.918z"/>
</g>
<g>
	<g>
		<g>
			<path class="st32" d="M174.091,125.514H99.1c-2.468,0-4.468-2-4.468-4.468V79.941c0-2.468,2-4.468,4.468-4.468h74.991
				c2.468,0,4.468,2,4.468,4.468v41.106C178.558,123.514,176.558,125.514,174.091,125.514z"/>
			<rect x="97.519" y="78.115" class="st39" width="78.225" height="40.89"/>
			<rect x="97.519" y="78.115" class="st18" width="78.225" height="40.89"/>
			<polygon class="st23" points="175.651,108.282 153.11,78.115 97.519,78.115 97.519,119.004 175.651,119.004 			"/>
		</g>
		<path class="st32" d="M81.908,123.533c-0.003,0.056-0.016,0.109-0.016,0.167c0,1.84,1.445,3.33,3.228,3.33h103.779
			c1.783,0,3.228-1.491,3.228-3.33c0-0.057-0.013-0.11-0.016-0.167H81.908z"/>
	</g>
	<g>
		<path class="st8" d="M147.814,95.544c0.054,0.191,0.24,0.263,0.366,0.268l0.82-0.026c0.192-0.054,0.323-0.174,0.335-0.426
			l0.046-1.005c0.018-0.377,0.149-0.497,0.406-0.612c0.131-0.12,0.323-0.174,0.454-0.294c0.191-0.054,0.383-0.109,0.689,0.094
			l0.916,0.609c0.186,0.072,0.377,0.017,0.443-0.043l0.598-0.665c0.066-0.06,0.077-0.312-0.103-0.509l-0.719-0.788
			c-0.24-0.263-0.168-0.449-0.097-0.634l-0.06-0.066c0.132-0.12,0.204-0.306,0.209-0.431c0.011-0.252,0.149-0.498,0.591-0.54
			l0.952-0.147c0.257-0.114,0.329-0.3,0.334-0.425l-0.085-0.886c0.006-0.126-0.174-0.323-0.365-0.268l-1.006-0.046
			c-0.377-0.017-0.557-0.214-0.611-0.405c-0.12-0.131-0.174-0.323-0.294-0.454c-0.054-0.191-0.109-0.383,0.034-0.754l0.603-0.791
			c0.137-0.246,0.083-0.437-0.037-0.569l-0.671-0.471c-0.12-0.131-0.371-0.143-0.503-0.023l-0.729,0.786
			c-0.263,0.24-0.515,0.228-0.7,0.158c-0.186-0.071-0.371-0.143-0.497-0.149l-0.06-0.066c-0.185-0.071-0.371-0.142-0.48-0.525
			l-0.139-1.077c-0.054-0.191-0.24-0.263-0.365-0.268l-0.886,0.086c-0.126-0.006-0.323,0.174-0.268,0.365l-0.113,1.066
			c-0.017,0.377-0.148,0.497-0.34,0.551c-0.132,0.12-0.323,0.174-0.455,0.295c-0.257,0.114-0.448,0.168-0.754-0.034l-0.851-0.668
			c-0.186-0.072-0.378-0.017-0.508,0.102l-0.598,0.666c-0.005,0.126-0.077,0.311,0.103,0.508l0.719,0.788
			c0.24,0.263,0.294,0.454,0.097,0.635c-0.006,0.126-0.077,0.312-0.089,0.563c-0.072,0.186-0.143,0.371-0.586,0.414l-1.017,0.206
			c-0.192,0.054-0.263,0.24-0.269,0.366l0.086,0.885c-0.007,0.126,0.173,0.323,0.3,0.329l1.071-0.014
			c0.377,0.017,0.496,0.148,0.551,0.339c0.114,0.257,0.234,0.389,0.288,0.58c0.18,0.197,0.168,0.449,0.031,0.695l-0.669,0.852
			c-0.072,0.185-0.018,0.377,0.102,0.508l0.606,0.531c0.12,0.131,0.371,0.143,0.503,0.023l0.729-0.786
			c0.263-0.24,0.514-0.229,0.7-0.158c0.185,0.072,0.371,0.143,0.557,0.214c0.251,0.011,0.371,0.143,0.48,0.525L147.814,95.544
			 M150.283,89.799c0.074,1.137-0.793,2.168-1.996,2.303c-1.203,0.135-2.234-0.731-2.301-1.994c-0.074-1.137,0.793-2.168,1.93-2.243
			C149.119,87.731,150.149,88.596,150.283,89.799"/>
		<path class="st8" d="M154.187,95.787c-0.119,0.109-0.271,0.102-0.307,0.062c-0.04,0.036-0.109-0.119-0.142-0.235l-0.131-0.463
			c-0.069-0.155-0.221-0.162-0.264-0.05l-0.358,0.327c-0.083,0.149-0.238,0.218-0.314,0.214l-0.181-0.199l-0.326-0.357
			c-0.109-0.119-0.225-0.086-0.268,0.026l-0.213,0.485c-0.043,0.112-0.126,0.261-0.166,0.297c0,0-0.112-0.043-0.261-0.126
			l-0.449-0.173c-0.148-0.083-0.228-0.01-0.235,0.142l0.015,0.496c0.033,0.116-0.05,0.264-0.09,0.301c0,0-0.116,0.033-0.268,0.026
			l-0.456-0.021c-0.152-0.007-0.231,0.066-0.162,0.221l0.207,0.466c0.033,0.116,0.062,0.307,0.062,0.307
			c-0.04,0.036-0.155,0.069-0.271,0.102l-0.466,0.207c-0.116,0.033-0.159,0.145-0.05,0.264l0.366,0.321
			c0.073,0.08,0.178,0.275,0.178,0.275c-0.04,0.036-0.083,0.149-0.202,0.258l-0.358,0.326c-0.079,0.072-0.047,0.188,0.066,0.231
			l0.449,0.173c0.112,0.043,0.261,0.126,0.257,0.202c0,0-0.007,0.152-0.05,0.264l-0.249,0.446c-0.043,0.113,0.029,0.192,0.142,0.235
			l0.496-0.016c0.152,0.007,0.304,0.014,0.341,0.053c0.036,0.04,0.069,0.155,0.026,0.268l-0.024,0.532
			c-0.007,0.152,0.105,0.195,0.221,0.162l0.43-0.247c0.156-0.069,0.308-0.062,0.344-0.023c0.04-0.036,0.073,0.08,0.141,0.235
			l0.131,0.463c0.069,0.155,0.185,0.123,0.264,0.05l0.358-0.326c0.083-0.149,0.239-0.218,0.315-0.214l0.181,0.199l0.326,0.358
			c0.109,0.119,0.224,0.086,0.267-0.026l0.177-0.525c0.043-0.112,0.162-0.221,0.202-0.257c0,0,0.112,0.043,0.261,0.126l0.449,0.173
			c0.149,0.083,0.228,0.01,0.235-0.142l-0.055-0.459c0.007-0.152,0.054-0.34,0.093-0.376c0,0,0.152,0.006,0.304,0.013l0.456,0.021
			c0.152,0.007,0.195-0.106,0.163-0.221l-0.207-0.466c-0.033-0.116-0.062-0.308-0.062-0.308c0.04-0.036,0.119-0.109,0.235-0.142
			l0.503-0.168c0.116-0.033,0.159-0.145,0.05-0.264l-0.366-0.321c-0.109-0.119-0.178-0.275-0.178-0.275
			c-0.036-0.04,0.083-0.149,0.163-0.221l0.397-0.363c0.08-0.073,0.047-0.188-0.065-0.231l-0.449-0.172
			c-0.112-0.043-0.297-0.166-0.257-0.202c-0.036-0.04,0.007-0.152,0.05-0.264l0.249-0.446c0.043-0.112-0.03-0.192-0.181-0.199
			l-0.456-0.021c-0.152-0.007-0.341-0.053-0.341-0.053c-0.036-0.04-0.069-0.155-0.062-0.307l0.061-0.492
			c0.007-0.152-0.105-0.195-0.221-0.162L154.187,95.787z M153.232,98.333c0.214,0.314,0.121,0.691-0.194,0.905
			c-0.315,0.214-0.691,0.121-0.905-0.193c-0.178-0.275-0.121-0.691,0.23-0.865C152.638,98.002,153.054,98.059,153.232,98.333"/>
		<path class="st8" d="M142.485,93.864c0.197-0.18,0.149-0.496,0.029-0.628l-0.839-0.92c-0.12-0.131-0.371-0.143-0.628-0.029
			l-1.429,0.943c-0.305-0.203-0.671-0.471-0.977-0.674l0.459-1.743c0.071-0.186-0.043-0.443-0.229-0.514l-1.048-0.488
			c-0.246-0.137-0.503-0.023-0.575,0.163l-1.015,1.528c-0.371-0.143-0.743-0.285-1.12-0.302l-0.17-1.771
			c0.012-0.251-0.168-0.449-0.42-0.46l-1.197,0.009c-0.185-0.071-0.383,0.109-0.454,0.295l-0.398,1.808
			c-0.377-0.017-0.76,0.092-1.143,0.2l-0.871-1.613c-0.12-0.132-0.365-0.268-0.557-0.214l-1.155,0.451
			c-0.191,0.054-0.328,0.3-0.274,0.491l0.362,1.717c-0.323,0.174-0.652,0.474-0.975,0.649l-1.396-1.133
			c-0.12-0.132-0.371-0.143-0.569,0.037l-0.855,0.78c-0.197,0.18-0.209,0.431-0.089,0.563l1.002,1.494
			c-0.269,0.365-0.598,0.665-0.741,1.037l-1.736-0.582c-0.252-0.011-0.443,0.043-0.58,0.288l-0.49,1.049
			c-0.071,0.185-0.023,0.502,0.222,0.639l1.468,0.948c-0.143,0.371-0.161,0.748-0.304,1.12l-1.771,0.172
			c-0.191,0.054-0.389,0.234-0.4,0.486l-0.052,1.131c-0.012,0.252,0.168,0.449,0.354,0.52l1.814,0.271
			c0.043,0.443,0.085,0.886,0.193,1.269l-1.615,0.871c-0.191,0.055-0.329,0.3-0.215,0.558l0.391,1.088
			c0.054,0.191,0.3,0.329,0.551,0.34l1.783-0.423c0.174,0.323,0.348,0.646,0.522,0.968l-1.135,1.398
			c-0.072,0.186-0.083,0.437,0.037,0.568l0.839,0.92c0.12,0.132,0.431,0.208,0.563,0.088l1.495-1.003
			c0.305,0.203,0.671,0.471,0.977,0.674l-0.458,1.743c-0.072,0.186,0.042,0.443,0.228,0.514l1.108,0.554
			c0.186,0.071,0.377,0.017,0.574-0.164l0.949-1.468c0.377,0.017,0.749,0.159,1.126,0.177l0.104,1.831
			c0.054,0.192,0.234,0.389,0.486,0.4l1.191,0.117c0.192-0.054,0.389-0.234,0.46-0.42l0.333-1.748
			c0.443-0.043,0.826-0.152,1.268-0.195l0.811,1.548c0.114,0.257,0.365,0.268,0.557,0.214l1.088-0.391
			c0.257-0.115,0.395-0.36,0.341-0.552l-0.362-1.717c0.323-0.175,0.646-0.349,0.974-0.649l1.397,1.134
			c0.18,0.197,0.431,0.208,0.628,0.028l0.855-0.78c0.197-0.18,0.209-0.432,0.029-0.628l-1.002-1.494
			c0.329-0.3,0.532-0.605,0.741-1.037l1.737,0.582c0.186,0.071,0.442-0.043,0.514-0.228l0.555-1.109
			c0.072-0.186-0.042-0.443-0.162-0.574l-1.528-1.014c0.143-0.372,0.221-0.683,0.238-1.06l1.837-0.232
			c0.191-0.054,0.389-0.234,0.394-0.36l0.058-1.257c0.012-0.251-0.168-0.448-0.42-0.46l-1.748-0.331
			c-0.043-0.443-0.026-0.82-0.133-1.203l1.488-0.877c0.258-0.114,0.394-0.36,0.28-0.617l-0.391-1.089
			c-0.054-0.191-0.3-0.328-0.556-0.215l-1.778,0.298c-0.174-0.323-0.348-0.646-0.523-0.968L142.485,93.864 M134.731,99.497
			c0.719,0.788,0.668,1.919-0.121,2.639c-0.723,0.66-1.855,0.609-2.574-0.179c-0.66-0.723-0.668-1.92,0.056-2.58
			C132.88,98.657,134.071,98.775,134.731,99.497"/>
	</g>
</g>
</svg>
