<svg id="Layer_1" data-name="Layer 1" xmlns="http://www.w3.org/2000/svg" viewBox="0 0 400 140"><defs><style>.cls-1{fill:#5d5d5d;}.cls-2{fill:#171717;}.cls-3{fill:#2e2e2e;}.cls-4{fill:#6d6e70;}.cls-5{fill:#5d5f5e;}.cls-6{fill:#1772b8;}.cls-7{fill:#929090;}.cls-8{fill:#767778;}.cls-9{fill:#a86527;}.cls-10{fill:#048273;}.cls-11{fill:none;stroke:#6d6e70;stroke-miterlimit:10;}.cls-12,.cls-13{fill:#fff;}.cls-12{opacity:0.15;}.cls-14{fill:#447995;}</style></defs><title>vs_web-1</title><polygon class="cls-1" points="234.3 125 168.82 125 172.65 121 230.46 121 234.3 125"/><path class="cls-2" d="M231.71,127H171.52a3.14,3.14,0,0,1-2.83-2H234.3C234.3,124.36,234.63,126.81,231.71,127Z"/><polygon class="cls-2" points="215.7 123 187.41 123 189.7 110 213.41 110 215.7 123"/><path class="cls-2" d="M277.46,22H124.54A3.54,3.54,0,0,0,121,25.54v81.92a3.54,3.54,0,0,0,3.54,3.54H277.46a3.54,3.54,0,0,0,3.54-3.54V25.54A3.54,3.54,0,0,0,277.46,22ZM276,105H127V27H276Z"/><rect class="cls-3" x="126" y="26" width="150" height="80"/><rect class="cls-4" x="128" y="26" width="29" height="2"/><rect class="cls-4" x="128" y="35" width="29" height="2"/><rect class="cls-5" x="218" y="28" width="2" height="1"/><rect class="cls-5" x="218" y="30" width="2" height="1"/><rect class="cls-5" x="218" y="32" width="2" height="1"/><rect class="cls-5" x="218" y="34" width="2" height="1"/><rect class="cls-5" x="218" y="36" width="2" height="1"/><rect class="cls-5" x="218" y="38" width="2" height="1"/><rect class="cls-5" x="218" y="41" width="2" height="1"/><rect class="cls-5" x="218" y="43" width="2" height="1"/><rect class="cls-5" x="218" y="45" width="2" height="1"/><rect class="cls-5" x="218" y="47" width="2" height="1"/><rect class="cls-5" x="218" y="49" width="2" height="1"/><rect class="cls-5" x="218" y="51" width="2" height="1"/><rect class="cls-5" x="218" y="53" width="2" height="1"/><rect class="cls-5" x="218" y="55" width="2" height="1"/><rect class="cls-5" x="218" y="57" width="2" height="1"/><rect class="cls-5" x="218" y="59" width="2" height="1"/><rect class="cls-5" x="218" y="61" width="2" height="1"/><rect class="cls-5" x="218" y="63" width="2" height="1"/><rect class="cls-5" x="218" y="66" width="2" height="1"/><rect class="cls-5" x="218" y="68" width="2" height="1"/><rect class="cls-5" x="218" y="70" width="2" height="1"/><rect class="cls-5" x="218" y="72" width="2" height="1"/><rect class="cls-5" x="218" y="74" width="2" height="1"/><rect class="cls-5" x="218" y="76" width="2" height="1"/><rect class="cls-5" x="218" y="78" width="2" height="1"/><rect class="cls-5" x="218" y="80" width="2" height="1"/><rect class="cls-6" x="220" y="28" width="2" height="1"/><rect class="cls-6" x="220" y="30" width="2" height="1"/><rect class="cls-6" x="220" y="32" width="2" height="1"/><rect class="cls-6" x="220" y="34" width="2" height="1"/><rect class="cls-5" x="223" y="28" width="21" height="1"/><rect class="cls-5" x="223" y="30" width="13" height="1"/><rect class="cls-5" x="223" y="32" width="18" height="1"/><rect class="cls-5" x="223" y="34" width="10" height="1"/><rect class="cls-6" x="161" y="28" width="2" height="1"/><rect class="cls-6" x="161" y="30" width="2" height="1"/><rect class="cls-6" x="161" y="32" width="2" height="1"/><rect class="cls-6" x="130" y="30" width="2" height="1"/><rect class="cls-6" x="130" y="32" width="2" height="1"/><rect class="cls-6" x="161" y="34" width="2" height="1"/><rect class="cls-5" x="165" y="28" width="21" height="1"/><rect class="cls-5" x="164" y="30" width="13" height="1"/><rect class="cls-5" x="164" y="32" width="18" height="1"/><rect class="cls-5" x="164" y="34" width="10" height="1"/><rect class="cls-7" x="220" y="38" width="20" height="1"/><rect class="cls-7" x="220" y="41" width="38" height="1"/><rect class="cls-7" x="220" y="43" width="26" height="1"/><rect class="cls-7" x="221" y="45" width="42" height="1"/><rect class="cls-7" x="220" y="47" width="8" height="1"/><rect class="cls-7" x="229" y="47" width="23" height="1"/><rect class="cls-7" x="253" y="47" width="3" height="1"/><rect class="cls-7" x="221" y="49" width="27" height="1"/><rect class="cls-7" x="221" y="51" width="46" height="1"/><rect class="cls-7" x="221" y="53" width="28" height="1"/><rect class="cls-5" x="221" y="55" width="25" height="1"/><rect class="cls-5" x="221" y="57" width="28" height="1"/><rect class="cls-5" x="221" y="59" width="31" height="1"/><rect class="cls-7" x="225" y="61" width="2" height="1"/><rect class="cls-7" x="225" y="63" width="2" height="1"/><rect class="cls-7" x="225" y="66" width="2" height="1"/><rect class="cls-7" x="230" y="61" width="12" height="1"/><rect class="cls-7" x="244" y="61" width="12" height="1"/><rect class="cls-7" x="230" y="63" width="9" height="1"/><rect class="cls-7" x="241" y="63" width="9" height="1"/><rect class="cls-7" x="228" y="66" width="3" height="1"/><rect class="cls-7" x="162" y="38" width="20" height="1"/><rect class="cls-8" x="183" y="38" width="14" height="1"/><rect class="cls-7" x="162" y="41" width="20" height="1"/><rect class="cls-7" x="162" y="43" width="8" height="1"/><rect class="cls-7" x="162" y="45" width="8" height="1"/><rect class="cls-7" x="162" y="47" width="8" height="1"/><rect class="cls-9" x="170" y="43" width="23" height="1"/><rect class="cls-9" x="170" y="45" width="41" height="1"/><rect class="cls-9" x="170" y="47" width="23" height="1"/><rect class="cls-6" x="194" y="47" width="3" height="1"/><rect class="cls-5" x="161" y="49" width="2" height="1"/><rect class="cls-10" x="162" y="51" width="23" height="1"/><rect class="cls-10" x="162" y="53" width="28" height="1"/><rect class="cls-5" x="162" y="55" width="25" height="1"/><rect class="cls-5" x="162" y="57" width="28" height="1"/><rect class="cls-5" x="162" y="59" width="31" height="1"/><rect class="cls-10" x="166" y="61" width="2" height="1"/><rect class="cls-10" x="166" y="63" width="2" height="1"/><rect class="cls-10" x="166" y="66" width="2" height="1"/><rect class="cls-10" x="171" y="61" width="9" height="1"/><rect class="cls-10" x="171" y="63" width="9" height="1"/><rect class="cls-10" x="169" y="66" width="3" height="1"/><rect class="cls-5" x="225" y="68" width="35" height="1"/><rect class="cls-5" x="228" y="70" width="26" height="1"/><rect class="cls-5" x="228" y="72" width="38" height="1"/><rect class="cls-5" x="228" y="74" width="26" height="1"/><rect class="cls-5" x="230" y="76" width="17" height="1"/><rect class="cls-5" x="228" y="78" width="2" height="1"/><rect class="cls-5" x="225" y="80" width="2" height="1"/><rect class="cls-5" x="167" y="68" width="35" height="1"/><rect class="cls-5" x="169" y="70" width="26" height="1"/><rect class="cls-5" x="169" y="72" width="38" height="1"/><rect class="cls-5" x="169" y="74" width="26" height="1"/><rect class="cls-5" x="172" y="76" width="17" height="1"/><rect class="cls-5" x="169" y="78" width="2" height="1"/><rect class="cls-5" x="161" y="82" width="2" height="1"/><rect class="cls-5" x="166" y="80" width="2" height="1"/><rect class="cls-5" x="164" y="82" width="2" height="1"/><rect class="cls-6" x="161" y="86" width="2" height="1"/><rect class="cls-5" x="164" y="86" width="16" height="1"/><rect class="cls-6" x="181" y="86" width="7" height="1"/><rect class="cls-6" x="164" y="88" width="2" height="1"/><rect class="cls-6" x="164" y="91" width="2" height="1"/><rect class="cls-5" x="167" y="88" width="19" height="1"/><rect class="cls-5" x="167" y="91" width="19" height="1"/><rect class="cls-5" x="159" y="28" width="2" height="1"/><rect class="cls-5" x="159" y="30" width="2" height="1"/><rect class="cls-5" x="159" y="32" width="2" height="1"/><rect class="cls-5" x="159" y="34" width="2" height="1"/><rect class="cls-5" x="159" y="36" width="2" height="1"/><rect class="cls-5" x="159" y="38" width="2" height="1"/><rect class="cls-5" x="159" y="40" width="2" height="1"/><rect class="cls-5" x="159" y="42" width="2" height="1"/><rect class="cls-5" x="159" y="44" width="2" height="1"/><rect class="cls-5" x="159" y="46" width="2" height="1"/><rect class="cls-5" x="159" y="49" width="2" height="1"/><rect class="cls-5" x="159" y="51" width="2" height="1"/><rect class="cls-5" x="159" y="53" width="2" height="1"/><rect class="cls-5" x="159" y="55" width="2" height="1"/><rect class="cls-5" x="159" y="57" width="2" height="1"/><rect class="cls-5" x="159" y="59" width="2" height="1"/><rect class="cls-5" x="159" y="61" width="2" height="1"/><rect class="cls-5" x="159" y="63" width="2" height="1"/><rect class="cls-5" x="159" y="65" width="2" height="1"/><rect class="cls-5" x="159" y="67" width="2" height="1"/><rect class="cls-5" x="159" y="69" width="2" height="1"/><rect class="cls-5" x="159" y="71" width="2" height="1"/><rect class="cls-5" x="159" y="74" width="2" height="1"/><rect class="cls-5" x="159" y="76" width="2" height="1"/><rect class="cls-5" x="159" y="78" width="2" height="1"/><rect class="cls-5" x="159" y="80" width="2" height="1"/><rect class="cls-5" x="159" y="82" width="2" height="1"/><rect class="cls-5" x="159" y="84" width="2" height="1"/><rect class="cls-5" x="159" y="86" width="2" height="1"/><rect class="cls-5" x="159" y="88" width="2" height="1"/><rect class="cls-5" x="159" y="90" width="2" height="1"/><rect class="cls-5" x="133" y="30" width="13" height="1"/><rect class="cls-5" x="133" y="32" width="18" height="1"/><rect class="cls-5" x="128" y="30" width="2" height="1"/><rect class="cls-5" x="128" y="32" width="2" height="1"/><rect class="cls-5" x="128" y="38" width="2" height="1"/><rect class="cls-5" x="128" y="40" width="2" height="1"/><rect class="cls-5" x="128" y="42" width="2" height="1"/><rect class="cls-5" x="131" y="38" width="10" height="1"/><rect class="cls-5" x="131" y="40" width="10" height="1"/><rect class="cls-5" x="131" y="42" width="10" height="1"/><line class="cls-11" x1="216.5" y1="27" x2="216.5" y2="105"/><polygon class="cls-12" points="276 71.38 276 26 230.62 26 276 71.38"/><circle class="cls-13" cx="122.57" cy="47.69" r="33.71"/><path class="cls-14" d="M122.49,12.22a35,35,0,1,0,35,35A35,35,0,0,0,122.49,12.22Zm6,66.3c-.56.11-1.14.18-1.72.26a36.31,36.31,0,0,0,5-10.78h7.54A29.05,29.05,0,0,1,128.52,78.52ZM105.71,68h6.35a36.88,36.88,0,0,0,4.84,10.59l-.06.07A28.91,28.91,0,0,1,105.71,68ZM97.61,50a40.7,40.7,0,0,0,3.68,15H96.52a30.4,30.4,0,0,1-5.29-15Zm-6.76-3a32.12,32.12,0,0,1,2.82-13h6a44.18,44.18,0,0,0-2,13Zm25.93-30.59c.41-.08.83-.13,1.24-.19-3.18,3.45-5.7,7.93-7.21,14.78h-7.66A28.31,28.31,0,0,1,116.79,16.41ZM141.86,31h-8.8c-1.49-6.87-4-11.41-7.15-14.94.78.08,1.54.21,2.3.35A28.29,28.29,0,0,1,141.86,31Zm1.05,3A41.57,41.57,0,0,1,145,47H134.48a76.73,76.73,0,0,0-1.07-13ZM111.57,47a73.53,73.53,0,0,1,1.12-13h18.46a72.43,72.43,0,0,1,1.14,13Zm20.12,3a69.29,69.29,0,0,1-2.06,15h-15.4a69.29,69.29,0,0,1-2.06-15ZM113.44,31c1.77-7.78,4.87-12.62,8.67-15,3.59,2.67,6.56,7.49,8.29,15Zm-3,3a75.81,75.81,0,0,0-1.08,13H100a41.65,41.65,0,0,1,2.11-13ZM100.38,50h8.85a71.87,71.87,0,0,0,1.93,15h-6.84A38.06,38.06,0,0,1,100.38,50Zm22.11,29.11c-.68,0-1.34-.06-2-.1-2.27-2.42-4.26-6.24-5.75-11h14.41c-1.5,4.81-3.51,8.66-5.81,11.07C123,79.08,122.77,79.11,122.49,79.11ZM132.7,65a71.71,71.71,0,0,0,1.95-15h10a38.13,38.13,0,0,1-3.92,15Zm14.73-15h6.32a30.4,30.4,0,0,1-5.29,15h-4.71A40.7,40.7,0,0,0,147.43,50Zm0-3a44.25,44.25,0,0,0-2-13h5.89a32.12,32.12,0,0,1,2.82,13ZM150,31h-5.36c-2-5.09-4.9-8.52-8.48-12C142,21.84,146.82,25.38,150,31ZM109,18.93c-3.64,3.47-6.61,6.93-8.61,12.07H95C98.2,25.31,103.11,21.74,109,18.93ZM98.51,68h4.25A34.51,34.51,0,0,0,109,76,31.68,31.68,0,0,1,98.51,68Zm37.65,8a34.71,34.71,0,0,0,6.14-8h4.18A31.68,31.68,0,0,1,136.16,76Z"/></svg>