<?xml version="1.0" encoding="utf-8"?>
<!-- Generator: Adobe Illustrator 20.1.0, SVG Export Plug-In . SVG Version: 6.00 Build 0)  -->
<svg version="1.1" id="Layer_1" xmlns="http://www.w3.org/2000/svg" xmlns:xlink="http://www.w3.org/1999/xlink" x="0px" y="0px"
	 viewBox="0 0 200 144" style="enable-background:new 0 0 200 144;" xml:space="preserve">
<style type="text/css">
	.st0{fill:#E4EDF1;}
	.st1{fill:#E3E3E3;}
	.st2{fill:#5E5E5E;}
	.st3{fill:#2E2E2E;}
	.st4{fill:#7CABC2;}
	.st5{fill:#96BCCE;}
	.st6{fill:#2C3E50;}
	.st7{clip-path:url(#SVGID_2_);fill:#447995;}
	.st8{fill:#FFFFFF;}
	
		.st9{fill-rule:evenodd;clip-rule:evenodd;fill:none;stroke:#E3E3E3;stroke-width:1.3089;stroke-linecap:round;stroke-linejoin:round;stroke-miterlimit:10;stroke-dasharray:1.3089,2.6179;}
	.st10{fill:#5D5D5D;}
	.st11{fill:#C7C7C7;}
	.st12{fill:none;stroke:#909090;stroke-width:1.1744;stroke-miterlimit:10;stroke-dasharray:2.3488,3.5233;}
	.st13{fill:#395B71;}
	.st14{fill-rule:evenodd;clip-rule:evenodd;fill:#395B71;}
	.st15{fill-rule:evenodd;clip-rule:evenodd;fill:#2E2E2E;}
	.st16{fill:#2C3E58;}
	.st17{fill:#447995;}
	.st18{fill:none;}
	.st19{fill:#4889A8;}
	.st20{fill:#929090;}
	.st21{fill:#96BBCD;}
	.st22{fill:#3A5C71;}
	.st23{fill:#757575;}
	.st24{fill:#682A7A;}
	.st25{fill:#478AA9;}
	.st26{fill:#672A79;}
	.st27{fill:#334D63;}
	.st28{fill:#5D5F5E;}
	.st29{fill:#FAB516;}
	.st30{fill:#F5891F;}
	.st31{fill:#CB6D29;}
	.st32{fill:#171717;}
	.st33{fill:#CADEE6;}
	.st34{opacity:0.41;fill:#929090;}
	.st35{clip-path:url(#SVGID_4_);}
	.st36{clip-path:url(#SVGID_6_);}
	.st37{fill:#FE8B0C;}
	.st38{fill:#231F20;}
	.st39{fill:#909090;}
	.st40{fill:#2E2E2E;stroke:#8F8F8F;stroke-width:0.7512;stroke-miterlimit:10;}
	.st41{fill:#8F8F8F;}
	.st42{fill:#C6C6C6;}
	.st43{fill:#777677;}
	.st44{fill:#D9DCE1;}
	.st45{clip-path:url(#SVGID_8_);}
	.st46{fill:none;stroke:#909090;stroke-miterlimit:10;stroke-dasharray:2,2;}
	.st47{fill:#ACACAC;}
	.st48{fill-rule:evenodd;clip-rule:evenodd;fill:#7CABC2;}
	.st49{fill-rule:evenodd;clip-rule:evenodd;fill:#478AA9;}
	.st50{clip-path:url(#SVGID_10_);}
	.st51{clip-path:url(#SVGID_12_);}
	.st52{fill:#7DB912;}
	.st53{fill:#B2B9C2;}
	.st54{fill:#B0CDDA;}
	.st55{clip-path:url(#SVGID_14_);fill:#333333;}
	.st56{clip-path:url(#SVGID_14_);fill:none;}
	.st57{clip-path:url(#SVGID_14_);fill:#7DB912;}
	.st58{clip-path:url(#SVGID_14_);fill:#FFFFFF;}
	.st59{clip-path:url(#SVGID_16_);fill:#333333;}
	.st60{clip-path:url(#SVGID_16_);fill:none;}
	.st61{clip-path:url(#SVGID_16_);fill:#395B71;}
	.st62{clip-path:url(#SVGID_16_);fill:#FFFFFF;}
	.st63{clip-path:url(#SVGID_16_);fill:#D1D2D2;}
	.st64{clip-path:url(#SVGID_18_);fill:#333333;}
	.st65{clip-path:url(#SVGID_18_);fill:none;}
	.st66{clip-path:url(#SVGID_18_);fill:#478AA9;}
	.st67{clip-path:url(#SVGID_18_);fill:#FFFFFF;}
	.st68{fill:#F58B20;}
	.st69{fill:#2B2B2B;}
	.st70{fill:#3B77AD;}
	.st71{fill:#F7CD13;}
	.st72{fill:#464646;}
	.st73{fill:#929497;}
	.st74{fill:#A6A8AB;}
	.st75{fill:#2F75BB;}
	.st76{fill:none;stroke:#757575;stroke-width:0.5023;stroke-miterlimit:10;}
	.st77{fill:#3C88C6;}
	.st78{fill:#E4CB58;}
	.st79{fill:#58595B;}
	.st80{fill:#007ACC;}
	.st81{fill:#E4E4E5;}
	.st82{fill:#E73F24;}
	.st83{fill:#F58B23;}
	.st84{fill:#ADADAD;}
	.st85{fill:#959595;}
	.st86{fill-rule:evenodd;clip-rule:evenodd;fill:none;stroke:#E3E3E3;stroke-width:1.1603;stroke-miterlimit:10;}
	.st87{fill-rule:evenodd;clip-rule:evenodd;fill:none;stroke:#4889A8;stroke-width:1.1603;stroke-miterlimit:10;}
	.st88{fill-rule:evenodd;clip-rule:evenodd;fill:none;stroke:#0C8A44;stroke-width:1.1603;stroke-miterlimit:10;}
	.st89{fill:#DB58DB;}
	.st90{fill:#B4079C;}
	.st91{fill:#9A37AF;}
	.st92{fill:#721481;}
	.st93{fill:#73AA24;}
	.st94{fill:#05930C;}
	.st95{fill:#2581BF;}
	.st96{fill:#004E8C;}
	.st97{fill:none;stroke:#909090;stroke-width:0.9199;stroke-miterlimit:10;}
	.st98{fill:none;stroke:#909090;stroke-width:0.9494;stroke-miterlimit:10;}
	.st99{fill:none;stroke:#909090;stroke-width:0.8988;stroke-miterlimit:10;}
	.st100{fill:none;stroke:#909090;stroke-width:0.8481;stroke-miterlimit:10;}
	.st101{fill:none;stroke:#909090;stroke-width:0.7975;stroke-miterlimit:10;}
	.st102{fill:none;stroke:#909090;stroke-width:0.7469;stroke-miterlimit:10;}
	.st103{fill:none;stroke:#909090;stroke-width:0.6963;stroke-miterlimit:10;}
	.st104{fill:none;stroke:#447995;stroke-miterlimit:10;}
	.st105{fill:#FFFFFF;stroke:#96BCCE;stroke-width:0.75;stroke-miterlimit:10;}
	.st106{clip-path:url(#SVGID_20_);}
	.st107{fill:#08BBF1;}
	.st108{fill:#0AA5E2;}
	.st109{fill:#B2D7F0;}
	.st110{fill:#181717;}
	.st111{fill:#F3AF21;}
	.st112{fill:none;stroke:#5D5D5D;stroke-width:0.8345;stroke-miterlimit:10;}
	.st113{fill:none;stroke:#5D5D5D;stroke-width:1.3526;stroke-miterlimit:10;}
	.st114{fill-rule:evenodd;clip-rule:evenodd;fill:#7DB912;}
	.st115{fill:#333333;}
	.st116{fill:none;stroke:#FFFFFF;stroke-width:0.2247;stroke-linecap:round;stroke-linejoin:round;stroke-miterlimit:10;}
	.st117{fill:#737374;}
	.st118{fill:#515050;}
	.st119{fill:none;stroke:#000000;stroke-width:0.4495;stroke-miterlimit:1;}
	.st120{fill:#619BB5;}
	.st121{fill:none;stroke:#395B71;stroke-width:0.234;stroke-miterlimit:10;}
	.st122{fill:#32383D;}
	.st123{fill:#00BCF2;}
	.st124{fill:#2C2737;}
	.st125{fill:#201D29;}
	.st126{fill:#22BAED;}
	.st127{fill:#221F1F;}
	.st128{clip-path:url(#SVGID_22_);}
	.st129{clip-path:url(#SVGID_24_);}
	.st130{fill:#5E615F;}
	.st131{fill:none;stroke:#767676;stroke-width:0.199;stroke-miterlimit:10;}
	.st132{fill:#699F63;}
	.st133{fill-rule:evenodd;clip-rule:evenodd;fill:#333333;}
	.st134{fill-rule:evenodd;clip-rule:evenodd;fill:#699F63;}
	.st135{clip-path:url(#XMLID_3_);}
	.st136{fill:url(#SVGID_25_);}
	.st137{fill:url(#SVGID_26_);}
	.st138{fill:url(#SVGID_27_);}
	.st139{fill:url(#SVGID_28_);}
	.st140{fill:url(#SVGID_29_);}
	.st141{fill:url(#SVGID_30_);}
	.st142{fill:#00890B;}
	.st143{clip-path:url(#SVGID_32_);}
	.st144{fill:#515150;}
	.st145{fill:#457994;}
	.st146{fill:#F16424;}
	.st147{fill:#8B6AB1;}
	.st148{fill:#5C2D91;}
	.st149{clip-path:url(#SVGID_34_);fill:#447995;}
</style>
<rect class="st0" width="200" height="144"/>
<g>
	<g>
		<rect x="13.846" y="9.732" class="st120" width="171.179" height="92.853"/>
		<polygon class="st5" points="185.025,73.998 185.025,8.261 117.31,8.261 		"/>
		<g>
			<polygon class="st10" points="136.077,122.87 63.05,122.87 67.329,118.02 131.798,118.02 			"/>
			<path class="st3" d="M133.189,125.58c-3.263,0-64.023,0-67.126,0s-3.156-2.728-3.156-2.728h73.17
				C136.077,122.852,136.451,125.58,133.189,125.58z"/>
			<polygon class="st3" points="115.396,119.732 83.732,119.732 86.299,105.183 112.828,105.183 			"/>
			<path class="st3" d="M186.531,7.624H14.003c-2.18,0-3.946,1.767-3.946,3.946v91.093c0,2.179,1.767,3.946,3.946,3.946h172.529
				c2.179,0,3.946-1.767,3.946-3.946V11.57C190.478,9.391,188.711,7.624,186.531,7.624z M184.5,99.719H15.884V12.764H184.5V99.719z"
				/>
			<polygon class="st10" points="169.441,136.593 31.513,136.593 39.595,127.434 161.359,127.434 			"/>
			<polygon class="st3" points="156.781,133.812 44.173,133.812 48.127,128.504 152.827,128.504 			"/>
			<path class="st3" d="M163.986,140c-6.162,0-120.923,0-126.782,0s-5.96-3.441-5.96-3.441h138.198
				C169.441,136.559,170.148,140,163.986,140z"/>
		</g>
	</g>
	<g>
		<path class="st8" d="M59.69,56.409c-0.545,0-1.009-0.191-1.391-0.573c-0.382-0.381-0.573-0.845-0.573-1.391
			c0-0.559,0.187-1.029,0.562-1.411c0.375-0.382,0.842-0.573,1.401-0.573c0.272,0,0.528,0.051,0.767,0.153
			c0.238,0.102,0.446,0.239,0.624,0.409c0.177,0.17,0.32,0.378,0.429,0.624c0.109,0.245,0.164,0.511,0.164,0.797
			c0,0.273-0.054,0.529-0.164,0.767s-0.252,0.446-0.429,0.624c-0.177,0.177-0.385,0.317-0.624,0.419
			C60.218,56.358,59.962,56.409,59.69,56.409z"/>
		<path class="st8" d="M88.175,56L71.898,32.463c-0.205-0.3-0.406-0.606-0.603-0.92c-0.198-0.313-0.358-0.621-0.48-0.92h-0.102
			c0.027,0.246,0.051,0.586,0.072,1.022c0.021,0.437,0.031,0.981,0.031,1.636V56h-2.72V26.676H71.1l16.011,23.25
			c0.245,0.368,0.467,0.712,0.665,1.033c0.198,0.32,0.378,0.617,0.542,0.89h0.102c-0.055-0.45-0.096-0.954-0.123-1.514
			c-0.027-0.559-0.041-1.179-0.041-1.861V26.676h2.74V56H88.175z"/>
		<path class="st8" d="M98.604,56V26.676h14.294v2.495h-11.574v10.756h10.715v2.454h-10.715v11.145h12.228V56H98.604z"/>
		<path class="st8" d="M128.132,29.171V56h-2.72V29.171h-8.445v-2.495h19.631v2.495H128.132z"/>
		<path class="st8" d="M61.986,86v-2.654h-0.059c-0.501,0.954-1.216,1.693-2.145,2.219c-0.929,0.526-1.983,0.789-3.162,0.789
			c-0.943,0-1.801-0.175-2.573-0.523s-1.432-0.853-1.983-1.511c-0.551-0.658-0.976-1.454-1.275-2.388
			c-0.3-0.934-0.449-1.99-0.449-3.169c0-1.219,0.164-2.332,0.494-3.339c0.329-1.007,0.796-1.872,1.4-2.594
			c0.604-0.723,1.332-1.283,2.182-1.681c0.85-0.398,1.796-0.597,2.838-0.597c2.172,0,3.73,0.87,4.673,2.609h0.059v-9.509h1.887V86
			H61.986z M61.986,76.889c0-0.658-0.113-1.272-0.339-1.843c-0.226-0.57-0.541-1.066-0.943-1.489
			c-0.403-0.422-0.887-0.757-1.452-1.002c-0.565-0.246-1.187-0.369-1.865-0.369c-0.747,0-1.435,0.147-2.064,0.442
			s-1.167,0.72-1.614,1.275s-0.796,1.231-1.047,2.027c-0.25,0.796-0.376,1.7-0.376,2.712c0,0.954,0.113,1.809,0.339,2.565
			s0.548,1.396,0.966,1.917s0.917,0.919,1.496,1.194c0.58,0.275,1.224,0.413,1.931,0.413c0.767,0,1.457-0.137,2.071-0.413
			c0.614-0.275,1.135-0.653,1.563-1.135c0.427-0.481,0.757-1.046,0.988-1.695c0.231-0.648,0.346-1.341,0.346-2.079V76.889z"/>
		<path class="st8" d="M69.637,78.791c0.01,0.924,0.133,1.754,0.368,2.492c0.236,0.737,0.575,1.361,1.017,1.872
			c0.442,0.511,0.98,0.902,1.614,1.172c0.634,0.271,1.349,0.405,2.145,0.405c1.7,0,3.307-0.594,4.821-1.784v1.857
			c-1.445,1.032-3.194,1.548-5.248,1.548c-1.012,0-1.931-0.177-2.757-0.531c-0.826-0.354-1.528-0.867-2.108-1.541
			c-0.58-0.673-1.027-1.501-1.342-2.484c-0.315-0.982-0.472-2.103-0.472-3.361c0-1.13,0.172-2.177,0.516-3.14
			s0.821-1.796,1.43-2.499s1.332-1.253,2.167-1.651c0.835-0.398,1.749-0.597,2.742-0.597c0.973,0,1.833,0.169,2.58,0.509
			c0.747,0.339,1.373,0.823,1.88,1.452c0.506,0.629,0.892,1.396,1.157,2.3c0.265,0.904,0.398,1.917,0.398,3.037v0.943H69.637z
			 M78.601,77.14c-0.03-1.572-0.403-2.792-1.12-3.656c-0.718-0.865-1.715-1.297-2.993-1.297c-0.639,0-1.231,0.113-1.776,0.339
			s-1.025,0.553-1.438,0.98c-0.413,0.428-0.754,0.949-1.024,1.563c-0.271,0.614-0.46,1.305-0.568,2.071H78.601z"/>
		<path class="st8" d="M83.392,83.288c0.285,0.226,0.594,0.427,0.929,0.604c0.334,0.177,0.678,0.329,1.032,0.457
			c0.354,0.127,0.71,0.224,1.069,0.287c0.359,0.064,0.7,0.096,1.025,0.096c2.241,0,3.361-0.84,3.361-2.521
			c0-0.383-0.079-0.715-0.236-0.995c-0.157-0.28-0.383-0.536-0.678-0.767c-0.295-0.231-0.649-0.445-1.061-0.642
			c-0.413-0.196-0.88-0.403-1.401-0.619c-0.698-0.285-1.297-0.575-1.799-0.87s-0.914-0.617-1.238-0.966
			c-0.324-0.349-0.565-0.732-0.722-1.15c-0.157-0.417-0.236-0.892-0.236-1.422c0-0.668,0.145-1.263,0.435-1.784
			c0.29-0.521,0.68-0.963,1.172-1.327c0.491-0.363,1.059-0.641,1.703-0.833c0.644-0.192,1.32-0.288,2.027-0.288
			c1.307,0,2.447,0.246,3.42,0.737v1.99c-1.13-0.727-2.349-1.091-3.656-1.091c-0.472,0-0.902,0.059-1.29,0.177
			c-0.388,0.118-0.72,0.286-0.995,0.501c-0.275,0.216-0.489,0.474-0.641,0.774c-0.153,0.3-0.229,0.632-0.229,0.995
			c0,0.374,0.059,0.7,0.177,0.98c0.118,0.28,0.302,0.533,0.553,0.759c0.25,0.226,0.575,0.442,0.973,0.648
			c0.398,0.207,0.882,0.428,1.452,0.664c0.727,0.295,1.356,0.587,1.887,0.877c0.531,0.29,0.968,0.604,1.312,0.943
			c0.344,0.339,0.599,0.718,0.767,1.135c0.167,0.418,0.251,0.902,0.251,1.452c0,0.678-0.14,1.283-0.42,1.813
			s-0.668,0.978-1.165,1.341c-0.497,0.364-1.079,0.639-1.747,0.826c-0.668,0.187-1.396,0.28-2.182,0.28
			c-1.523,0-2.806-0.32-3.848-0.958V83.288z"/>
		<path class="st8" d="M105.402,86l-6.944-7.356h-0.059V86h-1.887V63.651h1.887v14.285h0.059l6.59-7.032h2.462l-7.076,7.297
			L108.07,86H105.402z"/>
		<path class="st8" d="M116.96,85.823c-0.649,0.324-1.356,0.486-2.123,0.486c-2.438,0-3.656-1.405-3.656-4.216v-9.538h-2.654v-1.651
			h2.654v-3.803l1.887-0.619v4.422h3.892v1.651h-3.892v9.243c0,1.022,0.167,1.76,0.501,2.211c0.334,0.452,0.899,0.678,1.695,0.678
			c0.59,0,1.155-0.177,1.695-0.531V85.823z"/>
		<path class="st8" d="M126.011,86.354c-1.12,0-2.125-0.187-3.015-0.561c-0.89-0.373-1.649-0.901-2.278-1.584
			s-1.111-1.501-1.445-2.455c-0.334-0.953-0.501-2.01-0.501-3.17c0-1.258,0.177-2.383,0.531-3.375
			c0.354-0.993,0.857-1.835,1.511-2.528c0.654-0.693,1.442-1.221,2.366-1.585c0.924-0.363,1.956-0.545,3.096-0.545
			c1.091,0,2.073,0.179,2.948,0.538c0.875,0.359,1.616,0.877,2.226,1.555c0.609,0.678,1.076,1.504,1.4,2.477
			c0.324,0.973,0.487,2.079,0.487,3.317c0,1.179-0.17,2.253-0.509,3.221c-0.339,0.968-0.823,1.801-1.452,2.499
			c-0.629,0.698-1.396,1.238-2.3,1.622C128.173,86.162,127.151,86.354,126.011,86.354z M126.159,72.187
			c-0.826,0-1.573,0.143-2.241,0.428c-0.668,0.285-1.241,0.7-1.718,1.246c-0.477,0.545-0.843,1.214-1.098,2.005
			c-0.256,0.792-0.383,1.688-0.383,2.69c0,0.943,0.128,1.794,0.383,2.55c0.256,0.757,0.617,1.406,1.084,1.946
			c0.467,0.541,1.034,0.956,1.703,1.246c0.668,0.29,1.415,0.435,2.241,0.435c0.845,0,1.592-0.14,2.241-0.42
			c0.648-0.28,1.199-0.688,1.651-1.224c0.452-0.536,0.793-1.191,1.024-1.968c0.231-0.776,0.346-1.661,0.346-2.653
			c0-2.035-0.452-3.59-1.356-4.666C129.132,72.725,127.839,72.187,126.159,72.187z"/>
		<path class="st8" d="M139.029,83.567v9.376h-1.887v-22.04h1.887v2.89h0.059c0.56-1.051,1.31-1.855,2.248-2.41
			c0.938-0.555,1.998-0.833,3.177-0.833c0.963,0,1.825,0.174,2.587,0.523c0.761,0.349,1.405,0.843,1.931,1.481
			c0.526,0.639,0.929,1.415,1.209,2.329c0.28,0.914,0.42,1.941,0.42,3.081c0,1.249-0.157,2.386-0.472,3.413
			c-0.315,1.027-0.767,1.909-1.356,2.646c-0.59,0.737-1.305,1.31-2.145,1.718s-1.786,0.612-2.838,0.612
			c-2.123,0-3.71-0.929-4.762-2.787H139.029z M139.029,79.72c0,0.688,0.115,1.334,0.346,1.938c0.231,0.604,0.553,1.135,0.966,1.592
			c0.413,0.457,0.911,0.818,1.496,1.083c0.584,0.266,1.231,0.398,1.938,0.398c0.757,0,1.44-0.159,2.049-0.479
			c0.609-0.319,1.128-0.774,1.555-1.363c0.427-0.59,0.757-1.302,0.988-2.138c0.231-0.835,0.346-1.769,0.346-2.801
			c0-0.884-0.108-1.683-0.324-2.396c-0.216-0.712-0.523-1.319-0.921-1.821c-0.398-0.501-0.88-0.884-1.445-1.15
			c-0.565-0.265-1.197-0.398-1.895-0.398c-0.786,0-1.494,0.145-2.123,0.435c-0.629,0.29-1.165,0.686-1.607,1.187
			c-0.442,0.501-0.781,1.089-1.017,1.762c-0.236,0.673-0.354,1.388-0.354,2.145V79.72z"/>
	</g>
</g>
</svg>
