<?xml version="1.0" encoding="utf-8"?>
<!-- Generator: Adobe Illustrator 20.1.0, SVG Export Plug-In . SVG Version: 6.00 Build 0)  -->
<svg version="1.1" id="Layer_1" xmlns="http://www.w3.org/2000/svg" xmlns:xlink="http://www.w3.org/1999/xlink" x="0px" y="0px"
	 viewBox="0 0 200 144" style="enable-background:new 0 0 200 144;" xml:space="preserve">
<style type="text/css">
	.st0{fill:#E4EDF1;}
	.st1{fill:#E3E3E3;}
	.st2{fill:#5E5E5E;}
	.st3{fill:#2E2E2E;}
	.st4{fill:#7CABC2;}
	.st5{fill:#96BCCE;}
	.st6{fill:#2C3E50;}
	.st7{clip-path:url(#SVGID_2_);fill:#447995;}
	.st8{fill:#FFFFFF;}
	
		.st9{fill-rule:evenodd;clip-rule:evenodd;fill:none;stroke:#E3E3E3;stroke-width:1.3089;stroke-linecap:round;stroke-linejoin:round;stroke-miterlimit:10;stroke-dasharray:1.3089,2.6179;}
	.st10{fill:#5D5D5D;}
	.st11{fill:#C7C7C7;}
	.st12{fill:none;stroke:#909090;stroke-width:1.1744;stroke-miterlimit:10;stroke-dasharray:2.3488,3.5233;}
	.st13{fill:#395B71;}
	.st14{fill-rule:evenodd;clip-rule:evenodd;fill:#395B71;}
	.st15{fill-rule:evenodd;clip-rule:evenodd;fill:#2E2E2E;}
	.st16{fill:#2C3E58;}
	.st17{fill:#447995;}
	.st18{fill:none;}
	.st19{fill:#4889A8;}
	.st20{fill:#929090;}
	.st21{fill:#96BBCD;}
	.st22{fill:#3A5C71;}
	.st23{fill:#757575;}
	.st24{fill:#682A7A;}
	.st25{fill:#478AA9;}
	.st26{fill:#672A79;}
	.st27{fill:#334D63;}
	.st28{fill:#5D5F5E;}
	.st29{fill:#FAB516;}
	.st30{fill:#F5891F;}
	.st31{fill:#CB6D29;}
	.st32{fill:#171717;}
	.st33{fill:#CADEE6;}
	.st34{opacity:0.41;fill:#929090;}
	.st35{clip-path:url(#SVGID_4_);}
	.st36{clip-path:url(#SVGID_6_);}
	.st37{fill:#FE8B0C;}
	.st38{fill:#231F20;}
	.st39{fill:#909090;}
	.st40{fill:#2E2E2E;stroke:#8F8F8F;stroke-width:0.7512;stroke-miterlimit:10;}
	.st41{fill:#8F8F8F;}
	.st42{fill:#C6C6C6;}
	.st43{fill:#777677;}
	.st44{fill:#D9DCE1;}
	.st45{clip-path:url(#SVGID_8_);}
	.st46{fill:none;stroke:#909090;stroke-miterlimit:10;stroke-dasharray:2,2;}
	.st47{fill:#ACACAC;}
	.st48{fill-rule:evenodd;clip-rule:evenodd;fill:#7CABC2;}
	.st49{fill-rule:evenodd;clip-rule:evenodd;fill:#478AA9;}
	.st50{clip-path:url(#SVGID_10_);}
	.st51{clip-path:url(#SVGID_12_);}
	.st52{fill:#7DB912;}
	.st53{fill:#B2B9C2;}
	.st54{fill:#B0CDDA;}
	.st55{clip-path:url(#SVGID_14_);fill:#333333;}
	.st56{clip-path:url(#SVGID_14_);fill:none;}
	.st57{clip-path:url(#SVGID_14_);fill:#7DB912;}
	.st58{clip-path:url(#SVGID_14_);fill:#FFFFFF;}
	.st59{clip-path:url(#SVGID_16_);fill:#333333;}
	.st60{clip-path:url(#SVGID_16_);fill:none;}
	.st61{clip-path:url(#SVGID_16_);fill:#395B71;}
	.st62{clip-path:url(#SVGID_16_);fill:#FFFFFF;}
	.st63{clip-path:url(#SVGID_16_);fill:#D1D2D2;}
	.st64{clip-path:url(#SVGID_18_);fill:#333333;}
	.st65{clip-path:url(#SVGID_18_);fill:none;}
	.st66{clip-path:url(#SVGID_18_);fill:#478AA9;}
	.st67{clip-path:url(#SVGID_18_);fill:#FFFFFF;}
	.st68{fill:#F58B20;}
	.st69{fill:#2B2B2B;}
	.st70{fill:#3B77AD;}
	.st71{fill:#F7CD13;}
	.st72{fill:#464646;}
	.st73{fill:#929497;}
	.st74{fill:#A6A8AB;}
	.st75{fill:#2F75BB;}
	.st76{fill:none;stroke:#757575;stroke-width:0.5023;stroke-miterlimit:10;}
	.st77{fill:#3C88C6;}
	.st78{fill:#E4CB58;}
	.st79{fill:#58595B;}
	.st80{fill:#007ACC;}
	.st81{fill:#E4E4E5;}
	.st82{fill:#E73F24;}
	.st83{fill:#F58B23;}
	.st84{fill:#ADADAD;}
	.st85{fill:#959595;}
	.st86{fill-rule:evenodd;clip-rule:evenodd;fill:none;stroke:#E3E3E3;stroke-width:1.1603;stroke-miterlimit:10;}
	.st87{fill-rule:evenodd;clip-rule:evenodd;fill:none;stroke:#4889A8;stroke-width:1.1603;stroke-miterlimit:10;}
	.st88{fill-rule:evenodd;clip-rule:evenodd;fill:none;stroke:#0C8A44;stroke-width:1.1603;stroke-miterlimit:10;}
	.st89{fill:#DB58DB;}
	.st90{fill:#B4079C;}
	.st91{fill:#9A37AF;}
	.st92{fill:#721481;}
	.st93{fill:#73AA24;}
	.st94{fill:#05930C;}
	.st95{fill:#2581BF;}
	.st96{fill:#004E8C;}
	.st97{fill:none;stroke:#909090;stroke-width:0.9199;stroke-miterlimit:10;}
	.st98{fill:none;stroke:#909090;stroke-width:0.9494;stroke-miterlimit:10;}
	.st99{fill:none;stroke:#909090;stroke-width:0.8988;stroke-miterlimit:10;}
	.st100{fill:none;stroke:#909090;stroke-width:0.8481;stroke-miterlimit:10;}
	.st101{fill:none;stroke:#909090;stroke-width:0.7975;stroke-miterlimit:10;}
	.st102{fill:none;stroke:#909090;stroke-width:0.7469;stroke-miterlimit:10;}
	.st103{fill:none;stroke:#909090;stroke-width:0.6963;stroke-miterlimit:10;}
	.st104{fill:none;stroke:#447995;stroke-miterlimit:10;}
	.st105{fill:#FFFFFF;stroke:#96BCCE;stroke-width:0.75;stroke-miterlimit:10;}
	.st106{clip-path:url(#SVGID_20_);}
	.st107{fill:#08BBF1;}
	.st108{fill:#0AA5E2;}
	.st109{fill:#B2D7F0;}
	.st110{fill:#181717;}
	.st111{fill:#F3AF21;}
	.st112{fill:none;stroke:#5D5D5D;stroke-width:0.8345;stroke-miterlimit:10;}
	.st113{fill:none;stroke:#5D5D5D;stroke-width:1.3526;stroke-miterlimit:10;}
	.st114{fill-rule:evenodd;clip-rule:evenodd;fill:#7DB912;}
	.st115{fill:#333333;}
	.st116{fill:none;stroke:#FFFFFF;stroke-width:0.2247;stroke-linecap:round;stroke-linejoin:round;stroke-miterlimit:10;}
	.st117{fill:#737374;}
	.st118{fill:#515050;}
	.st119{fill:none;stroke:#000000;stroke-width:0.4495;stroke-miterlimit:1;}
	.st120{fill:#619BB5;}
	.st121{fill:none;stroke:#395B71;stroke-width:0.234;stroke-miterlimit:10;}
	.st122{fill:#32383D;}
	.st123{fill:#00BCF2;}
	.st124{fill:#2C2737;}
	.st125{fill:#201D29;}
	.st126{fill:#22BAED;}
	.st127{fill:#221F1F;}
	.st128{clip-path:url(#SVGID_22_);}
	.st129{clip-path:url(#SVGID_24_);}
	.st130{fill:#5E615F;}
	.st131{fill:none;stroke:#767676;stroke-width:0.199;stroke-miterlimit:10;}
	.st132{fill:#699F63;}
	.st133{fill-rule:evenodd;clip-rule:evenodd;fill:#333333;}
	.st134{fill-rule:evenodd;clip-rule:evenodd;fill:#699F63;}
	.st135{clip-path:url(#XMLID_3_);}
	.st136{fill:url(#SVGID_25_);}
	.st137{fill:url(#SVGID_26_);}
	.st138{fill:url(#SVGID_27_);}
	.st139{fill:url(#SVGID_28_);}
	.st140{fill:url(#SVGID_29_);}
	.st141{fill:url(#SVGID_30_);}
	.st142{fill:#00890B;}
	.st143{clip-path:url(#SVGID_32_);}
	.st144{fill:#515150;}
	.st145{fill:#457994;}
	.st146{fill:#F16424;}
	.st147{fill:#8B6AB1;}
	.st148{fill:#5C2D91;}
	.st149{clip-path:url(#SVGID_34_);fill:#447995;}
</style>
<rect x="0" class="st0" width="200" height="144"/>
<g>
	<path class="st54" d="M155.885,136.707h-97.66c-9.356,0-15.253-0.073-19.612-0.457c-0.277-0.024-0.559-0.049-0.842-0.082
		c-4.525-0.46-7.153-1.557-9.936-2.72l-0.515-0.217c-11.768-5.503-19.373-17.446-19.373-30.425
		c0-18.515,15.064-33.577,33.579-33.577c2.353,0,4.687,0.245,6.975,0.73c5.27-14.423,18.821-24.233,34.019-24.233
		c5.485,0,10.87,1.269,15.765,3.694c6.506-10.438,17.668-16.789,29.885-16.789c17.413,0,32.344,13.308,35.072,30.752
		c16.538,3.478,28.705,18.588,28.705,36.21c0,17.651-12.195,32.896-29.01,36.276C160.61,136.425,158.238,136.707,155.885,136.707z"
		/>
</g>
<g>
	<g>
		<defs>
			<polygon id="SVGID_31_" points="181.166,17.576 91.938,21.576 91.938,114.224 181.166,114.224 			"/>
		</defs>
		<clipPath id="SVGID_2_">
			<use xlink:href="#SVGID_31_"  style="overflow:visible;"/>
		</clipPath>
		<g style="clip-path:url(#SVGID_2_);">
			<polygon class="st144" points="179.76,123.24 125.119,123.24 125.119,63.931 126.045,63.931 126.045,60.92 125.119,60.92 
				125.119,56.288 126.045,56.288 126.045,53.276 125.119,53.276 125.119,48.644 126.045,48.644 126.045,45.633 125.119,45.633 
				125.119,40.769 126.045,40.769 126.045,37.757 125.119,37.757 125.119,33.356 126.045,33.356 126.045,30.345 125.119,30.345 
				125.119,20.385 179.76,20.385 179.76,123.24 			"/>
			<polygon class="st18" points="179.76,122.929 125.119,122.929 125.119,63.621 126.045,63.621 126.045,60.609 125.119,60.609 
				125.119,55.977 126.045,55.977 126.045,52.966 125.119,52.966 125.119,48.333 126.045,48.333 126.045,45.322 125.119,45.322 
				125.119,40.458 126.045,40.458 126.045,37.447 125.119,37.447 125.119,33.046 126.045,33.046 126.045,30.035 125.119,30.035 
				125.119,20.075 179.76,20.075 179.76,122.929 			"/>
			<polyline class="st18" points="179.76,122.929 125.119,122.929 125.119,63.621 126.045,63.621 126.045,60.609 125.119,60.609 
				125.119,55.977 126.045,55.977 126.045,52.966 125.119,52.966 125.119,48.333 126.045,48.333 126.045,45.322 125.119,45.322 
				125.119,40.458 126.045,40.458 126.045,37.447 125.119,37.447 125.119,33.046 126.045,33.046 126.045,30.035 125.119,30.035 
				125.119,20.075 179.76,20.075 179.76,122.929 			"/>
			<polygon class="st3" points="179.76,20.308 163.09,20.308 163.09,30.035 178.602,30.035 178.602,33.046 163.09,33.046 
				163.09,37.447 178.602,37.447 178.602,40.458 163.09,40.458 163.09,45.322 178.602,45.322 178.602,48.333 163.09,48.333 
				163.09,122.929 179.76,122.929 179.76,20.075 			"/>
			<polygon class="st18" points="179.76,20.075 163.09,20.075 163.09,30.035 178.602,30.035 178.602,33.046 163.09,33.046 
				163.09,37.447 178.602,37.447 178.602,40.458 163.09,40.458 163.09,45.322 178.602,45.322 178.602,48.333 163.09,48.333 
				163.09,122.929 179.76,122.929 179.76,20.075 			"/>
			<polyline class="st18" points="179.76,20.075 163.09,20.075 163.09,30.035 178.602,30.035 178.602,33.046 163.09,33.046 
				163.09,37.447 178.602,37.447 178.602,40.458 163.09,40.458 163.09,45.322 178.602,45.322 178.602,48.333 163.09,48.333 
				163.09,122.929 179.76,122.929 179.76,20.075 			"/>
			<polygon class="st3" points="163.09,30.035 126.045,30.035 126.045,33.046 163.09,33.046 163.09,30.035 			"/>
			<polygon class="st18" points="163.09,30.035 126.045,30.035 126.045,33.046 163.09,33.046 163.09,30.035 			"/>
			<polyline class="st18" points="163.09,30.035 126.045,30.035 126.045,33.046 163.09,33.046 163.09,30.035 			"/>
			<polygon class="st32" points="178.602,30.035 163.09,30.035 163.09,33.046 178.602,33.046 178.602,30.035 			"/>
			<polygon class="st18" points="178.602,30.035 163.09,30.035 163.09,33.046 178.602,33.046 178.602,30.035 			"/>
			<polyline class="st18" points="178.602,30.035 163.09,30.035 163.09,33.046 178.602,33.046 178.602,30.035 			"/>
			<polygon class="st3" points="163.09,37.447 126.045,37.447 126.045,40.458 163.09,40.458 163.09,37.447 			"/>
			<polygon class="st18" points="163.09,37.447 126.045,37.447 126.045,40.458 163.09,40.458 163.09,37.447 			"/>
			<polyline class="st18" points="163.09,37.447 126.045,37.447 126.045,40.458 163.09,40.458 163.09,37.447 			"/>
			<polygon class="st32" points="178.602,37.447 163.09,37.447 163.09,40.458 178.602,40.458 178.602,37.447 			"/>
			<polygon class="st18" points="178.602,37.447 163.09,37.447 163.09,40.458 178.602,40.458 178.602,37.447 			"/>
			<polyline class="st18" points="178.602,37.447 163.09,37.447 163.09,40.458 178.602,40.458 178.602,37.447 			"/>
			<polygon class="st3" points="163.09,45.322 126.045,45.322 126.045,48.333 163.09,48.333 163.09,45.322 			"/>
			<polygon class="st18" points="163.09,45.322 126.045,45.322 126.045,48.333 163.09,48.333 163.09,45.322 			"/>
			<polyline class="st18" points="163.09,45.322 126.045,45.322 126.045,48.333 163.09,48.333 163.09,45.322 			"/>
			<polygon class="st32" points="178.602,45.322 163.09,45.322 163.09,48.333 178.602,48.333 178.602,45.322 			"/>
			<polygon class="st18" points="178.602,45.322 163.09,45.322 163.09,48.333 178.602,48.333 178.602,45.322 			"/>
			<polyline class="st18" points="178.602,45.322 163.09,45.322 163.09,48.333 178.602,48.333 178.602,45.322 			"/>
			<polygon class="st145" points="162.164,33.046 151.745,33.046 151.745,30.035 162.164,30.035 162.164,33.046 			"/>
			<polygon class="st18" points="162.164,33.046 151.745,33.046 151.745,30.035 162.164,30.035 162.164,33.046 			"/>
			<polygon class="st145" points="162.164,40.458 151.745,40.458 151.745,37.447 162.164,37.447 162.164,40.458 			"/>
			<polygon class="st18" points="162.164,40.458 151.745,40.458 151.745,37.447 162.164,37.447 162.164,40.458 			"/>
			<polygon class="st145" points="162.164,48.333 151.745,48.333 151.745,45.322 162.164,45.322 162.164,48.333 			"/>
			<polygon class="st18" points="162.164,48.333 151.745,48.333 151.745,45.322 162.164,45.322 162.164,48.333 			"/>
		</g>
	</g>
</g>
<path class="st25" d="M76.193,87.471c0.305,0.439,0.839,0.458,1.163,0.362l2.058-0.782c0.439-0.305,0.668-0.725,0.477-1.374
	l-0.762-2.591c-0.285-0.973-0.056-1.392,0.496-1.907c0.228-0.419,0.667-0.725,0.896-1.144c0.438-0.304,0.878-0.611,1.83-0.364
	l2.857,0.744c0.534,0.019,0.972-0.287,1.087-0.497l0.935-2.211c0.114-0.21-0.076-0.859-0.705-1.201l-2.514-1.371
	c-0.839-0.458-0.82-0.992-0.802-1.524l-0.21-0.114c0.229-0.42,0.25-0.955,0.155-1.277c-0.191-0.649-0.057-1.393,1.029-1.887
	l2.287-1.204c0.553-0.515,0.572-1.049,0.476-1.372l-0.99-2.174c-0.096-0.324-0.724-0.667-1.162-0.361L82.2,65.982
	c-0.972,0.287-1.6-0.055-1.905-0.494c-0.419-0.229-0.724-0.667-1.143-0.895c-0.305-0.439-0.611-0.876-0.572-1.943l0.839-2.536
	c0.133-0.744-0.171-1.183-0.591-1.412l-2.115-0.609c-0.419-0.228-1.068-0.038-1.296,0.381l-1.163,2.631
	c-0.457,0.839-1.106,1.03-1.638,1.012c-0.534-0.019-1.068-0.038-1.392,0.058l-0.21-0.114c-0.532-0.018-1.067-0.037-1.676-0.914
	l-1.294-2.612c-0.305-0.439-0.839-0.458-1.161-0.361l-2.174,0.993c-0.324,0.095-0.667,0.723-0.361,1.162l0.646,2.803
	c0.286,0.971,0.058,1.39-0.381,1.696c-0.229,0.42-0.667,0.725-0.896,1.145c-0.553,0.514-0.991,0.819-1.943,0.572l-2.744-0.952
	c-0.534-0.019-0.973,0.286-1.201,0.704l-0.935,2.214c0.096,0.323,0.078,0.857,0.706,1.2l2.514,1.371
	c0.839,0.458,1.144,0.896,0.801,1.526c0.095,0.324,0.076,0.858,0.266,1.507c-0.02,0.534-0.039,1.067-1.125,1.563l-2.401,1.411
	c-0.439,0.305-0.458,0.84-0.363,1.164l0.991,2.172c0.093,0.326,0.723,0.669,1.048,0.572l2.706-0.973
	c0.972-0.286,1.389-0.058,1.695,0.38c0.514,0.553,0.934,0.782,1.238,1.22c0.629,0.343,0.819,0.991,0.686,1.736l-0.953,2.746
	c-0.02,0.532,0.285,0.971,0.704,1.199l2.001,0.819c0.419,0.229,1.067,0.039,1.296-0.381l1.163-2.632
	c0.458-0.84,1.105-1.03,1.638-1.012c0.533,0.02,1.067,0.038,1.602,0.056c0.647-0.191,1.067,0.038,1.676,0.914L76.193,87.471
	 M77.435,70.731c1.181,2.821-0.116,6.196-3.051,7.59c-2.936,1.393-6.309,0.099-7.583-3.047c-1.182-2.82,0.116-6.196,2.937-7.378
	C72.672,66.503,76.044,67.797,77.435,70.731"/>
<path class="st25" d="M61.524,87.617c0.443-0.404,0.334-1.114,0.064-1.409l-1.883-2.064c-0.269-0.295-0.832-0.321-1.409-0.064
	l-3.207,2.116c-0.684-0.456-1.505-1.058-2.191-1.513l1.03-3.91c0.158-0.417-0.097-0.993-0.514-1.153l-2.351-1.095
	c-0.552-0.308-1.128-0.051-1.289,0.365l-2.277,3.429c-0.834-0.32-1.666-0.64-2.513-0.678L44.6,77.668
	c0.026-0.564-0.377-1.006-0.942-1.032l-2.685,0.02c-0.416-0.159-0.859,0.245-1.019,0.661l-0.894,4.057
	c-0.846-0.038-1.705,0.207-2.564,0.449l-1.954-3.62c-0.27-0.295-0.82-0.602-1.25-0.48l-2.591,1.013
	c-0.429,0.121-0.737,0.672-0.615,1.102l0.812,3.851c-0.725,0.391-1.462,1.064-2.187,1.456l-3.133-2.543
	c-0.27-0.295-0.834-0.32-1.276,0.083l-1.918,1.75c-0.442,0.404-0.469,0.968-0.199,1.263l2.247,3.352
	c-0.603,0.82-1.341,1.493-1.662,2.326l-3.895-1.306c-0.565-0.026-0.994,0.095-1.301,0.647l-1.098,2.354
	c-0.159,0.416-0.051,1.127,0.499,1.435l3.294,2.127c-0.32,0.834-0.36,1.679-0.682,2.513l-3.974,0.386
	c-0.429,0.121-0.872,0.526-0.899,1.089l-0.117,2.538c-0.026,0.564,0.378,1.007,0.794,1.167l4.07,0.608
	c0.095,0.994,0.19,1.987,0.433,2.847l-3.623,1.955c-0.429,0.123-0.738,0.674-0.482,1.251l0.878,2.441
	c0.121,0.429,0.673,0.737,1.236,0.762l4.001-0.95c0.391,0.725,0.78,1.449,1.172,2.172l-2.547,3.136
	c-0.161,0.417-0.187,0.98,0.083,1.275l1.883,2.064c0.269,0.295,0.967,0.468,1.262,0.198l3.355-2.251
	c0.685,0.456,1.505,1.058,2.191,1.513l-1.028,3.91c-0.16,0.417,0.095,0.993,0.512,1.154l2.486,1.244
	c0.416,0.16,0.846,0.037,1.289-0.367l2.13-3.294c0.846,0.037,1.68,0.358,2.526,0.396l0.234,4.108
	c0.122,0.43,0.525,0.872,1.089,0.897l2.672,0.262c0.43-0.122,0.873-0.526,1.033-0.942l0.746-3.922
	c0.993-0.098,1.853-0.341,2.846-0.437l1.819,3.473c0.255,0.578,0.82,0.602,1.249,0.481l2.442-0.878
	c0.577-0.257,0.886-0.808,0.764-1.238l-0.812-3.851c0.725-0.392,1.448-0.783,2.186-1.456l3.134,2.545
	c0.403,0.441,0.968,0.467,1.41,0.064l1.918-1.75c0.442-0.404,0.468-0.968,0.065-1.41l-2.249-3.353
	c0.737-0.673,1.193-1.358,1.662-2.326l3.897,1.306c0.417,0.16,0.993-0.096,1.154-0.512l1.245-2.487
	c0.16-0.417-0.095-0.994-0.364-1.289l-3.429-2.274c0.321-0.834,0.495-1.533,0.535-2.379l4.121-0.521
	c0.429-0.121,0.872-0.525,0.885-0.808l0.13-2.819c0.026-0.564-0.377-1.006-0.942-1.032l-3.922-0.742
	c-0.095-0.994-0.057-1.84-0.299-2.699l3.339-1.969c0.578-0.256,0.885-0.808,0.629-1.383l-0.876-2.442
	c-0.121-0.429-0.672-0.737-1.248-0.481l-3.988,0.669c-0.391-0.725-0.78-1.449-1.172-2.173L61.524,87.617 M44.126,100.256
	c1.614,1.768,1.498,4.306-0.272,5.922c-1.622,1.481-4.162,1.366-5.775-0.402c-1.48-1.622-1.498-4.308,0.125-5.789
	C39.973,98.371,42.646,98.634,44.126,100.256"/>
<g>
	<path class="st120" d="M113.848,91.533c0-2.446,2.96-8.595,9.949-8.595c7.027,0,9.457,6.106,9.533,9.063
		c0.049,1.931,0.054,5.839,0.045,9.565h4.064c0.01-3.743,0.004-7.678-0.047-9.669c-0.139-5.407-4.448-13.022-13.595-13.022
		c-5.284,0-8.653,2.512-10.548,4.619c-2.137,2.376-3.464,5.456-3.464,8.039v9.59h4.063V91.533z"/>
	<g>
		<path class="st13" d="M141.412,97.895h-35.739c-0.957,0-1.733,0.676-1.733,1.511v26.298c0,0.834,0.776,1.511,1.733,1.511h35.739
			c0.957,0,1.733-0.676,1.733-1.511V99.405C143.145,98.571,142.369,97.895,141.412,97.895z"/>
		<rect x="103.939" y="102.479" class="st16" width="39.206" height="19.839"/>
		<path class="st120" d="M127.501,108c0-2.071-1.679-3.75-3.75-3.75c-2.071,0-3.75,1.679-3.75,3.75c0,1.207,0.573,2.278,1.459,2.964
			v3.912c0,1.208,0.979,2.188,2.188,2.188c1.208,0,2.188-0.979,2.188-2.188v-3.758C126.839,110.445,127.501,109.3,127.501,108z"/>
	</g>
</g>
<path class="st25" d="M94.043,84.628c-0.239,0.218-0.544,0.205-0.617,0.125c-0.08,0.073-0.218-0.239-0.285-0.472l-0.263-0.93
	c-0.139-0.312-0.444-0.326-0.53-0.1l-0.719,0.656c-0.167,0.298-0.479,0.437-0.632,0.43l-0.364-0.399l-0.655-0.718
	c-0.218-0.239-0.451-0.173-0.538,0.052l-0.427,0.975c-0.087,0.226-0.254,0.524-0.334,0.597c0,0-0.225-0.087-0.523-0.253
	l-0.903-0.347c-0.298-0.167-0.458-0.021-0.472,0.285l0.03,0.996c0.067,0.232-0.1,0.531-0.18,0.604c0,0-0.233,0.066-0.538,0.052
	l-0.916-0.041c-0.305-0.014-0.465,0.132-0.326,0.444l0.416,0.937c0.066,0.232,0.125,0.617,0.125,0.617
	c-0.08,0.073-0.312,0.139-0.545,0.205l-0.937,0.416c-0.232,0.066-0.32,0.292-0.101,0.531l0.735,0.645
	c0.146,0.16,0.357,0.552,0.357,0.552c-0.08,0.073-0.167,0.299-0.407,0.518l-0.718,0.656c-0.159,0.146-0.094,0.378,0.132,0.465
	l0.902,0.347c0.226,0.087,0.524,0.253,0.517,0.406c0,0-0.014,0.306-0.101,0.531l-0.5,0.895c-0.087,0.226,0.059,0.385,0.284,0.472
	l0.995-0.031c0.306,0.013,0.611,0.027,0.684,0.107c0.073,0.08,0.139,0.312,0.051,0.538l-0.048,1.069
	c-0.015,0.305,0.211,0.392,0.444,0.325l0.864-0.496c0.312-0.139,0.618-0.125,0.691-0.045c0.08-0.073,0.146,0.16,0.284,0.472
	l0.263,0.93c0.139,0.312,0.371,0.246,0.531,0.1l0.718-0.656c0.167-0.299,0.479-0.438,0.632-0.431l0.364,0.399l0.655,0.718
	c0.218,0.239,0.451,0.173,0.537-0.052l0.355-1.055c0.087-0.225,0.326-0.444,0.406-0.517c0,0,0.225,0.087,0.524,0.253l0.902,0.347
	c0.299,0.166,0.458,0.021,0.472-0.285l-0.11-0.923c0.014-0.305,0.108-0.683,0.188-0.756c0,0,0.305,0.013,0.611,0.027l0.916,0.041
	c0.305,0.014,0.392-0.212,0.327-0.444l-0.416-0.937c-0.066-0.233-0.125-0.618-0.125-0.618c0.08-0.073,0.239-0.218,0.472-0.284
	l1.011-0.337c0.232-0.066,0.319-0.291,0.1-0.531l-0.735-0.645c-0.219-0.24-0.358-0.551-0.358-0.551
	c-0.073-0.08,0.167-0.299,0.327-0.445l0.798-0.729c0.16-0.146,0.095-0.378-0.131-0.465l-0.902-0.346
	c-0.225-0.087-0.597-0.334-0.517-0.407c-0.073-0.08,0.014-0.305,0.101-0.53l0.5-0.895c0.087-0.225-0.059-0.385-0.365-0.399
	l-0.916-0.041c-0.306-0.014-0.684-0.107-0.684-0.107c-0.073-0.08-0.138-0.312-0.124-0.618l0.122-0.989
	c0.014-0.305-0.211-0.392-0.443-0.326L94.043,84.628z M92.125,89.742c0.43,0.631,0.242,1.388-0.39,1.819
	c-0.632,0.431-1.388,0.244-1.818-0.389c-0.357-0.551-0.242-1.388,0.462-1.738C90.931,89.076,91.767,89.191,92.125,89.742"/>
</svg>
