<?xml version="1.0" encoding="utf-8"?>
<!-- Generator: Adobe Illustrator 20.1.0, SVG Export Plug-In . SVG Version: 6.00 Build 0)  -->
<svg version="1.1" id="Layer_1" xmlns="http://www.w3.org/2000/svg" xmlns:xlink="http://www.w3.org/1999/xlink" x="0px" y="0px"
	 viewBox="0 0 200 144" style="enable-background:new 0 0 200 144;" xml:space="preserve">
<style type="text/css">
	.st0{fill:#E4EDF1;}
	.st1{fill:#E3E3E3;}
	.st2{fill:#5E5E5E;}
	.st3{fill:#2E2E2E;}
	.st4{fill:#7CABC2;}
	.st5{fill:#96BCCE;}
	.st6{fill:#2C3E50;}
	.st7{clip-path:url(#SVGID_2_);fill:#447995;}
	.st8{fill:#FFFFFF;}
	
		.st9{fill-rule:evenodd;clip-rule:evenodd;fill:none;stroke:#E3E3E3;stroke-width:1.3089;stroke-linecap:round;stroke-linejoin:round;stroke-miterlimit:10;stroke-dasharray:1.3089,2.6179;}
	.st10{fill:#5D5D5D;}
	.st11{fill:#C7C7C7;}
	.st12{fill:none;stroke:#909090;stroke-width:1.1744;stroke-miterlimit:10;stroke-dasharray:2.3488,3.5233;}
	.st13{fill:#395B71;}
	.st14{fill-rule:evenodd;clip-rule:evenodd;fill:#395B71;}
	.st15{fill-rule:evenodd;clip-rule:evenodd;fill:#2E2E2E;}
	.st16{fill:#2C3E58;}
	.st17{fill:#447995;}
	.st18{fill:none;}
	.st19{fill:#4889A8;}
	.st20{fill:#929090;}
	.st21{fill:#96BBCD;}
	.st22{fill:#3A5C71;}
	.st23{fill:#757575;}
	.st24{fill:#682A7A;}
	.st25{fill:#478AA9;}
	.st26{fill:#672A79;}
	.st27{fill:#334D63;}
	.st28{fill:#5D5F5E;}
	.st29{fill:#FAB516;}
	.st30{fill:#F5891F;}
	.st31{fill:#CB6D29;}
	.st32{fill:#171717;}
	.st33{fill:#CADEE6;}
	.st34{opacity:0.41;fill:#929090;}
	.st35{clip-path:url(#SVGID_4_);}
	.st36{clip-path:url(#SVGID_6_);}
	.st37{fill:#FE8B0C;}
	.st38{fill:#231F20;}
	.st39{fill:#909090;}
	.st40{fill:#2E2E2E;stroke:#8F8F8F;stroke-width:0.7512;stroke-miterlimit:10;}
	.st41{fill:#8F8F8F;}
	.st42{fill:#C6C6C6;}
	.st43{fill:#777677;}
	.st44{fill:#D9DCE1;}
	.st45{clip-path:url(#SVGID_8_);}
	.st46{fill:none;stroke:#909090;stroke-miterlimit:10;stroke-dasharray:2,2;}
	.st47{fill:#ACACAC;}
	.st48{fill-rule:evenodd;clip-rule:evenodd;fill:#7CABC2;}
	.st49{fill-rule:evenodd;clip-rule:evenodd;fill:#478AA9;}
	.st50{clip-path:url(#SVGID_10_);}
	.st51{clip-path:url(#SVGID_12_);}
	.st52{fill:#7DB912;}
	.st53{fill:#B2B9C2;}
	.st54{fill:#B0CDDA;}
	.st55{clip-path:url(#SVGID_14_);fill:#333333;}
	.st56{clip-path:url(#SVGID_14_);fill:none;}
	.st57{clip-path:url(#SVGID_14_);fill:#7DB912;}
	.st58{clip-path:url(#SVGID_14_);fill:#FFFFFF;}
	.st59{clip-path:url(#SVGID_16_);fill:#333333;}
	.st60{clip-path:url(#SVGID_16_);fill:none;}
	.st61{clip-path:url(#SVGID_16_);fill:#395B71;}
	.st62{clip-path:url(#SVGID_16_);fill:#FFFFFF;}
	.st63{clip-path:url(#SVGID_16_);fill:#D1D2D2;}
	.st64{clip-path:url(#SVGID_18_);fill:#333333;}
	.st65{clip-path:url(#SVGID_18_);fill:none;}
	.st66{clip-path:url(#SVGID_18_);fill:#478AA9;}
	.st67{clip-path:url(#SVGID_18_);fill:#FFFFFF;}
	.st68{fill:#F58B20;}
	.st69{fill:#2B2B2B;}
	.st70{fill:#3B77AD;}
	.st71{fill:#F7CD13;}
	.st72{fill:#464646;}
	.st73{fill:#929497;}
	.st74{fill:#A6A8AB;}
	.st75{fill:#2F75BB;}
	.st76{fill:none;stroke:#757575;stroke-width:0.5023;stroke-miterlimit:10;}
	.st77{fill:#3C88C6;}
	.st78{fill:#E4CB58;}
	.st79{fill:#58595B;}
	.st80{fill:#007ACC;}
	.st81{fill:#E4E4E5;}
	.st82{fill:#E73F24;}
	.st83{fill:#F58B23;}
	.st84{fill:#ADADAD;}
	.st85{fill:#959595;}
	.st86{fill-rule:evenodd;clip-rule:evenodd;fill:none;stroke:#E3E3E3;stroke-width:1.1603;stroke-miterlimit:10;}
	.st87{fill-rule:evenodd;clip-rule:evenodd;fill:none;stroke:#4889A8;stroke-width:1.1603;stroke-miterlimit:10;}
	.st88{fill-rule:evenodd;clip-rule:evenodd;fill:none;stroke:#0C8A44;stroke-width:1.1603;stroke-miterlimit:10;}
	.st89{fill:#DB58DB;}
	.st90{fill:#B4079C;}
	.st91{fill:#9A37AF;}
	.st92{fill:#721481;}
	.st93{fill:#73AA24;}
	.st94{fill:#05930C;}
	.st95{fill:#2581BF;}
	.st96{fill:#004E8C;}
	.st97{fill:none;stroke:#909090;stroke-width:0.9199;stroke-miterlimit:10;}
	.st98{fill:none;stroke:#909090;stroke-width:0.9494;stroke-miterlimit:10;}
	.st99{fill:none;stroke:#909090;stroke-width:0.8988;stroke-miterlimit:10;}
	.st100{fill:none;stroke:#909090;stroke-width:0.8481;stroke-miterlimit:10;}
	.st101{fill:none;stroke:#909090;stroke-width:0.7975;stroke-miterlimit:10;}
	.st102{fill:none;stroke:#909090;stroke-width:0.7469;stroke-miterlimit:10;}
	.st103{fill:none;stroke:#909090;stroke-width:0.6963;stroke-miterlimit:10;}
	.st104{fill:none;stroke:#447995;stroke-miterlimit:10;}
	.st105{fill:#FFFFFF;stroke:#96BCCE;stroke-width:0.75;stroke-miterlimit:10;}
	.st106{clip-path:url(#SVGID_20_);}
	.st107{fill:#08BBF1;}
	.st108{fill:#0AA5E2;}
	.st109{fill:#B2D7F0;}
	.st110{fill:#181717;}
	.st111{fill:#F3AF21;}
	.st112{fill:none;stroke:#5D5D5D;stroke-width:0.8345;stroke-miterlimit:10;}
	.st113{fill:none;stroke:#5D5D5D;stroke-width:1.3526;stroke-miterlimit:10;}
	.st114{fill-rule:evenodd;clip-rule:evenodd;fill:#7DB912;}
	.st115{fill:#333333;}
	.st116{fill:none;stroke:#FFFFFF;stroke-width:0.2247;stroke-linecap:round;stroke-linejoin:round;stroke-miterlimit:10;}
	.st117{fill:#737374;}
	.st118{fill:#515050;}
	.st119{fill:none;stroke:#000000;stroke-width:0.4495;stroke-miterlimit:1;}
	.st120{fill:#619BB5;}
	.st121{fill:none;stroke:#395B71;stroke-width:0.234;stroke-miterlimit:10;}
	.st122{fill:#32383D;}
	.st123{fill:#00BCF2;}
	.st124{fill:#2C2737;}
	.st125{fill:#201D29;}
	.st126{fill:#22BAED;}
	.st127{fill:#221F1F;}
	.st128{clip-path:url(#SVGID_22_);}
	.st129{clip-path:url(#SVGID_24_);}
	.st130{fill:#5E615F;}
	.st131{fill:none;stroke:#767676;stroke-width:0.199;stroke-miterlimit:10;}
	.st132{fill:#699F63;}
	.st133{fill-rule:evenodd;clip-rule:evenodd;fill:#333333;}
	.st134{fill-rule:evenodd;clip-rule:evenodd;fill:#699F63;}
	.st135{clip-path:url(#XMLID_3_);}
	.st136{fill:url(#SVGID_25_);}
	.st137{fill:url(#SVGID_26_);}
	.st138{fill:url(#SVGID_27_);}
	.st139{fill:url(#SVGID_28_);}
	.st140{fill:url(#SVGID_29_);}
	.st141{fill:url(#SVGID_30_);}
	.st142{fill:#00890B;}
	.st143{clip-path:url(#SVGID_32_);}
	.st144{fill:#515150;}
	.st145{fill:#457994;}
	.st146{fill:#F16424;}
	.st147{fill:#8B6AB1;}
	.st148{fill:#5C2D91;}
	.st149{clip-path:url(#SVGID_34_);fill:#447995;}
</style>
<rect class="st0" width="200" height="144"/>
<g>
	<g>
		<polygon class="st10" points="32.275,126.742 93.371,126.742 93.371,57.851 92.335,57.851 92.335,54.484 93.371,54.484 
			93.371,49.305 92.335,49.305 92.335,45.938 93.371,45.938 93.371,40.758 92.335,40.758 92.335,37.391 93.371,37.391 
			93.371,31.952 92.335,31.952 92.335,28.586 93.371,28.586 93.371,23.665 92.335,23.665 92.335,20.298 93.371,20.298 93.371,9.162 
			32.275,9.162 32.275,126.742 		"/>
		<polygon class="st18" points="32.275,126.742 93.371,126.742 93.371,57.851 92.335,57.851 92.335,54.484 93.371,54.484 
			93.371,49.305 92.335,49.305 92.335,45.938 93.371,45.938 93.371,40.758 92.335,40.758 92.335,37.391 93.371,37.391 
			93.371,31.952 92.335,31.952 92.335,28.586 93.371,28.586 93.371,23.665 92.335,23.665 92.335,20.298 93.371,20.298 93.371,9.162 
			32.275,9.162 32.275,126.742 		"/>
		<polyline class="st18" points="32.275,126.742 93.371,126.742 93.371,57.851 92.335,57.851 92.335,54.484 93.371,54.484 
			93.371,49.305 92.335,49.305 92.335,45.938 93.371,45.938 93.371,40.758 92.335,40.758 92.335,37.391 93.371,37.391 
			93.371,31.952 92.335,31.952 92.335,28.586 93.371,28.586 93.371,23.665 92.335,23.665 92.335,20.298 93.371,20.298 93.371,9.162 
			32.275,9.162 32.275,126.742 		"/>
		<polygon class="st124" points="32.275,9.162 50.915,9.162 50.915,20.298 33.57,20.298 33.57,23.665 50.915,23.665 50.915,28.586 
			33.57,28.586 33.57,31.952 50.915,31.952 50.915,37.391 33.57,37.391 33.57,40.758 50.915,40.758 50.915,126.742 32.275,126.742 
			32.275,9.162 		"/>
		<polygon class="st18" points="32.275,9.162 50.915,9.162 50.915,20.298 33.57,20.298 33.57,23.665 50.915,23.665 50.915,28.586 
			33.57,28.586 33.57,31.952 50.915,31.952 50.915,37.391 33.57,37.391 33.57,40.758 50.915,40.758 50.915,126.742 32.275,126.742 
			32.275,9.162 		"/>
		<polyline class="st18" points="32.275,9.162 50.915,9.162 50.915,20.298 33.57,20.298 33.57,23.665 50.915,23.665 50.915,28.586 
			33.57,28.586 33.57,31.952 50.915,31.952 50.915,37.391 33.57,37.391 33.57,40.758 50.915,40.758 50.915,126.742 32.275,126.742 
			32.275,9.162 		"/>
		<polygon class="st124" points="50.915,20.298 92.335,20.298 92.335,23.665 50.915,23.665 50.915,20.298 		"/>
		<polygon class="st18" points="50.915,20.298 92.335,20.298 92.335,23.665 50.915,23.665 50.915,20.298 		"/>
		<polyline class="st18" points="50.915,20.298 92.335,20.298 92.335,23.665 50.915,23.665 50.915,20.298 		"/>
		<polygon class="st125" points="33.57,20.298 50.915,20.298 50.915,23.665 33.57,23.665 33.57,20.298 		"/>
		<polygon class="st18" points="33.57,20.298 50.915,20.298 50.915,23.665 33.57,23.665 33.57,20.298 		"/>
		<polyline class="st18" points="33.57,20.298 50.915,20.298 50.915,23.665 33.57,23.665 33.57,20.298 		"/>
		<polygon class="st124" points="50.915,28.586 92.335,28.586 92.335,31.952 50.915,31.952 50.915,28.586 		"/>
		<polygon class="st18" points="50.915,28.586 92.335,28.586 92.335,31.952 50.915,31.952 50.915,28.586 		"/>
		<polyline class="st18" points="50.915,28.586 92.335,28.586 92.335,31.952 50.915,31.952 50.915,28.586 		"/>
		<polygon class="st125" points="33.57,28.586 50.915,28.586 50.915,31.952 33.57,31.952 33.57,28.586 		"/>
		<polygon class="st18" points="33.57,28.586 50.915,28.586 50.915,31.952 33.57,31.952 33.57,28.586 		"/>
		<polyline class="st18" points="33.57,28.586 50.915,28.586 50.915,31.952 33.57,31.952 33.57,28.586 		"/>
		<polygon class="st124" points="50.915,37.391 92.335,37.391 92.335,40.758 50.915,40.758 50.915,37.391 		"/>
		<polygon class="st18" points="50.915,37.391 92.335,37.391 92.335,40.758 50.915,40.758 50.915,37.391 		"/>
		<polyline class="st18" points="50.915,37.391 92.335,37.391 92.335,40.758 50.915,40.758 50.915,37.391 		"/>
		<polygon class="st125" points="33.57,37.391 50.915,37.391 50.915,40.758 33.57,40.758 33.57,37.391 		"/>
		<polygon class="st18" points="33.57,37.391 50.915,37.391 50.915,40.758 33.57,40.758 33.57,37.391 		"/>
		<polyline class="st18" points="33.57,37.391 50.915,37.391 50.915,40.758 33.57,40.758 33.57,37.391 		"/>
		<polygon class="st126" points="51.95,23.665 63.6,23.665 63.6,20.298 51.95,20.298 51.95,23.665 		"/>
		<polygon class="st18" points="51.95,23.665 63.6,23.665 63.6,20.298 51.95,20.298 51.95,23.665 		"/>
		<polygon class="st126" points="51.95,31.952 63.6,31.952 63.6,28.586 51.95,28.586 51.95,31.952 		"/>
		<polygon class="st18" points="51.95,31.952 63.6,31.952 63.6,28.586 51.95,28.586 51.95,31.952 		"/>
		<polygon class="st126" points="51.95,40.758 63.6,40.758 63.6,37.391 51.95,37.391 51.95,40.758 		"/>
		<polygon class="st18" points="51.95,40.758 63.6,40.758 63.6,37.391 51.95,37.391 51.95,40.758 		"/>
	</g>
	<circle class="st0" cx="121.605" cy="80.573" r="53.052"/>
	<path class="st17" d="M122.487,25.756c-30.367,0-55.075,24.708-55.075,55.077s24.708,55.077,55.075,55.077
		c30.371,0,55.079-24.708,55.079-55.077S152.858,25.756,122.487,25.756z M131.97,129.527c-0.889,0.173-1.797,0.289-2.701,0.413
		c3.149-4.357,5.829-10.125,7.877-16.968h11.863C144.59,120.162,138.729,125.898,131.97,129.527z M96.078,112.973h9.986
		c1.994,6.654,4.564,12.348,7.606,16.656c-0.143-0.026-0.289-0.039-0.432-0.066C106.43,125.94,100.522,120.201,96.078,112.973z
		 M83.407,84.611c0.468,8.806,2.583,17.054,5.963,24.323h-7.741c-4.843-7.019-7.894-15.341-8.576-24.323H83.407z M72.875,80.573
		c0.037-7.102,1.595-13.839,4.33-19.944h9.139c-1.941,6.201-3.02,12.919-3.051,19.944H72.875z M113.509,32.062
		c0.646-0.119,1.302-0.206,1.957-0.3c-5.001,5.428-8.974,14.056-11.343,24.828H92.075C96.661,45.592,104.272,36.878,113.509,32.062z
		 M152.974,56.59h-13.848c-2.344-10.815-6.279-19.523-11.246-25.077c1.224,0.133,2.428,0.334,3.624,0.555
		C140.756,36.874,148.377,45.586,152.974,56.59z M154.488,60.629c2.06,6.153,3.228,12.877,3.262,19.944h-16.206
		c0-7.104-0.579-13.807-1.638-19.944H154.488z M105.706,80.573c0-7.122,0.616-13.843,1.717-19.944h28.327
		c1.127,6.14,1.754,12.875,1.754,19.944H105.706z M137.433,84.611c-0.282,8.813-1.475,17.107-3.345,24.323h-24.966
		c-1.87-7.217-3.063-15.511-3.345-24.323H137.433z M108.241,56.59c2.788-12.251,7.671-21.433,13.637-25.204
		c5.643,4.203,10.318,13.353,13.043,25.204H108.241z M103.319,60.629c-1.071,6.126-1.652,12.835-1.652,19.944H87.332
		c0.033-7.061,1.183-13.792,3.239-19.944H103.319z M87.437,84.611h14.346c0.264,8.831,1.339,17.082,3.135,24.323H93.83
		C90.223,101.784,87.937,93.507,87.437,84.611z M122.487,130.459c-1.069,0-2.115-0.093-3.167-0.16
		c-3.576-3.806-6.705-9.816-9.054-17.326h22.679c-2.368,7.571-5.528,13.62-9.141,17.42
		C123.362,130.404,122.931,130.459,122.487,130.459z M138.265,108.934c1.799-7.249,2.893-15.482,3.157-24.323h16.215
		c-0.5,8.887-2.752,17.178-6.353,24.323H138.265z M161.675,84.611h10.249c-0.682,8.982-3.733,17.304-8.576,24.323h-7.637
		C159.091,101.665,161.206,93.417,161.675,84.611z M161.789,80.573c-0.031-7.023-1.114-13.739-3.052-19.944h9.035
		c2.735,6.104,4.293,12.842,4.33,19.944H161.789z M165.747,56.59h-8.428c-3.106-8.013-7.708-14.98-13.339-20.42
		C153.154,40.604,160.77,47.744,165.747,56.59z M101.311,36.019c-5.721,5.459-10.4,12.477-13.544,20.572H79.23
		C84.264,47.643,91.997,40.439,101.311,36.019z M84.746,112.973h6.688c2.704,4.829,6.055,9.036,9.81,12.642
		C94.887,122.586,89.267,118.274,84.746,112.973z M143.991,125.49c3.692-3.581,6.986-7.751,9.656-12.517h6.585
		C155.771,118.202,150.241,122.468,143.991,125.49z"/>
</g>
</svg>
