<svg id="Layer_1" data-name="Layer 1" xmlns="http://www.w3.org/2000/svg" viewBox="0 0 400 140"><defs><style>.cls-1{fill:#b0cdda;}.cls-2{fill:#515150;}.cls-3{fill:#333;}.cls-4{fill:#2e2e2e;}.cls-5{fill:none;}.cls-6{fill:#00bcf2;}.cls-7{fill:#478aa9;}.cls-8{fill:#619bb5;}.cls-9{fill:#395b71;}.cls-10{fill:#2c3e58;}</style></defs><title>vs_web-5</title><path class="cls-1" d="M255.94,128H158.28c-9.36,0-15.25-.07-19.61-.46l-.84-.08a30.92,30.92,0,0,1-9.94-2.72l-.51-.22a33.58,33.58,0,0,1,21.18-63.27,36.5,36.5,0,0,1,34-24.23,35.49,35.49,0,0,1,15.77,3.69,35.15,35.15,0,0,1,29.89-16.79c17.41,0,32.34,13.31,35.07,30.75C279.83,58.15,292,73.26,292,90.89s-12.2,32.9-29,36.28A30.42,30.42,0,0,1,255.94,128Z"/><polygon class="cls-2" points="280 107 225 107 225 57 226 57 226 54 225 54 225 49 226 49 226 46 225 46 225 42 226 42 226 39 225 39 225 34 226 34 226 31 225 31 225 26 226 26 226 23 225 23 225 13 280 13 280 107"/><rect x="260" y="31" width="20" height="3"/><rect x="260" y="39" width="20" height="3"/><rect x="260" y="23" width="20" height="3"/><rect class="cls-3" x="226" y="31" width="24" height="3"/><rect class="cls-3" x="226" y="39" width="24" height="3"/><rect class="cls-3" x="226" y="23" width="24" height="3"/><polygon class="cls-4" points="260 13 260 23 277 23 277 26 260 26 260 31 277 31 277 34 260 34 260 39 277 39 277 42 260 42 260 107 280 107 280 13 260 13"/><polygon class="cls-5" points="263.14 22.89 226.1 22.89 226.1 25.9 263.14 25.9 263.14 22.89 263.14 22.89"/><polyline class="cls-5" points="263.14 22.89 226.1 22.89 226.1 25.9 263.14 25.9 263.14 22.89"/><polygon class="cls-6" points="260 26 250 26 250 23 260 23 260 26 260 26"/><polygon class="cls-5" points="262.22 25.9 251.8 25.9 251.8 22.89 262.22 22.89 262.22 25.9 262.22 25.9"/><polygon class="cls-6" points="260 34 250 34 250 31 260 31 260 34 260 34"/><polygon class="cls-6" points="260 42 250 42 250 39 260 39 260 42 260 42"/><path class="cls-7" d="M176.25,80.33a1,1,0,0,0,1.16.36l2.06-.78a1.13,1.13,0,0,0,.48-1.37l-.76-2.59a1.56,1.56,0,0,1,.5-1.91c.23-.42.67-.72.9-1.14a1.89,1.89,0,0,1,1.83-.36l2.86.74a1.28,1.28,0,0,0,1.09-.5l.93-2.21c.11-.21-.08-.86-.71-1.2L184.06,68a1.37,1.37,0,0,1-.8-1.52l-.21-.11a1.83,1.83,0,0,0,.15-1.28,1.49,1.49,0,0,1,1-1.89l2.29-1.2a1.34,1.34,0,0,0,.48-1.37l-1-2.17a.83.83,0,0,0-1.16-.36l-2.59.76a1.61,1.61,0,0,1-1.91-.49c-.42-.23-.72-.67-1.14-.9a2.71,2.71,0,0,1-.57-1.94l.84-2.54a1.22,1.22,0,0,0-.59-1.41L176.77,51a1,1,0,0,0-1.3.38L174.31,54a1.72,1.72,0,0,1-1.64,1,5.23,5.23,0,0,0-1.39.06l-.21-.11a1.78,1.78,0,0,1-1.68-.91l-1.29-2.61a1,1,0,0,0-1.16-.36l-2.17,1a.83.83,0,0,0-.36,1.16L165,56c.29,1,.06,1.39-.38,1.7-.23.42-.67.72-.9,1.15a1.78,1.78,0,0,1-1.94.57l-2.74-1a1.31,1.31,0,0,0-1.2.7l-.93,2.21a1.49,1.49,0,0,0,.71,1.2l2.51,1.37c.84.46,1.14.9.8,1.53.1.32.08.86.27,1.51,0,.53,0,1.07-1.12,1.56l-2.4,1.41a1.05,1.05,0,0,0-.36,1.16l1,2.17a1.07,1.07,0,0,0,1,.57l2.71-1c1-.29,1.39-.06,1.7.38A15.1,15.1,0,0,1,165,74.48a1.51,1.51,0,0,1,.69,1.74l-1,2.75a1.31,1.31,0,0,0,.7,1.2l2,.82a1,1,0,0,0,1.3-.38L169.92,78a1.72,1.72,0,0,1,1.64-1l1.6.06c.65-.19,1.07,0,1.68.91l1.41,2.4m1.24-16.74a5.94,5.94,0,0,1-3.05,7.59,5.51,5.51,0,0,1-7.58-3,5.67,5.67,0,0,1,2.94-7.38,5.74,5.74,0,0,1,7.7,2.84"/><path class="cls-7" d="M161.58,80.48a1.07,1.07,0,0,0,.06-1.41L159.76,77a1.26,1.26,0,0,0-1.41-.06l-3.21,2.12c-.68-.46-1.51-1.06-2.19-1.51l1-3.91a1,1,0,0,0-.51-1.15l-2.35-1.09a.89.89,0,0,0-1.29.36l-2.28,3.43A8.23,8.23,0,0,0,145,74.5l-.38-4a1,1,0,0,0-.94-1l-2.69,0c-.42-.16-.86.24-1,.66l-.89,4.06a8.3,8.3,0,0,0-2.56.45l-2-3.62a1.42,1.42,0,0,0-1.25-.48l-2.59,1a1,1,0,0,0-.61,1.1l.81,3.85c-.73.39-1.46,1.06-2.19,1.46l-3.13-2.54a.91.91,0,0,0-1.28.08l-1.92,1.75a.91.91,0,0,0-.2,1.26l2.25,3.35a11.53,11.53,0,0,0-1.66,2.33l-3.9-1.31a1.23,1.23,0,0,0-1.3.65l-1.1,2.35a1.22,1.22,0,0,0,.5,1.43l3.29,2.13c-.32.83-.36,1.68-.68,2.51l-4,.39a1.23,1.23,0,0,0-.9,1.09L114.65,96a1.23,1.23,0,0,0,.79,1.17l4.07.61a16.64,16.64,0,0,0,.43,2.85l-3.62,2a.89.89,0,0,0-.48,1.25l.88,2.44A1.32,1.32,0,0,0,118,107l4-.95,1.17,2.17-2.55,3.14a1.32,1.32,0,0,0,.08,1.27l1.88,2.06a1.07,1.07,0,0,0,1.26.2l3.35-2.25c.68.46,1.51,1.06,2.19,1.51l-1,3.91a1,1,0,0,0,.51,1.15l2.49,1.24a1.21,1.21,0,0,0,1.29-.37l2.13-3.29c.85,0,1.68.36,2.53.4l.23,4.11a1.23,1.23,0,0,0,1.09.9l2.67.26a1.7,1.7,0,0,0,1-.94l.75-3.92c1-.1,1.85-.34,2.85-.44l1.82,3.47a1,1,0,0,0,1.25.48l2.44-.88a1.15,1.15,0,0,0,.76-1.24l-.81-3.85a10.14,10.14,0,0,0,2.19-1.46l3.13,2.54a.94.94,0,0,0,1.41.06L160,114.6a.94.94,0,0,0,.07-1.41l-2.25-3.35a7,7,0,0,0,1.66-2.33l3.9,1.31a1,1,0,0,0,1.15-.51l1.24-2.49a1.42,1.42,0,0,0-.36-1.29L162,102.26a7.2,7.2,0,0,0,.53-2.38l4.12-.52c.43-.12.87-.53.89-.81l.13-2.82a1,1,0,0,0-.94-1L162.79,94a15.38,15.38,0,0,0-.3-2.7l3.34-2a1,1,0,0,0,.63-1.38l-.88-2.44a.89.89,0,0,0-1.25-.48l-4,.67-1.17-2.17,2.4-3m-17.4,12.64a4.09,4.09,0,0,1-.27,5.92,4.05,4.05,0,0,1-5.78-.4,4.1,4.1,0,1,1,6-5.52"/><path class="cls-8" d="M214,84.39c-.1-2.45,2.86-8.59,9.85-8.59s9.46,6.11,9.53,9.06c0,1.93.05,5.84,0,9.14h4.06c0-3.32,0-7.25,0-9.24a13.45,13.45,0,0,0-13.59-13,13.79,13.79,0,0,0-10.55,4.62c-2.14,2.38-3.46,5.46-3.3,8V95h4Z"/><path class="cls-9" d="M241.28,91H205.72A1.62,1.62,0,0,0,204,92.49v26a1.62,1.62,0,0,0,1.72,1.49h35.55a1.62,1.62,0,0,0,1.72-1.49v-26A1.62,1.62,0,0,0,241.28,91Z"/><rect class="cls-10" x="204" y="95" width="39" height="20"/><path class="cls-8" d="M227.52,101.09A3.43,3.43,0,1,0,222,103.8v3.42a2.11,2.11,0,0,0,1.71,2.13,2,2,0,0,0,2.29-2v-3.44A3.42,3.42,0,0,0,227.52,101.09Z"/><path class="cls-7" d="M194.1,77.49a.53.53,0,0,1-.62.12c-.08.07-.22-.24-.28-.47l-.26-.93c-.14-.31-.44-.33-.53-.1l-.72.66a.82.82,0,0,1-.63.43l-.36-.4-.66-.72c-.22-.24-.45-.17-.54.05l-.43,1a2.24,2.24,0,0,1-.33.6,4.48,4.48,0,0,1-.52-.25l-.9-.35c-.3-.17-.46,0-.47.28l0,1a.74.74,0,0,1-.18.6,1.87,1.87,0,0,1-.54.05l-.92,0c-.3,0-.46.13-.33.44l.42.94c.07.23.13.62.13.62a1.82,1.82,0,0,1-.55.21l-.94.42c-.23.07-.32.29-.1.53l.74.65a3.81,3.81,0,0,1,.36.55,3.83,3.83,0,0,1-.41.52l-.72.66c-.16.15-.09.38.13.46l.9.35c.23.09.52.25.52.41a2,2,0,0,1-.1.53l-.5.89c-.09.23.06.39.28.47l1,0a1.5,1.5,0,0,1,.68.11.58.58,0,0,1,.05.54l0,1.07c0,.3.21.39.44.33l.86-.5a.77.77,0,0,1,.69,0c.08-.07.15.16.28.47l.26.93c.14.31.37.25.53.1l.72-.66a.82.82,0,0,1,.63-.43l.36.4.66.72c.22.24.45.17.54-.05l.36-1.06a1.6,1.6,0,0,1,.41-.52,4.53,4.53,0,0,1,.52.25l.9.35c.3.17.46,0,.47-.28l-.11-.92a1.63,1.63,0,0,1,.19-.76l.61,0,.92,0c.31,0,.39-.21.33-.44l-.42-.94c-.07-.23-.12-.62-.12-.62a1.17,1.17,0,0,1,.47-.28l1-.34c.23-.07.32-.29.1-.53l-.73-.65a2.36,2.36,0,0,1-.36-.55c-.07-.08.17-.3.33-.44l.8-.73c.16-.15.09-.38-.13-.46l-.9-.35c-.23-.09-.6-.33-.52-.41-.07-.08,0-.3.1-.53l.5-.9c.09-.23-.06-.39-.36-.4l-.92,0a4.24,4.24,0,0,1-.68-.11,1,1,0,0,1-.12-.62l.12-1c0-.3-.21-.39-.44-.33Zm-1.92,5.11A1.32,1.32,0,0,1,190,84a1.2,1.2,0,0,1,.46-1.74,1.3,1.3,0,0,1,1.75.31"/></svg>