<?xml version="1.0" encoding="utf-8"?>
<!-- Generator: Adobe Illustrator 20.1.0, SVG Export Plug-In . SVG Version: 6.00 Build 0)  -->
<svg version="1.1" xmlns="http://www.w3.org/2000/svg" xmlns:xlink="http://www.w3.org/1999/xlink" x="0px" y="0px"
	 viewBox="0 0 160 80" style="enable-background:new 0 0 160 80;" xml:space="preserve" width="160" height="80">
<style type="text/css">
	.st0{fill:#DCDCDC;}
	.st1{fill:#C1E3F1;}
	.st2{fill:#FFFFFF;}
	.st3{fill:#888888;}
	.st4{fill:#666666;}
	.st5{fill:#3999C6;}
	.st6{fill:#444444;}
	.st7{fill:#0072C6;}
	.st8{fill:#3E3E3E;}
	.st9{fill:#804998;}
	.st10{fill:#8B6AB1;}
	.st11{fill:#5C2D91;}
	.st12{fill:#A0A1A2;enable-background:new    ;}
	.st13{fill:#888888;enable-background:new    ;}
	.st14{fill:#73AA24;}
	.st15{fill:#05930C;}
	.st16{fill:none;stroke:#DD5900;stroke-width:2;stroke-linecap:round;stroke-miterlimit:10;}
	.st17{fill:none;stroke:#0072C6;stroke-width:2;stroke-linecap:round;stroke-miterlimit:10;}
	.st18{fill:#A0A1A2;}
	.st19{fill:none;stroke:#888888;stroke-width:6;stroke-miterlimit:10;stroke-dasharray:1,8;}
	.st20{fill:#A3A3A3;}
	.st21{fill:none;stroke:#3999C6;stroke-width:6;stroke-miterlimit:10;stroke-dasharray:1,8;}
	.st22{fill:#FEE990;}
</style>
<g id="Layer_1">
	<g>
		<g>
			<polygon class="st0" points="13.25,40.077 2,21.038 13.25,2 35.75,2 47,21.038 35.75,40.077 			"/>
		</g>
	</g>
	<g>
		<g>
			<polygon class="st1" points="93.25,40.077 82,21.038 93.25,2 115.75,2 127,21.038 115.75,40.077 			"/>
		</g>
	</g>
	<g>
		<ellipse class="st19" cx="24" cy="17.346" rx="12" ry="10.654"/>
		<g>
			<path class="st20" d="M27.766,14.005L27.766,14.005C27.766,14.005,27.766,14.005,27.766,14.005
				c-0.193-0.127-0.393-0.245-0.601-0.352c-0.006-0.003-0.011-0.006-0.017-0.009c-0.062-0.031-0.124-0.062-0.187-0.091
				c-0.017-0.008-0.034-0.016-0.052-0.024c-0.06-0.028-0.121-0.055-0.183-0.081c-0.016-0.007-0.033-0.013-0.049-0.02
				c-0.187-0.077-0.379-0.147-0.575-0.208c-0.037-0.012-0.075-0.023-0.112-0.034c-0.049-0.014-0.098-0.028-0.147-0.041
				c-0.045-0.012-0.089-0.023-0.135-0.034c-0.045-0.011-0.091-0.022-0.136-0.033c-0.06-0.013-0.12-0.026-0.181-0.038
				c-0.036-0.007-0.071-0.015-0.107-0.021c-0.088-0.016-0.177-0.03-0.267-0.043c-0.034-0.005-0.069-0.009-0.104-0.013
				c-0.065-0.008-0.13-0.016-0.196-0.022c-0.037-0.004-0.073-0.007-0.11-0.01c-0.068-0.006-0.137-0.01-0.206-0.014
				c-0.032-0.002-0.064-0.004-0.097-0.005c-0.101-0.004-0.202-0.007-0.305-0.007c-0.899,0-1.746,0.162-2.512,0.456
				c-0.191,0.073-0.378,0.155-0.558,0.244c-0.09,0.045-0.179,0.091-0.267,0.14c-0.175,0.097-0.344,0.201-0.507,0.313
				c-0.163,0.111-0.319,0.23-0.469,0.354c-1.273,1.061-2.056,2.592-2.056,4.293c0,1.096,0.325,2.122,0.897,2.996
				c0.048,0.073,0.097,0.145,0.148,0.215c0.153,0.212,0.321,0.415,0.503,0.606c0.001,0.001,0.001,0.002,0.002,0.002
				c0.004,0.004,0.008,0.008,0.012,0.012c0.035,0.036,0.07,0.072,0.106,0.108c0.011,0.012,0.022,0.024,0.034,0.036
				c0.003,0.003,0.005,0.006,0.008,0.009l0,0c1.897,1.996,2.59,4.752,2.59,4.752h4.161c0,0,0.689-2.769,2.578-4.766
				c1.061-1.038,1.7-2.435,1.7-3.972C30.371,16.771,29.359,15.059,27.766,14.005z"/>
			<g>
				<defs>
					<path id="SVGID_1_" d="M27.766,14.005L27.766,14.005C27.766,14.005,27.766,14.005,27.766,14.005
						c-0.193-0.127-0.393-0.245-0.601-0.352c-0.006-0.003-0.011-0.006-0.017-0.009c-0.062-0.031-0.124-0.062-0.187-0.091
						c-0.017-0.008-0.034-0.016-0.052-0.024c-0.06-0.028-0.121-0.055-0.183-0.081c-0.016-0.007-0.033-0.013-0.049-0.02
						c-0.187-0.077-0.379-0.147-0.575-0.208c-0.037-0.012-0.075-0.023-0.112-0.034c-0.049-0.014-0.098-0.028-0.147-0.041
						c-0.045-0.012-0.089-0.023-0.135-0.034c-0.045-0.011-0.091-0.022-0.136-0.033c-0.06-0.013-0.12-0.026-0.181-0.038
						c-0.036-0.007-0.071-0.015-0.107-0.021c-0.088-0.016-0.177-0.03-0.267-0.043c-0.034-0.005-0.069-0.009-0.104-0.013
						c-0.065-0.008-0.13-0.016-0.196-0.022c-0.037-0.004-0.073-0.007-0.11-0.01c-0.068-0.006-0.137-0.01-0.206-0.014
						c-0.032-0.002-0.064-0.004-0.097-0.005c-0.101-0.004-0.202-0.007-0.305-0.007c-0.899,0-1.746,0.162-2.512,0.456
						c-0.191,0.073-0.378,0.155-0.558,0.244c-0.09,0.045-0.179,0.091-0.267,0.14c-0.175,0.097-0.344,0.201-0.507,0.313
						c-0.163,0.111-0.319,0.23-0.469,0.354c-1.273,1.061-2.056,2.592-2.056,4.293c0,1.096,0.325,2.122,0.897,2.996
						c0.048,0.073,0.097,0.145,0.148,0.215c0.153,0.212,0.321,0.415,0.503,0.606c0.001,0.001,0.001,0.002,0.002,0.002
						c0.004,0.004,0.008,0.008,0.012,0.012c0.035,0.036,0.07,0.072,0.106,0.108c0.011,0.012,0.022,0.024,0.034,0.036
						c0.003,0.003,0.005,0.006,0.008,0.009l0,0c1.897,1.996,2.59,4.752,2.59,4.752h4.161c0,0,0.689-2.769,2.578-4.766
						c1.061-1.038,1.7-2.435,1.7-3.972C30.371,16.771,29.359,15.059,27.766,14.005z"/>
				</defs>
				<clipPath id="SVGID_2_">
					<use xlink:href="#SVGID_1_"  style="overflow:visible;"/>
				</clipPath>
			</g>
			<polygon class="st8" points="24.935,32.387 23.077,32.387 22.001,31.09 26.011,31.09 			"/>
			<rect x="21.765" y="27.382" class="st3" width="4.482" height="3.977"/>
			<polygon class="st8" points="27.036,15.776 24.383,15.776 21.886,19.288 22.832,19.288 21.027,22.176 25.242,19.054 
				23.977,19.054 			"/>
			<polygon class="st8" points="21.749,29.316 26.268,29.316 21.749,28.846 			"/>
			<polygon class="st8" points="21.749,28.557 26.268,28.557 21.749,28.087 			"/>
			<polygon class="st8" points="21.749,30.075 26.268,30.075 21.749,29.605 			"/>
			<polygon class="st8" points="21.749,30.834 26.268,30.834 21.749,30.364 			"/>
		</g>
	</g>
	<g>
		<ellipse class="st21" cx="104" cy="17.346" rx="12" ry="10.654"/>
		<g>
			<path class="st22" d="M107.766,14.005L107.766,14.005C107.766,14.005,107.766,14.005,107.766,14.005
				c-0.193-0.127-0.393-0.245-0.601-0.352c-0.006-0.003-0.011-0.006-0.017-0.009c-0.062-0.031-0.124-0.062-0.187-0.091
				c-0.017-0.008-0.034-0.016-0.052-0.024c-0.06-0.028-0.121-0.055-0.183-0.081c-0.016-0.007-0.033-0.013-0.049-0.02
				c-0.187-0.077-0.379-0.147-0.575-0.208c-0.037-0.012-0.075-0.023-0.112-0.034c-0.049-0.014-0.098-0.028-0.147-0.041
				c-0.045-0.012-0.089-0.023-0.135-0.034c-0.045-0.011-0.091-0.022-0.136-0.033c-0.06-0.013-0.12-0.026-0.181-0.038
				c-0.036-0.007-0.071-0.015-0.107-0.021c-0.088-0.016-0.177-0.03-0.267-0.043c-0.034-0.005-0.069-0.009-0.104-0.013
				c-0.065-0.008-0.13-0.016-0.196-0.022c-0.037-0.004-0.073-0.007-0.11-0.01c-0.068-0.006-0.137-0.01-0.206-0.014
				c-0.032-0.002-0.064-0.004-0.097-0.005c-0.101-0.004-0.202-0.007-0.305-0.007c-0.899,0-1.746,0.162-2.512,0.456
				c-0.191,0.073-0.378,0.155-0.558,0.244c-0.09,0.045-0.179,0.091-0.267,0.14c-0.175,0.097-0.344,0.201-0.507,0.313
				c-0.163,0.111-0.319,0.23-0.469,0.354c-1.273,1.061-2.056,2.592-2.056,4.293c0,1.096,0.325,2.122,0.897,2.996
				c0.048,0.073,0.097,0.145,0.148,0.215c0.153,0.212,0.321,0.415,0.503,0.606c0.001,0.001,0.001,0.002,0.002,0.002
				c0.004,0.004,0.008,0.008,0.012,0.012c0.035,0.036,0.07,0.072,0.106,0.108c0.011,0.012,0.022,0.024,0.034,0.036
				c0.003,0.003,0.005,0.006,0.008,0.009l0,0c1.897,1.996,2.59,4.752,2.59,4.752h4.161c0,0,0.689-2.769,2.578-4.766
				c1.061-1.038,1.7-2.435,1.7-3.972C110.371,16.771,109.359,15.059,107.766,14.005z"/>
			<g>
				<defs>
					<path id="SVGID_3_" d="M107.766,14.005L107.766,14.005C107.766,14.005,107.766,14.005,107.766,14.005
						c-0.193-0.127-0.393-0.245-0.601-0.352c-0.006-0.003-0.011-0.006-0.017-0.009c-0.062-0.031-0.124-0.062-0.187-0.091
						c-0.017-0.008-0.034-0.016-0.052-0.024c-0.06-0.028-0.121-0.055-0.183-0.081c-0.016-0.007-0.033-0.013-0.049-0.02
						c-0.187-0.077-0.379-0.147-0.575-0.208c-0.037-0.012-0.075-0.023-0.112-0.034c-0.049-0.014-0.098-0.028-0.147-0.041
						c-0.045-0.012-0.089-0.023-0.135-0.034c-0.045-0.011-0.091-0.022-0.136-0.033c-0.06-0.013-0.12-0.026-0.181-0.038
						c-0.036-0.007-0.071-0.015-0.107-0.021c-0.088-0.016-0.177-0.03-0.267-0.043c-0.034-0.005-0.069-0.009-0.104-0.013
						c-0.065-0.008-0.13-0.016-0.196-0.022c-0.037-0.004-0.073-0.007-0.11-0.01c-0.068-0.006-0.137-0.01-0.206-0.014
						c-0.032-0.002-0.064-0.004-0.097-0.005c-0.101-0.004-0.202-0.007-0.305-0.007c-0.899,0-1.746,0.162-2.512,0.456
						c-0.191,0.073-0.378,0.155-0.558,0.244c-0.09,0.045-0.179,0.091-0.267,0.14c-0.175,0.097-0.344,0.201-0.507,0.313
						c-0.163,0.111-0.319,0.23-0.469,0.354c-1.273,1.061-2.056,2.592-2.056,4.293c0,1.096,0.325,2.122,0.897,2.996
						c0.048,0.073,0.097,0.145,0.148,0.215c0.153,0.212,0.321,0.415,0.503,0.606c0.001,0.001,0.001,0.002,0.002,0.002
						c0.004,0.004,0.008,0.008,0.012,0.012c0.035,0.036,0.07,0.072,0.106,0.108c0.011,0.012,0.022,0.024,0.034,0.036
						c0.003,0.003,0.005,0.006,0.008,0.009l0,0c1.897,1.996,2.59,4.752,2.59,4.752h4.161c0,0,0.689-2.769,2.578-4.766
						c1.061-1.038,1.7-2.435,1.7-3.972C110.371,16.771,109.359,15.059,107.766,14.005z"/>
				</defs>
				<clipPath id="SVGID_4_">
					<use xlink:href="#SVGID_3_"  style="overflow:visible;"/>
				</clipPath>
			</g>
			<polygon class="st8" points="104.935,32.387 103.077,32.387 102.001,31.09 106.011,31.09 			"/>
			<rect x="101.765" y="27.382" class="st3" width="4.482" height="3.977"/>
			<polygon class="st8" points="107.036,15.776 104.383,15.776 101.886,19.288 102.832,19.288 101.027,22.176 105.242,19.054 
				103.977,19.054 			"/>
			<polygon class="st8" points="101.749,29.316 106.268,29.316 101.749,28.846 			"/>
			<polygon class="st8" points="101.749,28.557 106.268,28.557 101.749,28.087 			"/>
			<polygon class="st8" points="101.749,30.075 106.268,30.075 101.749,29.605 			"/>
			<polygon class="st8" points="101.749,30.834 106.268,30.834 101.749,30.364 			"/>
		</g>
	</g>
	<g>
		<polygon class="st11" points="39,79 26,57 39,35 65,35 78,57 65,79 		"/>
	</g>
	<g>
		<polygon class="st11" points="119,79 106,57 119,35 145,35 158,57 145,79 		"/>
	</g>
	<g>
		<path class="st2" d="M57.5,43L46.391,54.116L39.3,48.6L36.5,50v14l2.8,1.4l7.091-5.516L57.5,71l7-2.8V45.8L57.5,43z M39.3,61.2
			v-8.4l4.2,4.2L39.3,61.2z M50.101,57l7.399-5.754v11.508L50.101,57z"/>
	</g>
	<g>
		<path class="st2" d="M138,43l-11.109,11.116L119.8,48.6L117,50v14l2.8,1.4l7.091-5.516L138,71l7-2.8V45.8L138,43z M119.8,61.2
			v-8.4L124,57L119.8,61.2z M130.601,57L138,51.246v11.508L130.601,57z"/>
	</g>
</g>
<g id="Layer_2">
</g>
</svg>
